<svg id="Capa_1" data-name="Capa 1" xmlns="http://www.w3.org/2000/svg" xmlns:xlink="http://www.w3.org/1999/xlink" viewBox="0 0 190 78"><defs><style>.cls-1{fill:none;}.cls-2{fill:#070308;}.cls-3{fill:url(#New_Pattern_16);}</style><pattern id="New_Pattern_16" data-name="New Pattern 16" width="460" height="481.62" patternTransform="translate(-716.53 -821.26) scale(0.11)" patternUnits="userSpaceOnUse" viewBox="0 0 460 481.62"><rect class="cls-1" width="460" height="481.62"/><path class="cls-2" d="M784.49,175.09c7.55-23.21,16.16-43.17,22.28-54.21,3.55-6.4,7.33-7.28,13.87,5.09,12.25,23.18,20.15,42.15,20.42,44.84C842.17,181.91,780.93,186,784.49,175.09Z"/><path class="cls-2" d="M615.07,140.12c6-18.57,12.93-34.55,17.83-43.39,2.84-5.12,5.86-5.83,11.1,4.08,9.8,18.55,16.13,33.73,16.34,35.88C661.23,145.57,612.22,148.87,615.07,140.12Z"/><path class="cls-2" d="M559.46,52.8c4.36-14.67,9.32-27.28,12.86-34.26,2-4,4.23-4.6,8,3.22,7.07,14.65,11.63,26.64,11.78,28.33C592.73,57.11,557.4,59.71,559.46,52.8Z"/><path class="cls-2" d="M695.41,13c-11.7-10.73-54-8.07-50.33,23.6C648,61.81,669.37,73.4,687.8,61.42c5.16-3.35,14-6.16,15.41-14.44C704.5,39.45,707.11,23.78,695.41,13Z"/><path class="cls-2" d="M743.3,152c-8.82-7.74-40-5.08-36.81,18.27,2.58,18.55,18.55,26.76,32,17.61,3.76-2.56,10.24-4.79,11.15-10.92C750.46,171.41,752.13,159.78,743.3,152Z"/><path class="cls-2" d="M719.59,86.88c-7-7.2-32.24-5.42-30,15.84,1.75,16.89,14.5,24.67,25.5,16.63,3.08-2.25,8.35-4.14,9.2-9.69C725,104.61,726.57,94.09,719.59,86.88Z"/><path class="cls-2" d="M752.05,69.2a230.19,230.19,0,0,0,.62,28c1.11,14.11.77,13.71,17.39,12.95,29.86-1.36,33.77-2.11,30.95-23.36-3.25-24.51,1.22-23-14.21-23.69C760,62,752.62,62.94,752.05,69.2Z"/><path class="cls-2" d="M775.62,220.71a206.65,206.65,0,0,0,.54,24.51c1,12.36.66,12,14.85,11.35,25.49-1.17,28.83-1.83,26.41-20.44-2.79-21.46,1-20.17-12.14-20.75C782.44,214.36,776.1,215.22,775.62,220.71Z"/><path class="cls-2" d="M646.34,180.14s-.48,7.37,0,17.68c.41,8.92.24,8.66,8.86,8.42,15.49-.44,17.52-.86,16.3-14.31-1.4-15.52.9-14.52-7.09-15.15C650.56,175.68,646.7,176.19,646.34,180.14Z"/><path class="cls-2" d="M466.14,365.39c7.55-23.21,16.16-43.17,22.28-54.22,3.55-6.4,7.32-7.28,13.87,5.09,12.25,23.18,20.15,42.15,20.42,44.84C523.82,372.2,462.58,376.32,466.14,365.39Z"/><path class="cls-2" d="M694.21,268.64c6-18.57,12.93-34.55,17.83-43.38,2.84-5.12,5.86-5.83,11.1,4.08,9.8,18.55,16.12,33.73,16.34,35.88C740.37,274.1,691.36,277.39,694.21,268.64Z"/><path class="cls-2" d="M799.79,388.93c4.36-14.67,9.32-27.28,12.86-34.26,2-4,4.23-4.6,8,3.22,7.07,14.65,11.63,26.64,11.78,28.33C833.07,393.23,797.74,395.84,799.79,388.93Z"/><path class="cls-2" d="M728.28,306.09c-11.7-10.73-54-8.07-50.32,23.6,2.93,25.16,24.29,36.75,42.72,24.77,5.16-3.35,14-6.16,15.41-14.44C737.37,332.5,740,316.82,728.28,306.09Z"/><path class="cls-2" d="M500,220.74c-8.82-7.74-40-5.08-36.81,18.27,2.58,18.55,18.55,26.76,32,17.61,3.76-2.56,10.24-4.79,11.15-10.92C507.2,240.11,508.87,228.48,500,220.74Z"/><path class="cls-2" d="M800.17,285.95c-7-7.2-32.24-5.42-30,15.84,1.75,16.89,14.5,24.67,25.5,16.63,3.08-2.25,8.35-4.14,9.2-9.69C805.6,303.67,807.15,293.15,800.17,285.95Z"/><path class="cls-2" d="M544.55,189a230.16,230.16,0,0,0,.62,28c1.11,14.11.77,13.71,17.39,13,29.86-1.36,33.77-2.11,30.95-23.36-3.25-24.51,1.22-23-14.2-23.69C552.55,181.77,545.12,182.76,544.55,189Z"/><path class="cls-2" d="M566.17,335.46a206.69,206.69,0,0,0,.54,24.52c1,12.36.66,12,14.85,11.35,25.5-1.17,28.83-1.83,26.41-20.44-2.79-21.47,1-20.17-12.14-20.75C573,329.12,566.66,330,566.17,335.46Z"/><path class="cls-2" d="M727.69,388.36s-.48,7.37,0,17.68c.41,8.92.24,8.66,8.86,8.42,15.49-.44,17.52-.86,16.3-14.31-1.4-15.52.9-14.52-7.09-15.15C731.92,383.9,728.06,384.42,727.69,388.36Z"/><path class="cls-2" d="M601.51,287.67c7.55-23.21,16.16-43.17,22.28-54.22,3.55-6.4,7.33-7.28,13.87,5.09,12.25,23.18,20.15,42.15,20.42,44.84C659.19,294.48,598,298.6,601.51,287.67Z"/><path class="cls-2" d="M466.63,62.78c6-18.57,12.93-34.55,17.83-43.39,2.84-5.12,5.86-5.83,11.1,4.08C505.36,42,511.69,57.2,511.9,59.35,512.79,68.23,463.78,71.54,466.63,62.78Z"/><path class="cls-2" d="M865.45,272.87c4.36-14.67,9.32-27.28,12.86-34.26,2-4,4.23-4.6,8,3.22,7.07,14.65,11.63,26.64,11.78,28.33C898.73,277.18,863.4,279.78,865.45,272.87Z"/><path class="cls-2" d="M911,155.88c-11.7-10.73-54-8.07-50.32,23.6,2.93,25.16,24.29,36.75,42.72,24.77,5.16-3.35,14-6.16,15.41-14.44C920.12,182.29,922.73,166.61,911,155.88Z"/><path class="cls-2" d="M890.41,85.6c-8.82-7.74-40-5.08-36.81,18.27,2.58,18.55,18.55,26.76,32,17.61,3.76-2.56,10.24-4.78,11.15-10.92C897.56,105,899.23,93.33,890.41,85.6Z"/><path class="cls-2" d="M804.43,9.82c-7-7.2-32.24-5.42-30,15.84,1.75,16.89,14.5,24.67,25.5,16.63,3.08-2.25,8.35-4.14,9.2-9.69C809.86,27.54,811.42,17,804.43,9.82Z"/><path class="cls-2" d="M477.52,418.38a230.36,230.36,0,0,0,.62,28c1.11,14.11.77,13.71,17.39,13,29.86-1.36,33.77-2.11,30.95-23.36-3.25-24.51,1.22-23-14.2-23.69C485.51,411.13,478.09,412.11,477.52,418.38Z"/><path class="cls-2" d="M854.72,17.36a206.68,206.68,0,0,0,.54,24.52c1,12.36.66,12,14.85,11.35,25.5-1.17,28.83-1.83,26.41-20.44-2.79-21.47,1-20.17-12.14-20.75C861.54,11,855.21,11.88,854.72,17.36Z"/><path class="cls-2" d="M538.22,280.24s-.48,7.37,0,17.68c.41,8.92.24,8.66,8.86,8.42,15.49-.44,17.52-.86,16.3-14.31-1.4-15.52.9-14.52-7.09-15.15C542.45,275.78,538.59,276.29,538.22,280.24Z"/><path class="cls-2" d="M852.14,447.39c7.55-23.21,16.16-43.17,22.28-54.22,3.55-6.4,7.32-7.28,13.87,5.09,12.25,23.18,20.15,42.15,20.42,44.84C909.82,454.2,848.58,458.32,852.14,447.39Z"/><path class="cls-2" d="M635.4,412.17c6-18.57,12.93-34.55,17.83-43.39,2.84-5.12,5.86-5.83,11.1,4.08,9.8,18.55,16.12,33.73,16.34,35.88C681.56,417.62,632.55,420.92,635.4,412.17Z"/><path class="cls-2" d="M494.49,186.86c4.36-14.67,9.32-27.28,12.86-34.26,2-4,4.23-4.6,8,3.22,7.07,14.65,11.62,26.64,11.78,28.33C527.77,191.16,492.44,193.77,494.49,186.86Z"/><path class="cls-2" d="M605.24,413.32c-11.7-10.73-54-8.07-50.33,23.6,2.93,25.16,24.29,36.75,42.72,24.77,5.16-3.35,14-6.16,15.41-14.44C614.34,439.73,616.94,424.05,605.24,413.32Z"/><path class="cls-2" d="M894,315.85c-8.82-7.74-40-5.08-36.81,18.27,2.58,18.55,18.55,26.76,32,17.61,3.76-2.56,10.24-4.79,11.15-10.92C901.2,335.22,902.87,323.59,894,315.85Z"/><path class="cls-2" d="M496.15,99.68c-7-7.2-32.24-5.42-30,15.84,1.75,16.89,14.5,24.67,25.5,16.63,3.08-2.25,8.35-4.14,9.2-9.69C501.58,117.4,503.14,106.88,496.15,99.68Z"/><path class="cls-2" d="M769.52,434.38a230.36,230.36,0,0,0,.62,28c1.11,14.11.77,13.71,17.39,13,29.86-1.36,33.77-2.11,30.95-23.36-3.25-24.51,1.22-23-14.2-23.69C777.51,427.13,770.09,428.11,769.52,434.38Z"/><path class="cls-2" d="M548.34,96.14a206.69,206.69,0,0,0,.54,24.52c1,12.36.66,12,14.85,11.35,25.49-1.17,28.83-1.83,26.41-20.44-2.79-21.47,1-20.17-12.14-20.75C555.16,89.79,548.82,90.65,548.34,96.14Z"/><path class="cls-2" d="M681.21,442.95s-.48,7.38,0,17.68c.41,8.92.24,8.66,8.86,8.42,15.49-.44,17.52-.86,16.31-14.31-1.4-15.52.9-14.52-7.09-15.15C685.44,438.48,681.58,439,681.21,442.95Z"/><path class="cls-2" d="M324.49,175.09c7.55-23.21,16.16-43.17,22.28-54.21,3.55-6.4,7.33-7.28,13.87,5.09,12.25,23.18,20.15,42.15,20.42,44.84C382.17,181.91,320.93,186,324.49,175.09Z"/><path class="cls-2" d="M155.07,140.12c6-18.57,12.93-34.55,17.83-43.39,2.84-5.12,5.86-5.83,11.1,4.08,9.8,18.55,16.13,33.73,16.34,35.88C201.23,145.57,152.22,148.87,155.07,140.12Z"/><path class="cls-2" d="M99.46,52.8c4.36-14.67,9.32-27.28,12.86-34.26,2-4,4.23-4.6,8,3.22,7.07,14.65,11.63,26.64,11.78,28.33C132.74,57.11,97.4,59.71,99.46,52.8Z"/><path class="cls-2" d="M235.41,13c-11.7-10.73-54-8.07-50.33,23.6C188,61.81,209.37,73.4,227.8,61.42c5.16-3.35,14-6.16,15.41-14.44C244.5,39.45,247.11,23.78,235.41,13Z"/><path class="cls-2" d="M283.31,152c-8.83-7.74-40-5.08-36.81,18.27,2.58,18.55,18.55,26.76,32,17.61,3.76-2.56,10.24-4.79,11.15-10.92C290.46,171.41,292.13,159.78,283.31,152Z"/><path class="cls-2" d="M259.59,86.88c-7-7.2-32.24-5.42-30,15.84,1.75,16.89,14.5,24.67,25.5,16.63,3.08-2.25,8.35-4.14,9.2-9.69C265,104.61,266.58,94.09,259.59,86.88Z"/><path class="cls-2" d="M292.05,69.2a230.3,230.3,0,0,0,.62,28c1.11,14.11.77,13.71,17.39,12.95,29.86-1.36,33.77-2.11,30.95-23.36-3.25-24.51,1.22-23-14.21-23.69C300,62,292.62,62.94,292.05,69.2Z"/><path class="cls-2" d="M315.62,220.71a206.65,206.65,0,0,0,.54,24.51c1,12.36.66,12,14.85,11.35,25.49-1.17,28.83-1.83,26.41-20.44-2.79-21.46,1-20.17-12.14-20.75C322.44,214.36,316.1,215.22,315.62,220.71Z"/><path class="cls-2" d="M186.34,180.14s-.48,7.37,0,17.68c.41,8.92.24,8.66,8.86,8.42,15.49-.44,17.52-.86,16.31-14.31-1.4-15.52.9-14.52-7.09-15.15C190.56,175.68,186.7,176.19,186.34,180.14Z"/><path class="cls-2" d="M6.14,365.39c7.55-23.21,16.16-43.17,22.28-54.22,3.55-6.4,7.33-7.28,13.87,5.09,12.25,23.18,20.15,42.15,20.42,44.84C63.82,372.2,2.58,376.32,6.14,365.39Z"/><path class="cls-2" d="M234.21,268.64c6-18.57,12.93-34.55,17.83-43.38,2.84-5.12,5.86-5.83,11.1,4.08,9.8,18.55,16.13,33.73,16.34,35.88C280.37,274.1,231.36,277.39,234.21,268.64Z"/><path class="cls-2" d="M339.79,388.93c4.36-14.67,9.32-27.28,12.86-34.26,2-4,4.23-4.6,8,3.22,7.07,14.65,11.63,26.64,11.78,28.33C373.07,393.23,337.74,395.84,339.79,388.93Z"/><path class="cls-2" d="M268.28,306.09c-11.7-10.73-54-8.07-50.33,23.6,2.93,25.16,24.29,36.75,42.72,24.77,5.16-3.35,14-6.16,15.41-14.44C277.37,332.5,280,316.82,268.28,306.09Z"/><path class="cls-2" d="M40,220.74C31.21,213,0,215.67,3.23,239c2.58,18.55,18.55,26.76,32,17.61,3.76-2.56,10.24-4.79,11.15-10.92C47.19,240.11,48.87,228.48,40,220.74Z"/><path class="cls-2" d="M340.17,285.95c-7-7.2-32.24-5.42-30,15.84,1.75,16.89,14.5,24.67,25.5,16.63,3.08-2.25,8.35-4.14,9.2-9.69C345.6,303.67,347.15,293.15,340.17,285.95Z"/><path class="cls-2" d="M84.55,189a230.24,230.24,0,0,0,.62,28c1.11,14.11.77,13.71,17.39,13,29.86-1.36,33.77-2.11,30.95-23.36-3.25-24.51,1.22-23-14.21-23.69C92.55,181.77,85.12,182.76,84.55,189Z"/><path class="cls-2" d="M106.17,335.46a206.69,206.69,0,0,0,.54,24.52c1,12.36.66,12,14.85,11.35,25.49-1.17,28.83-1.83,26.41-20.44-2.79-21.47,1-20.17-12.14-20.75C113,329.12,106.66,330,106.17,335.46Z"/><path class="cls-2" d="M267.69,388.36s-.48,7.37,0,17.68c.41,8.92.24,8.66,8.86,8.42,15.49-.44,17.52-.86,16.31-14.31-1.4-15.52.9-14.52-7.09-15.15C271.92,383.9,268.06,384.42,267.69,388.36Z"/><path class="cls-2" d="M141.51,287.67c7.55-23.21,16.16-43.17,22.28-54.22,3.55-6.4,7.33-7.28,13.87,5.09,12.25,23.18,20.15,42.15,20.42,44.84C199.19,294.48,138,298.6,141.51,287.67Z"/><path class="cls-2" d="M6.63,62.78c6-18.57,12.93-34.55,17.83-43.39,2.84-5.12,5.86-5.83,11.1,4.08C45.36,42,51.69,57.2,51.9,59.35,52.79,68.23,3.78,71.54,6.63,62.78Z"/><path class="cls-2" d="M405.46,272.87c4.36-14.67,9.32-27.28,12.86-34.26,2-4,4.23-4.6,8,3.22,7.07,14.65,11.63,26.64,11.78,28.33C438.73,277.18,403.4,279.78,405.46,272.87Z"/><path class="cls-2" d="M451,155.88c-11.7-10.73-54-8.07-50.32,23.6,2.93,25.16,24.29,36.75,42.72,24.77,5.16-3.35,14-6.16,15.41-14.44C460.12,182.29,462.73,166.61,451,155.88Z"/><path class="cls-2" d="M430.41,85.6c-8.82-7.74-40-5.08-36.81,18.27,2.58,18.55,18.55,26.76,32,17.61,3.76-2.56,10.24-4.78,11.15-10.92C437.56,105,439.23,93.33,430.41,85.6Z"/><path class="cls-2" d="M344.43,9.82c-7-7.2-32.24-5.42-30,15.84,1.75,16.89,14.5,24.67,25.5,16.63,3.08-2.25,8.35-4.14,9.2-9.69C349.86,27.54,351.42,17,344.43,9.82Z"/><path class="cls-2" d="M17.52,418.38a230.27,230.27,0,0,0,.62,28c1.11,14.11.77,13.71,17.39,13C65.39,458,69.29,457.21,66.47,436c-3.25-24.51,1.22-23-14.21-23.69C25.51,411.13,18.09,412.11,17.52,418.38Z"/><path class="cls-2" d="M394.72,17.36a206.68,206.68,0,0,0,.54,24.52c1,12.36.66,12,14.85,11.35,25.5-1.17,28.83-1.83,26.41-20.44-2.79-21.47,1-20.17-12.14-20.75C401.54,11,395.21,11.88,394.72,17.36Z"/><path class="cls-2" d="M78.22,280.24s-.48,7.37,0,17.68c.41,8.92.24,8.66,8.86,8.42,15.49-.44,17.52-.86,16.31-14.31-1.4-15.52.9-14.52-7.09-15.15C82.45,275.78,78.59,276.29,78.22,280.24Z"/><path class="cls-2" d="M392.14,447.39c7.55-23.21,16.16-43.17,22.28-54.22,3.55-6.4,7.32-7.28,13.87,5.09,12.25,23.18,20.15,42.15,20.42,44.84C449.82,454.2,388.58,458.32,392.14,447.39Z"/><path class="cls-2" d="M175.4,412.17c6-18.57,12.93-34.55,17.83-43.39,2.84-5.12,5.86-5.83,11.1,4.08,9.8,18.55,16.13,33.73,16.34,35.88C221.56,417.62,172.55,420.92,175.4,412.17Z"/><path class="cls-2" d="M34.49,186.86c4.36-14.67,9.32-27.28,12.86-34.26,2-4,4.23-4.6,8,3.22,7.07,14.65,11.63,26.64,11.78,28.33C67.77,191.16,32.44,193.77,34.49,186.86Z"/><path class="cls-2" d="M145.24,413.32c-11.7-10.73-54-8.07-50.33,23.6,2.93,25.16,24.29,36.75,42.72,24.77,5.16-3.35,14-6.16,15.41-14.44C154.33,439.73,156.94,424.05,145.24,413.32Z"/><path class="cls-2" d="M434,315.85c-8.82-7.74-40-5.08-36.81,18.27,2.58,18.55,18.55,26.76,32,17.61,3.76-2.56,10.24-4.79,11.15-10.92C441.2,335.22,442.87,323.59,434,315.85Z"/><path class="cls-2" d="M36.15,99.68c-7-7.2-32.24-5.42-30,15.84,1.75,16.89,14.5,24.67,25.5,16.63,3.08-2.25,8.35-4.14,9.2-9.69C41.58,117.4,43.14,106.88,36.15,99.68Z"/><path class="cls-2" d="M309.52,434.38a230.27,230.27,0,0,0,.62,28c1.11,14.11.77,13.71,17.39,13,29.86-1.36,33.77-2.11,30.95-23.36-3.25-24.51,1.22-23-14.21-23.69C317.51,427.13,310.09,428.11,309.52,434.38Z"/><path class="cls-2" d="M88.33,96.14a206.68,206.68,0,0,0,.54,24.52c1,12.36.66,12,14.85,11.35,25.49-1.17,28.83-1.83,26.41-20.44-2.79-21.47,1-20.17-12.14-20.75C95.16,89.79,88.82,90.65,88.33,96.14Z"/><path class="cls-2" d="M221.21,442.95s-.48,7.38,0,17.68c.41,8.92.24,8.66,8.86,8.42,15.49-.44,17.52-.86,16.31-14.31-1.4-15.52.9-14.52-7.09-15.15C225.44,438.48,221.58,439,221.21,442.95Z"/><path class="cls-2" d="M-9,155.88c-11.7-10.73-54-8.07-50.32,23.6,2.93,25.16,24.29,36.75,42.72,24.77,5.16-3.35,14-6.16,15.41-14.44C.13,182.29,2.73,166.61-9,155.88Z"/></pattern></defs><title>MARCOS DINAMICOS FINALES</title><path class="cls-3" d="M.3,61.06V.44h190V61.06ZM177.23,13.51H13.37V48H177.23Z"/><path class="cls-2" d="M25.5,39.37H23.09V22.12h2.51c2.83,0,5,1.8,5,4.54,0,2-.85,3.33-2.46,3.85a4.05,4.05,0,0,1,2.88,4C31,37.46,28.93,39.37,25.5,39.37Zm.24-15.24h-.52v5.58h.59c1.77,0,2.62-1.33,2.62-3.05A2.66,2.66,0,0,0,25.73,24.13Zm.14,7.59h-.66v5.65h.57c2.06,0,3-1.09,3-2.81A2.75,2.75,0,0,0,25.87,31.72Z"/><path class="cls-2" d="M38.6,39.66A4.71,4.71,0,0,1,34,35V22.12h2.15V34.34c0,2,.92,3.22,2.46,3.22s2.5-1.21,2.5-3.22V22.12h2.1V35A4.71,4.71,0,0,1,38.6,39.66Z"/><path class="cls-2" d="M47,39.37V22.12h6.74v2H49.13V29.9h4.32v2H49.13v5.46h4.82v2Z"/><path class="cls-2" d="M64.57,39.37l-5.44-11.6s.07.78.07,1.14V39.37H57.08V22.12h1.65l5.43,11.7s-.07-.78-.07-1.14V22.12h2.13V39.37Z"/><path class="cls-2" d="M74.81,39.66c-4,0-5.39-5-5.39-9s1.37-8.84,5.39-8.84c4.3,0,5.39,4.73,5.39,8.84S78.92,39.66,74.81,39.66Zm0-15.72c-2.6,0-3.17,3.59-3.17,6.74,0,3,.57,6.88,3.17,6.88S78,33.66,78,30.68C78,27.54,77.48,23.94,74.81,23.94Z"/><path class="cls-2" d="M86.08,39.66a4.12,4.12,0,0,1-3.52-1.87L84,36.35a2.74,2.74,0,0,0,2.13,1.21c1.28,0,1.75-1,1.75-2.08,0-3.33-5.25-5.25-5.25-9.31a4.09,4.09,0,0,1,3.88-4.33,3.71,3.71,0,0,1,3.21,1.63l-1.49,1.37a2.27,2.27,0,0,0-1.72-.9c-1.18,0-1.7.95-1.7,2.1C84.8,29,90,30.89,90,35.34A4.05,4.05,0,0,1,86.08,39.66Z"/><path class="cls-2" d="M102.05,39.37V28.58a10.57,10.57,0,0,1,.09-1.13l-3,7.28h-.95l-3-7.28a10.31,10.31,0,0,1,.1,1.13v10.8H93.08V22.12h1.87l3.36,8a8.48,8.48,0,0,1,.35,1.07s.19-.64.36-1.07l3.36-8h1.82V39.37Z"/><path class="cls-2" d="M112.76,39.66c-4,0-5.39-5-5.39-9s1.37-8.84,5.39-8.84c4.3,0,5.39,4.73,5.39,8.84S116.88,39.66,112.76,39.66Zm0-15.72c-2.6,0-3.16,3.59-3.16,6.74,0,3,.57,6.88,3.16,6.88s3.17-3.9,3.17-6.88C115.93,27.54,115.44,23.94,112.76,23.94Z"/><path class="cls-2" d="M124.94,24.13V39.37h-2.13V24.13h-2.7v-2h7.52v2Z"/><path class="cls-2" d="M130.53,39.37V22.12h2.13V39.37Z"/><path class="cls-2" d="M141.47,39.37h-1.61l-4.42-17.25h2.2L140.33,33c.14.56.35,1.89.35,1.89s.21-1.33.35-1.89l2.69-10.87h2.15Z"/><path class="cls-2" d="M152.94,39.66c-4,0-5.39-5-5.39-9s1.37-8.84,5.39-8.84c4.3,0,5.39,4.73,5.39,8.84S157,39.66,152.94,39.66Zm0-15.72c-2.6,0-3.17,3.59-3.17,6.74,0,3,.57,6.88,3.17,6.88s3.16-3.9,3.16-6.88C156.1,27.54,155.61,23.94,152.94,23.94Z"/><path class="cls-2" d="M164.34,39.66a4.12,4.12,0,0,1-3.52-1.87l1.44-1.44a2.74,2.74,0,0,0,2.12,1.21c1.28,0,1.75-1,1.75-2.08,0-3.33-5.25-5.25-5.25-9.31a4.09,4.09,0,0,1,3.88-4.33A3.72,3.72,0,0,1,168,23.47l-1.49,1.37a2.27,2.27,0,0,0-1.72-.9c-1.18,0-1.7.95-1.7,2.1,0,2.91,5.25,4.85,5.25,9.29A4.05,4.05,0,0,1,164.34,39.66Z"/><path class="cls-2" d="M27,69.11v7h-1v-7h-3v-.83H30v.83Z"/><path class="cls-2" d="M32,68.61a.6.6,0,0,1-.63.6.59.59,0,0,1-.62-.6.61.61,0,0,1,.62-.6A.62.62,0,0,1,32,68.61Zm-1.08,7.54V70.35h.91v5.79Z"/><path class="cls-2" d="M39.15,73.43h-5a2.13,2.13,0,0,0,2.09,2.08,2,2,0,0,0,2-1.25l.8.19a2.8,2.8,0,0,1-2.8,1.84,3,3,0,0,1,.05-6.08,2.85,2.85,0,0,1,2.88,2.89Zm-5-.67h4.07a1.92,1.92,0,0,0-2-1.76A2.1,2.1,0,0,0,34.17,72.76Z"/><path class="cls-2" d="M46.06,72.68v3.46h-.9v-3.3A1.63,1.63,0,0,0,43.53,71c-1.23,0-2,.82-2,2.32v2.78h-.91V70.35h.91v1a2.52,2.52,0,0,1,2.21-1.1A2.28,2.28,0,0,1,46.06,72.68Z"/><path class="cls-2" d="M53.56,76.15h-.9v-.92a2.86,2.86,0,0,1-2.33,1.07,3,3,0,0,1,0-6.08,2.86,2.86,0,0,1,2.33,1.07V67.69h.9Zm-.9-2.89A2.2,2.2,0,0,0,50.47,71a2.25,2.25,0,0,0,0,4.49A2.2,2.2,0,0,0,52.65,73.25Z"/><path class="cls-2" d="M61.14,76.15h-.9v-.92a2.86,2.86,0,0,1-2.33,1.07,3,3,0,0,1,0-6.08,2.86,2.86,0,0,1,2.33,1.07v-.93h.9Zm-.9-2.89A2.2,2.2,0,0,0,58.05,71a2.25,2.25,0,0,0,0,4.49A2.19,2.19,0,0,0,60.24,73.25Z"/><path class="cls-2" d="M70.81,74.16l.83.22a2.76,2.76,0,0,1-2.77,1.91,3,3,0,1,1,0-6.08,2.82,2.82,0,0,1,2.78,1.93l-.86.25A1.92,1.92,0,0,0,68.88,71a2.21,2.21,0,0,0,0,4.42A1.93,1.93,0,0,0,70.81,74.16Z"/><path class="cls-2" d="M78.79,73.25a3.11,3.11,0,1,1-3.1-3A3,3,0,0,1,78.79,73.25Zm-.89,0a2.22,2.22,0,1,0-4.44,0,2.22,2.22,0,1,0,4.44,0Z"/><path class="cls-2" d="M85.69,72.68v3.46h-.9v-3.3A1.63,1.63,0,0,0,83.16,71c-1.23,0-2,.82-2,2.32v2.78h-.9V70.35h.9v1a2.53,2.53,0,0,1,2.21-1.1A2.28,2.28,0,0,1,85.69,72.68Z"/><path class="cls-2" d="M91.18,74.38c.08.77.8,1.18,1.72,1.18s1.4-.39,1.4-1-.37-.7-1-.83L92,73.44c-1-.2-1.52-.68-1.52-1.48,0-1,.88-1.75,2.21-1.75a2.23,2.23,0,0,1,2.39,1.61l-.86.19a1.42,1.42,0,0,0-1.55-1.07c-.83,0-1.3.4-1.3.95s.32.67.89.8l1.41.31c.85.19,1.51.64,1.51,1.51,0,1.14-1,1.79-2.36,1.79s-2.41-.59-2.55-1.72Z"/><path class="cls-2" d="M102.08,73.43h-5a2.13,2.13,0,0,0,2.09,2.08,2,2,0,0,0,2-1.25l.81.19a2.82,2.82,0,0,1-2.8,1.84,3,3,0,0,1,.06-6.08,2.84,2.84,0,0,1,2.87,2.89Zm-5-.67h4.08a1.93,1.93,0,0,0-2-1.76A2.1,2.1,0,0,0,97.09,72.76Z"/><path class="cls-2" d="M109,72.68v3.46h-.9v-3.3A1.63,1.63,0,0,0,106.45,71c-1.22,0-2,.82-2,2.32v2.78h-.9V70.35h.9v1a2.52,2.52,0,0,1,2.21-1.1A2.28,2.28,0,0,1,109,72.68Z"/><path class="cls-2" d="M114.29,75.84a2.23,2.23,0,0,1-1.35.46,1.79,1.79,0,0,1-1.93-2V71.11h-1.27v-.75H111V68.51h.91v1.84H114v.75h-2.09v3.17A1,1,0,0,0,113,75.45a1.83,1.83,0,0,0,1-.35Z"/><path class="cls-2" d="M116.49,68.61a.6.6,0,0,1-.63.6.59.59,0,0,1-.61-.6.61.61,0,0,1,.61-.6A.62.62,0,0,1,116.49,68.61Zm-1.08,7.54V70.35h.91v5.79Z"/><path class="cls-2" d="M123.94,76.15H123v-.92a2.87,2.87,0,0,1-2.33,1.07,3,3,0,0,1,0-6.08A2.87,2.87,0,0,1,123,71.28V67.69h.9Zm-.9-2.89A2.19,2.19,0,0,0,120.85,71a2.25,2.25,0,0,0,0,4.49A2.19,2.19,0,0,0,123,73.25Z"/><path class="cls-2" d="M131.61,73.25a3.1,3.1,0,0,1-6.21,0,3.1,3.1,0,0,1,6.21,0Zm-.89,0a2.22,2.22,0,1,0-4.44,0,2.22,2.22,0,1,0,4.44,0Z"/><path class="cls-2" d="M136.69,74.38c.09.77.8,1.18,1.72,1.18s1.4-.39,1.4-1-.37-.7-1-.83l-1.34-.3c-1-.2-1.52-.68-1.52-1.48,0-1,.88-1.75,2.22-1.75a2.23,2.23,0,0,1,2.39,1.61l-.87.19a1.4,1.4,0,0,0-1.54-1.07c-.83,0-1.29.4-1.29.95s.32.67.89.8l1.41.31c.85.19,1.51.64,1.51,1.51,0,1.14-1,1.79-2.36,1.79s-2.4-.59-2.55-1.72Z"/><path class="cls-2" d="M147.9,73.25a3.11,3.11,0,1,1-3.1-3A3,3,0,0,1,147.9,73.25Zm-.89,0a2.22,2.22,0,1,0-4.44,0,2.22,2.22,0,1,0,4.44,0Z"/><path class="cls-2" d="M153.89,74.16l.83.22A2.75,2.75,0,0,1,152,76.3a3,3,0,1,1,0-6.08,2.81,2.81,0,0,1,2.78,1.93l-.87.25A1.91,1.91,0,0,0,152,71a2.21,2.21,0,0,0,0,4.42A1.93,1.93,0,0,0,153.89,74.16Z"/><path class="cls-2" d="M157.26,68.61a.6.6,0,0,1-.63.6.59.59,0,0,1-.62-.6.61.61,0,0,1,.62-.6A.62.62,0,0,1,157.26,68.61Zm-1.08,7.54V70.35h.91v5.79Z"/><path class="cls-2" d="M164.68,76.15h-.9v-.92a2.85,2.85,0,0,1-2.33,1.07,3,3,0,0,1,0-6.08,2.85,2.85,0,0,1,2.33,1.07v-.93h.9Zm-.9-2.89A2.19,2.19,0,0,0,161.6,71a2.25,2.25,0,0,0,0,4.49A2.19,2.19,0,0,0,163.78,73.25Z"/><path class="cls-2" d="M166.56,76.15V67.69h.9v8.46Z"/></svg>