<svg id="Capa_1" data-name="Capa 1" xmlns="http://www.w3.org/2000/svg" xmlns:xlink="http://www.w3.org/1999/xlink" viewBox="0 0 190 78"><defs><style>.cls-1{fill:none;}.cls-2,.cls-4{fill:#070308;}.cls-2{stroke:#070308;stroke-miterlimit:10;stroke-width:0.5px;fill-rule:evenodd;}.cls-3{fill:url(#Madres);}</style><pattern id="Madres" data-name="Madres" width="48.19" height="48.19" patternTransform="translate(-157.38 16) scale(0.4)" patternUnits="userSpaceOnUse" viewBox="0 0 48.19 48.19"><rect class="cls-1" width="48.19" height="48.19"/><path class="cls-2" d="M48.2,31.24a1.16,1.16,0,0,1-1-1.14,1,1,0,1,1,2.05,0A1.18,1.18,0,0,1,48.2,31.24Z"/><path class="cls-2" d="M44.07,39a1.22,1.22,0,0,1-1.16,1.19.91.91,0,0,1-1-.88A1.15,1.15,0,0,1,43,38.13.94.94,0,0,1,44.07,39Z"/><path class="cls-2" d="M49.22,42.13a1.17,1.17,0,0,1-1,1.2,1.15,1.15,0,0,1-.11-2.28A1.1,1.1,0,0,1,49.22,42.13Z"/><path class="cls-2" d="M44.08,33.22a1,1,0,0,1-1,.93A1.16,1.16,0,0,1,41.86,33a.92.92,0,0,1,1-.94A1.28,1.28,0,0,1,44.08,33.22Z"/><path class="cls-2" d="M24.11,43.29a1.16,1.16,0,0,1-1-1.14,1,1,0,1,1,2.05,0A1.18,1.18,0,0,1,24.11,43.29Z"/><path class="cls-2" d="M20,45.26a1,1,0,0,1-1,.93A1.16,1.16,0,0,1,17.76,45a.92.92,0,0,1,1-.94A1.28,1.28,0,0,1,20,45.26Z"/><path class="cls-2" d="M29.5,44.11a.9.9,0,0,1,.92,1,1.18,1.18,0,0,1-1.26,1.07.93.93,0,0,1-.94-1A1.25,1.25,0,0,1,29.5,44.11Z"/><path class="cls-2" d="M0,31.24A1.16,1.16,0,0,1-1,30.1a1.13,1.13,0,0,1,1-1.15,1.13,1.13,0,0,1,1,1.13A1.18,1.18,0,0,1,0,31.24Z"/><path class="cls-2" d="M5.18,38.13a1.15,1.15,0,0,1,1.15,1.18.91.91,0,0,1-1,.88A1.23,1.23,0,0,1,4.12,39,.94.94,0,0,1,5.18,38.13Z"/><path class="cls-2" d="M1,42.13a1.17,1.17,0,0,1-1,1.2A1.13,1.13,0,0,1-1,42.24a1.14,1.14,0,0,1,1-1.19A1.1,1.1,0,0,1,1,42.13Z"/><path class="cls-2" d="M5.4,32.06a.9.9,0,0,1,.92,1,1.18,1.18,0,0,1-1.26,1.07.93.93,0,0,1-.94-1A1.25,1.25,0,0,1,5.4,32.06Z"/><path class="cls-2" d="M48.2,7.14a1.16,1.16,0,0,1-1-1.14,1,1,0,1,1,2.05,0A1.17,1.17,0,0,1,48.2,7.14Z"/><path class="cls-2" d="M44.07,14.91a1.23,1.23,0,0,1-1.16,1.19.91.91,0,0,1-1-.88A1.15,1.15,0,0,1,43,14,.94.94,0,0,1,44.07,14.91Z"/><path class="cls-2" d="M49.22,18a1.17,1.17,0,0,1-1,1.2A1.15,1.15,0,0,1,48.13,17,1.11,1.11,0,0,1,49.22,18Z"/><path class="cls-2" d="M44.08,9.12a1,1,0,0,1-1,.93,1.16,1.16,0,0,1-1.19-1.14.92.92,0,0,1,1-.94A1.27,1.27,0,0,1,44.08,9.12Z"/><path class="cls-2" d="M24.11,19.19a1.16,1.16,0,0,1-1-1.14,1,1,0,1,1,2.05,0A1.18,1.18,0,0,1,24.11,19.19Z"/><path class="cls-2" d="M20,27a1.22,1.22,0,0,1-1.16,1.19.91.91,0,0,1-1-.88,1.15,1.15,0,0,1,1.14-1.18A.94.94,0,0,1,20,27Z"/><path class="cls-2" d="M29.28,26.09a1.15,1.15,0,0,1,1.15,1.18.91.91,0,0,1-1,.88A1.23,1.23,0,0,1,28.21,27,.94.94,0,0,1,29.28,26.09Z"/><path class="cls-2" d="M25.12,30.09a1.17,1.17,0,0,1-1,1.2A1.15,1.15,0,0,1,24,29,1.1,1.1,0,0,1,25.12,30.09Z"/><path class="cls-2" d="M20,21.17a1,1,0,0,1-1,.93A1.16,1.16,0,0,1,17.76,21a.92.92,0,0,1,1-.94A1.28,1.28,0,0,1,20,21.17Z"/><path class="cls-2" d="M29.5,20a.9.9,0,0,1,.92,1,1.18,1.18,0,0,1-1.26,1.07.93.93,0,0,1-.94-1A1.25,1.25,0,0,1,29.5,20Z"/><path class="cls-2" d="M0,7.14A1.16,1.16,0,0,1-1,6,1.13,1.13,0,0,1,0,4.85,1.13,1.13,0,0,1,1,6,1.17,1.17,0,0,1,0,7.14Z"/><path class="cls-2" d="M5.18,14a1.15,1.15,0,0,1,1.15,1.18.91.91,0,0,1-1,.88,1.23,1.23,0,0,1-1.17-1.18A.94.94,0,0,1,5.18,14Z"/><path class="cls-2" d="M1,18a1.17,1.17,0,0,1-1,1.2A1.13,1.13,0,0,1-1,18.15,1.14,1.14,0,0,1-.05,17,1.11,1.11,0,0,1,1,18Z"/><path class="cls-2" d="M5.4,8a.9.9,0,0,1,.92,1,1.18,1.18,0,0,1-1.26,1.07.93.93,0,0,1-.94-1A1.25,1.25,0,0,1,5.4,8Z"/><path class="cls-2" d="M20,2.86A1.22,1.22,0,0,1,18.81,4a.91.91,0,0,1-1-.88A1.15,1.15,0,0,1,18.91,2,.94.94,0,0,1,20,2.86Z"/><path class="cls-2" d="M29.28,2a1.15,1.15,0,0,1,1.15,1.18.91.91,0,0,1-1,.88,1.23,1.23,0,0,1-1.17-1.18A.94.94,0,0,1,29.28,2Z"/><path class="cls-2" d="M25.12,6a1.17,1.17,0,0,1-1,1.2A1.15,1.15,0,0,1,24,4.91,1.1,1.1,0,0,1,25.12,6Z"/></pattern></defs><title>MARCOS DINAMICOS FINALES</title><path class="cls-3" d="M1.23,60.66V.11H191V60.66ZM178,13.16H14.28V47.61H178Z"/><path class="cls-4" d="M26.4,39H24V21.77h2.5c2.83,0,5,1.79,5,4.53,0,2-.85,3.33-2.45,3.85a4,4,0,0,1,2.88,4C31.88,37.09,29.82,39,26.4,39Zm.24-15.23h-.52v5.57h.59c1.77,0,2.62-1.33,2.62-3A2.66,2.66,0,0,0,26.64,23.78Zm.14,7.58h-.66V37h.57c2.05,0,3-1.09,3-2.81A2.74,2.74,0,0,0,26.77,31.35Z"/><path class="cls-4" d="M39.49,39.29a4.7,4.7,0,0,1-4.6-4.67V21.77H37V34c0,2,.92,3.21,2.45,3.21S42,36,42,34V21.77h2.1V34.61A4.7,4.7,0,0,1,39.49,39.29Z"/><path class="cls-4" d="M47.87,39V21.77H54.6v2H50v5.76h4.32v2H50V37h4.81v2Z"/><path class="cls-4" d="M65.43,39,60,27.41s.07.78.07,1.14V39H57.94V21.77h1.65L65,33.46S65,32.68,65,32.32V21.77h2.12V39Z"/><path class="cls-4" d="M75.65,39.29c-4,0-5.38-5-5.38-9s1.37-8.83,5.38-8.83c4.3,0,5.38,4.72,5.38,8.83S79.76,39.29,75.65,39.29Zm0-15.7c-2.6,0-3.17,3.59-3.17,6.73,0,3,.57,6.87,3.17,6.87s3.17-3.9,3.17-6.87C78.82,27.18,78.32,23.59,75.65,23.59Z"/><path class="cls-4" d="M86.9,39.29a4.11,4.11,0,0,1-3.51-1.86L84.83,36A2.74,2.74,0,0,0,87,37.19c1.28,0,1.75-1,1.75-2.08,0-3.33-5.24-5.24-5.24-9.3a4.08,4.08,0,0,1,3.87-4.32,3.71,3.71,0,0,1,3.21,1.63l-1.49,1.37a2.27,2.27,0,0,0-1.72-.9c-1.18,0-1.7.94-1.7,2.1,0,2.91,5.24,4.84,5.24,9.28A4,4,0,0,1,86.9,39.29Z"/><path class="cls-4" d="M102.87,39V28.22a10.6,10.6,0,0,1,.09-1.13l-3,7.27H99l-3-7.27a10.34,10.34,0,0,1,.1,1.13V39H93.9V21.77h1.87l3.35,8a8.47,8.47,0,0,1,.35,1.06s.19-.64.36-1.06l3.35-8H105V39Z"/><path class="cls-4" d="M113.56,39.29c-4,0-5.38-5-5.38-9s1.37-8.83,5.38-8.83c4.3,0,5.38,4.72,5.38,8.83S117.67,39.29,113.56,39.29Zm0-15.7c-2.59,0-3.16,3.59-3.16,6.73,0,3,.57,6.87,3.16,6.87s3.17-3.9,3.17-6.87C116.73,27.18,116.23,23.59,113.56,23.59Z"/><path class="cls-4" d="M125.72,23.78V39H123.6V23.78H120.9v-2h7.51v2Z"/><path class="cls-4" d="M131.3,39V21.77h2.12V39Z"/><path class="cls-4" d="M142.23,39h-1.61l-4.42-17.23h2.2l2.69,10.86c.14.56.35,1.89.35,1.89s.21-1.33.35-1.89l2.69-10.86h2.15Z"/><path class="cls-4" d="M153.69,39.29c-4,0-5.39-5-5.39-9s1.37-8.83,5.39-8.83c4.29,0,5.38,4.72,5.38,8.83S157.79,39.29,153.69,39.29Zm0-15.7c-2.6,0-3.17,3.59-3.17,6.73,0,3,.57,6.87,3.17,6.87s3.16-3.9,3.16-6.87C156.85,27.18,156.36,23.59,153.69,23.59Z"/><path class="cls-4" d="M165.08,39.29a4.11,4.11,0,0,1-3.52-1.86L163,36a2.74,2.74,0,0,0,2.12,1.2c1.27,0,1.75-1,1.75-2.08,0-3.33-5.24-5.24-5.24-9.3a4.08,4.08,0,0,1,3.87-4.32,3.71,3.71,0,0,1,3.21,1.63l-1.49,1.37a2.27,2.27,0,0,0-1.72-.9c-1.18,0-1.7.94-1.7,2.1,0,2.91,5.24,4.84,5.24,9.28A4,4,0,0,1,165.08,39.29Z"/><path class="cls-4" d="M27.94,68.7v7H27v-7H24v-.83h6.84v.83Z"/><path class="cls-4" d="M32.85,68.19a.6.6,0,0,1-.63.6.59.59,0,0,1-.62-.6.61.61,0,0,1,.62-.6A.62.62,0,0,1,32.85,68.19Zm-1.08,7.53V69.94h.91v5.78Z"/><path class="cls-4" d="M40,73H35a2.12,2.12,0,0,0,2.09,2.08,2,2,0,0,0,2-1.24l.8.19a2.8,2.8,0,0,1-2.79,1.84,3,3,0,0,1,.05-6.07A2.84,2.84,0,0,1,40,72.69Zm-5-.67h4.07a1.92,1.92,0,0,0-2-1.76A2.1,2.1,0,0,0,35.06,72.35Z"/><path class="cls-4" d="M46.93,72.27v3.46H46V72.43a1.63,1.63,0,0,0-1.62-1.81c-1.23,0-2,.82-2,2.32v2.78h-.91V69.94h.91v1a2.52,2.52,0,0,1,2.21-1.1A2.28,2.28,0,0,1,46.93,72.27Z"/><path class="cls-4" d="M54.43,75.73h-.9v-.92a2.86,2.86,0,0,1-2.33,1.07,3,3,0,0,1,0-6.07,2.85,2.85,0,0,1,2.33,1.07V67.28h.9Zm-.9-2.89a2.2,2.2,0,0,0-2.18-2.25,2.25,2.25,0,0,0,0,4.49A2.19,2.19,0,0,0,53.52,72.84Z"/><path class="cls-4" d="M62,75.73h-.9v-.92a2.86,2.86,0,0,1-2.33,1.07,3,3,0,0,1,0-6.07,2.86,2.86,0,0,1,2.33,1.07v-.93H62Zm-.9-2.89a2.19,2.19,0,0,0-2.18-2.25,2.25,2.25,0,0,0,0,4.49A2.19,2.19,0,0,0,61.1,72.84Z"/><path class="cls-4" d="M71.66,73.74l.83.22a2.76,2.76,0,0,1-2.77,1.91,3,3,0,1,1,0-6.07,2.82,2.82,0,0,1,2.78,1.92l-.86.26a1.92,1.92,0,0,0-1.92-1.36,2.13,2.13,0,0,0-2.17,2.22A2.11,2.11,0,0,0,69.72,75,1.93,1.93,0,0,0,71.66,73.74Z"/><path class="cls-4" d="M79.63,72.83a3.1,3.1,0,1,1-3.09-3A3,3,0,0,1,79.63,72.83Zm-.89,0a2.22,2.22,0,1,0-4.43,0,2.22,2.22,0,1,0,4.43,0Z"/><path class="cls-4" d="M86.52,72.27v3.46h-.9V72.43A1.63,1.63,0,0,0,84,70.62c-1.23,0-2,.82-2,2.32v2.78h-.9V69.94H82v1a2.53,2.53,0,0,1,2.2-1.1A2.28,2.28,0,0,1,86.52,72.27Z"/><path class="cls-4" d="M92,74c.08.76.8,1.17,1.72,1.17s1.4-.39,1.4-1-.37-.7-1-.83L92.82,73c-1-.2-1.52-.68-1.52-1.48,0-1,.87-1.75,2.21-1.75a2.22,2.22,0,0,1,2.39,1.61L95,71.6a1.42,1.42,0,0,0-1.54-1.06c-.83,0-1.29.4-1.29.95s.32.67.89.8l1.41.31c.85.19,1.51.63,1.51,1.51,0,1.14-1,1.78-2.36,1.78s-2.41-.59-2.55-1.71Z"/><path class="cls-4" d="M102.89,73h-5A2.12,2.12,0,0,0,100,75.09a2,2,0,0,0,2-1.24l.81.19a2.81,2.81,0,0,1-2.8,1.84A3,3,0,0,1,100,69.8a2.83,2.83,0,0,1,2.87,2.89Zm-5-.67H102a1.93,1.93,0,0,0-2-1.76A2.09,2.09,0,0,0,97.91,72.35Z"/><path class="cls-4" d="M109.78,72.27v3.46h-.9V72.43a1.63,1.63,0,0,0-1.62-1.81c-1.22,0-2,.82-2,2.32v2.78h-.9V69.94h.9v1a2.52,2.52,0,0,1,2.2-1.1A2.28,2.28,0,0,1,109.78,72.27Z"/><path class="cls-4" d="M115.09,75.42a2.22,2.22,0,0,1-1.35.46,1.78,1.78,0,0,1-1.93-2V70.69h-1.27v-.75h1.27V68.1h.91v1.84h2.09v.75h-2.09v3.17A1,1,0,0,0,113.8,75a1.83,1.83,0,0,0,1-.35Z"/><path class="cls-4" d="M117.28,68.19a.6.6,0,0,1-.63.6.59.59,0,0,1-.61-.6.61.61,0,0,1,.61-.6A.62.62,0,0,1,117.28,68.19Zm-1.08,7.53V69.94h.91v5.78Z"/><path class="cls-4" d="M124.72,75.73h-.9v-.92a2.86,2.86,0,0,1-2.33,1.07,3,3,0,0,1,0-6.07,2.86,2.86,0,0,1,2.33,1.07V67.28h.9Zm-.9-2.89a2.19,2.19,0,0,0-2.18-2.25,2.25,2.25,0,0,0,0,4.49A2.19,2.19,0,0,0,123.83,72.84Z"/><path class="cls-4" d="M132.39,72.83a3.1,3.1,0,1,1-3.1-3A3,3,0,0,1,132.39,72.83Zm-.89,0a2.22,2.22,0,1,0-4.44,0,2.22,2.22,0,1,0,4.44,0Z"/><path class="cls-4" d="M137.46,74c.09.76.8,1.17,1.72,1.17s1.4-.39,1.4-1-.37-.7-1-.83l-1.34-.3c-1-.2-1.51-.68-1.51-1.48,0-1,.87-1.75,2.21-1.75a2.22,2.22,0,0,1,2.39,1.61l-.87.19a1.4,1.4,0,0,0-1.54-1.06c-.83,0-1.29.4-1.29.95s.32.67.89.8l1.41.31c.85.19,1.5.63,1.5,1.51,0,1.14-1,1.78-2.36,1.78s-2.4-.59-2.54-1.71Z"/><path class="cls-4" d="M148.66,72.83a3.11,3.11,0,1,1-3.1-3A3,3,0,0,1,148.66,72.83Zm-.89,0a2.22,2.22,0,1,0-4.44,0,2.22,2.22,0,1,0,4.44,0Z"/><path class="cls-4" d="M154.64,73.74l.83.22a2.74,2.74,0,0,1-2.76,1.91,3,3,0,1,1,0-6.07,2.81,2.81,0,0,1,2.78,1.92l-.86.26a1.91,1.91,0,0,0-1.91-1.36,2.13,2.13,0,0,0-2.17,2.22A2.11,2.11,0,0,0,152.71,75,1.93,1.93,0,0,0,154.64,73.74Z"/><path class="cls-4" d="M158,68.19a.6.6,0,0,1-.63.6.59.59,0,0,1-.62-.6.61.61,0,0,1,.62-.6A.62.62,0,0,1,158,68.19Zm-1.08,7.53V69.94h.91v5.78Z"/><path class="cls-4" d="M165.42,75.73h-.9v-.92a2.85,2.85,0,0,1-2.33,1.07,3,3,0,0,1,0-6.07,2.85,2.85,0,0,1,2.33,1.07v-.93h.9Zm-.9-2.89a2.19,2.19,0,0,0-2.18-2.25,2.25,2.25,0,0,0,0,4.49A2.19,2.19,0,0,0,164.52,72.84Z"/><path class="cls-4" d="M167.3,75.73V67.28h.9v8.45Z"/></svg>