<svg id="Capa_1" data-name="Capa 1" xmlns="http://www.w3.org/2000/svg" xmlns:xlink="http://www.w3.org/1999/xlink" viewBox="0 0 190 78"><defs><style>.cls-1{fill:none;}.cls-2{fill:#070308;}.cls-3{fill:url(#New_Pattern_8);}</style><pattern id="New_Pattern_8" data-name="New Pattern 8" width="102.05" height="102.05" patternTransform="translate(-349.09 180.8) scale(0.69)" patternUnits="userSpaceOnUse" viewBox="0 0 102.05 102.05"><rect class="cls-1" width="102.05" height="102.05"/><polygon class="cls-2" points="81.84 110.76 78.24 101.72 80.02 101.01 82.91 108.27 90.17 105.38 90.88 107.16 81.84 110.76"/><path class="cls-2" d="M103.56,57.06l-.83.88a3.41,3.41,0,1,0-4.67,5l-.83.88a4.62,4.62,0,0,1,6.32-6.74Z"/><path class="cls-2" d="M82.87,93.49a6.7,6.7,0,0,1-1.77.46,6.55,6.55,0,0,1-4.85-1.36l1.06-1.35a4.87,4.87,0,1,0,6-7.65l1.06-1.35a6.59,6.59,0,0,1-1.52,11.25Z"/><path class="cls-2" d="M91,95.14a2.32,2.32,0,0,0-.66.1A2.38,2.38,0,0,0,91,99.89a2.33,2.33,0,0,0,.66-.1A2.38,2.38,0,0,0,91,95.14m0-1.06a3.44,3.44,0,0,1,1,6.74,3.47,3.47,0,0,1-1,.14,3.44,3.44,0,0,1,0-6.88Z"/><path class="cls-2" d="M104.68,66.65,103,71.74l3.07,4.39L107.75,71l-3.07-4.39m-.43-2.92,5,7.1-2.7,8.23-5-7.1,2.7-8.23Z"/><path class="cls-2" d="M79.92,78.64a.9.9,0,0,1-.83-1.28,3.95,3.95,0,0,1,5.64-1.79,2.14,2.14,0,0,0,3.09-1,4,4,0,0,1,5.64-1.79.91.91,0,0,1-.91,1.57,2.14,2.14,0,0,0-3.09,1,4,4,0,0,1-5.64,1.79,2.14,2.14,0,0,0-3.09,1A.91.91,0,0,1,79.92,78.64Z"/><path class="cls-2" d="M101.67,92.43h-.1a.67.67,0,1,1,.17-1.33,1.57,1.57,0,0,0,1.27-.36,1.61,1.61,0,0,0,.56-1.2,3,3,0,0,1,1-2.18,3,3,0,0,1,2.31-.67,1.58,1.58,0,0,0,1.83-1.56.67.67,0,0,1,1.34,0A2.93,2.93,0,0,1,106.73,88a1.59,1.59,0,0,0-1.27.36,1.61,1.61,0,0,0-.56,1.2,2.93,2.93,0,0,1-3.24,2.86Z"/><path class="cls-2" d="M97.79,84.38a.53.53,0,0,1-.39-.17l-3-3.44a.52.52,0,1,1,.78-.69l3,3.44a.52.52,0,0,1,0,.73A.53.53,0,0,1,97.79,84.38Z"/><path class="cls-2" d="M80.94,68.42a.87.87,0,0,1,0-1.74l7.68-.45a.87.87,0,0,1,.1,1.74L81,68.42Z"/><polygon class="cls-2" points="81.84 59.74 78.24 50.69 80.02 49.98 82.91 57.24 90.17 54.35 90.88 56.14 81.84 59.74"/><path class="cls-2" d="M52.53,82.58l-.83.88a3.41,3.41,0,1,0-4.67,5l-.83.88a4.62,4.62,0,0,1,6.32-6.74Z"/><path class="cls-2" d="M66.84,82.29a3.89,3.89,0,1,0,3.66,2.56,3.87,3.87,0,0,0-3.66-2.56h0m0-1.73a5.63,5.63,0,1,1-1.93.34,5.62,5.62,0,0,1,1.93-.34Z"/><path class="cls-2" d="M53.66,92.16,52,97.25l3.07,4.39,1.67-5.09-3.07-4.39m-.43-2.92,5,7.1-2.7,8.23-5-7.1,2.7-8.23Z"/><path class="cls-2" d="M28.9,104.16a.93.93,0,0,1-.38-.08.91.91,0,0,1-.44-1.2,3.95,3.95,0,0,1,5.64-1.79,2.14,2.14,0,0,0,3.09-1,4,4,0,0,1,5.64-1.79.91.91,0,0,1-.91,1.57,2.17,2.17,0,0,0-1.76-.22,2.19,2.19,0,0,0-1.32,1.2,4,4,0,0,1-5.64,1.79,2.14,2.14,0,0,0-3.09,1A.91.91,0,0,1,28.9,104.16Z"/><path class="cls-2" d="M29.92,93.93a.87.87,0,0,1,0-1.74l7.68-.45a.87.87,0,1,1,.1,1.74L30,93.93Z"/><polygon class="cls-2" points="67.1 107.56 66.08 106.52 70.36 102.34 66.19 98.06 67.23 97.04 72.43 102.37 67.1 107.56"/><polygon class="cls-2" points="30.81 85.25 27.21 76.2 29 75.5 31.89 82.76 39.15 79.87 39.86 81.65 30.81 85.25"/><path class="cls-2" d="M1.51,57.06l-.83.88A3.39,3.39,0,0,0-1.76,57a3.39,3.39,0,0,0-2.38,1.08,3.39,3.39,0,0,0-.92,2.45A3.39,3.39,0,0,0-4,62.92l-.83.88a4.58,4.58,0,0,1-1.46-3.22A4.59,4.59,0,0,1-5,57.27,4.58,4.58,0,0,1-1.8,55.82,4.59,4.59,0,0,1,1.51,57.06Z"/><path class="cls-2" d="M15.81,56.78a3.89,3.89,0,1,0,3.66,2.56,3.87,3.87,0,0,0-3.66-2.56h0m0-1.73a5.63,5.63,0,1,1-1.93.34A5.62,5.62,0,0,1,15.81,55Z"/><path class="cls-2" d="M2.63,66.65,1,71.74,4,76.13,5.71,71,2.63,66.65M2.2,63.73l5,7.1-2.7,8.23L-.5,72l2.7-8.23Z"/><path class="cls-2" d="M20.54,91.2l-8,.9L8.52,99l8-.9,4.06-6.91m3.71-2.4L17.68,100,4.81,101.41l6.56-11.16L24.24,88.8Z"/><path class="cls-2" d="M-.38,92.43h-.1a.67.67,0,0,1-.58-.75.68.68,0,0,1,.75-.58A1.57,1.57,0,0,0,1,90.72a1.61,1.61,0,0,0,.56-1.2,3,3,0,0,1,1-2.18,3,3,0,0,1,2.31-.67,1.58,1.58,0,0,0,1.83-1.56.67.67,0,0,1,1.34,0A2.93,2.93,0,0,1,4.68,88a1.59,1.59,0,0,0-1.27.36,1.61,1.61,0,0,0-.56,1.2,2.94,2.94,0,0,1-1,2.18A2.93,2.93,0,0,1-.38,92.43Z"/><polygon class="cls-2" points="16.08 82.05 15.05 81 19.33 76.83 15.16 72.55 16.21 71.53 21.41 76.86 16.08 82.05"/><path class="cls-2" d="M103.56,6l-.83.88a3.41,3.41,0,1,0-4.67,5l-.83.88A4.62,4.62,0,0,1,103.56,6Z"/><path class="cls-2" d="M82.87,42.47a6.69,6.69,0,0,1-1.77.46,6.55,6.55,0,0,1-4.85-1.36l1.06-1.35a4.87,4.87,0,1,0,6-7.65l1.06-1.35a6.59,6.59,0,0,1-1.52,11.25Z"/><path class="cls-2" d="M91,44.11a2.32,2.32,0,0,0-.66.1A2.38,2.38,0,0,0,91,48.87a2.33,2.33,0,0,0,.66-.1A2.38,2.38,0,0,0,91,44.11m0-1.06a3.44,3.44,0,0,1,1,6.74,3.47,3.47,0,0,1-1,.14,3.44,3.44,0,0,1,0-6.87Z"/><path class="cls-2" d="M104.68,15.62,103,20.72l3.07,4.39L107.75,20l-3.07-4.39m-.43-2.92,5,7.1L106.51,28l-5-7.1,2.7-8.23Z"/><path class="cls-2" d="M79.92,27.62a.9.9,0,0,1-.83-1.28,3.95,3.95,0,0,1,5.64-1.79,2.14,2.14,0,0,0,3.09-1,4,4,0,0,1,5.64-1.79.91.91,0,0,1-.91,1.57,2.14,2.14,0,0,0-3.09,1,4,4,0,0,1-5.64,1.79,2.14,2.14,0,0,0-3.09,1A.91.91,0,0,1,79.92,27.62Z"/><path class="cls-2" d="M101.67,41.41h-.1a.67.67,0,1,1,.17-1.33A1.57,1.57,0,0,0,103,39.7a1.61,1.61,0,0,0,.56-1.2,3,3,0,0,1,1-2.18,3,3,0,0,1,2.31-.67,1.58,1.58,0,0,0,1.83-1.56.67.67,0,0,1,1.34,0A2.93,2.93,0,0,1,106.73,37a1.59,1.59,0,0,0-1.27.36,1.61,1.61,0,0,0-.56,1.2,2.93,2.93,0,0,1-3.24,2.86Z"/><path class="cls-2" d="M97.79,33.35a.53.53,0,0,1-.39-.17l-3-3.44a.52.52,0,1,1,.78-.69l3,3.44a.52.52,0,0,1,0,.73A.53.53,0,0,1,97.79,33.35Z"/><path class="cls-2" d="M80.94,17.39a.87.87,0,0,1,0-1.74l7.68-.45a.87.87,0,0,1,.1,1.74L81,17.39Z"/><polygon class="cls-2" points="81.84 8.71 78.24 -0.33 80.02 -1.04 82.91 6.22 90.17 3.33 90.88 5.11 81.84 8.71"/><path class="cls-2" d="M52.53,31.55l-.83.88a3.41,3.41,0,1,0-4.67,5l-.83.88a4.62,4.62,0,0,1,6.32-6.74Z"/><path class="cls-2" d="M31.85,68a6.69,6.69,0,0,1-1.77.46,6.55,6.55,0,0,1-4.85-1.36l1.06-1.35a4.87,4.87,0,1,0,6-7.65l1.06-1.35A6.59,6.59,0,0,1,31.85,68Z"/><path class="cls-2" d="M39.94,69.63a2.32,2.32,0,0,0-.66.1,2.38,2.38,0,0,0,.66,4.66,2.33,2.33,0,0,0,.66-.1,2.38,2.38,0,0,0-.66-4.66m0-1.06a3.44,3.44,0,0,1,1,6.74,3.47,3.47,0,0,1-1,.14,3.44,3.44,0,0,1,0-6.87Z"/><path class="cls-2" d="M66.84,31.27a3.89,3.89,0,1,0,3.66,2.56,3.87,3.87,0,0,0-3.66-2.56h0m0-1.73a5.63,5.63,0,1,1-1.93.34,5.62,5.62,0,0,1,1.93-.34Z"/><path class="cls-2" d="M53.66,41.13,52,46.23l3.07,4.39,1.67-5.09-3.07-4.39m-.43-2.92,5,7.1-2.7,8.23-5-7.1,2.7-8.23Z"/><path class="cls-2" d="M71.56,65.69l-8,.9L59.54,73.5l8-.9,4.06-6.91m3.71-2.4L68.71,74.45,55.84,75.9,62.4,64.74l12.87-1.45Z"/><path class="cls-2" d="M28.9,53.13a.9.9,0,0,1-.83-1.28,3.95,3.95,0,0,1,5.64-1.79,2.14,2.14,0,0,0,3.09-1,4,4,0,0,1,5.64-1.79.91.91,0,0,1-.91,1.57,2.14,2.14,0,0,0-3.09,1,4,4,0,0,1-5.64,1.79,2.14,2.14,0,0,0-3.09,1A.91.91,0,0,1,28.9,53.13Z"/><path class="cls-2" d="M50.65,66.92h-.1a.67.67,0,1,1,.17-1.33A1.57,1.57,0,0,0,52,65.21a1.62,1.62,0,0,0,.56-1.2,3,3,0,0,1,1-2.18,3,3,0,0,1,2.31-.67,1.58,1.58,0,0,0,1.83-1.56.67.67,0,0,1,1.34,0,2.93,2.93,0,0,1-3.34,2.85,1.59,1.59,0,0,0-1.27.36,1.61,1.61,0,0,0-.56,1.2,2.93,2.93,0,0,1-3.24,2.86Z"/><path class="cls-2" d="M46.77,58.87a.53.53,0,0,1-.39-.17l-3-3.44a.52.52,0,1,1,.78-.69l3,3.44a.52.52,0,0,1,0,.73A.53.53,0,0,1,46.77,58.87Z"/><path class="cls-2" d="M29.92,42.91a.87.87,0,0,1,0-1.74l7.68-.45a.87.87,0,1,1,.1,1.74L30,42.9Z"/><polygon class="cls-2" points="67.1 56.54 66.08 55.49 70.36 51.32 66.19 47.04 67.23 46.02 72.43 51.35 67.1 56.54"/><polygon class="cls-2" points="30.81 34.23 27.21 25.18 29 24.47 31.89 31.73 39.15 28.84 39.86 30.62 30.81 34.23"/><path class="cls-2" d="M1.51,6l-.83.88A3.39,3.39,0,0,0-1.76,6,3.39,3.39,0,0,0-4.14,7.07a3.39,3.39,0,0,0-.92,2.45A3.39,3.39,0,0,0-4,11.9l-.83.88A4.58,4.58,0,0,1-6.27,9.55,4.59,4.59,0,0,1-5,6.25,4.58,4.58,0,0,1-1.8,4.79,4.59,4.59,0,0,1,1.51,6Z"/><path class="cls-2" d="M15.81,5.75a3.89,3.89,0,1,0,3.66,2.56,3.87,3.87,0,0,0-3.66-2.56h0m0-1.73a5.63,5.63,0,1,1-1.93.34A5.62,5.62,0,0,1,15.81,4Z"/><path class="cls-2" d="M2.63,15.62,1,20.72,4,25.11,5.71,20,2.63,15.62M2.2,12.7l5,7.1L4.46,28l-5-7.1L2.2,12.7Z"/><path class="cls-2" d="M20.54,40.18l-8,.9L8.52,48l8-.9,4.06-6.91m3.71-2.4L17.68,48.94,4.81,50.39l6.56-11.16,12.87-1.45Z"/><path class="cls-2" d="M-.38,41.41h-.1a.67.67,0,0,1-.58-.75.68.68,0,0,1,.75-.58A1.57,1.57,0,0,0,1,39.7a1.61,1.61,0,0,0,.56-1.2,3,3,0,0,1,1-2.18,3,3,0,0,1,2.31-.67,1.58,1.58,0,0,0,1.83-1.56.67.67,0,0,1,1.34,0A2.93,2.93,0,0,1,4.68,37a1.59,1.59,0,0,0-1.27.36,1.61,1.61,0,0,0-.56,1.2,2.94,2.94,0,0,1-1,2.18A2.93,2.93,0,0,1-.38,41.41Z"/><polygon class="cls-2" points="16.08 31.03 15.05 29.98 19.33 25.81 15.16 21.53 16.21 20.51 21.41 25.84 16.08 31.03"/><path class="cls-2" d="M31.85,17a6.7,6.7,0,0,1-1.77.46,6.55,6.55,0,0,1-4.85-1.36l1.06-1.35a4.87,4.87,0,1,0,6-7.65L33.37,5.7A6.59,6.59,0,0,1,31.85,17Z"/><path class="cls-2" d="M39.94,18.6a2.32,2.32,0,0,0-.66.1,2.38,2.38,0,0,0,.66,4.66,2.33,2.33,0,0,0,.66-.1,2.38,2.38,0,0,0-.66-4.66m0-1.06a3.44,3.44,0,0,1,1,6.74,3.47,3.47,0,0,1-1,.14,3.44,3.44,0,0,1,0-6.87Z"/><path class="cls-2" d="M53.66-9.89,52-4.8,55.05-.4,56.73-5.5,53.66-9.89m-.43-2.92,5,7.1-2.7,8.23-5-7.1,2.7-8.23Z"/><path class="cls-2" d="M71.56,14.67l-8,.9-4.06,6.91,8-.9,4.06-6.91m3.71-2.4L68.71,23.43,55.84,24.88,62.4,13.72l12.87-1.45Z"/><path class="cls-2" d="M28.9,2.11A.9.9,0,0,1,28.07.83,3.95,3.95,0,0,1,33.71-1a2.18,2.18,0,0,0,1.77.22,2.18,2.18,0,0,0,1.32-1.2,4,4,0,0,1,2.42-2.17,4,4,0,0,1,3.22.38.9.9,0,0,1,.33,1.24.91.91,0,0,1-1.24.33,2.17,2.17,0,0,0-1.76-.22,2.19,2.19,0,0,0-1.32,1.2A4,4,0,0,1,36,1,4,4,0,0,1,32.8.6,2.19,2.19,0,0,0,31,.38a2.18,2.18,0,0,0-1.32,1.2A.91.91,0,0,1,28.9,2.11Z"/><path class="cls-2" d="M50.65,15.89h-.1a.67.67,0,1,1,.17-1.33A1.57,1.57,0,0,0,52,14.19a1.61,1.61,0,0,0,.56-1.2,3,3,0,0,1,1-2.18,3,3,0,0,1,2.31-.67,1.58,1.58,0,0,0,1.83-1.56.67.67,0,0,1,1.34,0,2.93,2.93,0,0,1-3.34,2.85,1.59,1.59,0,0,0-1.27.36,1.61,1.61,0,0,0-.56,1.2,2.93,2.93,0,0,1-3.24,2.86Z"/><path class="cls-2" d="M46.77,7.84a.53.53,0,0,1-.39-.17l-3-3.44a.52.52,0,1,1,.78-.69l3,3.44a.52.52,0,0,1,0,.73A.53.53,0,0,1,46.77,7.84Z"/><polygon class="cls-2" points="67.1 5.52 66.08 4.47 70.36 0.3 66.19 -3.98 67.23 -5 72.43 0.32 67.1 5.52"/></pattern></defs><title>MARCOS DINAMICOS FINALES</title><path class="cls-3" d="M1.94,61.16V1.27H189.67v59.9Zm174.82-47H14.85V48.26H176.76Z"/><path class="cls-2" d="M26.83,39.74H24.45v-17h2.48c2.8,0,4.9,1.77,4.9,4.48,0,1.94-.84,3.29-2.43,3.81a4,4,0,0,1,2.85,3.92C32.25,37.85,30.22,39.74,26.83,39.74Zm.23-15.06h-.51v5.51h.58c1.75,0,2.59-1.31,2.59-3A2.63,2.63,0,0,0,27.07,24.67Zm.14,7.5h-.65v5.58h.56c2,0,2.94-1.07,2.94-2.78A2.72,2.72,0,0,0,27.2,32.17Z"/><path class="cls-2" d="M39.78,40a4.65,4.65,0,0,1-4.56-4.62V22.69h2.13V34.76c0,2,.91,3.18,2.43,3.18s2.47-1.19,2.47-3.18V22.69h2.08V35.4A4.65,4.65,0,0,1,39.78,40Z"/><path class="cls-2" d="M48.07,39.74v-17h6.66v2H50.18v5.7h4.27v2H50.18v5.39h4.76v2Z"/><path class="cls-2" d="M65.44,39.74,60.07,28.27s.07.77.07,1.12V39.74H58v-17h1.63L65,34.25S65,33.48,65,33.13V22.69h2.1v17Z"/><path class="cls-2" d="M75.56,40c-4,0-5.33-4.9-5.33-8.87s1.35-8.74,5.33-8.74c4.25,0,5.33,4.67,5.33,8.74S79.62,40,75.56,40Zm0-15.53c-2.57,0-3.13,3.55-3.13,6.66,0,2.94.56,6.8,3.13,6.8s3.13-3.85,3.13-6.8C78.69,28,78.19,24.49,75.56,24.49Z"/><path class="cls-2" d="M86.69,40a4.07,4.07,0,0,1-3.48-1.84l1.42-1.43a2.71,2.71,0,0,0,2.1,1.19c1.26,0,1.73-1,1.73-2.06,0-3.29-5.18-5.19-5.18-9.2a4,4,0,0,1,3.83-4.27A3.67,3.67,0,0,1,90.29,24l-1.47,1.36a2.25,2.25,0,0,0-1.7-.89c-1.17,0-1.68.93-1.68,2.08,0,2.87,5.18,4.79,5.18,9.18A4,4,0,0,1,86.69,40Z"/><path class="cls-2" d="M102.48,39.74V29.07a10.48,10.48,0,0,1,.09-1.12l-3,7.19h-.94l-3-7.19a10.21,10.21,0,0,1,.1,1.12V39.74h-2.1v-17h1.85l3.32,7.87a8.36,8.36,0,0,1,.35,1.05s.19-.63.35-1.05l3.32-7.87h1.8v17Z"/><path class="cls-2" d="M113.06,40c-4,0-5.32-4.9-5.32-8.87s1.35-8.74,5.32-8.74c4.25,0,5.33,4.67,5.33,8.74S117.13,40,113.06,40Zm0-15.53c-2.57,0-3.13,3.55-3.13,6.66,0,2.94.56,6.8,3.13,6.8s3.13-3.85,3.13-6.8C116.19,28,115.7,24.49,113.06,24.49Z"/><path class="cls-2" d="M125.09,24.67V39.74H123V24.67h-2.66v-2h7.43v2Z"/><path class="cls-2" d="M130.61,39.74v-17h2.1v17Z"/><path class="cls-2" d="M141.42,39.74h-1.59l-4.37-17h2.18l2.66,10.74c.14.56.35,1.87.35,1.87s.21-1.31.35-1.87l2.66-10.74h2.13Z"/><path class="cls-2" d="M152.76,40c-4,0-5.33-4.9-5.33-8.87s1.35-8.74,5.33-8.74c4.25,0,5.32,4.67,5.32,8.74S156.82,40,152.76,40Zm0-15.53c-2.57,0-3.13,3.55-3.13,6.66,0,2.94.56,6.8,3.13,6.8s3.13-3.85,3.13-6.8C155.88,28,155.39,24.49,152.76,24.49Z"/><path class="cls-2" d="M164,40a4.07,4.07,0,0,1-3.48-1.84L162,36.75a2.71,2.71,0,0,0,2.1,1.19c1.26,0,1.73-1,1.73-2.06,0-3.29-5.19-5.19-5.19-9.2a4,4,0,0,1,3.83-4.27A3.68,3.68,0,0,1,167.62,24l-1.47,1.36a2.25,2.25,0,0,0-1.7-.89c-1.17,0-1.68.93-1.68,2.08,0,2.87,5.19,4.79,5.19,9.18A4,4,0,0,1,164,40Z"/><path class="cls-2" d="M28.35,71.1V78h-.94V71.1H24.5v-.82h6.77v.82Z"/><path class="cls-2" d="M33.21,70.6a.59.59,0,0,1-.62.59A.59.59,0,0,1,32,70.6a.6.6,0,0,1,.61-.59A.61.61,0,0,1,33.21,70.6ZM32.14,78V72.32H33V78Z"/><path class="cls-2" d="M40.33,75.36h-5a2.1,2.1,0,0,0,2.06,2.05,2,2,0,0,0,2-1.23l.79.19a2.77,2.77,0,0,1-2.76,1.82,3,3,0,0,1,.05-6A2.81,2.81,0,0,1,40.33,75ZM35.4,74.7h4A1.9,1.9,0,0,0,37.48,73,2.08,2.08,0,0,0,35.4,74.7Z"/><path class="cls-2" d="M47.15,74.62V78h-.89V74.79A1.61,1.61,0,0,0,44.65,73c-1.21,0-2,.81-2,2.3V78h-.9V72.32h.9v1a2.49,2.49,0,0,1,2.18-1.09A2.26,2.26,0,0,1,47.15,74.62Z"/><path class="cls-2" d="M54.56,78h-.89v-.91a2.82,2.82,0,0,1-2.3,1.06,3,3,0,0,1,0-6,2.82,2.82,0,0,1,2.3,1.06V69.69h.89Zm-.89-2.86A2.17,2.17,0,0,0,51.51,73a2.22,2.22,0,0,0,0,4.44A2.17,2.17,0,0,0,53.66,75.19Z"/><path class="cls-2" d="M62,78h-.89v-.91a2.83,2.83,0,0,1-2.3,1.06,3,3,0,0,1,0-6,2.83,2.83,0,0,1,2.3,1.06v-.92H62Zm-.89-2.86A2.17,2.17,0,0,0,59,73a2.22,2.22,0,0,0,0,4.44A2.17,2.17,0,0,0,61.16,75.19Z"/><path class="cls-2" d="M71.61,76.08l.82.22a2.73,2.73,0,0,1-2.74,1.89,3,3,0,1,1,0-6,2.79,2.79,0,0,1,2.75,1.9l-.85.25A1.9,1.9,0,0,0,69.69,73a2.11,2.11,0,0,0-2.14,2.19,2.09,2.09,0,0,0,2.14,2.18A1.91,1.91,0,0,0,71.61,76.08Z"/><path class="cls-2" d="M79.49,75.18a3.07,3.07,0,1,1-3.06-3A3,3,0,0,1,79.49,75.18Zm-.88,0a2.19,2.19,0,1,0-4.38,0,2.19,2.19,0,1,0,4.38,0Z"/><path class="cls-2" d="M86.31,74.62V78h-.89V74.79A1.61,1.61,0,0,0,83.81,73c-1.21,0-2,.81-2,2.3V78h-.89V72.32h.89v1A2.5,2.5,0,0,1,84,72.19,2.26,2.26,0,0,1,86.31,74.62Z"/><path class="cls-2" d="M91.73,76.3c.08.76.79,1.16,1.7,1.16s1.39-.39,1.39-1-.36-.7-1-.82l-1.33-.29c-1-.19-1.5-.67-1.5-1.46,0-1,.87-1.73,2.19-1.73a2.2,2.2,0,0,1,2.36,1.59l-.85.19a1.4,1.4,0,0,0-1.53-1.05c-.82,0-1.28.39-1.28.94s.32.66.88.79l1.4.3c.84.19,1.49.63,1.49,1.5,0,1.13-1,1.76-2.34,1.76s-2.38-.58-2.52-1.7Z"/><path class="cls-2" d="M102.5,75.36h-5a2.1,2.1,0,0,0,2.07,2.05,2,2,0,0,0,2-1.23l.8.19a2.78,2.78,0,0,1-2.77,1.82,3,3,0,0,1,.06-6A2.8,2.8,0,0,1,102.5,75Zm-4.93-.66h4A1.91,1.91,0,0,0,99.66,73,2.07,2.07,0,0,0,97.58,74.7Z"/><path class="cls-2" d="M109.32,74.62V78h-.89V74.79a1.61,1.61,0,0,0-1.6-1.79c-1.21,0-2,.81-2,2.3V78h-.89V72.32h.89v1A2.49,2.49,0,0,1,107,72.19,2.26,2.26,0,0,1,109.32,74.62Z"/><path class="cls-2" d="M114.57,77.74a2.2,2.2,0,0,1-1.33.45,1.77,1.77,0,0,1-1.91-1.94V73.07h-1.26v-.74h1.26V70.5h.9v1.82h2.06v.74h-2.06V76.2a1,1,0,0,0,1.07,1.16,1.8,1.8,0,0,0,1-.35Z"/><path class="cls-2" d="M116.74,70.6a.59.59,0,0,1-.62.59.59.59,0,0,1-.61-.59.6.6,0,0,1,.61-.59A.61.61,0,0,1,116.74,70.6ZM115.67,78V72.32h.9V78Z"/><path class="cls-2" d="M124.1,78h-.89v-.91a2.83,2.83,0,0,1-2.3,1.06,3,3,0,0,1,0-6,2.83,2.83,0,0,1,2.3,1.06V69.69h.89Zm-.89-2.86A2.17,2.17,0,0,0,121.05,73a2.22,2.22,0,0,0,0,4.44A2.16,2.16,0,0,0,123.21,75.19Z"/><path class="cls-2" d="M131.68,75.18a3.07,3.07,0,0,1-6.13,0,3.07,3.07,0,0,1,6.13,0Zm-.88,0a2.19,2.19,0,1,0-4.39,0,2.19,2.19,0,1,0,4.39,0Z"/><path class="cls-2" d="M136.7,76.3c.08.76.79,1.16,1.7,1.16s1.39-.39,1.39-1-.37-.7-1-.82l-1.33-.29c-1-.19-1.5-.67-1.5-1.46,0-1,.87-1.73,2.19-1.73a2.2,2.2,0,0,1,2.36,1.59l-.86.19a1.39,1.39,0,0,0-1.52-1.05c-.82,0-1.28.39-1.28.94s.31.66.88.79l1.39.3c.84.19,1.49.63,1.49,1.5,0,1.13-1,1.76-2.34,1.76s-2.38-.58-2.52-1.7Z"/><path class="cls-2" d="M147.78,75.18a3.07,3.07,0,1,1-3.06-3A3,3,0,0,1,147.78,75.18Zm-.88,0a2.19,2.19,0,1,0-4.39,0,2.19,2.19,0,1,0,4.39,0Z"/><path class="cls-2" d="M153.7,76.08l.82.22a2.71,2.71,0,0,1-2.73,1.89,3,3,0,1,1,0-6,2.78,2.78,0,0,1,2.75,1.9l-.86.25A1.89,1.89,0,0,0,151.79,73a2.11,2.11,0,0,0-2.14,2.19,2.09,2.09,0,0,0,2.14,2.18A1.91,1.91,0,0,0,153.7,76.08Z"/><path class="cls-2" d="M157,70.6a.6.6,0,0,1-.62.59.59.59,0,0,1-.61-.59.6.6,0,0,1,.61-.59A.61.61,0,0,1,157,70.6ZM156,78V72.32h.9V78Z"/><path class="cls-2" d="M164.36,78h-.89v-.91a2.82,2.82,0,0,1-2.3,1.06,3,3,0,0,1,0-6,2.82,2.82,0,0,1,2.3,1.06v-.92h.89Zm-.89-2.86A2.17,2.17,0,0,0,161.31,73a2.22,2.22,0,0,0,0,4.44A2.16,2.16,0,0,0,163.47,75.19Z"/><path class="cls-2" d="M166.22,78V69.69h.89V78Z"/></svg>