<svg id="Capa_1" data-name="Capa 1" xmlns="http://www.w3.org/2000/svg" xmlns:xlink="http://www.w3.org/1999/xlink" viewBox="0 0 190 78"><defs><style>.cls-1,.cls-2{fill:none;}.cls-2{stroke:#070308;stroke-linecap:round;stroke-miterlimit:10;stroke-width:1.4px;stroke-dasharray:0.1 3 0.1 3 0.1 6;}.cls-3{fill:url(#Circle_Lines);}.cls-4{fill:#070308;}</style><pattern id="Circle_Lines" data-name="Circle Lines" width="85.5" height="93" patternTransform="translate(-694.34 553.65) scale(1.01)" patternUnits="userSpaceOnUse" viewBox="0 0 85.5 93"><rect class="cls-1" width="85.5" height="93"/><path class="cls-2" d="M85.5,3.51c19.29-.73,40.5-.71,69,.29,4.34.15,11.31-.3,16.5-.29"/><path class="cls-2" d="M85.5,10.37c24.5-2.56,45.73,1.22,63-.56,3.67-.38,12.75.46,22.5.56"/><path class="cls-2" d="M85.5,17.29c21.5-1.49,27.3,1.4,59-1.24,9-.75,23.49,1.42,26.5,1.24"/><path class="cls-2" d="M85.5,22.7c14.41.72,30.66,2.35,49.63.4,9.76-1,22.62-.14,35.87-.4"/><path class="cls-2" d="M85.5,36.52c18.07-.27,22.29-1.93,56-.21,14.75.75,22.5,1,29.5.21"/><path class="cls-2" d="M85.5,42.74c12.85.5,24.5-1.44,45.62.11,16.54,1.21,29.92-1.42,39.87-.11"/><path class="cls-2" d="M85.5,56.18c20.5-.37,17.51-.75,45,.13,31.5,1,40-.13,40.5-.12"/><path class="cls-2" d="M85.5,63.46c20.94-.32,17.61,1,50.25-.91,2.06-.12,26.25,2.25,35.25.91"/><path class="cls-2" d="M85.5,68.7a431.07,431.07,0,0,0,50.62.65c9.51-.48,20.37.45,34.88-.65"/><path class="cls-2" d="M85.5,75.7c20.94.53,52.5-.4,73.5.35,1.41.05,10.49-.28,12-.35"/><path class="cls-2" d="M85.5,83.21c30-1.91,65,1.09,79.5.09,1.76-.12,4.1,0,6-.09"/><path class="cls-2" d="M85.5,89.33c10.68.16,21.46-1.1,38.5,0,24,1.5,41.78.12,47,0"/><path class="cls-2" d="M85.5,50.09c22.15-.63,46.5-1.79,57.75-.79a254.16,254.16,0,0,0,27.75.79"/><path class="cls-2" d="M85.5,29.52c18.07-.27,22-1.21,46-.21,21.48.89,30.5,1,39.5.21"/><path class="cls-2" d="M0,3.51c19.29-.73,40.5-.71,69,.29,4.34.15,11.31-.3,16.5-.29"/><path class="cls-2" d="M0,10.37C24.5,7.8,45.73,11.59,63,9.8c3.67-.38,12.75.46,22.5.56"/><path class="cls-2" d="M0,17.29c21.5-1.49,27.3,1.4,59-1.24,9-.75,23.49,1.42,26.5,1.24"/><path class="cls-2" d="M0,22.7c14.41.72,30.66,2.35,49.63.4,9.76-1,22.62-.14,35.87-.4"/><path class="cls-2" d="M0,36.52c18.07-.27,22.29-1.93,56-.21,14.75.75,22.5,1,29.5.21"/><path class="cls-2" d="M0,42.74c12.85.5,24.5-1.44,45.62.11,16.54,1.21,29.92-1.42,39.87-.11"/><path class="cls-2" d="M0,56.18c20.5-.37,17.51-.75,45,.13,31.5,1,40-.13,40.5-.12"/><path class="cls-2" d="M0,63.46c20.94-.32,17.61,1,50.25-.91,2.06-.12,26.25,2.25,35.25.91"/><path class="cls-2" d="M0,68.7a431.07,431.07,0,0,0,50.62.65c9.51-.48,20.37.45,34.88-.65"/><path class="cls-2" d="M0,75.7c20.94.53,52.5-.4,73.5.35,1.41.05,10.49-.28,12-.35"/><path class="cls-2" d="M0,83.21c30-1.91,65,1.09,79.5.09,1.76-.12,4.1,0,6-.09"/><path class="cls-2" d="M0,89.33c10.68.16,21.46-1.1,38.5,0,24,1.5,41.78.12,47,0"/><path class="cls-2" d="M0,50.09c22.15-.63,46.5-1.79,57.75-.79a254.16,254.16,0,0,0,27.75.79"/><path class="cls-2" d="M0,29.52c18.07-.27,22-1.21,46-.21,21.48.89,30.5,1,39.5.21"/><path class="cls-2" d="M-85.5,3.51c19.29-.73,40.5-.71,69,.29C-12.16,4-5.19,3.5,0,3.51"/><path class="cls-2" d="M-85.5,10.37c24.5-2.56,45.73,1.22,63-.56,3.67-.38,12.75.46,22.5.56"/><path class="cls-2" d="M-85.5,17.29c21.5-1.49,27.3,1.4,59-1.24C-17.5,15.3-3,17.47,0,17.29"/><path class="cls-2" d="M-85.5,22.7c14.41.72,30.66,2.35,49.63.4,9.76-1,22.62-.14,35.88-.4"/><path class="cls-2" d="M-85.5,36.52c18.07-.27,22.29-1.93,56-.21,14.75.75,22.5,1,29.5.21"/><path class="cls-2" d="M-85.5,42.74c12.85.5,24.5-1.44,45.62.11C-23.33,44.07-10,41.43,0,42.74"/><path class="cls-2" d="M-85.5,56.18c20.5-.37,17.51-.75,45,.13,31.5,1,40-.13,40.5-.12"/><path class="cls-2" d="M-85.5,63.46c20.94-.32,17.61,1,50.25-.91C-33.19,62.43-9,64.8,0,63.46"/><path class="cls-2" d="M-85.5,68.7a431.07,431.07,0,0,0,50.62.65c9.51-.48,20.38.45,34.88-.65"/><path class="cls-2" d="M-85.5,75.7c20.94.53,52.5-.4,73.5.35,1.41.05,10.49-.28,12-.35"/><path class="cls-2" d="M-85.5,83.21c30-1.91,65,1.09,79.5.09,1.76-.12,4.1,0,6-.09"/><path class="cls-2" d="M-85.5,89.33c10.68.16,21.46-1.1,38.5,0,24,1.5,41.78.12,47,0"/><path class="cls-2" d="M-85.5,50.09c22.15-.63,46.5-1.79,57.75-.79A254.16,254.16,0,0,0,0,50.09"/><path class="cls-2" d="M-85.5,29.52c18.07-.27,22-1.21,46-.21C-18,30.2-9,30.3,0,29.52"/></pattern></defs><title>MARCOS DINAMICOS FINALES</title><path class="cls-3" d="M-1,62.22V1.15H190.41V62.22ZM177.25,14.31H12.15V49.06H177.25Z"/><path class="cls-4" d="M24.37,40.38H21.95V23h2.52c2.86,0,5,1.81,5,4.57,0,2-.86,3.36-2.48,3.88a4.08,4.08,0,0,1,2.91,4C29.9,38.45,27.83,40.38,24.37,40.38ZM24.61,25h-.52v5.62h.6c1.79,0,2.64-1.34,2.64-3.07A2.68,2.68,0,0,0,24.61,25Zm.14,7.64h-.67v5.69h.57c2.07,0,3-1.09,3-2.84A2.77,2.77,0,0,0,24.76,32.66Z"/><path class="cls-4" d="M37.58,40.66a4.74,4.74,0,0,1-4.64-4.71V23H35.1V35.3c0,2,.93,3.24,2.48,3.24s2.53-1.21,2.53-3.24V23h2.12v13A4.74,4.74,0,0,1,37.58,40.66Z"/><path class="cls-4" d="M46,40.38V23h6.79v2H48.18v5.81h4.36v2H48.18v5.5H53v2Z"/><path class="cls-4" d="M63.74,40.38,58.26,28.68s.07.79.07,1.15V40.38H56.19V23h1.66l5.48,11.79s-.07-.79-.07-1.14V23h2.14V40.38Z"/><path class="cls-4" d="M74.05,40.66c-4,0-5.43-5-5.43-9s1.38-8.91,5.43-8.91c4.33,0,5.43,4.76,5.43,8.91S78.2,40.66,74.05,40.66Zm0-15.83c-2.62,0-3.19,3.62-3.19,6.79,0,3,.57,6.93,3.19,6.93s3.19-3.93,3.19-6.93C77.25,28.45,76.75,24.83,74.05,24.83Z"/><path class="cls-4" d="M85.41,40.66a4.15,4.15,0,0,1-3.55-1.88l1.45-1.45a2.75,2.75,0,0,0,2.14,1.21c1.29,0,1.76-1,1.76-2.09,0-3.36-5.29-5.29-5.29-9.38a4.12,4.12,0,0,1,3.91-4.36,3.74,3.74,0,0,1,3.24,1.64l-1.5,1.38a2.29,2.29,0,0,0-1.74-.9c-1.19,0-1.71,1-1.71,2.12,0,2.93,5.29,4.88,5.29,9.36A4.08,4.08,0,0,1,85.41,40.66Z"/><path class="cls-4" d="M101.51,40.38V29.49a10.66,10.66,0,0,1,.1-1.14l-3.07,7.33h-1l-3.07-7.33a10.6,10.6,0,0,1,.1,1.14V40.38H92.46V23h1.88l3.38,8a8.48,8.48,0,0,1,.36,1.07s.19-.64.36-1.07l3.38-8h1.83V40.38Z"/><path class="cls-4" d="M112.3,40.66c-4,0-5.43-5-5.43-9s1.38-8.91,5.43-8.91c4.33,0,5.43,4.76,5.43,8.91S116.44,40.66,112.3,40.66Zm0-15.83c-2.62,0-3.19,3.62-3.19,6.79,0,3,.57,6.93,3.19,6.93s3.19-3.93,3.19-6.93C115.49,28.45,115,24.83,112.3,24.83Z"/><path class="cls-4" d="M124.56,25V40.38h-2.14V25H119.7V23h7.57v2Z"/><path class="cls-4" d="M130.19,40.38V23h2.14V40.38Z"/><path class="cls-4" d="M141.21,40.38h-1.62L135.14,23h2.22l2.71,11c.14.57.36,1.91.36,1.91s.21-1.33.36-1.91l2.71-11h2.17Z"/><path class="cls-4" d="M152.77,40.66c-4,0-5.43-5-5.43-9s1.38-8.91,5.43-8.91c4.33,0,5.43,4.76,5.43,8.91S156.91,40.66,152.77,40.66Zm0-15.83c-2.62,0-3.19,3.62-3.19,6.79,0,3,.57,6.93,3.19,6.93S156,34.61,156,31.62C156,28.45,155.46,24.83,152.77,24.83Z"/><path class="cls-4" d="M164.26,40.66a4.15,4.15,0,0,1-3.55-1.88l1.45-1.45a2.75,2.75,0,0,0,2.14,1.21c1.29,0,1.76-1,1.76-2.09,0-3.36-5.29-5.29-5.29-9.38a4.12,4.12,0,0,1,3.9-4.36,3.74,3.74,0,0,1,3.24,1.64l-1.5,1.38a2.3,2.3,0,0,0-1.74-.9c-1.19,0-1.71,1-1.71,2.12,0,2.93,5.29,4.88,5.29,9.36A4.08,4.08,0,0,1,164.26,40.66Z"/><path class="cls-4" d="M25.92,69.35v7.09H25V69.35H22v-.84h6.9v.84Z"/><path class="cls-4" d="M30.88,68.84a.61.61,0,0,1-.64.6.6.6,0,0,1-.62-.6.61.61,0,0,1,.62-.6A.62.62,0,0,1,30.88,68.84Zm-1.09,7.6V70.6h.92v5.83Z"/><path class="cls-4" d="M38.13,73.7H33.08a2.14,2.14,0,0,0,2.11,2.09,2,2,0,0,0,2-1.26l.81.19a2.83,2.83,0,0,1-2.82,1.86,3.06,3.06,0,0,1,.05-6.13,2.87,2.87,0,0,1,2.9,2.91Zm-5-.67h4.1a1.94,1.94,0,0,0-2-1.77A2.11,2.11,0,0,0,33.11,73Z"/><path class="cls-4" d="M45.09,72.94v3.49h-.91V73.11a1.65,1.65,0,0,0-1.64-1.82c-1.23,0-2,.83-2,2.34v2.8h-.91V70.6h.91v1a2.54,2.54,0,0,1,2.22-1.11A2.3,2.3,0,0,1,45.09,72.94Z"/><path class="cls-4" d="M52.65,76.43h-.91v-.92a2.88,2.88,0,0,1-2.35,1.08,3.07,3.07,0,0,1,0-6.13,2.88,2.88,0,0,1,2.35,1.08V67.92h.91Zm-.91-2.91a2.21,2.21,0,0,0-2.2-2.27,2.27,2.27,0,0,0,0,4.53A2.21,2.21,0,0,0,51.73,73.52Z"/><path class="cls-4" d="M60.28,76.43h-.91v-.92A2.88,2.88,0,0,1,57,76.59a3.07,3.07,0,0,1,0-6.13,2.88,2.88,0,0,1,2.34,1.08V70.6h.91Zm-.91-2.91a2.21,2.21,0,0,0-2.2-2.27,2.27,2.27,0,0,0,0,4.53A2.21,2.21,0,0,0,59.37,73.52Z"/><path class="cls-4" d="M70,74.43l.84.23a2.78,2.78,0,0,1-2.79,1.93,3.06,3.06,0,1,1,0-6.13,2.84,2.84,0,0,1,2.8,1.94l-.87.26a1.93,1.93,0,0,0-1.93-1.37,2.15,2.15,0,0,0-2.19,2.23,2.13,2.13,0,0,0,2.19,2.23A2,2,0,0,0,70,74.43Z"/><path class="cls-4" d="M78.07,73.51a3.13,3.13,0,1,1-3.12-3A3,3,0,0,1,78.07,73.51Zm-.9,0a2.23,2.23,0,1,0-4.47,0,2.23,2.23,0,1,0,4.47,0Z"/><path class="cls-4" d="M85,72.94v3.49h-.91V73.11a1.64,1.64,0,0,0-1.64-1.82c-1.24,0-2.05.83-2.05,2.34v2.8h-.91V70.6h.91v1a2.54,2.54,0,0,1,2.22-1.11A2.3,2.3,0,0,1,85,72.94Z"/><path class="cls-4" d="M90.54,74.66c.08.77.8,1.18,1.74,1.18s1.41-.39,1.41-1-.37-.71-1-.84l-1.35-.3c-1-.2-1.53-.69-1.53-1.49,0-1.05.88-1.76,2.23-1.76a2.24,2.24,0,0,1,2.41,1.62l-.87.19a1.42,1.42,0,0,0-1.56-1.07c-.84,0-1.31.4-1.31,1s.32.68.9.8l1.42.31c.86.19,1.52.64,1.52,1.53,0,1.15-1,1.8-2.38,1.8s-2.43-.59-2.57-1.73Z"/><path class="cls-4" d="M101.53,73.7H96.47a2.14,2.14,0,0,0,2.11,2.09,2,2,0,0,0,2-1.26l.81.19a2.84,2.84,0,0,1-2.82,1.86,3.06,3.06,0,0,1,.06-6.13,2.86,2.86,0,0,1,2.89,2.91Zm-5-.67h4.11a1.94,1.94,0,0,0-2-1.77A2.11,2.11,0,0,0,96.51,73Z"/><path class="cls-4" d="M108.48,72.94v3.49h-.91V73.11a1.64,1.64,0,0,0-1.63-1.82c-1.23,0-2,.83-2,2.34v2.8H103V70.6h.91v1a2.54,2.54,0,0,1,2.22-1.11A2.3,2.3,0,0,1,108.48,72.94Z"/><path class="cls-4" d="M113.83,76.12a2.25,2.25,0,0,1-1.36.46,1.8,1.8,0,0,1-1.95-2V71.36h-1.28V70.6h1.28V68.74h.92V70.6h2.1v.76h-2.1v3.19a1.05,1.05,0,0,0,1.09,1.18,1.83,1.83,0,0,0,1-.36Z"/><path class="cls-4" d="M116,68.84a.61.61,0,0,1-.64.6.6.6,0,0,1-.62-.6.61.61,0,0,1,.62-.6A.62.62,0,0,1,116,68.84ZM115,76.43V70.6h.92v5.83Z"/><path class="cls-4" d="M123.55,76.43h-.9v-.92a2.89,2.89,0,0,1-2.35,1.08,3.07,3.07,0,0,1,0-6.13,2.88,2.88,0,0,1,2.35,1.08V67.92h.9Zm-.9-2.91a2.21,2.21,0,0,0-2.2-2.27,2.27,2.27,0,0,0,0,4.53A2.21,2.21,0,0,0,122.65,73.52Z"/><path class="cls-4" d="M131.28,73.51a3.13,3.13,0,1,1-3.12-3A3,3,0,0,1,131.28,73.51Zm-.9,0a2.24,2.24,0,1,0-4.47,0,2.24,2.24,0,1,0,4.47,0Z"/><path class="cls-4" d="M136.4,74.66c.09.77.81,1.18,1.74,1.18s1.41-.39,1.41-1-.37-.71-1-.84l-1.35-.3c-1-.2-1.53-.69-1.53-1.49,0-1.05.88-1.76,2.23-1.76a2.24,2.24,0,0,1,2.41,1.62l-.87.19a1.42,1.42,0,0,0-1.56-1.07c-.84,0-1.3.4-1.3,1s.32.68.9.8l1.42.31c.86.19,1.52.64,1.52,1.53,0,1.15-1,1.8-2.38,1.8s-2.42-.59-2.57-1.73Z"/><path class="cls-4" d="M147.7,73.51a3.13,3.13,0,1,1-3.12-3A3,3,0,0,1,147.7,73.51Zm-.9,0a2.24,2.24,0,1,0-4.47,0,2.24,2.24,0,1,0,4.47,0Z"/><path class="cls-4" d="M153.73,74.43l.83.23a2.77,2.77,0,0,1-2.79,1.93,3.06,3.06,0,1,1,0-6.13,2.83,2.83,0,0,1,2.8,1.94l-.87.26a1.92,1.92,0,0,0-1.93-1.37,2.15,2.15,0,0,0-2.19,2.23,2.13,2.13,0,0,0,2.19,2.23A2,2,0,0,0,153.73,74.43Z"/><path class="cls-4" d="M157.13,68.84a.61.61,0,0,1-.63.6.6.6,0,0,1-.62-.6.61.61,0,0,1,.62-.6A.62.62,0,0,1,157.13,68.84ZM156,76.43V70.6H157v5.83Z"/><path class="cls-4" d="M164.6,76.43h-.91v-.92a2.87,2.87,0,0,1-2.34,1.08,3.07,3.07,0,0,1,0-6.13,2.87,2.87,0,0,1,2.34,1.08V70.6h.91Zm-.91-2.91a2.21,2.21,0,0,0-2.2-2.27,2.27,2.27,0,0,0,0,4.53A2.21,2.21,0,0,0,163.7,73.52Z"/><path class="cls-4" d="M166.5,76.43V67.92h.91v8.52Z"/></svg>