<svg id="Capa_1" data-name="Capa 1" xmlns="http://www.w3.org/2000/svg" xmlns:xlink="http://www.w3.org/1999/xlink" viewBox="0 0 190 78"><defs><style>.cls-1{fill:none;}.cls-2{fill:#070308;}.cls-3{fill:url(#New_Pattern_2);}</style><pattern id="New_Pattern_2" data-name="New Pattern 2" width="39.68" height="39.68" patternTransform="translate(-164.48 97.64) scale(0.44)" patternUnits="userSpaceOnUse" viewBox="0 0 39.69 39.69"><rect class="cls-1" width="39.68" height="39.68"/><polygon class="cls-2" points="39.69 24.47 40.83 28.74 45.25 28.51 41.54 30.93 43.13 35.06 39.69 32.27 36.24 35.06 37.83 30.93 34.12 28.51 38.54 28.74 39.69 24.47"/><polygon class="cls-2" points="19.84 34.39 20.99 38.66 25.41 38.44 21.7 40.85 23.28 44.98 19.84 42.2 16.4 44.98 17.98 40.85 14.27 38.44 18.7 38.66 19.84 34.39"/><polygon class="cls-2" points="0 24.47 1.15 28.74 5.57 28.51 1.85 30.93 3.44 35.06 0 32.27 -3.44 35.06 -1.86 30.93 -5.57 28.51 -1.15 28.74 0 24.47"/><polygon class="cls-2" points="39.69 4.62 40.83 8.9 45.25 8.67 41.54 11.08 43.13 15.22 39.69 12.43 36.24 15.22 37.83 11.08 34.12 8.67 38.54 8.9 39.69 4.62"/><polygon class="cls-2" points="19.84 14.55 20.99 18.82 25.41 18.59 21.7 21 23.28 25.14 19.84 22.35 16.4 25.14 17.98 21 14.27 18.59 18.7 18.82 19.84 14.55"/><polygon class="cls-2" points="0 4.62 1.15 8.9 5.57 8.67 1.85 11.08 3.44 15.22 0 12.43 -3.44 15.22 -1.86 11.08 -5.57 8.67 -1.15 8.9 0 4.62"/><polygon class="cls-2" points="19.84 -5.3 20.99 -1.02 25.41 -1.25 21.7 1.16 23.28 5.3 19.84 2.51 16.4 5.3 17.98 1.16 14.27 -1.25 18.7 -1.02 19.84 -5.3"/></pattern></defs><title>MARCOS DINAMICOS FINALES</title><path class="cls-3" d="M1,61.18V.67H190.63V61.18ZM177.59,13.71H14V48.14H177.59Z"/><path class="cls-2" d="M26.12,39.53H23.71V22.31h2.5c2.83,0,5,1.79,5,4.53,0,2-.85,3.33-2.45,3.85a4,4,0,0,1,2.88,4C31.6,37.62,29.54,39.53,26.12,39.53Zm.24-15.21h-.52v5.57h.59c1.77,0,2.62-1.33,2.62-3A2.65,2.65,0,0,0,26.36,24.32Zm.14,7.57h-.66v5.64h.57c2.05,0,3-1.09,3-2.81A2.74,2.74,0,0,0,26.5,31.89Z"/><path class="cls-2" d="M39.2,39.82a4.7,4.7,0,0,1-4.6-4.67V22.31h2.15v12.2c0,2,.92,3.21,2.45,3.21s2.5-1.2,2.5-3.21V22.31h2.1V35.14A4.7,4.7,0,0,1,39.2,39.82Z"/><path class="cls-2" d="M47.58,39.53V22.31h6.72v2h-4.6v5.76H54v2H49.71v5.45h4.81v2Z"/><path class="cls-2" d="M65.13,39.53,59.7,27.95s.07.78.07,1.14V39.53H57.65V22.31H59.3L64.72,34s-.07-.78-.07-1.13V22.31h2.12V39.53Z"/><path class="cls-2" d="M75.35,39.82c-4,0-5.38-5-5.38-9S71.33,22,75.35,22c4.29,0,5.38,4.72,5.38,8.82S79.45,39.82,75.35,39.82Zm0-15.69c-2.6,0-3.16,3.59-3.16,6.73,0,3,.57,6.86,3.16,6.86s3.16-3.89,3.16-6.86C78.51,27.72,78,24.13,75.35,24.13Z"/><path class="cls-2" d="M86.59,39.82A4.12,4.12,0,0,1,83.08,38l1.44-1.44a2.74,2.74,0,0,0,2.13,1.2c1.27,0,1.74-1,1.74-2.08,0-3.33-5.24-5.24-5.24-9.3A4.08,4.08,0,0,1,87,22a3.71,3.71,0,0,1,3.21,1.62L88.74,25a2.27,2.27,0,0,0-1.72-.9c-1.18,0-1.7.94-1.7,2.1,0,2.9,5.24,4.84,5.24,9.27A4,4,0,0,1,86.59,39.82Z"/><path class="cls-2" d="M102.55,39.53V28.75a10.57,10.57,0,0,1,.09-1.13l-3,7.27h-.94l-3-7.27a10.45,10.45,0,0,1,.1,1.13V39.53H93.58V22.31h1.86l3.35,7.95a8.41,8.41,0,0,1,.35,1.07s.19-.64.36-1.07l3.35-7.95h1.82V39.53Z"/><path class="cls-2" d="M113.23,39.82c-4,0-5.38-5-5.38-9S109.23,22,113.23,22c4.29,0,5.38,4.72,5.38,8.82S117.34,39.82,113.23,39.82Zm0-15.69c-2.59,0-3.16,3.59-3.16,6.73,0,3,.57,6.86,3.16,6.86s3.16-3.89,3.16-6.86C116.4,27.72,115.9,24.13,113.23,24.13Z"/><path class="cls-2" d="M125.39,24.32V39.53h-2.12V24.32h-2.69v-2h7.51v2Z"/><path class="cls-2" d="M131,39.53V22.31h2.12V39.53Z"/><path class="cls-2" d="M141.89,39.53h-1.61l-4.41-17.22h2.2l2.69,10.85c.14.56.35,1.89.35,1.89s.21-1.32.35-1.89l2.69-10.85h2.15Z"/><path class="cls-2" d="M153.34,39.82c-4,0-5.38-5-5.38-9S149.32,22,153.34,22c4.29,0,5.38,4.72,5.38,8.82S157.44,39.82,153.34,39.82Zm0-15.69c-2.6,0-3.16,3.59-3.16,6.73,0,3,.57,6.86,3.16,6.86s3.16-3.89,3.16-6.86C156.5,27.72,156,24.13,153.34,24.13Z"/><path class="cls-2" d="M164.72,39.82A4.11,4.11,0,0,1,161.21,38l1.44-1.44a2.74,2.74,0,0,0,2.12,1.2c1.27,0,1.75-1,1.75-2.08,0-3.33-5.24-5.24-5.24-9.3A4.08,4.08,0,0,1,165.15,22a3.71,3.71,0,0,1,3.21,1.62L166.87,25a2.27,2.27,0,0,0-1.72-.9c-1.18,0-1.7.94-1.7,2.1,0,2.9,5.24,4.84,5.24,9.27A4,4,0,0,1,164.72,39.82Z"/><path class="cls-2" d="M27.66,69.21v7h-.95v-7H23.76v-.83H30.6v.83Z"/><path class="cls-2" d="M32.57,68.71a.6.6,0,0,1-.63.6.59.59,0,0,1-.62-.6.61.61,0,0,1,.62-.6A.62.62,0,0,1,32.57,68.71Zm-1.08,7.53V70.45h.91v5.78Z"/><path class="cls-2" d="M39.76,73.53h-5a2.12,2.12,0,0,0,2.09,2.08,2,2,0,0,0,2-1.25l.8.19a2.8,2.8,0,0,1-2.79,1.84,3,3,0,0,1,.05-6.07,2.84,2.84,0,0,1,2.87,2.89Zm-5-.67h4.06a1.92,1.92,0,0,0-2-1.76A2.1,2.1,0,0,0,34.78,72.86Z"/><path class="cls-2" d="M46.65,72.78v3.46h-.9V72.94a1.63,1.63,0,0,0-1.62-1.81c-1.22,0-2,.82-2,2.32v2.78h-.9V70.45h.9v1a2.51,2.51,0,0,1,2.2-1.1A2.28,2.28,0,0,1,46.65,72.78Z"/><path class="cls-2" d="M54.13,76.23h-.9v-.91a2.86,2.86,0,0,1-2.32,1.07,3,3,0,0,1,0-6.07,2.85,2.85,0,0,1,2.32,1.07V67.79h.9Zm-.9-2.89a2.2,2.2,0,0,0-2.18-2.25,2.25,2.25,0,0,0,0,4.49A2.19,2.19,0,0,0,53.23,73.35Z"/><path class="cls-2" d="M61.7,76.23h-.9v-.91a2.86,2.86,0,0,1-2.32,1.07,3,3,0,0,1,0-6.07,2.86,2.86,0,0,1,2.32,1.07v-.93h.9Zm-.9-2.89a2.19,2.19,0,0,0-2.18-2.25,2.25,2.25,0,0,0,0,4.49A2.19,2.19,0,0,0,60.8,73.35Z"/><path class="cls-2" d="M71.36,74.25l.83.22a2.75,2.75,0,0,1-2.76,1.91,3,3,0,1,1,0-6.07,2.82,2.82,0,0,1,2.78,1.92l-.86.26a1.92,1.92,0,0,0-1.91-1.36,2.13,2.13,0,0,0-2.17,2.21,2.11,2.11,0,0,0,2.17,2.21A1.93,1.93,0,0,0,71.36,74.25Z"/><path class="cls-2" d="M79.32,73.34a3.1,3.1,0,1,1-3.09-3A3,3,0,0,1,79.32,73.34Zm-.89,0a2.21,2.21,0,1,0-4.43,0,2.21,2.21,0,1,0,4.43,0Z"/><path class="cls-2" d="M86.21,72.78v3.46h-.9V72.94a1.63,1.63,0,0,0-1.62-1.81c-1.23,0-2,.82-2,2.32v2.78h-.9V70.45h.9v1a2.52,2.52,0,0,1,2.2-1.1A2.28,2.28,0,0,1,86.21,72.78Z"/><path class="cls-2" d="M91.68,74.47c.08.76.8,1.17,1.72,1.17s1.4-.39,1.4-1-.37-.7-1-.83l-1.34-.29c-1-.2-1.52-.68-1.52-1.48,0-1,.87-1.75,2.21-1.75a2.22,2.22,0,0,1,2.39,1.61l-.86.19A1.41,1.41,0,0,0,93.18,71c-.83,0-1.29.4-1.29.95s.32.67.89.8l1.41.31c.85.19,1.51.63,1.51,1.51,0,1.14-1,1.78-2.36,1.78s-2.4-.59-2.55-1.71Z"/><path class="cls-2" d="M102.57,73.53h-5a2.12,2.12,0,0,0,2.09,2.08,2,2,0,0,0,2-1.25l.81.19a2.81,2.81,0,0,1-2.8,1.84,3,3,0,0,1,.06-6.07,2.83,2.83,0,0,1,2.87,2.89Zm-5-.67h4.07a1.93,1.93,0,0,0-2-1.76A2.09,2.09,0,0,0,97.59,72.86Z"/><path class="cls-2" d="M109.46,72.78v3.46h-.9V72.94a1.63,1.63,0,0,0-1.62-1.81c-1.22,0-2,.82-2,2.32v2.78H104V70.45h.9v1a2.51,2.51,0,0,1,2.2-1.1A2.28,2.28,0,0,1,109.46,72.78Z"/><path class="cls-2" d="M114.76,75.93a2.22,2.22,0,0,1-1.35.46,1.78,1.78,0,0,1-1.93-2V71.21h-1.27v-.75h1.27V68.61h.91v1.84h2.09v.75h-2.09v3.16a1,1,0,0,0,1.08,1.17,1.84,1.84,0,0,0,1-.35Z"/><path class="cls-2" d="M117,68.71a.6.6,0,0,1-.63.6.59.59,0,0,1-.61-.6.61.61,0,0,1,.61-.6A.62.62,0,0,1,117,68.71Zm-1.08,7.53V70.45h.91v5.78Z"/><path class="cls-2" d="M124.39,76.23h-.89v-.91a2.87,2.87,0,0,1-2.33,1.07,3,3,0,0,1,0-6.07,2.86,2.86,0,0,1,2.33,1.07V67.79h.89Zm-.89-2.89a2.19,2.19,0,0,0-2.18-2.25,2.25,2.25,0,0,0,0,4.49A2.19,2.19,0,0,0,123.49,73.35Z"/><path class="cls-2" d="M132.05,73.34a3.1,3.1,0,0,1-6.2,0,3.1,3.1,0,0,1,6.2,0Zm-.89,0a2.22,2.22,0,1,0-4.43,0,2.22,2.22,0,1,0,4.43,0Z"/><path class="cls-2" d="M137.12,74.47c.09.76.8,1.17,1.72,1.17s1.4-.39,1.4-1-.37-.7-1-.83l-1.34-.29c-1-.2-1.51-.68-1.51-1.48,0-1,.87-1.75,2.21-1.75A2.22,2.22,0,0,1,141,71.92l-.87.19A1.4,1.4,0,0,0,138.61,71c-.83,0-1.29.4-1.29.95s.32.67.89.8l1.41.31c.85.19,1.5.63,1.5,1.51,0,1.14-1,1.78-2.36,1.78s-2.4-.59-2.54-1.71Z"/><path class="cls-2" d="M148.31,73.34a3.1,3.1,0,1,1-3.1-3A3,3,0,0,1,148.31,73.34Zm-.89,0a2.22,2.22,0,1,0-4.43,0,2.22,2.22,0,1,0,4.43,0Z"/><path class="cls-2" d="M154.29,74.25l.83.22a2.74,2.74,0,0,1-2.76,1.91,3,3,0,1,1,0-6.07,2.81,2.81,0,0,1,2.78,1.92l-.86.26a1.91,1.91,0,0,0-1.91-1.36,2.13,2.13,0,0,0-2.17,2.21,2.11,2.11,0,0,0,2.17,2.21A1.93,1.93,0,0,0,154.29,74.25Z"/><path class="cls-2" d="M157.66,68.71a.6.6,0,0,1-.63.6.59.59,0,0,1-.62-.6.61.61,0,0,1,.62-.6A.62.62,0,0,1,157.66,68.71Zm-1.08,7.53V70.45h.91v5.78Z"/><path class="cls-2" d="M165.06,76.23h-.9v-.91a2.85,2.85,0,0,1-2.32,1.07,3,3,0,0,1,0-6.07,2.85,2.85,0,0,1,2.32,1.07v-.93h.9Zm-.9-2.89A2.19,2.19,0,0,0,162,71.1a2.25,2.25,0,0,0,0,4.49A2.19,2.19,0,0,0,164.17,73.35Z"/><path class="cls-2" d="M166.94,76.23V67.79h.9v8.44Z"/></svg>