<svg id="Capa_1" data-name="Capa 1" xmlns="http://www.w3.org/2000/svg" xmlns:xlink="http://www.w3.org/1999/xlink" viewBox="0 0 190 78"><defs><style>.cls-1,.cls-2{fill:none;}.cls-2{stroke:#070308;stroke-linejoin:round;stroke-width:0.4px;}.cls-3{fill:url(#Diagonal_Lines);}.cls-4{fill:#070308;}</style><pattern id="Diagonal_Lines" data-name="Diagonal Lines" width="72" height="72" patternTransform="translate(-590.66 594.11) scale(1.01)" patternUnits="userSpaceOnUse" viewBox="0 0 72 72"><rect class="cls-1" width="72" height="72"/><line class="cls-2" x1="66" y1="84" x2="84" y2="66"/><line class="cls-2" x1="66" y1="90" x2="90" y2="66"/><line class="cls-2" x1="66" y1="96" x2="96" y2="66"/><line class="cls-2" x1="66" y1="102" x2="102" y2="66"/><line class="cls-2" x1="66" y1="108" x2="108" y2="66"/><line class="cls-2" x1="66" y1="114" x2="114" y2="66"/><line class="cls-2" x1="66" y1="120" x2="120" y2="66"/><line class="cls-2" x1="66" y1="126" x2="126" y2="66"/><line class="cls-2" x1="66" y1="132" x2="132" y2="66"/><line class="cls-2" x1="66" y1="138" x2="138" y2="66"/><line class="cls-2" x1="66" y1="144" x2="144" y2="66"/><line class="cls-2" x1="66" y1="150" x2="150" y2="66"/><line class="cls-2" x1="72" y1="150" x2="150" y2="72"/><line class="cls-2" x1="-6" y1="84" x2="12" y2="66"/><line class="cls-2" x1="-6" y1="90" x2="18" y2="66"/><line class="cls-2" x1="-6" y1="96" x2="24" y2="66"/><line class="cls-2" x1="-6" y1="102" x2="30" y2="66"/><line class="cls-2" x1="-6" y1="108" x2="36" y2="66"/><line class="cls-2" x1="-6" y1="114" x2="42" y2="66"/><line class="cls-2" x1="-6" y1="120" x2="48" y2="66"/><line class="cls-2" x1="-6" y1="126" x2="54" y2="66"/><line class="cls-2" x1="-6" y1="132" x2="60" y2="66"/><line class="cls-2" x1="-6" y1="138" x2="66" y2="66"/><line class="cls-2" x1="-6" y1="144" x2="72" y2="66"/><line class="cls-2" x1="-6" y1="150" x2="78" y2="66"/><line class="cls-2" y1="150" x2="78" y2="72"/><line class="cls-2" x1="-78" y1="144" y2="66"/><line class="cls-2" x1="-78" y1="150" x2="6" y2="66"/><line class="cls-2" x1="-72" y1="150" x2="6" y2="72"/><line class="cls-2" x1="66" y1="12" x2="84" y2="-6"/><line class="cls-2" x1="66" y1="18" x2="90" y2="-6"/><line class="cls-2" x1="66" y1="24" x2="96" y2="-6"/><line class="cls-2" x1="66" y1="30" x2="102" y2="-6"/><line class="cls-2" x1="66" y1="36" x2="108" y2="-6"/><line class="cls-2" x1="66" y1="42" x2="114" y2="-6"/><line class="cls-2" x1="66" y1="48" x2="120" y2="-6"/><line class="cls-2" x1="66" y1="54" x2="126" y2="-6"/><line class="cls-2" x1="66" y1="60" x2="132" y2="-6"/><line class="cls-2" x1="66" y1="66" x2="138" y2="-6"/><line class="cls-2" x1="66" y1="72" x2="144" y2="-6"/><line class="cls-2" x1="66" y1="78" x2="150" y2="-6"/><line class="cls-2" x1="72" y1="78" x2="150"/><line class="cls-2" x1="-6" y1="12" x2="12" y2="-6"/><line class="cls-2" x1="-6" y1="18" x2="18" y2="-6"/><line class="cls-2" x1="-6" y1="24" x2="24" y2="-6"/><line class="cls-2" x1="-6" y1="30" x2="30" y2="-6"/><line class="cls-2" x1="-6" y1="36" x2="36" y2="-6"/><line class="cls-2" x1="-6" y1="42" x2="42" y2="-6"/><line class="cls-2" x1="-6" y1="48" x2="48" y2="-6"/><line class="cls-2" x1="-6" y1="54" x2="54" y2="-6"/><line class="cls-2" x1="-6" y1="60" x2="60" y2="-6"/><line class="cls-2" x1="-6" y1="66" x2="66" y2="-6"/><line class="cls-2" x1="-6" y1="72" x2="72" y2="-6"/><line class="cls-2" x1="-6" y1="78" x2="78" y2="-6"/><line class="cls-2" y1="78" x2="78"/><line class="cls-2" x1="6" y1="78" x2="78" y2="6"/><line class="cls-2" x1="12" y1="78" x2="78" y2="12"/><line class="cls-2" x1="18" y1="78" x2="78" y2="18"/><line class="cls-2" x1="24" y1="78" x2="78" y2="24"/><line class="cls-2" x1="30" y1="78" x2="78" y2="30"/><line class="cls-2" x1="36" y1="78" x2="78" y2="36"/><line class="cls-2" x1="42" y1="78" x2="78" y2="42"/><line class="cls-2" x1="48" y1="78" x2="78" y2="48"/><line class="cls-2" x1="54" y1="78" x2="78" y2="54"/><line class="cls-2" x1="60" y1="78" x2="78" y2="60"/><line class="cls-2" x1="66" y1="78" x2="78" y2="66"/><line class="cls-2" x1="-78" y1="72" y2="-6"/><line class="cls-2" x1="-78" y1="78" x2="6" y2="-6"/><line class="cls-2" x1="-72" y1="78" x2="6"/><line class="cls-2" x1="-66" y1="78" x2="6" y2="6"/><line class="cls-2" x1="-60" y1="78" x2="6" y2="12"/><line class="cls-2" x1="-54" y1="78" x2="6" y2="18"/><line class="cls-2" x1="-48" y1="78" x2="6" y2="24"/><line class="cls-2" x1="-42" y1="78" x2="6" y2="30"/><line class="cls-2" x1="-36" y1="78" x2="6" y2="36"/><line class="cls-2" x1="-30" y1="78" x2="6" y2="42"/><line class="cls-2" x1="-24" y1="78" x2="6" y2="48"/><line class="cls-2" x1="-18" y1="78" x2="6" y2="54"/><line class="cls-2" x1="-12" y1="78" x2="6" y2="60"/><line class="cls-2" x1="-6" y1="78" x2="6" y2="66"/><line class="cls-2" x1="66" x2="144" y2="-78"/><line class="cls-2" x1="66" y1="6" x2="150" y2="-78"/><line class="cls-2" x1="72" y1="6" x2="150" y2="-72"/><line class="cls-2" x1="-6" x2="72" y2="-78"/><line class="cls-2" x1="-6" y1="6" x2="78" y2="-78"/><line class="cls-2" y1="6" x2="78" y2="-72"/><line class="cls-2" x1="6" y1="6" x2="78" y2="-66"/><line class="cls-2" x1="12" y1="6" x2="78" y2="-60"/><line class="cls-2" x1="18" y1="6" x2="78" y2="-54"/><line class="cls-2" x1="24" y1="6" x2="78" y2="-48"/><line class="cls-2" x1="30" y1="6" x2="78" y2="-42"/><line class="cls-2" x1="36" y1="6" x2="78" y2="-36"/><line class="cls-2" x1="42" y1="6" x2="78" y2="-30"/><line class="cls-2" x1="48" y1="6" x2="78" y2="-24"/><line class="cls-2" x1="54" y1="6" x2="78" y2="-18"/><line class="cls-2" x1="60" y1="6" x2="78" y2="-12"/><line class="cls-2" x1="66" y1="6" x2="78" y2="-6"/><line class="cls-2" x1="-78" y2="-78"/><line class="cls-2" x1="-78" y1="6" x2="6" y2="-78"/><line class="cls-2" x1="-72" y1="6" x2="6" y2="-72"/><line class="cls-2" x1="-66" y1="6" x2="6" y2="-66"/><line class="cls-2" x1="-60" y1="6" x2="6" y2="-60"/><line class="cls-2" x1="-54" y1="6" x2="6" y2="-54"/><line class="cls-2" x1="-48" y1="6" x2="6" y2="-48"/><line class="cls-2" x1="-42" y1="6" x2="6" y2="-42"/><line class="cls-2" x1="-36" y1="6" x2="6" y2="-36"/><line class="cls-2" x1="-30" y1="6" x2="6" y2="-30"/><line class="cls-2" x1="-24" y1="6" x2="6" y2="-24"/><line class="cls-2" x1="-18" y1="6" x2="6" y2="-18"/><line class="cls-2" x1="-12" y1="6" x2="6" y2="-12"/><line class="cls-2" x1="-6" y1="6" x2="6" y2="-6"/></pattern></defs><title>MARCOS DINAMICOS FINALES</title><path class="cls-3" d="M.27,60.83V.19H190.35V60.83Zm177-47.58H13.34V47.76H177.28Z"/><path class="cls-4" d="M25.48,39.14H23.07V21.88h2.51c2.84,0,5,1.8,5,4.54,0,2-.85,3.34-2.46,3.85a4.06,4.06,0,0,1,2.89,4C31,37.22,28.91,39.14,25.48,39.14Zm.24-15.25h-.52v5.58h.59c1.77,0,2.62-1.33,2.62-3.05A2.66,2.66,0,0,0,25.72,23.88Zm.14,7.59h-.66v5.65h.57c2.06,0,3-1.09,3-2.82A2.75,2.75,0,0,0,25.86,31.48Z"/><path class="cls-4" d="M38.59,39.42A4.71,4.71,0,0,1,34,34.74V21.88h2.15V34.1c0,2,.92,3.22,2.46,3.22s2.51-1.21,2.51-3.22V21.88h2.1V34.74A4.71,4.71,0,0,1,38.59,39.42Z"/><path class="cls-4" d="M47,39.14V21.88h6.74v2H49.12v5.77h4.33v2H49.12v5.46h4.82v2Z"/><path class="cls-4" d="M64.57,39.14,59.13,27.53s.07.78.07,1.14V39.14H57.08V21.88h1.65l5.44,11.7s-.07-.78-.07-1.13V21.88h2.13V39.14Z"/><path class="cls-4" d="M74.81,39.42c-4,0-5.39-5-5.39-9s1.37-8.84,5.39-8.84c4.3,0,5.39,4.73,5.39,8.84S78.93,39.42,74.81,39.42Zm0-15.73c-2.6,0-3.17,3.59-3.17,6.74,0,3,.57,6.88,3.17,6.88S78,33.42,78,30.44C78,27.29,77.48,23.7,74.81,23.7Z"/><path class="cls-4" d="M86.09,39.42a4.11,4.11,0,0,1-3.52-1.87L84,36.11a2.73,2.73,0,0,0,2.13,1.21c1.28,0,1.75-1,1.75-2.08,0-3.34-5.25-5.25-5.25-9.32a4.09,4.09,0,0,1,3.88-4.33,3.71,3.71,0,0,1,3.22,1.63l-1.49,1.37a2.28,2.28,0,0,0-1.73-.89c-1.18,0-1.7.95-1.7,2.1,0,2.91,5.25,4.85,5.25,9.29A4.06,4.06,0,0,1,86.09,39.42Z"/><path class="cls-4" d="M102.07,39.14V28.33a10.53,10.53,0,0,1,.1-1.14l-3.05,7.28h-.95l-3-7.28a10.67,10.67,0,0,1,.09,1.14v10.8H93.09V21.88H95l3.36,8a8.08,8.08,0,0,1,.36,1.06s.19-.64.36-1.06l3.36-8h1.82V39.14Z"/><path class="cls-4" d="M112.79,39.42c-4,0-5.39-5-5.39-9s1.37-8.84,5.39-8.84c4.3,0,5.39,4.73,5.39,8.84S116.9,39.42,112.79,39.42Zm0-15.73c-2.6,0-3.17,3.59-3.17,6.74,0,3,.57,6.88,3.17,6.88s3.17-3.9,3.17-6.88C116,27.29,115.46,23.7,112.79,23.7Z"/><path class="cls-4" d="M125,23.88V39.14h-2.13V23.88h-2.7v-2h7.52v2Z"/><path class="cls-4" d="M130.56,39.14V21.88h2.13V39.14Z"/><path class="cls-4" d="M141.5,39.14h-1.61l-4.42-17.26h2.2l2.69,10.88c.14.57.36,1.89.36,1.89s.21-1.32.35-1.89l2.7-10.88h2.15Z"/><path class="cls-4" d="M153,39.42c-4,0-5.39-5-5.39-9S149,21.59,153,21.59c4.3,0,5.39,4.73,5.39,8.84S157.09,39.42,153,39.42Zm0-15.73c-2.6,0-3.17,3.59-3.17,6.74,0,3,.57,6.88,3.17,6.88s3.17-3.9,3.17-6.88C156.15,27.29,155.65,23.7,153,23.7Z"/><path class="cls-4" d="M164.39,39.42a4.12,4.12,0,0,1-3.52-1.87l1.44-1.44a2.74,2.74,0,0,0,2.13,1.21c1.28,0,1.75-1,1.75-2.08,0-3.34-5.25-5.25-5.25-9.32a4.09,4.09,0,0,1,3.88-4.33A3.71,3.71,0,0,1,168,23.22l-1.49,1.37a2.29,2.29,0,0,0-1.73-.89c-1.18,0-1.7.95-1.7,2.1,0,2.91,5.25,4.85,5.25,9.29A4.05,4.05,0,0,1,164.39,39.42Z"/><path class="cls-4" d="M27,69.89v7h-.95v-7h-3v-.83H30v.83Z"/><path class="cls-4" d="M31.94,69.38a.6.6,0,0,1-.63.6.59.59,0,0,1-.62-.6.61.61,0,0,1,.62-.6A.62.62,0,0,1,31.94,69.38Zm-1.08,7.54V71.13h.91v5.79Z"/><path class="cls-4" d="M39.14,74.21h-5a2.13,2.13,0,0,0,2.09,2.08,2,2,0,0,0,2-1.25l.81.19a2.81,2.81,0,0,1-2.8,1.84A3,3,0,0,1,36.26,71a2.85,2.85,0,0,1,2.88,2.89Zm-5-.67h4.07a1.92,1.92,0,0,0-2-1.76A2.1,2.1,0,0,0,34.15,73.54Z"/><path class="cls-4" d="M46,73.46v3.46h-.9v-3.3a1.64,1.64,0,0,0-1.62-1.81c-1.23,0-2,.82-2,2.33v2.78h-.9V71.13h.9v1A2.52,2.52,0,0,1,43.69,71,2.28,2.28,0,0,1,46,73.46Z"/><path class="cls-4" d="M53.55,76.92h-.9V76a2.86,2.86,0,0,1-2.33,1.07,3,3,0,0,1,0-6.08,2.86,2.86,0,0,1,2.33,1.07v-3.6h.9ZM52.65,74a2.2,2.2,0,0,0-2.18-2.25,2.25,2.25,0,0,0,0,4.5A2.2,2.2,0,0,0,52.65,74Z"/><path class="cls-4" d="M61.13,76.92h-.9V76a2.86,2.86,0,0,1-2.33,1.07,3,3,0,0,1,0-6.08,2.86,2.86,0,0,1,2.33,1.07v-.93h.9ZM60.23,74A2.2,2.2,0,0,0,58,71.78a2.25,2.25,0,0,0,0,4.5A2.19,2.19,0,0,0,60.23,74Z"/><path class="cls-4" d="M70.81,74.94l.83.22a2.76,2.76,0,0,1-2.77,1.91,3,3,0,1,1,0-6.08,2.82,2.82,0,0,1,2.78,1.93l-.86.26a1.92,1.92,0,0,0-1.92-1.36A2.14,2.14,0,0,0,66.71,74a2.11,2.11,0,0,0,2.17,2.21A1.93,1.93,0,0,0,70.81,74.94Z"/><path class="cls-4" d="M78.8,74a3.11,3.11,0,1,1-3.1-3A3,3,0,0,1,78.8,74Zm-.89,0a2.22,2.22,0,1,0-4.44,0,2.22,2.22,0,1,0,4.44,0Z"/><path class="cls-4" d="M85.7,73.46v3.46h-.9v-3.3a1.63,1.63,0,0,0-1.62-1.81c-1.23,0-2,.82-2,2.33v2.78h-.9V71.13h.9v1A2.52,2.52,0,0,1,83.35,71,2.28,2.28,0,0,1,85.7,73.46Z"/><path class="cls-4" d="M91.19,75.16c.08.76.8,1.18,1.72,1.18s1.4-.39,1.4-1-.37-.71-1-.83L92,74.22c-1-.2-1.52-.68-1.52-1.48,0-1,.88-1.75,2.21-1.75A2.23,2.23,0,0,1,95.1,72.6l-.86.19a1.42,1.42,0,0,0-1.55-1.07c-.83,0-1.3.4-1.3.95s.32.67.89.8l1.41.31c.85.19,1.51.64,1.51,1.52,0,1.14-1,1.79-2.36,1.79s-2.41-.59-2.55-1.72Z"/><path class="cls-4" d="M102.1,74.21h-5a2.13,2.13,0,0,0,2.09,2.08,2,2,0,0,0,2-1.25l.81.19a2.82,2.82,0,0,1-2.8,1.84A3,3,0,0,1,99.22,71a2.84,2.84,0,0,1,2.87,2.89Zm-5-.67h4.08a1.93,1.93,0,0,0-2-1.76A2.09,2.09,0,0,0,97.11,73.54Z"/><path class="cls-4" d="M109,73.46v3.46h-.91v-3.3a1.63,1.63,0,0,0-1.62-1.81c-1.22,0-2,.82-2,2.33v2.78h-.9V71.13h.9v1a2.52,2.52,0,0,1,2.21-1.1A2.28,2.28,0,0,1,109,73.46Z"/><path class="cls-4" d="M114.31,76.62a2.23,2.23,0,0,1-1.35.46,1.79,1.79,0,0,1-1.93-2V71.89h-1.27v-.75H111V69.29h.91v1.84H114v.75h-2.09v3.17A1,1,0,0,0,113,76.23a1.83,1.83,0,0,0,1-.35Z"/><path class="cls-4" d="M116.51,69.38a.6.6,0,0,1-.63.6.59.59,0,0,1-.61-.6.61.61,0,0,1,.61-.6A.62.62,0,0,1,116.51,69.38Zm-1.08,7.54V71.13h.91v5.79Z"/><path class="cls-4" d="M124,76.92h-.9V76a2.87,2.87,0,0,1-2.33,1.07,3,3,0,0,1,0-6.08,2.87,2.87,0,0,1,2.33,1.07v-3.6h.9Zm-.9-2.89a2.2,2.2,0,0,0-2.19-2.25,2.25,2.25,0,0,0,0,4.5A2.19,2.19,0,0,0,123.07,74Z"/><path class="cls-4" d="M131.64,74a3.11,3.11,0,1,1-3.1-3A3,3,0,0,1,131.64,74Zm-.89,0a2.22,2.22,0,1,0-4.44,0,2.22,2.22,0,1,0,4.44,0Z"/><path class="cls-4" d="M136.72,75.16c.09.76.8,1.18,1.73,1.18s1.4-.39,1.4-1-.37-.71-1-.83l-1.35-.3c-1-.2-1.52-.68-1.52-1.48,0-1,.88-1.75,2.22-1.75a2.23,2.23,0,0,1,2.39,1.61l-.87.19a1.4,1.4,0,0,0-1.54-1.07c-.83,0-1.29.4-1.29.95s.32.67.9.8l1.41.31c.85.19,1.51.64,1.51,1.52,0,1.14-1,1.79-2.37,1.79s-2.41-.59-2.55-1.72Z"/><path class="cls-4" d="M147.94,74a3.11,3.11,0,1,1-3.1-3A3,3,0,0,1,147.94,74ZM147,74a2.22,2.22,0,1,0-4.44,0A2.22,2.22,0,1,0,147,74Z"/><path class="cls-4" d="M153.94,74.94l.83.22A2.75,2.75,0,0,1,152,77.08,3,3,0,1,1,152,71a2.81,2.81,0,0,1,2.78,1.93l-.87.26A1.91,1.91,0,0,0,152,71.81,2.13,2.13,0,0,0,149.83,74,2.11,2.11,0,0,0,152,76.24,1.93,1.93,0,0,0,153.94,74.94Z"/><path class="cls-4" d="M157.31,69.38a.6.6,0,0,1-.63.6.59.59,0,0,1-.62-.6.61.61,0,0,1,.62-.6A.62.62,0,0,1,157.31,69.38Zm-1.08,7.54V71.13h.91v5.79Z"/><path class="cls-4" d="M164.73,76.92h-.9V76a2.85,2.85,0,0,1-2.33,1.07,3,3,0,0,1,0-6.08,2.85,2.85,0,0,1,2.33,1.07v-.93h.9Zm-.9-2.89a2.2,2.2,0,0,0-2.19-2.25,2.25,2.25,0,0,0,0,4.5A2.19,2.19,0,0,0,163.83,74Z"/><path class="cls-4" d="M166.61,76.92V68.47h.9v8.46Z"/></svg>