<svg id="Capa_1" data-name="Capa 1" xmlns="http://www.w3.org/2000/svg" xmlns:xlink="http://www.w3.org/1999/xlink" viewBox="0 0 190 78"><defs><style>.cls-1,.cls-2{fill:none;}.cls-2{stroke:#070308;stroke-width:0.3px;}.cls-3{fill:url(#Crosses);}.cls-4{fill:#070308;}</style><pattern id="Crosses" data-name="Crosses" width="57.6" height="57.6" patternTransform="translate(-675.64 353.85) scale(0.93)" patternUnits="userSpaceOnUse" viewBox="0 0 57.6 57.6"><rect class="cls-1" width="57.6" height="57.6"/><line class="cls-2" x1="52.5" y1="3.6" x2="55.5" y2="3.6"/><line class="cls-2" x1="38.1" y1="3.6" x2="41.1" y2="3.6"/><line class="cls-2" x1="23.7" y1="3.6" x2="26.7" y2="3.6"/><line class="cls-2" x1="9.3" y1="3.6" x2="12.3" y2="3.6"/><line class="cls-2" x1="45.3" y1="10.8" x2="48.3" y2="10.8"/><line class="cls-2" x1="30.9" y1="10.8" x2="33.9" y2="10.8"/><line class="cls-2" x1="16.5" y1="10.8" x2="19.5" y2="10.8"/><line class="cls-2" x1="2.1" y1="10.8" x2="5.1" y2="10.8"/><line class="cls-2" x1="52.5" y1="18" x2="55.5" y2="18"/><line class="cls-2" x1="38.1" y1="18" x2="41.1" y2="18"/><line class="cls-2" x1="23.7" y1="18" x2="26.7" y2="18"/><line class="cls-2" x1="9.3" y1="18" x2="12.3" y2="18"/><line class="cls-2" x1="45.3" y1="25.2" x2="48.3" y2="25.2"/><line class="cls-2" x1="30.9" y1="25.2" x2="33.9" y2="25.2"/><line class="cls-2" x1="16.5" y1="25.2" x2="19.5" y2="25.2"/><line class="cls-2" x1="2.1" y1="25.2" x2="5.1" y2="25.2"/><line class="cls-2" x1="52.5" y1="32.4" x2="55.5" y2="32.4"/><line class="cls-2" x1="38.1" y1="32.4" x2="41.1" y2="32.4"/><line class="cls-2" x1="23.7" y1="32.4" x2="26.7" y2="32.4"/><line class="cls-2" x1="9.3" y1="32.4" x2="12.3" y2="32.4"/><line class="cls-2" x1="45.3" y1="39.6" x2="48.3" y2="39.6"/><line class="cls-2" x1="30.9" y1="39.6" x2="33.9" y2="39.6"/><line class="cls-2" x1="16.5" y1="39.6" x2="19.5" y2="39.6"/><line class="cls-2" x1="2.1" y1="39.6" x2="5.1" y2="39.6"/><line class="cls-2" x1="52.5" y1="46.8" x2="55.5" y2="46.8"/><line class="cls-2" x1="38.1" y1="46.8" x2="41.1" y2="46.8"/><line class="cls-2" x1="23.7" y1="46.8" x2="26.7" y2="46.8"/><line class="cls-2" x1="9.3" y1="46.8" x2="12.3" y2="46.8"/><line class="cls-2" x1="45.3" y1="54" x2="48.3" y2="54"/><line class="cls-2" x1="30.9" y1="54" x2="33.9" y2="54"/><line class="cls-2" x1="16.5" y1="54" x2="19.5" y2="54"/><line class="cls-2" x1="2.1" y1="54" x2="5.1" y2="54"/><line class="cls-2" x1="54" y1="2.1" x2="54" y2="5.1"/><line class="cls-2" x1="39.6" y1="2.1" x2="39.6" y2="5.1"/><line class="cls-2" x1="25.2" y1="2.1" x2="25.2" y2="5.1"/><line class="cls-2" x1="10.8" y1="2.1" x2="10.8" y2="5.1"/><line class="cls-2" x1="46.8" y1="9.3" x2="46.8" y2="12.3"/><line class="cls-2" x1="32.4" y1="9.3" x2="32.4" y2="12.3"/><line class="cls-2" x1="18" y1="9.3" x2="18" y2="12.3"/><line class="cls-2" x1="3.6" y1="9.3" x2="3.6" y2="12.3"/><line class="cls-2" x1="54" y1="16.5" x2="54" y2="19.5"/><line class="cls-2" x1="39.6" y1="16.5" x2="39.6" y2="19.5"/><line class="cls-2" x1="25.2" y1="16.5" x2="25.2" y2="19.5"/><line class="cls-2" x1="10.8" y1="16.5" x2="10.8" y2="19.5"/><line class="cls-2" x1="46.8" y1="23.7" x2="46.8" y2="26.7"/><line class="cls-2" x1="32.4" y1="23.7" x2="32.4" y2="26.7"/><line class="cls-2" x1="18" y1="23.7" x2="18" y2="26.7"/><line class="cls-2" x1="3.6" y1="23.7" x2="3.6" y2="26.7"/><line class="cls-2" x1="54" y1="30.9" x2="54" y2="33.9"/><line class="cls-2" x1="39.6" y1="30.9" x2="39.6" y2="33.9"/><line class="cls-2" x1="25.2" y1="30.9" x2="25.2" y2="33.9"/><line class="cls-2" x1="10.8" y1="30.9" x2="10.8" y2="33.9"/><line class="cls-2" x1="46.8" y1="38.1" x2="46.8" y2="41.1"/><line class="cls-2" x1="32.4" y1="38.1" x2="32.4" y2="41.1"/><line class="cls-2" x1="18" y1="38.1" x2="18" y2="41.1"/><line class="cls-2" x1="3.6" y1="38.1" x2="3.6" y2="41.1"/><line class="cls-2" x1="54" y1="45.3" x2="54" y2="48.3"/><line class="cls-2" x1="39.6" y1="45.3" x2="39.6" y2="48.3"/><line class="cls-2" x1="25.2" y1="45.3" x2="25.2" y2="48.3"/><line class="cls-2" x1="10.8" y1="45.3" x2="10.8" y2="48.3"/><line class="cls-2" x1="46.8" y1="52.5" x2="46.8" y2="55.5"/><line class="cls-2" x1="32.4" y1="52.5" x2="32.4" y2="55.5"/><line class="cls-2" x1="18" y1="52.5" x2="18" y2="55.5"/><line class="cls-2" x1="3.6" y1="52.5" x2="3.6" y2="55.5"/></pattern></defs><title>MARCOS DINAMICOS FINALES</title><path class="cls-3" d="M1.18,60.78V.46H190.25V60.78ZM177.25,13.46H14.18V47.78H177.25Z"/><path class="cls-4" d="M26.26,39.2h-2.4V22h2.49c2.82,0,4.94,1.79,4.94,4.51,0,2-.85,3.32-2.45,3.83a4,4,0,0,1,2.87,4C31.71,37.3,29.67,39.2,26.26,39.2ZM26.49,24H26v5.55h.59c1.76,0,2.61-1.32,2.61-3A2.64,2.64,0,0,0,26.49,24Zm.14,7.55H26v5.62h.56c2,0,3-1.08,3-2.8A2.73,2.73,0,0,0,26.64,31.58Z"/><path class="cls-4" d="M39.3,39.49a4.69,4.69,0,0,1-4.59-4.66V22h2.14V34.2c0,2,.92,3.2,2.44,3.2s2.49-1.2,2.49-3.2V22h2.09V34.83A4.69,4.69,0,0,1,39.3,39.49Z"/><path class="cls-4" d="M47.65,39.2V22h6.71v2H49.77v5.74h4.3v2h-4.3v5.43h4.8v2Z"/><path class="cls-4" d="M65.14,39.2,59.73,27.66s.07.78.07,1.13V39.2H57.68V22h1.65l5.41,11.64s-.07-.77-.07-1.13V22h2.12V39.2Z"/><path class="cls-4" d="M75.33,39.49c-4,0-5.36-4.94-5.36-8.94s1.37-8.8,5.36-8.8c4.28,0,5.36,4.7,5.36,8.8S79.42,39.49,75.33,39.49Zm0-15.64c-2.59,0-3.15,3.58-3.15,6.7,0,3,.56,6.84,3.15,6.84s3.15-3.88,3.15-6.84C78.48,27.42,78,23.85,75.33,23.85Z"/><path class="cls-4" d="M86.54,39.49A4.09,4.09,0,0,1,83,37.63l1.43-1.43a2.72,2.72,0,0,0,2.12,1.2c1.27,0,1.74-1,1.74-2.07,0-3.32-5.22-5.22-5.22-9.27A4.07,4.07,0,0,1,87,21.75a3.69,3.69,0,0,1,3.2,1.62l-1.48,1.36A2.27,2.27,0,0,0,87,23.85c-1.18,0-1.69.94-1.69,2.09,0,2.89,5.22,4.82,5.22,9.24A4,4,0,0,1,86.54,39.49Z"/><path class="cls-4" d="M102.45,39.2V28.46a10.61,10.61,0,0,1,.09-1.13l-3,7.25h-.94l-3-7.25a10.47,10.47,0,0,1,.1,1.13V39.2H93.51V22h1.86L98.7,30A8,8,0,0,1,99.06,31s.19-.64.35-1.06L102.75,22h1.81V39.2Z"/><path class="cls-4" d="M113.1,39.49c-4,0-5.36-4.94-5.36-8.94s1.37-8.8,5.36-8.8c4.28,0,5.37,4.7,5.37,8.8S117.19,39.49,113.1,39.49Zm0-15.64c-2.59,0-3.15,3.58-3.15,6.7,0,3,.56,6.84,3.15,6.84s3.15-3.88,3.15-6.84C116.25,27.42,115.76,23.85,113.1,23.85Z"/><path class="cls-4" d="M125.21,24V39.2H123.1V24h-2.68V22h7.48v2Z"/><path class="cls-4" d="M130.78,39.2V22h2.12V39.2Z"/><path class="cls-4" d="M141.66,39.2h-1.6L135.67,22h2.19l2.68,10.82c.14.56.35,1.88.35,1.88s.21-1.32.35-1.88L143.92,22h2.14Z"/><path class="cls-4" d="M153.08,39.49c-4,0-5.36-4.94-5.36-8.94s1.36-8.8,5.36-8.8c4.28,0,5.36,4.7,5.36,8.8S157.17,39.49,153.08,39.49Zm0-15.64c-2.59,0-3.15,3.58-3.15,6.7,0,3,.56,6.84,3.15,6.84s3.15-3.88,3.15-6.84C156.23,27.42,155.73,23.85,153.08,23.85Z"/><path class="cls-4" d="M164.43,39.49a4.09,4.09,0,0,1-3.5-1.86l1.43-1.43a2.72,2.72,0,0,0,2.12,1.2c1.27,0,1.74-1,1.74-2.07,0-3.32-5.22-5.22-5.22-9.27a4.07,4.07,0,0,1,3.86-4.3,3.69,3.69,0,0,1,3.2,1.62l-1.48,1.36a2.28,2.28,0,0,0-1.72-.89c-1.18,0-1.69.94-1.69,2.09,0,2.89,5.22,4.82,5.22,9.24A4,4,0,0,1,164.43,39.49Z"/><path class="cls-4" d="M27.79,67.79v7h-.94v-7H23.91V67h6.81v.83Z"/><path class="cls-4" d="M32.68,67.28a.6.6,0,0,1-.63.6.59.59,0,0,1-.62-.6.6.6,0,0,1,.62-.59A.61.61,0,0,1,32.68,67.28Zm-1.08,7.5V69h.91v5.76Z"/><path class="cls-4" d="M39.85,72.09h-5a2.11,2.11,0,0,0,2.08,2.07,2,2,0,0,0,2-1.24l.8.19a2.79,2.79,0,0,1-2.78,1.83A3,3,0,0,1,37,68.88a2.83,2.83,0,0,1,2.86,2.88Zm-5-.67h4.05a1.91,1.91,0,0,0-2-1.75A2.09,2.09,0,0,0,34.89,71.42Z"/><path class="cls-4" d="M46.72,71.34v3.45h-.9V71.5a1.63,1.63,0,0,0-1.61-1.8c-1.22,0-2,.82-2,2.31v2.77h-.9V69h.9v1a2.51,2.51,0,0,1,2.2-1.1A2.27,2.27,0,0,1,46.72,71.34Z"/><path class="cls-4" d="M54.18,74.78h-.9v-.91A2.85,2.85,0,0,1,51,74.94a3,3,0,0,1,0-6.05,2.85,2.85,0,0,1,2.32,1.06V66.37h.9Zm-.9-2.88a2.19,2.19,0,0,0-2.17-2.24,2.24,2.24,0,0,0,0,4.47A2.18,2.18,0,0,0,53.28,71.91Z"/><path class="cls-4" d="M61.72,74.78h-.9v-.91a2.84,2.84,0,0,1-2.32,1.06,3,3,0,0,1,0-6.05,2.84,2.84,0,0,1,2.32,1.06V69h.9Zm-.9-2.88a2.19,2.19,0,0,0-2.17-2.24,2.24,2.24,0,0,0,0,4.47A2.18,2.18,0,0,0,60.83,71.91Z"/><path class="cls-4" d="M71.35,72.81l.83.22a2.74,2.74,0,0,1-2.75,1.9,3,3,0,1,1,0-6.05,2.81,2.81,0,0,1,2.77,1.92l-.86.25a1.91,1.91,0,0,0-1.91-1.35,2.12,2.12,0,0,0-2.16,2.21,2.1,2.1,0,0,0,2.16,2.2A1.92,1.92,0,0,0,71.35,72.81Z"/><path class="cls-4" d="M79.29,71.9a3.09,3.09,0,1,1-3.08-3A3,3,0,0,1,79.29,71.9Zm-.89,0a2.21,2.21,0,1,0-4.41,0,2.21,2.21,0,1,0,4.41,0Z"/><path class="cls-4" d="M86.16,71.34v3.45h-.9V71.5a1.62,1.62,0,0,0-1.62-1.8c-1.22,0-2,.82-2,2.31v2.77h-.89V69h.89v1a2.51,2.51,0,0,1,2.2-1.1A2.27,2.27,0,0,1,86.16,71.34Z"/><path class="cls-4" d="M91.62,73c.08.76.79,1.17,1.71,1.17s1.4-.39,1.4-1-.37-.7-1-.83l-1.34-.29c-1-.2-1.51-.68-1.51-1.47,0-1,.87-1.74,2.2-1.74a2.21,2.21,0,0,1,2.38,1.6l-.86.19a1.41,1.41,0,0,0-1.54-1.06c-.83,0-1.29.4-1.29.94s.32.67.89.79l1.41.3c.85.19,1.5.63,1.5,1.51,0,1.14-1,1.78-2.35,1.78s-2.4-.58-2.54-1.71Z"/><path class="cls-4" d="M102.47,72.09h-5a2.12,2.12,0,0,0,2.08,2.07,2,2,0,0,0,2-1.24l.8.19a2.8,2.8,0,0,1-2.79,1.83,3,3,0,0,1,.06-6.05,2.82,2.82,0,0,1,2.86,2.88Zm-5-.67h4.05a1.92,1.92,0,0,0-2-1.75A2.08,2.08,0,0,0,97.51,71.42Z"/><path class="cls-4" d="M109.34,71.34v3.45h-.9V71.5a1.62,1.62,0,0,0-1.61-1.8c-1.22,0-2,.82-2,2.31v2.77h-.9V69h.9v1a2.5,2.5,0,0,1,2.2-1.1A2.27,2.27,0,0,1,109.34,71.34Z"/><path class="cls-4" d="M114.62,74.48a2.22,2.22,0,0,1-1.35.46A1.78,1.78,0,0,1,111.35,73V69.77h-1.27V69h1.27V67.19h.91V69h2.08v.75h-2.08v3.15a1,1,0,0,0,1.08,1.17,1.82,1.82,0,0,0,1-.35Z"/><path class="cls-4" d="M116.81,67.28a.6.6,0,0,1-.63.6.59.59,0,0,1-.61-.6.6.6,0,0,1,.61-.59A.61.61,0,0,1,116.81,67.28Zm-1.07,7.5V69h.91v5.76Z"/><path class="cls-4" d="M124.22,74.78h-.89v-.91A2.85,2.85,0,0,1,121,74.94a3,3,0,0,1,0-6.05,2.85,2.85,0,0,1,2.32,1.06V66.37h.89Zm-.89-2.88a2.18,2.18,0,0,0-2.17-2.24,2.24,2.24,0,0,0,0,4.47A2.18,2.18,0,0,0,123.33,71.91Z"/><path class="cls-4" d="M131.86,71.9a3.09,3.09,0,1,1-3.09-3A3,3,0,0,1,131.86,71.9Zm-.89,0a2.21,2.21,0,1,0-4.42,0,2.21,2.21,0,1,0,4.42,0Z"/><path class="cls-4" d="M136.91,73c.09.76.79,1.17,1.72,1.17s1.4-.39,1.4-1-.37-.7-1-.83l-1.34-.29c-1-.2-1.51-.68-1.51-1.47,0-1,.87-1.74,2.2-1.74a2.21,2.21,0,0,1,2.38,1.6l-.86.19a1.4,1.4,0,0,0-1.54-1.06c-.83,0-1.29.4-1.29.94s.32.67.89.79l1.4.3c.85.19,1.5.63,1.5,1.51,0,1.14-1,1.78-2.35,1.78s-2.39-.58-2.54-1.71Z"/><path class="cls-4" d="M148.07,71.9a3.09,3.09,0,1,1-3.08-3A3,3,0,0,1,148.07,71.9Zm-.89,0a2.21,2.21,0,1,0-4.42,0,2.21,2.21,0,1,0,4.42,0Z"/><path class="cls-4" d="M154,72.81l.82.22a2.73,2.73,0,0,1-2.75,1.9,3,3,0,1,1,0-6.05,2.8,2.8,0,0,1,2.77,1.92l-.86.25a1.9,1.9,0,0,0-1.91-1.35,2.12,2.12,0,0,0-2.16,2.21,2.1,2.1,0,0,0,2.16,2.2A1.92,1.92,0,0,0,154,72.81Z"/><path class="cls-4" d="M157.38,67.28a.6.6,0,0,1-.63.6.59.59,0,0,1-.61-.6.6.6,0,0,1,.61-.59A.62.62,0,0,1,157.38,67.28Zm-1.07,7.5V69h.91v5.76Z"/><path class="cls-4" d="M164.77,74.78h-.89v-.91a2.84,2.84,0,0,1-2.32,1.06,3,3,0,0,1,0-6.05,2.84,2.84,0,0,1,2.32,1.06V69h.89Zm-.89-2.88a2.18,2.18,0,0,0-2.18-2.24,2.24,2.24,0,0,0,0,4.47A2.18,2.18,0,0,0,163.87,71.91Z"/><path class="cls-4" d="M166.64,74.78V66.37h.9v8.41Z"/></svg>