<svg id="Capa_1" data-name="Capa 1" xmlns="http://www.w3.org/2000/svg" xmlns:xlink="http://www.w3.org/1999/xlink" viewBox="0 0 190 78"><defs><style>.cls-1,.cls-2{fill:none;}.cls-2{stroke:#070308;stroke-linecap:round;stroke-width:0.4px;}.cls-3{fill:url(#Capsules);}.cls-4{fill:#070308;}</style><pattern id="Capsules" data-name="Capsules" width="57.6" height="57.6" patternTransform="translate(-627.88 649.44)" patternUnits="userSpaceOnUse" viewBox="0 0 57.6 57.6"><rect class="cls-1" width="57.6" height="57.6"/><line class="cls-2" x1="11.17" y1="57.4" x2="14.91" y2="59.98"/><line class="cls-2" x1="8.6" y1="57.67" x2="9.83" y2="61.77"/><line class="cls-2" x1="18.07" y1="56.97" x2="17.62" y2="61.23"/><line class="cls-2" x1="55.52" y1="12" x2="59.68" y2="10.98"/><line class="cls-2" x1="57.53" y1="26.43" x2="59.75" y2="22.78"/><line class="cls-2" x1="60.58" y1="15.86" x2="57.29" y2="18.59"/><line class="cls-2" x1="57.02" y1="3.13" x2="58.02" y2="8.38"/><line class="cls-2" x1="56.61" y1="52.93" x2="57.42" y2="57.12"/><line class="cls-2" x1="23.22" y1="29.33" x2="21" y2="32.98"/><line class="cls-2" x1="20.65" y1="22.43" x2="22.41" y2="25.66"/><line class="cls-2" x1="19.16" y1="24.88" x2="19.39" y2="29.69"/><line class="cls-2" x1="28.19" y1="41.64" x2="29" y2="45.84"/><line class="cls-2" x1="14.92" y1="36.22" x2="14.13" y2="40.42"/><line class="cls-2" x1="7.28" y1="36.68" x2="10.59" y2="39.39"/><line class="cls-2" x1="14.91" y1="30.96" x2="18.22" y2="33.68"/><line class="cls-2" x1="19.09" y1="40.91" x2="17.62" y2="36.9"/><line class="cls-2" x1="6.87" y1="39.53" x2="2.67" y2="43.13"/><line class="cls-2" x1="12.54" y1="28.82" x2="16.65" y2="27.64"/><line class="cls-2" x1="21.21" y1="48.43" x2="24.65" y2="45.89"/><line class="cls-2" x1="12.53" y1="50.29" x2="14.74" y2="46.63"/><line class="cls-2" x1="31.17" y1="31.67" x2="32.85" y2="35.6"/><line class="cls-2" x1="39.16" y1="22.38" x2="38.62" y2="28.13"/><line class="cls-2" x1="27.99" y1="36.42" x2="25.86" y2="40.13"/><line class="cls-2" x1="37.09" y1="36.26" x2="33.78" y2="38.97"/><line class="cls-2" x1="36.01" y1="49.58" x2="39.33" y2="52.27"/><line class="cls-2" x1="34.33" y1="30" x2="37.62" y2="32.73"/><line class="cls-2" x1="27.5" y1="32.11" x2="28.99" y2="28.11"/><line class="cls-2" x1="31.7" y1="27.99" x2="35.34" y2="25.75"/><line class="cls-2" x1="7.44" y1="45.45" x2="9.92" y2="41.97"/><line class="cls-2" x1="38.42" y1="17.91" x2="36.03" y2="21.45"/><line class="cls-2" x1="11.41" y1="35.38" x2="9.7" y2="30.16"/><line class="cls-2" x1="10.58" y1="14.67" x2="13.35" y2="11.41"/><line class="cls-2" x1="32.11" y1="19.39" x2="31.66" y2="24.88"/><line class="cls-2" x1="18.91" y1="20.88" x2="20.83" y2="16.27"/><line class="cls-2" x1="23.14" y1="39.58" x2="21.72" y2="43.61"/><line class="cls-2" x1="29.11" y1="39.17" x2="32.41" y2="41.88"/><line class="cls-2" x1="13.76" y1="19.46" x2="16.41" y2="24.13"/><line class="cls-2" x1="22.55" y1="52.64" x2="26.19" y2="50.39"/><line class="cls-2" x1="12.4" y1="26.44" x2="8.27" y2="25.34"/><line class="cls-2" x1="11.79" y1="17.85" x2="10.16" y2="20.88"/><line class="cls-2" x1="43.16" y1="3.38" x2="43.42" y2="8.53"/><line class="cls-2" x1="27.88" y1="0.88" x2="31.19" y2="3.59"/><line class="cls-2" x1="22.66" y1="2.88" x2="18.38" y2="5.86"/><line class="cls-2" x1="11.17" y1="-0.2" x2="14.91" y2="2.38"/><line class="cls-2" x1="25.27" y1="14.03" x2="27.42" y2="17.72"/><line class="cls-2" x1="27.41" y1="6.63" x2="26.87" y2="10.01"/><line class="cls-2" x1="30.73" y1="6.17" x2="34.65" y2="7.88"/><line class="cls-2" x1="22.92" y1="7.29" x2="25.13" y2="3.63"/><line class="cls-2" x1="45.66" y1="18.63" x2="41.83" y2="22.01"/><line class="cls-2" x1="15.16" y1="17.13" x2="17.07" y2="12.23"/><line class="cls-2" x1="14.09" y1="6.1" x2="17.12" y2="9.11"/><line class="cls-2" x1="39.64" y1="2.23" x2="37.41" y2="6.13"/><line class="cls-2" x1="41.92" y1="12.62" x2="42.01" y2="16.89"/><line class="cls-2" x1="38.03" y1="9.91" x2="42.3" y2="10.13"/><line class="cls-2" x1="23.27" y1="10.48" x2="19.98" y2="13.2"/><line class="cls-2" x1="42.66" y1="28.21" x2="40.98" y2="32.14"/><line class="cls-2" x1="47.5" y1="36.11" x2="48.22" y2="40.33"/><line class="cls-2" x1="48.12" y1="31.13" x2="49.69" y2="35.1"/><line class="cls-2" x1="48.16" y1="44.21" x2="44.87" y2="46.94"/><line class="cls-2" x1="50.02" y1="47.77" x2="52.23" y2="44.11"/><line class="cls-2" x1="40.9" y1="42.77" x2="41.91" y2="47.88"/><line class="cls-2" x1="52.03" y1="20.87" x2="47.77" y2="20.54"/><line class="cls-2" x1="53.78" y1="37.74" x2="50.5" y2="40.47"/><line class="cls-2" x1="45.07" y1="33.96" x2="43.27" y2="37.83"/><line class="cls-2" x1="50.85" y1="23.72" x2="54" y2="26.61"/><line class="cls-2" x1="5.17" y1="2.88" x2="2.45" y2="5.88"/><line class="cls-2" x1="11.43" y1="7.73" x2="8.12" y2="10.45"/><line class="cls-2" x1="8.6" y1="0.07" x2="9.83" y2="4.16"/><line class="cls-2" x1="45.17" y1="28.27" x2="49.41" y2="28.75"/><line class="cls-2" x1="4.17" y1="45.33" x2="2.49" y2="49.26"/><line class="cls-2" x1="5.71" y1="50.49" x2="2.42" y2="53.22"/><line class="cls-2" x1="3.55" y1="27.43" x2="6.84" y2="30.16"/><line class="cls-2" x1="46.35" y1="4.64" x2="49.99" y2="2.39"/><line class="cls-2" x1="47.64" y1="7.14" x2="46.22" y2="11.18"/><line class="cls-2" x1="-2.08" y1="12" x2="2.08" y2="10.98"/><line class="cls-2" x1="-0.07" y1="26.43" x2="2.15" y2="22.78"/><line class="cls-2" x1="2.98" y1="15.86" x2="-0.31" y2="18.59"/><line class="cls-2" x1="4.76" y1="12.46" x2="6.91" y2="16.13"/><line class="cls-2" x1="3.17" y1="18.63" x2="5.91" y2="23.15"/><line class="cls-2" x1="1.43" y1="29.91" x2="0.64" y2="34.11"/><line class="cls-2" x1="6.91" y1="33.13" x2="2.91" y2="36.21"/><line class="cls-2" x1="8.87" y1="47.43" x2="9.19" y2="51.69"/><line class="cls-2" x1="32.16" y1="10.13" x2="28.23" y2="13.41"/><line class="cls-2" x1="34.8" y1="10.8" x2="36.95" y2="14.49"/><line class="cls-2" x1="30.73" y1="15.08" x2="34.55" y2="17"/><line class="cls-2" x1="25.88" y1="34.37" x2="22.58" y2="37.08"/><line class="cls-2" x1="17.62" y1="42.23" x2="13.65" y2="43.81"/><line class="cls-2" x1="17.41" y1="47.63" x2="19.41" y2="51.88"/><line class="cls-2" x1="33.66" y1="44.88" x2="37.68" y2="46.34"/><line class="cls-2" x1="34.41" y1="0.63" x2="34.01" y2="5"/><line class="cls-2" x1="38.27" y1="39.16" x2="37.22" y2="43.3"/><line class="cls-2" x1="33.59" y1="47.23" x2="29.49" y2="48.46"/><line class="cls-2" x1="29.91" y1="21.13" x2="26.08" y2="25.25"/><line class="cls-2" x1="47.37" y1="48.88" x2="49.05" y2="52.8"/><line class="cls-2" x1="53.62" y1="34.05" x2="56.93" y2="36.76"/><line class="cls-2" x1="54.38" y1="43.76" x2="57.68" y2="46.47"/><line class="cls-2" x1="51.63" y1="29.7" x2="55.74" y2="28.52"/><line class="cls-2" x1="53.85" y1="18.93" x2="56" y2="22.63"/><line class="cls-2" x1="55.52" y1="12" x2="59.67" y2="10.98"/><line class="cls-2" x1="56.42" y1="49.13" x2="53.13" y2="51.86"/><line class="cls-2" x1="48.57" y1="12.07" x2="50.25" y2="16"/><line class="cls-2" x1="57.75" y1="40.43" x2="53.57" y2="41.34"/><line class="cls-2" x1="48.34" y1="23.63" x2="43.16" y2="24.88"/><line class="cls-2" x1="3.49" y1="8.74" x2="7.02" y2="6.33"/><line class="cls-2" x1="42.46" y1="39.96" x2="45.46" y2="43"/><line class="cls-2" x1="50.51" y1="6.18" x2="52.51" y2="9.96"/><line class="cls-2" x1="56.48" y1="15.45" x2="52.22" y2="15.13"/><line class="cls-2" x1="23.78" y1="17.33" x2="24.91" y2="22.38"/><line class="cls-2" x1="39.58" y1="33.93" x2="40.42" y2="38.13"/><line class="cls-2" x1="44.63" y1="15.48" x2="48.38" y2="17.55"/><line class="cls-2" x1="32.41" y1="51.88" x2="29.39" y2="50.91"/><line class="cls-2" x1="18.07" y1="-0.63" x2="17.62" y2="3.63"/><line class="cls-2" x1="-0.58" y1="3.13" x2="0.42" y2="8.38"/><line class="cls-2" x1="53.66" y1="5.63" x2="55.16" y2="1.62"/><line class="cls-2" x1="45.16" y1="50.25" x2="43.41" y2="54.13"/><line class="cls-2" x1="41.75" y1="57.29" x2="38.08" y2="55.1"/><line class="cls-2" x1="26.91" y1="52.73" x2="25.13" y2="58.22"/><line class="cls-2" x1="18.91" y1="53.98" x2="21.91" y2="58.23"/><line class="cls-2" x1="48.35" y1="54.89" x2="45.05" y2="57.6"/><line class="cls-2" x1="5.95" y1="53.35" x2="5.02" y2="57.53"/><line class="cls-2" x1="12.41" y1="53.13" x2="9.16" y2="55.48"/><line class="cls-2" x1="-0.99" y1="52.93" x2="-0.18" y2="57.12"/><line class="cls-2" x1="51.42" y1="57.93" x2="53.63" y2="54.27"/><line class="cls-2" x1="31.41" y1="58.23" x2="31.39" y2="54.95"/><line class="cls-2" x1="14.33" y1="51.66" x2="15.04" y2="55.88"/><line class="cls-2" x1="34.57" y1="53.32" x2="36.41" y2="56.63"/><line class="cls-2" x1="-3.22" y1="43.76" x2="0.08" y2="46.47"/><line class="cls-2" x1="-2.08" y1="12" x2="2.07" y2="10.98"/><line class="cls-2" x1="0.15" y1="40.43" x2="-4.03" y2="41.34"/><line class="cls-2" x1="26.91" y1="-4.87" x2="25.13" y2="0.62"/><line class="cls-2" x1="18.91" y1="-3.62" x2="21.91" y2="0.63"/><line class="cls-2" x1="48.35" y1="-2.71" x2="45.05"/><line class="cls-2" x1="5.95" y1="-4.25" x2="5.02" y2="-0.08"/><line class="cls-2" x1="51.42" y1="0.33" x2="53.63" y2="-3.33"/><line class="cls-2" x1="31.41" y1="0.63" x2="31.39" y2="-2.65"/></pattern></defs><title>MARCOS DINAMICOS FINALES</title><path class="cls-3" d="M.6,61.69V1.33H189.77V61.69ZM176.76,14.34H13.61V48.68H176.76Z"/><path class="cls-4" d="M25.69,40.1h-2.4V22.92h2.49c2.82,0,4.94,1.79,4.94,4.52,0,2-.84,3.32-2.44,3.84a4,4,0,0,1,2.87,4C31.15,38.19,29.1,40.1,25.69,40.1Zm.24-15.18h-.52v5.56H26c1.77,0,2.61-1.32,2.61-3A2.65,2.65,0,0,0,25.92,24.92Zm.14,7.56h-.66V38.1H26c2,0,3-1.09,3-2.8A2.74,2.74,0,0,0,26.07,32.48Z"/><path class="cls-4" d="M38.74,40.38a4.69,4.69,0,0,1-4.59-4.66V22.92h2.14V35.09c0,2,.92,3.2,2.45,3.2s2.49-1.2,2.49-3.2V22.92h2.09v12.8A4.69,4.69,0,0,1,38.74,40.38Z"/><path class="cls-4" d="M47.09,40.1V22.92H53.8v2H49.21v5.75h4.31v2H49.21V38.1H54v2Z"/><path class="cls-4" d="M64.59,40.1,59.18,28.54s.07.78.07,1.13V40.1H57.13V22.92h1.65l5.41,11.65s-.07-.78-.07-1.13V22.92h2.12V40.1Z"/><path class="cls-4" d="M74.78,40.38c-4,0-5.37-4.94-5.37-8.94s1.36-8.8,5.37-8.8c4.28,0,5.37,4.7,5.37,8.8S78.88,40.38,74.78,40.38Zm0-15.65c-2.59,0-3.15,3.58-3.15,6.71,0,3,.56,6.85,3.15,6.85s3.15-3.88,3.15-6.85C77.94,28.31,77.44,24.73,74.78,24.73Z"/><path class="cls-4" d="M86,40.38a4.09,4.09,0,0,1-3.51-1.86l1.43-1.44a2.72,2.72,0,0,0,2.12,1.2c1.27,0,1.74-1,1.74-2.07,0-3.32-5.22-5.22-5.22-9.27a4.07,4.07,0,0,1,3.86-4.31,3.7,3.7,0,0,1,3.2,1.62l-1.48,1.37a2.26,2.26,0,0,0-1.72-.89c-1.18,0-1.69.94-1.69,2.1,0,2.89,5.22,4.82,5.22,9.25A4,4,0,0,1,86,40.38Z"/><path class="cls-4" d="M101.91,40.1V29.34a10.52,10.52,0,0,1,.09-1.13l-3,7.25H98l-3-7.25a10.37,10.37,0,0,1,.1,1.13V40.1H93V22.92h1.86l3.34,7.93a8.46,8.46,0,0,1,.35,1.06s.19-.63.35-1.06l3.34-7.93H104V40.1Z"/><path class="cls-4" d="M112.58,40.38c-4,0-5.36-4.94-5.36-8.94s1.36-8.8,5.36-8.8c4.28,0,5.36,4.7,5.36,8.8S116.67,40.38,112.58,40.38Zm0-15.65c-2.59,0-3.15,3.58-3.15,6.71,0,3,.56,6.85,3.15,6.85s3.15-3.88,3.15-6.85C115.73,28.31,115.24,24.73,112.58,24.73Z"/><path class="cls-4" d="M124.7,24.92V40.1h-2.12V24.92h-2.68v-2h7.48v2Z"/><path class="cls-4" d="M130.26,40.1V22.92h2.12V40.1Z"/><path class="cls-4" d="M141.15,40.1h-1.6l-4.4-17.18h2.19L140,33.75c.15.56.36,1.88.36,1.88s.21-1.32.35-1.88l2.68-10.83h2.14Z"/><path class="cls-4" d="M152.57,40.38c-4,0-5.37-4.94-5.37-8.94s1.37-8.8,5.37-8.8c4.28,0,5.37,4.7,5.37,8.8S156.67,40.38,152.57,40.38Zm0-15.65c-2.59,0-3.15,3.58-3.15,6.71,0,3,.57,6.85,3.15,6.85s3.15-3.88,3.15-6.85C155.73,28.31,155.23,24.73,152.57,24.73Z"/><path class="cls-4" d="M163.93,40.38a4.09,4.09,0,0,1-3.51-1.86l1.43-1.44a2.72,2.72,0,0,0,2.12,1.2c1.27,0,1.74-1,1.74-2.07,0-3.32-5.23-5.22-5.23-9.27a4.07,4.07,0,0,1,3.86-4.31,3.69,3.69,0,0,1,3.2,1.62l-1.49,1.37a2.26,2.26,0,0,0-1.72-.89c-1.18,0-1.7.94-1.7,2.1,0,2.89,5.23,4.82,5.23,9.25A4,4,0,0,1,163.93,40.38Z"/><path class="cls-4" d="M27.22,68.69v7h-.94v-7H23.34v-.83h6.82v.83Z"/><path class="cls-4" d="M32.12,68.19a.6.6,0,0,1-.63.6.59.59,0,0,1-.62-.6.61.61,0,0,1,.62-.6A.62.62,0,0,1,32.12,68.19ZM31,75.7V69.93H32V75.7Z"/><path class="cls-4" d="M39.29,73h-5a2.12,2.12,0,0,0,2.08,2.07,2,2,0,0,0,2-1.24l.8.19a2.8,2.8,0,0,1-2.78,1.84,3,3,0,0,1,.05-6.06,2.83,2.83,0,0,1,2.86,2.88Zm-5-.67h4.05a1.91,1.91,0,0,0-2-1.75A2.09,2.09,0,0,0,34.32,72.33Z"/><path class="cls-4" d="M46.16,72.25V75.7h-.9V72.41a1.63,1.63,0,0,0-1.62-1.8c-1.22,0-2,.82-2,2.32V75.7h-.9V69.93h.9v1a2.51,2.51,0,0,1,2.2-1.1A2.27,2.27,0,0,1,46.16,72.25Z"/><path class="cls-4" d="M53.63,75.7h-.9v-.91a2.85,2.85,0,0,1-2.32,1.07,3,3,0,0,1,0-6.06,2.85,2.85,0,0,1,2.32,1.06V67.28h.9Zm-.9-2.88a2.19,2.19,0,0,0-2.17-2.24,2.24,2.24,0,0,0,0,4.48A2.19,2.19,0,0,0,52.73,72.82Z"/><path class="cls-4" d="M61.17,75.7h-.9v-.91A2.85,2.85,0,0,1,58,75.85a3,3,0,0,1,0-6.06,2.85,2.85,0,0,1,2.32,1.06v-.93h.9Zm-.9-2.88a2.19,2.19,0,0,0-2.17-2.24,2.24,2.24,0,0,0,0,4.48A2.18,2.18,0,0,0,60.28,72.82Z"/><path class="cls-4" d="M70.81,73.72l.83.22a2.75,2.75,0,0,1-2.76,1.91,3,3,0,1,1,0-6.06,2.81,2.81,0,0,1,2.77,1.92l-.86.26a1.91,1.91,0,0,0-1.91-1.36,2.13,2.13,0,0,0-2.16,2.21A2.1,2.1,0,0,0,68.88,75,1.93,1.93,0,0,0,70.81,73.72Z"/><path class="cls-4" d="M78.75,72.81a3.09,3.09,0,1,1-3.08-3A3,3,0,0,1,78.75,72.81Zm-.89,0a2.21,2.21,0,1,0-4.42,0,2.21,2.21,0,1,0,4.42,0Z"/><path class="cls-4" d="M85.62,72.25V75.7h-.9V72.41a1.63,1.63,0,0,0-1.62-1.8c-1.22,0-2,.82-2,2.32V75.7h-.89V69.93h.89v1a2.51,2.51,0,0,1,2.2-1.1A2.27,2.27,0,0,1,85.62,72.25Z"/><path class="cls-4" d="M91.08,73.95c.08.76.79,1.17,1.72,1.17s1.4-.39,1.4-1-.37-.7-1-.83L91.9,73c-1-.2-1.51-.68-1.51-1.47,0-1,.87-1.74,2.2-1.74A2.21,2.21,0,0,1,95,71.4l-.86.19a1.41,1.41,0,0,0-1.54-1.06c-.83,0-1.29.4-1.29.94s.32.67.89.8l1.41.3c.85.19,1.5.63,1.5,1.51,0,1.14-1,1.78-2.35,1.78s-2.4-.59-2.54-1.71Z"/><path class="cls-4" d="M101.94,73h-5A2.12,2.12,0,0,0,99,75.07a2,2,0,0,0,2-1.24l.8.19A2.81,2.81,0,0,1,99,75.85a3,3,0,0,1,.06-6.06,2.82,2.82,0,0,1,2.86,2.88Zm-5-.67H101a1.92,1.92,0,0,0-2-1.75A2.08,2.08,0,0,0,97,72.33Z"/><path class="cls-4" d="M108.81,72.25V75.7h-.9V72.41a1.62,1.62,0,0,0-1.61-1.8c-1.22,0-2,.82-2,2.32V75.7h-.9V69.93h.9v1a2.51,2.51,0,0,1,2.2-1.1A2.27,2.27,0,0,1,108.81,72.25Z"/><path class="cls-4" d="M114.1,75.39a2.22,2.22,0,0,1-1.35.46,1.78,1.78,0,0,1-1.92-2V70.68h-1.27v-.75h1.27V68.1h.91v1.84h2.08v.75h-2.08v3.15A1,1,0,0,0,112.81,75a1.82,1.82,0,0,0,1-.35Z"/><path class="cls-4" d="M116.28,68.19a.6.6,0,0,1-.63.6.59.59,0,0,1-.61-.6.61.61,0,0,1,.61-.6A.61.61,0,0,1,116.28,68.19Zm-1.07,7.51V69.93h.91V75.7Z"/><path class="cls-4" d="M123.7,75.7h-.89v-.91a2.86,2.86,0,0,1-2.32,1.07,3,3,0,0,1,0-6.06,2.85,2.85,0,0,1,2.32,1.06V67.28h.89Zm-.89-2.88a2.19,2.19,0,0,0-2.18-2.24,2.24,2.24,0,0,0,0,4.48A2.18,2.18,0,0,0,122.81,72.82Z"/><path class="cls-4" d="M131.34,72.81a3.09,3.09,0,1,1-3.09-3A3,3,0,0,1,131.34,72.81Zm-.89,0a2.21,2.21,0,1,0-4.42,0,2.21,2.21,0,1,0,4.42,0Z"/><path class="cls-4" d="M136.39,73.95c.09.76.79,1.17,1.72,1.17s1.4-.39,1.4-1-.37-.7-1-.83L137.21,73c-1-.2-1.51-.68-1.51-1.47,0-1,.87-1.74,2.21-1.74a2.21,2.21,0,0,1,2.38,1.6l-.86.19a1.4,1.4,0,0,0-1.54-1.06c-.83,0-1.29.4-1.29.94s.32.67.89.8l1.4.3c.85.19,1.5.63,1.5,1.51,0,1.14-1,1.78-2.35,1.78s-2.39-.59-2.54-1.71Z"/><path class="cls-4" d="M147.56,72.81a3.1,3.1,0,1,1-3.09-3A3,3,0,0,1,147.56,72.81Zm-.89,0a2.21,2.21,0,1,0-4.42,0,2.21,2.21,0,1,0,4.42,0Z"/><path class="cls-4" d="M153.53,73.72l.82.22a2.74,2.74,0,0,1-2.75,1.91,3,3,0,1,1,0-6.06,2.8,2.8,0,0,1,2.77,1.92l-.86.26a1.9,1.9,0,0,0-1.91-1.36,2.12,2.12,0,0,0-2.16,2.21A2.1,2.1,0,0,0,151.6,75,1.93,1.93,0,0,0,153.53,73.72Z"/><path class="cls-4" d="M156.88,68.19a.6.6,0,0,1-.63.6.59.59,0,0,1-.61-.6.6.6,0,0,1,.61-.6A.62.62,0,0,1,156.88,68.19Zm-1.07,7.51V69.93h.91V75.7Z"/><path class="cls-4" d="M164.27,75.7h-.89v-.91a2.84,2.84,0,0,1-2.32,1.07,3,3,0,0,1,0-6.06,2.84,2.84,0,0,1,2.32,1.06v-.93h.89Zm-.89-2.88a2.19,2.19,0,0,0-2.18-2.24,2.24,2.24,0,0,0,0,4.48A2.18,2.18,0,0,0,163.38,72.82Z"/><path class="cls-4" d="M166.14,75.7V67.28h.9V75.7Z"/></svg>