<svg id="Capa_1" data-name="Capa 1" xmlns="http://www.w3.org/2000/svg" xmlns:xlink="http://www.w3.org/1999/xlink" viewBox="0 0 190 78"><defs><style>.cls-1,.cls-2,.cls-3{fill:none;}.cls-2,.cls-3{stroke:#070308;stroke-miterlimit:10;}.cls-2{stroke-width:1.1px;}.cls-3{stroke-width:1.17px;}.cls-4{fill:url(#New_Pattern_11);}.cls-5{fill:#070308;}</style><pattern id="New_Pattern_11" data-name="New Pattern 11" width="24.09" height="22.68" patternTransform="translate(42.41 173.57) scale(0.69)" patternUnits="userSpaceOnUse" viewBox="0 0 24.09 22.68"><rect class="cls-1" width="24.09" height="22.68"/><circle class="cls-2" cx="24.09" cy="22.7" r="2.42"/><line class="cls-3" x1="9.67" y1="8.96" x2="14.42" y2="13.72"/><line class="cls-3" x1="14.42" y1="8.96" x2="9.67" y2="13.72"/><circle class="cls-2" cy="22.7" r="2.42"/><circle class="cls-2" cx="24.09" cy="0.02" r="2.42"/><circle class="cls-2" cy="0.02" r="2.42"/></pattern></defs><title>MARCOS DINAMICOS FINALES</title><path class="cls-4" d="M.65,61.08V.85H189.4V61.08ZM176.42,13.83H13.63V48.1H176.42Z"/><path class="cls-5" d="M25.68,39.53h-2.4V22.39h2.49c2.82,0,4.93,1.78,4.93,4.51,0,2-.84,3.31-2.44,3.83a4,4,0,0,1,2.87,3.94C31.13,37.63,29.08,39.53,25.68,39.53Zm.24-15.14H25.4v5.54H26c1.76,0,2.61-1.32,2.61-3A2.64,2.64,0,0,0,25.91,24.39Zm.14,7.54H25.4v5.61H26c2,0,3-1.08,3-2.8A2.73,2.73,0,0,0,26.05,31.93Z"/><path class="cls-5" d="M38.69,39.82a4.68,4.68,0,0,1-4.58-4.65V22.39h2.14V34.53c0,2,.92,3.19,2.44,3.19s2.49-1.2,2.49-3.19V22.39h2.09V35.17A4.68,4.68,0,0,1,38.69,39.82Z"/><path class="cls-5" d="M47,39.53V22.39h6.69v2H49.15v5.73h4.3v2h-4.3v5.42h4.79v2Z"/><path class="cls-5" d="M64.5,39.53,59.1,28s.07.78.07,1.13v10.4H57.05V22.39H58.7L64.09,34S64,33.24,64,32.89V22.39h2.11V39.53Z"/><path class="cls-5" d="M74.67,39.82c-4,0-5.35-4.93-5.35-8.92s1.36-8.78,5.35-8.78c4.27,0,5.35,4.7,5.35,8.78S78.75,39.82,74.67,39.82Zm0-15.62c-2.58,0-3.15,3.57-3.15,6.69,0,3,.57,6.83,3.15,6.83s3.15-3.87,3.15-6.83C77.81,27.77,77.32,24.2,74.67,24.2Z"/><path class="cls-5" d="M85.86,39.82A4.09,4.09,0,0,1,82.36,38l1.43-1.43a2.73,2.73,0,0,0,2.11,1.2c1.27,0,1.74-1,1.74-2.07,0-3.31-5.21-5.21-5.21-9.25a4.06,4.06,0,0,1,3.85-4.3,3.69,3.69,0,0,1,3.19,1.62L88,25.09a2.26,2.26,0,0,0-1.71-.89c-1.17,0-1.69.94-1.69,2.09,0,2.89,5.21,4.81,5.21,9.23A4,4,0,0,1,85.86,39.82Z"/><path class="cls-5" d="M101.73,39.53V28.8a10.54,10.54,0,0,1,.09-1.13l-3,7.23h-.94l-3-7.23a10.28,10.28,0,0,1,.1,1.13V39.53H92.81V22.39h1.86L98,30.3a8.45,8.45,0,0,1,.35,1.06s.19-.63.36-1.06L102,22.39h1.81V39.53Z"/><path class="cls-5" d="M112.37,39.82c-4,0-5.35-4.93-5.35-8.92s1.36-8.78,5.35-8.78c4.28,0,5.35,4.7,5.35,8.78S116.46,39.82,112.37,39.82Zm0-15.62c-2.58,0-3.14,3.57-3.14,6.69,0,3,.56,6.83,3.14,6.83s3.15-3.87,3.15-6.83C115.52,27.77,115,24.2,112.37,24.2Z"/><path class="cls-5" d="M124.47,24.39V39.53h-2.11V24.39h-2.68v-2h7.47v2Z"/><path class="cls-5" d="M130,39.53V22.39h2.11V39.53Z"/><path class="cls-5" d="M140.89,39.53h-1.6L134.9,22.39h2.19l2.68,10.8c.14.56.35,1.88.35,1.88s.21-1.32.35-1.88l2.67-10.8h2.14Z"/><path class="cls-5" d="M152.28,39.82c-4,0-5.36-4.93-5.36-8.92s1.36-8.78,5.36-8.78c4.27,0,5.35,4.7,5.35,8.78S156.37,39.82,152.28,39.82Zm0-15.62c-2.58,0-3.15,3.57-3.15,6.69,0,3,.57,6.83,3.15,6.83s3.14-3.87,3.14-6.83C155.43,27.77,154.94,24.2,152.28,24.2Z"/><path class="cls-5" d="M163.61,39.82a4.09,4.09,0,0,1-3.5-1.85l1.43-1.43a2.72,2.72,0,0,0,2.11,1.2c1.27,0,1.74-1,1.74-2.07,0-3.31-5.21-5.21-5.21-9.25a4.06,4.06,0,0,1,3.85-4.3,3.69,3.69,0,0,1,3.19,1.62l-1.48,1.36A2.26,2.26,0,0,0,164,24.2c-1.18,0-1.69.94-1.69,2.09,0,2.89,5.22,4.81,5.22,9.23A4,4,0,0,1,163.61,39.82Z"/><path class="cls-5" d="M27.21,68.06v7h-.94v-7H23.33v-.83h6.8v.83Z"/><path class="cls-5" d="M32.09,67.56a.6.6,0,0,1-.63.6.59.59,0,0,1-.62-.6.6.6,0,0,1,.62-.59A.61.61,0,0,1,32.09,67.56ZM31,75V69.3h.91V75Z"/><path class="cls-5" d="M39.24,72.35h-5a2.11,2.11,0,0,0,2.08,2.06,2,2,0,0,0,2-1.24l.8.19a2.78,2.78,0,0,1-2.78,1.83,3,3,0,0,1,.05-6A2.83,2.83,0,0,1,39.24,72Zm-5-.67h4a1.91,1.91,0,0,0-1.95-1.75A2.09,2.09,0,0,0,34.29,71.69Z"/><path class="cls-5" d="M46.1,71.61V75h-.9V71.77A1.62,1.62,0,0,0,43.59,70c-1.22,0-2,.82-2,2.31V75h-.9V69.3h.9v1a2.5,2.5,0,0,1,2.19-1.1A2.27,2.27,0,0,1,46.1,71.61Z"/><path class="cls-5" d="M53.55,75h-.9v-.91a2.84,2.84,0,0,1-2.31,1.06,3,3,0,0,1,0-6,2.84,2.84,0,0,1,2.31,1.06V66.65h.9Zm-.9-2.87a2.19,2.19,0,0,0-2.17-2.24,2.23,2.23,0,0,0,0,4.47A2.18,2.18,0,0,0,52.66,72.18Z"/><path class="cls-5" d="M61.08,75h-.9v-.91a2.85,2.85,0,0,1-2.31,1.06,3,3,0,0,1,0-6,2.84,2.84,0,0,1,2.31,1.06V69.3h.9Zm-.9-2.87A2.18,2.18,0,0,0,58,69.94a2.23,2.23,0,0,0,0,4.47A2.18,2.18,0,0,0,60.19,72.18Z"/><path class="cls-5" d="M70.69,73.08l.83.22a2.74,2.74,0,0,1-2.75,1.9,3,3,0,1,1,0-6,2.8,2.8,0,0,1,2.76,1.91l-.86.25A1.91,1.91,0,0,0,68.77,70a2.12,2.12,0,0,0-2.16,2.2,2.1,2.1,0,0,0,2.16,2.19A1.92,1.92,0,0,0,70.69,73.08Z"/><path class="cls-5" d="M78.62,72.17a3.09,3.09,0,1,1-3.08-3A3,3,0,0,1,78.62,72.17Zm-.89,0a2.2,2.2,0,1,0-4.41,0,2.2,2.2,0,1,0,4.41,0Z"/><path class="cls-5" d="M85.48,71.61V75h-.9V71.77A1.62,1.62,0,0,0,83,70c-1.22,0-2,.82-2,2.31V75h-.89V69.3h.89v1a2.51,2.51,0,0,1,2.19-1.1A2.27,2.27,0,0,1,85.48,71.61Z"/><path class="cls-5" d="M90.93,73.3c.08.76.79,1.17,1.71,1.17s1.39-.39,1.39-1-.37-.7-1-.83l-1.33-.29c-1-.2-1.51-.68-1.51-1.47,0-1,.87-1.74,2.2-1.74a2.21,2.21,0,0,1,2.38,1.6l-.86.19a1.41,1.41,0,0,0-1.54-1.06c-.83,0-1.29.39-1.29.94s.32.67.89.79l1.4.3c.85.19,1.5.63,1.5,1.51,0,1.13-1,1.77-2.35,1.77s-2.39-.58-2.54-1.7Z"/><path class="cls-5" d="M101.76,72.35h-5a2.11,2.11,0,0,0,2.08,2.06,2,2,0,0,0,2-1.24l.8.19a2.8,2.8,0,0,1-2.78,1.83,3,3,0,0,1,.06-6A2.82,2.82,0,0,1,101.76,72Zm-5-.67h4a1.92,1.92,0,0,0-1.95-1.75A2.08,2.08,0,0,0,96.8,71.69Z"/><path class="cls-5" d="M108.61,71.61V75h-.9V71.77A1.62,1.62,0,0,0,106.1,70c-1.22,0-2,.82-2,2.31V75h-.9V69.3h.9v1a2.5,2.5,0,0,1,2.19-1.1A2.27,2.27,0,0,1,108.61,71.61Z"/><path class="cls-5" d="M113.89,74.74a2.21,2.21,0,0,1-1.34.46,1.77,1.77,0,0,1-1.92-1.95V70h-1.26V69.3h1.26V67.46h.91V69.3h2.08V70h-2.08v3.15a1,1,0,0,0,1.08,1.17,1.82,1.82,0,0,0,1-.35Z"/><path class="cls-5" d="M116.07,67.56a.6.6,0,0,1-.63.6.59.59,0,0,1-.61-.6.6.6,0,0,1,.61-.59A.61.61,0,0,1,116.07,67.56ZM115,75V69.3h.91V75Z"/><path class="cls-5" d="M123.47,75h-.89v-.91a2.85,2.85,0,0,1-2.32,1.06,3,3,0,0,1,0-6,2.85,2.85,0,0,1,2.32,1.06V66.65h.89Zm-.89-2.87a2.18,2.18,0,0,0-2.17-2.24,2.23,2.23,0,0,0,0,4.47A2.18,2.18,0,0,0,122.58,72.18Z"/><path class="cls-5" d="M131.1,72.17a3.08,3.08,0,1,1-3.08-3A3,3,0,0,1,131.1,72.17Zm-.89,0a2.21,2.21,0,1,0-4.41,0,2.21,2.21,0,1,0,4.41,0Z"/><path class="cls-5" d="M136.14,73.3c.09.76.79,1.17,1.71,1.17s1.39-.39,1.39-1-.37-.7-1-.83L137,72.36c-1-.2-1.51-.68-1.51-1.47,0-1,.87-1.74,2.2-1.74a2.21,2.21,0,0,1,2.37,1.6l-.86.19a1.39,1.39,0,0,0-1.53-1.06c-.83,0-1.28.39-1.28.94s.32.67.89.79l1.4.3c.85.19,1.5.63,1.5,1.51,0,1.13-1,1.77-2.35,1.77s-2.39-.58-2.53-1.7Z"/><path class="cls-5" d="M147.28,72.17a3.09,3.09,0,1,1-3.08-3A3,3,0,0,1,147.28,72.17Zm-.89,0a2.21,2.21,0,1,0-4.41,0,2.21,2.21,0,1,0,4.41,0Z"/><path class="cls-5" d="M153.23,73.08l.82.22a2.73,2.73,0,0,1-2.75,1.9,3,3,0,1,1,0-6,2.8,2.8,0,0,1,2.76,1.91l-.86.25a1.9,1.9,0,0,0-1.9-1.35,2.12,2.12,0,0,0-2.16,2.2,2.1,2.1,0,0,0,2.16,2.19A1.92,1.92,0,0,0,153.23,73.08Z"/><path class="cls-5" d="M156.58,67.56a.6.6,0,0,1-.63.6.59.59,0,0,1-.61-.6A.6.6,0,0,1,156,67,.61.61,0,0,1,156.58,67.56ZM155.51,75V69.3h.91V75Z"/><path class="cls-5" d="M164,75h-.89v-.91a2.83,2.83,0,0,1-2.31,1.06,3,3,0,0,1,0-6,2.83,2.83,0,0,1,2.31,1.06V69.3H164Zm-.89-2.87a2.18,2.18,0,0,0-2.17-2.24,2.23,2.23,0,0,0,0,4.47A2.18,2.18,0,0,0,163.06,72.18Z"/><path class="cls-5" d="M165.82,75v-8.4h.9V75Z"/></svg>