<svg id="Capa_1" data-name="Capa 1" xmlns="http://www.w3.org/2000/svg" xmlns:xlink="http://www.w3.org/1999/xlink" viewBox="0 0 190 78"><defs><style>.cls-1{fill:none;}.cls-2{fill:#070308;}.cls-3{fill:url(#Nueva_muestra_de_motivo_10);}</style><pattern id="Nueva_muestra_de_motivo_10" data-name="Nueva muestra de motivo 10" width="33.85" height="34.45" patternTransform="translate(-283.23 408.46) scale(0.36)" patternUnits="userSpaceOnUse" viewBox="0 0 33.85 34.45"><rect class="cls-1" width="33.85" height="34.45"/><polygon class="cls-2" points="17.07 20.82 20.72 14.51 13.43 14.51 17.07 20.82"/><polygon class="cls-2" points="3.1 0 0 0 0 1.21 3.8 1.21 3.1 0"/><polygon class="cls-2" points="0 29.61 0 34.45 3.1 34.45 0.15 29.34 0 29.61"/><polygon class="cls-2" points="31.05 0 30.35 1.21 33.85 1.21 33.85 0 31.05 0"/><polygon class="cls-2" points="33.85 34.45 33.85 29.61 31.05 34.45 33.85 34.45"/></pattern></defs><title>MARCOS DINAMICOS FINALES</title><path class="cls-3" d="M1.9,60.77V.67H190.28v60.1ZM177.33,13.62H14.86v34.2H177.33Z"/><path class="cls-2" d="M26.88,39.27H24.49V22.16H27c2.81,0,4.92,1.78,4.92,4.5,0,1.95-.84,3.31-2.44,3.82a4,4,0,0,1,2.86,3.94C32.32,37.37,30.28,39.27,26.88,39.27Zm.24-15.12H26.6v5.53h.59c1.76,0,2.6-1.32,2.6-3A2.63,2.63,0,0,0,27.12,24.15Zm.14,7.52H26.6v5.6h.56c2,0,3-1.08,3-2.79A2.72,2.72,0,0,0,27.26,31.68Z"/><path class="cls-2" d="M39.88,39.55a4.67,4.67,0,0,1-4.57-4.64V22.16h2.13V34.28c0,2,.91,3.19,2.43,3.19s2.48-1.19,2.48-3.19V22.16h2.09V34.91A4.67,4.67,0,0,1,39.88,39.55Z"/><path class="cls-2" d="M48.2,39.27V22.16h6.68v2H50.31v5.72H54.6v2H50.31v5.41h4.78v2Z"/><path class="cls-2" d="M65.63,39.27,60.24,27.76s.07.78.07,1.13V39.27H58.2V22.16h1.64l5.39,11.6s-.07-.77-.07-1.12V22.16h2.11V39.27Z"/><path class="cls-2" d="M75.78,39.55c-4,0-5.34-4.92-5.34-8.9s1.36-8.77,5.34-8.77c4.26,0,5.34,4.69,5.34,8.77S79.85,39.55,75.78,39.55Zm0-15.58c-2.58,0-3.14,3.56-3.14,6.68,0,3,.56,6.82,3.14,6.82s3.14-3.87,3.14-6.82C78.92,27.53,78.43,24,75.78,24Z"/><path class="cls-2" d="M87,39.55a4.08,4.08,0,0,1-3.49-1.85l1.43-1.43A2.71,2.71,0,0,0,87,37.47c1.26,0,1.73-1,1.73-2.06,0-3.31-5.2-5.2-5.2-9.23a4.05,4.05,0,0,1,3.84-4.29,3.68,3.68,0,0,1,3.19,1.62l-1.48,1.36A2.25,2.25,0,0,0,87.37,24c-1.17,0-1.69.94-1.69,2.09,0,2.88,5.2,4.8,5.2,9.21A4,4,0,0,1,87,39.55Z"/><path class="cls-2" d="M102.79,39.27V28.56a10.5,10.5,0,0,1,.09-1.13l-3,7.22h-.94l-3-7.22A10.62,10.62,0,0,1,96,28.56V39.27H93.89V22.16h1.85l3.33,7.9a8.57,8.57,0,0,1,.35,1.06s.19-.63.35-1.06l3.33-7.9h1.8V39.27Z"/><path class="cls-2" d="M113.41,39.55c-4,0-5.34-4.92-5.34-8.9s1.36-8.77,5.34-8.77c4.27,0,5.35,4.69,5.35,8.77S117.49,39.55,113.41,39.55Zm0-15.58c-2.58,0-3.14,3.56-3.14,6.68,0,3,.56,6.82,3.14,6.82s3.14-3.87,3.14-6.82C116.55,27.53,116.06,24,113.41,24Z"/><path class="cls-2" d="M125.48,24.15V39.27h-2.11V24.15H120.7v-2h7.45v2Z"/><path class="cls-2" d="M131,39.27V22.16h2.11V39.27Z"/><path class="cls-2" d="M141.87,39.27h-1.59l-4.38-17.11h2.18l2.67,10.78c.14.56.35,1.87.35,1.87s.21-1.31.35-1.87l2.67-10.78h2.13Z"/><path class="cls-2" d="M153.24,39.55c-4,0-5.34-4.92-5.34-8.9s1.36-8.77,5.34-8.77c4.26,0,5.34,4.69,5.34,8.77S157.32,39.55,153.24,39.55Zm0-15.58c-2.58,0-3.14,3.56-3.14,6.68,0,3,.56,6.82,3.14,6.82s3.14-3.87,3.14-6.82C156.38,27.53,155.89,24,153.24,24Z"/><path class="cls-2" d="M164.55,39.55a4.08,4.08,0,0,1-3.49-1.85l1.43-1.43a2.71,2.71,0,0,0,2.11,1.19c1.26,0,1.73-1,1.73-2.06,0-3.31-5.2-5.2-5.2-9.23A4.05,4.05,0,0,1,165,21.88a3.68,3.68,0,0,1,3.18,1.62l-1.48,1.36A2.26,2.26,0,0,0,165,24c-1.17,0-1.69.94-1.69,2.09,0,2.88,5.2,4.8,5.2,9.21A4,4,0,0,1,164.55,39.55Z"/><path class="cls-2" d="M28.41,67.73v7h-.94v-7H24.54v-.83h6.79v.83Z"/><path class="cls-2" d="M33.29,67.23a.6.6,0,0,1-.63.59.59.59,0,0,1-.61-.59.6.6,0,0,1,.61-.59A.61.61,0,0,1,33.29,67.23Zm-1.07,7.48V69h.91v5.74Z"/><path class="cls-2" d="M40.43,72h-5a2.11,2.11,0,0,0,2.07,2.06,2,2,0,0,0,2-1.24l.8.19a2.78,2.78,0,0,1-2.77,1.83,3,3,0,0,1,.05-6,2.82,2.82,0,0,1,2.85,2.86Zm-4.94-.66h4a1.91,1.91,0,0,0-1.94-1.75A2.08,2.08,0,0,0,35.48,71.36Z"/><path class="cls-2" d="M47.27,71.27v3.43h-.9V71.44a1.62,1.62,0,0,0-1.61-1.79c-1.21,0-2,.81-2,2.31v2.76h-.9V69h.9v1a2.5,2.5,0,0,1,2.19-1.09A2.26,2.26,0,0,1,47.27,71.27Z"/><path class="cls-2" d="M54.71,74.71h-.9V73.8a2.84,2.84,0,0,1-2.31,1.06,3,3,0,0,1,0-6,2.83,2.83,0,0,1,2.31,1.06V66.33h.9Zm-.9-2.87a2.18,2.18,0,0,0-2.16-2.23,2.23,2.23,0,0,0,0,4.46A2.18,2.18,0,0,0,53.81,71.84Z"/><path class="cls-2" d="M62.22,74.71h-.89V73.8A2.83,2.83,0,0,1,59,74.86a3,3,0,0,1,0-6,2.83,2.83,0,0,1,2.31,1.06V69h.89Zm-.89-2.87a2.18,2.18,0,0,0-2.17-2.23,2.23,2.23,0,0,0,0,4.46A2.17,2.17,0,0,0,61.33,71.84Z"/><path class="cls-2" d="M71.81,72.74l.82.22a2.73,2.73,0,0,1-2.74,1.9,3,3,0,1,1,0-6,2.8,2.8,0,0,1,2.76,1.91L71.8,71a1.9,1.9,0,0,0-1.9-1.35,2.12,2.12,0,0,0-2.15,2.2A2.09,2.09,0,0,0,69.89,74,1.92,1.92,0,0,0,71.81,72.74Z"/><path class="cls-2" d="M79.72,71.83a3.08,3.08,0,1,1-3.07-3A3,3,0,0,1,79.72,71.83Zm-.88,0a2.2,2.2,0,1,0-4.4,0,2.2,2.2,0,1,0,4.4,0Z"/><path class="cls-2" d="M86.57,71.27v3.43h-.89V71.44a1.62,1.62,0,0,0-1.61-1.79c-1.22,0-2,.81-2,2.31v2.76h-.89V69H82v1a2.5,2.5,0,0,1,2.19-1.09A2.26,2.26,0,0,1,86.57,71.27Z"/><path class="cls-2" d="M92,73c.08.76.79,1.16,1.71,1.16s1.39-.38,1.39-1-.37-.7-1-.83L92.82,72c-1-.2-1.5-.68-1.5-1.47,0-1,.87-1.73,2.19-1.73a2.21,2.21,0,0,1,2.37,1.59l-.86.19a1.4,1.4,0,0,0-1.53-1.06c-.82,0-1.29.39-1.29.94s.32.66.89.79l1.4.3c.85.19,1.49.63,1.49,1.5,0,1.13-1,1.77-2.34,1.77s-2.39-.58-2.53-1.7Z"/><path class="cls-2" d="M102.82,72h-5a2.11,2.11,0,0,0,2.07,2.06,2,2,0,0,0,2-1.24l.8.19a2.79,2.79,0,0,1-2.78,1.83,3,3,0,0,1,.06-6,2.81,2.81,0,0,1,2.85,2.86Zm-4.94-.66h4A1.91,1.91,0,0,0,100,69.61,2.08,2.08,0,0,0,97.87,71.36Z"/><path class="cls-2" d="M109.66,71.27v3.43h-.9V71.44a1.62,1.62,0,0,0-1.61-1.79c-1.21,0-2,.81-2,2.31v2.76h-.89V69h.89v1a2.49,2.49,0,0,1,2.19-1.09A2.26,2.26,0,0,1,109.66,71.27Z"/><path class="cls-2" d="M114.92,74.4a2.21,2.21,0,0,1-1.34.46,1.77,1.77,0,0,1-1.92-1.94v-3.2h-1.26V69h1.26V67.14h.9V69h2.07v.75h-2.07v3.14A1,1,0,0,0,113.64,74a1.81,1.81,0,0,0,1-.35Z"/><path class="cls-2" d="M117.1,67.23a.6.6,0,0,1-.63.59.59.59,0,0,1-.61-.59.6.6,0,0,1,.61-.59A.61.61,0,0,1,117.1,67.23ZM116,74.71V69h.9v5.74Z"/><path class="cls-2" d="M124.49,74.71h-.89V73.8a2.84,2.84,0,0,1-2.31,1.06,3,3,0,0,1,0-6,2.84,2.84,0,0,1,2.31,1.06V66.33h.89Zm-.89-2.87a2.18,2.18,0,0,0-2.17-2.23,2.23,2.23,0,0,0,0,4.46A2.17,2.17,0,0,0,123.6,71.84Z"/><path class="cls-2" d="M132.1,71.83a3.08,3.08,0,0,1-6.15,0,3.08,3.08,0,0,1,6.15,0Zm-.89,0a2.2,2.2,0,1,0-4.4,0,2.2,2.2,0,1,0,4.4,0Z"/><path class="cls-2" d="M137.13,73c.08.76.79,1.16,1.71,1.16s1.39-.38,1.39-1-.37-.7-1-.83L137.94,72c-1-.2-1.5-.68-1.5-1.47,0-1,.87-1.73,2.2-1.73A2.21,2.21,0,0,1,141,70.42l-.86.19a1.39,1.39,0,0,0-1.53-1.06c-.82,0-1.28.39-1.28.94s.32.66.89.79l1.4.3c.85.19,1.49.63,1.49,1.5,0,1.13-1,1.77-2.34,1.77s-2.38-.58-2.53-1.7Z"/><path class="cls-2" d="M148.25,71.83a3.08,3.08,0,1,1-3.07-3A3,3,0,0,1,148.25,71.83Zm-.89,0a2.2,2.2,0,1,0-4.4,0,2.2,2.2,0,1,0,4.4,0Z"/><path class="cls-2" d="M154.19,72.74,155,73a2.72,2.72,0,0,1-2.74,1.9,3,3,0,1,1,0-6A2.79,2.79,0,0,1,155,70.74l-.86.25a1.89,1.89,0,0,0-1.9-1.35,2.12,2.12,0,0,0-2.15,2.2A2.09,2.09,0,0,0,152.27,74,1.92,1.92,0,0,0,154.19,72.74Z"/><path class="cls-2" d="M157.53,67.23a.6.6,0,0,1-.62.59.59.59,0,0,1-.61-.59.6.6,0,0,1,.61-.59A.61.61,0,0,1,157.53,67.23Zm-1.07,7.48V69h.9v5.74Z"/><path class="cls-2" d="M164.89,74.71H164V73.8a2.83,2.83,0,0,1-2.31,1.06,3,3,0,0,1,0-6A2.83,2.83,0,0,1,164,69.89V69h.89ZM164,71.84a2.18,2.18,0,0,0-2.17-2.23,2.23,2.23,0,0,0,0,4.46A2.17,2.17,0,0,0,164,71.84Z"/><path class="cls-2" d="M166.75,74.71V66.33h.89v8.38Z"/></svg>