<svg id="Capa_1" data-name="Capa 1" xmlns="http://www.w3.org/2000/svg" xmlns:xlink="http://www.w3.org/1999/xlink" viewBox="0 0 190 78"><defs><style>.cls-1{fill:none;}.cls-2{fill:#070308;}.cls-3{fill:url(#USGS_22_Gravel_Beach);}</style><pattern id="USGS_22_Gravel_Beach" data-name="USGS 22 Gravel Beach" width="72" height="72" patternTransform="translate(-757.1 707.44)" patternUnits="userSpaceOnUse" viewBox="0 0 72 72"><rect class="cls-1" width="72" height="72"/><path class="cls-2" d="M72.25,58a.39.39,0,0,1-.25-.1.36.36,0,0,1,0-.5.38.38,0,0,1,.5,0,.36.36,0,0,1,0,.5A.39.39,0,0,1,72.25,58Z"/><path class="cls-2" d="M20.75,3.22a.39.39,0,0,1-.25-.1.36.36,0,0,1,0-.5.36.36,0,0,1,.6.25.39.39,0,0,1-.1.25A.39.39,0,0,1,20.75,3.22Z"/><path class="cls-2" d="M19.75,8.47a.39.39,0,0,1-.25-.1.4.4,0,0,1-.1-.25.33.33,0,0,1,.11-.25.36.36,0,0,1,.49,0,.35.35,0,0,1,.1.25.39.39,0,0,1-.1.25A.37.37,0,0,1,19.75,8.47Z"/><path class="cls-2" d="M20,10.72a.39.39,0,0,1-.25-.1.36.36,0,0,1,0-.5.37.37,0,0,1,.5,0,.36.36,0,0,1,0,.5A.39.39,0,0,1,20,10.72Z"/><path class="cls-2" d="M15,10.72a.39.39,0,0,1-.25-.1.4.4,0,0,1-.1-.25.35.35,0,0,1,.6-.25.36.36,0,0,1,0,.5A.39.39,0,0,1,15,10.72Z"/><path class="cls-2" d="M22.5,20.22a.39.39,0,0,1-.25-.1.36.36,0,0,1,0-.5.36.36,0,0,1,.6.25.39.39,0,0,1-.1.25A.39.39,0,0,1,22.5,20.22Z"/><path class="cls-2" d="M15,23.22a.39.39,0,0,1-.25-.1.4.4,0,0,1-.1-.25.33.33,0,0,1,.11-.25.36.36,0,0,1,.49,0,.35.35,0,0,1,.1.25.39.39,0,0,1-.1.25A.39.39,0,0,1,15,23.22Z"/><path class="cls-2" d="M13.75,24.22a.39.39,0,0,1-.25-.1.36.36,0,0,1,0-.5.36.36,0,0,1,.6.25.39.39,0,0,1-.1.25A.37.37,0,0,1,13.75,24.22Z"/><path class="cls-2" d="M23.75,27.22a.39.39,0,0,1-.25-.1.4.4,0,0,1-.1-.25.33.33,0,0,1,.11-.25.36.36,0,0,1,.49,0,.39.39,0,0,1,.1.25.35.35,0,0,1-.1.24A.35.35,0,0,1,23.75,27.22Z"/><path class="cls-2" d="M30.5,26a.39.39,0,0,1-.25-.1.36.36,0,0,1,0-.5.36.36,0,0,1,.6.25.39.39,0,0,1-.1.25A.39.39,0,0,1,30.5,26Z"/><path class="cls-2" d="M31,23.47a.39.39,0,0,1-.25-.1.4.4,0,0,1-.1-.25.33.33,0,0,1,.11-.25.35.35,0,0,1,.59.25.39.39,0,0,1-.1.25A.37.37,0,0,1,31,23.47Z"/><path class="cls-2" d="M29,18.47a.39.39,0,0,1-.25-.1.36.36,0,0,1,0-.5.36.36,0,0,1,.6.25.39.39,0,0,1-.1.25A.39.39,0,0,1,29,18.47Z"/><path class="cls-2" d="M33.75,20a.39.39,0,0,1-.25-.1.36.36,0,0,1,0-.5.36.36,0,0,1,.6.25.39.39,0,0,1-.1.25A.39.39,0,0,1,33.75,20Z"/><path class="cls-2" d="M31.25,15a.39.39,0,0,1-.25-.1.36.36,0,0,1,0-.5.36.36,0,0,1,.6.25.39.39,0,0,1-.1.25A.39.39,0,0,1,31.25,15Z"/><path class="cls-2" d="M31.5,12a.39.39,0,0,1-.25-.1.36.36,0,0,1,0-.5.37.37,0,0,1,.5,0,.36.36,0,0,1,0,.5A.39.39,0,0,1,31.5,12Z"/><path class="cls-2" d="M32,7.22a.39.39,0,0,1-.25-.1.36.36,0,0,1,0-.5.36.36,0,0,1,.6.25.39.39,0,0,1-.1.25A.39.39,0,0,1,32,7.22Z"/><path class="cls-2" d="M31.75,3.22a.39.39,0,0,1-.25-.1.4.4,0,0,1-.1-.25.33.33,0,0,1,.11-.25.35.35,0,0,1,.59.25.39.39,0,0,1-.1.25A.39.39,0,0,1,31.75,3.22Z"/><path class="cls-2" d="M33.75,1.47a.36.36,0,0,1-.25-.11.33.33,0,0,1-.1-.24.33.33,0,0,1,.11-.25.35.35,0,0,1,.59.25.34.34,0,0,1-.11.25A.34.34,0,0,1,33.75,1.47Z"/><path class="cls-2" d="M41.25,7.22a.39.39,0,0,1-.25-.1.35.35,0,0,1-.1-.25.4.4,0,0,1,.1-.25.35.35,0,0,1,.49,0,.36.36,0,0,1,.11.25.39.39,0,0,1-.1.25A.39.39,0,0,1,41.25,7.22Z"/><path class="cls-2" d="M45.25,7a.39.39,0,0,1-.25-.1.36.36,0,0,1,0-.5.36.36,0,0,1,.6.25.39.39,0,0,1-.1.25A.39.39,0,0,1,45.25,7Z"/><path class="cls-2" d="M42.25,13.72a.39.39,0,0,1-.25-.1.4.4,0,0,1-.1-.25.33.33,0,0,1,.11-.25.35.35,0,0,1,.59.25.39.39,0,0,1-.1.25A.39.39,0,0,1,42.25,13.72Z"/><path class="cls-2" d="M46.75,14.47a.39.39,0,0,1-.25-.1.4.4,0,0,1-.1-.25.33.33,0,0,1,.11-.25.35.35,0,0,1,.49,0,.39.39,0,0,1,.1.25.33.33,0,0,1-.1.24A.35.35,0,0,1,46.75,14.47Z"/><path class="cls-2" d="M46.75,16.47a.39.39,0,0,1-.25-.1.4.4,0,0,1-.1-.25.33.33,0,0,1,.11-.25.35.35,0,0,1,.49,0,.39.39,0,0,1,.1.25.37.37,0,0,1-.1.24A.35.35,0,0,1,46.75,16.47Z"/><path class="cls-2" d="M38.75,21a.39.39,0,0,1-.25-.1.36.36,0,0,1,0-.5.35.35,0,0,1,.49,0,.34.34,0,0,1,.11.25.39.39,0,0,1-.1.25A.39.39,0,0,1,38.75,21Z"/><path class="cls-2" d="M50,13.72a.39.39,0,0,1-.25-.1.36.36,0,0,1,0-.5.37.37,0,0,1,.5,0,.36.36,0,0,1,0,.5A.39.39,0,0,1,50,13.72Z"/><path class="cls-2" d="M52,12.22a.36.36,0,0,1-.25-.11.35.35,0,0,1-.1-.24.33.33,0,0,1,.11-.25.36.36,0,0,1,.49,0,.35.35,0,0,1,.1.25.39.39,0,0,1-.1.25A.39.39,0,0,1,52,12.22Z"/><path class="cls-2" d="M54.5,11.22a.36.36,0,0,1-.25-.11.35.35,0,0,1-.1-.24.33.33,0,0,1,.11-.25.35.35,0,0,1,.59.25.39.39,0,0,1-.1.25A.39.39,0,0,1,54.5,11.22Z"/><path class="cls-2" d="M56.25,1A.39.39,0,0,1,56,.87a.4.4,0,0,1-.1-.25A.4.4,0,0,1,56,.37a.36.36,0,0,1,.5,0,.35.35,0,0,1,.1.24.39.39,0,0,1-.1.25A.39.39,0,0,1,56.25,1Z"/><path class="cls-2" d="M67.75,3.22a.39.39,0,0,1-.25-.1.4.4,0,0,1-.1-.25.33.33,0,0,1,.11-.25.36.36,0,0,1,.49,0,.35.35,0,0,1,.1.25.39.39,0,0,1-.1.25A.37.37,0,0,1,67.75,3.22Z"/><path class="cls-2" d="M67.75,10.47a.36.36,0,0,1-.25-.11.35.35,0,0,1-.1-.24.4.4,0,0,1,.1-.25.37.37,0,0,1,.5,0,.39.39,0,0,1,.1.25.34.34,0,0,1-.11.25A.34.34,0,0,1,67.75,10.47Z"/><path class="cls-2" d="M64,12.47a.39.39,0,0,1-.25-.1.36.36,0,0,1,0-.5.36.36,0,0,1,.6.25.39.39,0,0,1-.1.25A.39.39,0,0,1,64,12.47Z"/><path class="cls-2" d="M65,16a.39.39,0,0,1-.25-.1.4.4,0,0,1-.1-.25.35.35,0,0,1,.6-.25.36.36,0,0,1,0,.5A.39.39,0,0,1,65,16Z"/><path class="cls-2" d="M63.75,20a.36.36,0,0,1-.25-.11.35.35,0,0,1-.1-.24.4.4,0,0,1,.1-.25.37.37,0,0,1,.5,0,.39.39,0,0,1,.1.25.34.34,0,0,1-.11.25A.34.34,0,0,1,63.75,20Z"/><path class="cls-2" d="M66,20a.39.39,0,0,1-.25-.1.4.4,0,0,1-.1-.25.33.33,0,0,1,.11-.25.36.36,0,0,1,.49,0,.35.35,0,0,1,.1.25.39.39,0,0,1-.1.25A.39.39,0,0,1,66,20Z"/><path class="cls-2" d="M67.75,21.47a.39.39,0,0,1-.25-.1.36.36,0,0,1,0-.5.37.37,0,0,1,.5,0,.36.36,0,0,1,0,.5A.39.39,0,0,1,67.75,21.47Z"/><path class="cls-2" d="M6.75,52.47a.39.39,0,0,1-.25-.1.36.36,0,0,1,0-.5.38.38,0,0,1,.5,0,.36.36,0,0,1,0,.5A.39.39,0,0,1,6.75,52.47Z"/><path class="cls-2" d="M7,54.72a.39.39,0,0,1-.25-.1.36.36,0,0,1,0-.5.37.37,0,0,1,.5,0,.36.36,0,0,1,0,.5A.39.39,0,0,1,7,54.72Z"/><path class="cls-2" d="M2,54.72a.39.39,0,0,1-.25-.1.36.36,0,0,1,0-.5.38.38,0,0,1,.5,0,.36.36,0,0,1,0,.5A.39.39,0,0,1,2,54.72Z"/><path class="cls-2" d="M9.5,64.22a.39.39,0,0,1-.25-.1.36.36,0,0,1,0-.5.36.36,0,0,1,.6.25.39.39,0,0,1-.1.25A.39.39,0,0,1,9.5,64.22Z"/><path class="cls-2" d="M.75,68.22a.39.39,0,0,1-.25-.1.36.36,0,0,1,0-.5.38.38,0,0,1,.5,0,.36.36,0,0,1,0,.5A.39.39,0,0,1,.75,68.22Z"/><path class="cls-2" d="M10.75,71.22a.39.39,0,0,1-.25-.1.36.36,0,0,1,0-.5.38.38,0,0,1,.5,0,.36.36,0,0,1,0,.5A.39.39,0,0,1,10.75,71.22Z"/><path class="cls-2" d="M18,67.47a.39.39,0,0,1-.25-.1.4.4,0,0,1-.1-.25.38.38,0,0,1,.1-.25.37.37,0,0,1,.49,0,.36.36,0,0,1,.11.25.39.39,0,0,1-.1.25A.39.39,0,0,1,18,67.47Z"/><path class="cls-2" d="M16,62.47a.39.39,0,0,1-.25-.1.36.36,0,0,1,0-.5.37.37,0,0,1,.5,0,.36.36,0,0,1,0,.5A.39.39,0,0,1,16,62.47Z"/><path class="cls-2" d="M19.25,58a.39.39,0,0,1-.25-.1.4.4,0,0,1-.1-.25.33.33,0,0,1,.11-.25.36.36,0,0,1,.49,0,.35.35,0,0,1,.1.25.39.39,0,0,1-.1.25A.39.39,0,0,1,19.25,58Z"/><path class="cls-2" d="M18.5,56a.39.39,0,0,1-.25-.1.4.4,0,0,1-.1-.25.33.33,0,0,1,.11-.25.36.36,0,0,1,.49,0,.35.35,0,0,1,.1.25.39.39,0,0,1-.1.25A.39.39,0,0,1,18.5,56Z"/><path class="cls-2" d="M16,55a.39.39,0,0,1-.25-.1.4.4,0,0,1-.1-.25.33.33,0,0,1,.11-.25.36.36,0,0,1,.49,0,.35.35,0,0,1,.1.25.39.39,0,0,1-.1.25A.39.39,0,0,1,16,55Z"/><path class="cls-2" d="M19,51.22a.39.39,0,0,1-.25-.1.4.4,0,0,1-.1-.25.33.33,0,0,1,.11-.25.36.36,0,0,1,.49,0,.35.35,0,0,1,.1.25.39.39,0,0,1-.1.25A.39.39,0,0,1,19,51.22Z"/><path class="cls-2" d="M18.75,47.22a.39.39,0,0,1-.25-.1.36.36,0,0,1,0-.5.38.38,0,0,1,.5,0,.36.36,0,0,1,0,.5A.39.39,0,0,1,18.75,47.22Z"/><path class="cls-2" d="M16,47.47a.39.39,0,0,1-.25-.1.36.36,0,0,1,0-.5.37.37,0,0,1,.5,0,.36.36,0,0,1,0,.5A.39.39,0,0,1,16,47.47Z"/><path class="cls-2" d="M32.25,51a.39.39,0,0,1-.25-.1.4.4,0,0,1-.1-.25.33.33,0,0,1,.11-.25.35.35,0,0,1,.59.25.39.39,0,0,1-.1.25A.39.39,0,0,1,32.25,51Z"/><path class="cls-2" d="M27,54.47a.39.39,0,0,1-.25-.1.36.36,0,0,1,0-.5.37.37,0,0,1,.5,0,.36.36,0,0,1,0,.5A.39.39,0,0,1,27,54.47Z"/><path class="cls-2" d="M31.75,56a.39.39,0,0,1-.25-.1.36.36,0,0,1,0-.5.37.37,0,0,1,.5,0,.36.36,0,0,1,0,.5A.39.39,0,0,1,31.75,56Z"/><path class="cls-2" d="M31.75,57.72a.34.34,0,0,1-.24-.1.35.35,0,0,1,0-.5.37.37,0,0,1,.5,0,.35.35,0,0,1,.1.25.39.39,0,0,1-.1.25A.39.39,0,0,1,31.75,57.72Z"/><path class="cls-2" d="M33.75,58.47a.39.39,0,0,1-.25-.1.36.36,0,0,1,0-.5.37.37,0,0,1,.5,0,.36.36,0,0,1,0,.5A.39.39,0,0,1,33.75,58.47Z"/><path class="cls-2" d="M25.75,65a.39.39,0,0,1-.25-.1.36.36,0,0,1,0-.5.36.36,0,0,1,.6.25.39.39,0,0,1-.1.25A.39.39,0,0,1,25.75,65Z"/><path class="cls-2" d="M35.75,56.47a.39.39,0,0,1-.25-.1.36.36,0,0,1,0-.5.36.36,0,0,1,.6.25.39.39,0,0,1-.1.25A.39.39,0,0,1,35.75,56.47Z"/><path class="cls-2" d="M39,56.22a.34.34,0,0,1-.24-.1.36.36,0,0,1-.11-.25.4.4,0,0,1,.1-.25.37.37,0,0,1,.5,0,.36.36,0,0,1,0,.5A.39.39,0,0,1,39,56.22Z"/><path class="cls-2" d="M41.5,51a.39.39,0,0,1-.25-.1.36.36,0,0,1,0-.5.37.37,0,0,1,.5,0,.36.36,0,0,1,0,.5A.39.39,0,0,1,41.5,51Z"/><path class="cls-2" d="M43.25,45a.36.36,0,0,1-.25-.11.35.35,0,0,1-.1-.24.4.4,0,0,1,.1-.25.37.37,0,0,1,.5,0,.36.36,0,0,1,0,.5A.39.39,0,0,1,43.25,45Z"/><path class="cls-2" d="M50.75,50.72a.39.39,0,0,1-.25-.1.37.37,0,0,1-.1-.25.4.4,0,0,1,.1-.25.36.36,0,0,1,.5,0,.36.36,0,0,1,0,.5A.39.39,0,0,1,50.75,50.72Z"/><path class="cls-2" d="M51.75,46.72a.36.36,0,0,1-.25-.11.35.35,0,0,1-.1-.24.33.33,0,0,1,.11-.25.36.36,0,0,1,.49,0,.35.35,0,0,1,.1.25.39.39,0,0,1-.1.25A.39.39,0,0,1,51.75,46.72Z"/><path class="cls-2" d="M54.75,47.22a.33.33,0,0,1-.25-.11.35.35,0,0,1-.1-.24.38.38,0,0,1,.1-.25.36.36,0,0,1,.49,0,.34.34,0,0,1,.11.25.39.39,0,0,1-.1.25A.39.39,0,0,1,54.75,47.22Z"/><path class="cls-2" d="M54.75,54.47a.33.33,0,0,1-.25-.11.35.35,0,0,1-.1-.24.33.33,0,0,1,.11-.25.36.36,0,0,1,.49,0,.35.35,0,0,1,.1.25.39.39,0,0,1-.1.25A.39.39,0,0,1,54.75,54.47Z"/><path class="cls-2" d="M51,56.47a.39.39,0,0,1-.25-.1.36.36,0,0,1,0-.5.37.37,0,0,1,.5,0,.35.35,0,0,1,.1.25.39.39,0,0,1-.1.25A.37.37,0,0,1,51,56.47Z"/><path class="cls-2" d="M50.75,64a.39.39,0,0,1-.25-.1.4.4,0,0,1-.1-.25.31.31,0,0,1,.1-.24.34.34,0,0,1,.49,0,.36.36,0,0,1,.11.25.39.39,0,0,1-.1.25A.37.37,0,0,1,50.75,64Z"/><path class="cls-2" d="M53,64a.39.39,0,0,1-.25-.1.4.4,0,0,1-.1-.25.33.33,0,0,1,.11-.25.36.36,0,0,1,.49,0,.32.32,0,0,1,.1.24.39.39,0,0,1-.1.25A.39.39,0,0,1,53,64Z"/><path class="cls-2" d="M55.75,63.22a.39.39,0,0,1-.25-.1.36.36,0,0,1,0-.5.36.36,0,0,1,.6.25.39.39,0,0,1-.1.25A.39.39,0,0,1,55.75,63.22Z"/><path class="cls-2" d="M58,61.72a.36.36,0,0,1-.25-.11.35.35,0,0,1-.1-.24.4.4,0,0,1,.1-.25.37.37,0,0,1,.5,0,.37.37,0,0,1,.1.25.39.39,0,0,1-.1.25A.39.39,0,0,1,58,61.72Z"/><path class="cls-2" d="M20.75,27.22a.39.39,0,0,1-.25-.1.36.36,0,0,1,0-.5.36.36,0,0,1,.6.25.39.39,0,0,1-.1.25A.39.39,0,0,1,20.75,27.22Z"/><path class="cls-2" d="M22.5,24.22a.39.39,0,0,1-.25-.1.36.36,0,0,1,0-.5.37.37,0,0,1,.5,0,.36.36,0,0,1,0,.5A.39.39,0,0,1,22.5,24.22Z"/><path class="cls-2" d="M38.75,25a.39.39,0,0,1-.25-.1.36.36,0,0,1,0-.5.37.37,0,0,1,.5,0,.36.36,0,0,1,0,.5A.39.39,0,0,1,38.75,25Z"/><path class="cls-2" d="M46,29.22a.39.39,0,0,1-.25-.1.35.35,0,0,1,0-.49.34.34,0,0,1,.49,0,.36.36,0,0,1,.11.25.39.39,0,0,1-.1.25A.39.39,0,0,1,46,29.22Z"/><path class="cls-2" d="M55,28.22a.39.39,0,0,1-.25-.1.36.36,0,0,1,0-.5.37.37,0,0,1,.5,0,.36.36,0,0,1,0,.5A.39.39,0,0,1,55,28.22Z"/><path class="cls-2" d="M51,25.47a.39.39,0,0,1-.25-.1.36.36,0,0,1,0-.5.37.37,0,0,1,.5,0,.35.35,0,0,1,.1.25.39.39,0,0,1-.1.25A.39.39,0,0,1,51,25.47Z"/><path class="cls-2" d="M51.75,29.72a.37.37,0,0,1-.25-.1.36.36,0,0,1,0-.5.36.36,0,0,1,.6.25.39.39,0,0,1-.1.25A.39.39,0,0,1,51.75,29.72Z"/><path class="cls-2" d="M62.25,35.72a.39.39,0,0,1-.25-.1.4.4,0,0,1-.1-.25.33.33,0,0,1,.11-.25.36.36,0,0,1,.49,0,.32.32,0,0,1,.1.24.39.39,0,0,1-.1.25A.39.39,0,0,1,62.25,35.72Z"/><path class="cls-2" d="M56.5,39.22a.39.39,0,0,1-.25-.1.36.36,0,0,1,0-.5.36.36,0,0,1,.6.25.39.39,0,0,1-.1.25A.39.39,0,0,1,56.5,39.22Z"/><path class="cls-2" d="M48,37.47a.34.34,0,0,1-.24-.1.36.36,0,0,1-.11-.25.4.4,0,0,1,.1-.25.36.36,0,0,1,.5,0,.33.33,0,0,1,.1.24.39.39,0,0,1-.1.25A.39.39,0,0,1,48,37.47Z"/><path class="cls-2" d="M47.75,41.47a.33.33,0,0,1-.25-.11.35.35,0,0,1-.1-.24.4.4,0,0,1,.1-.25.38.38,0,0,1,.5,0,.36.36,0,0,1,0,.5A.39.39,0,0,1,47.75,41.47Z"/><path class="cls-2" d="M53.25,45.22a.34.34,0,0,1-.25-.11.32.32,0,0,1-.1-.24.34.34,0,0,1,.11-.25.36.36,0,0,1,.49,0,.36.36,0,0,1,0,.5A.39.39,0,0,1,53.25,45.22Z"/><path class="cls-2" d="M62,48.22a.39.39,0,0,1-.25-.1.4.4,0,0,1-.1-.25.33.33,0,0,1,.11-.25.36.36,0,0,1,.49,0,.32.32,0,0,1,.1.24.39.39,0,0,1-.1.25A.39.39,0,0,1,62,48.22Z"/><path class="cls-2" d="M64.75,52a.39.39,0,0,1-.25-.1.4.4,0,0,1-.1-.25.33.33,0,0,1,.11-.25.36.36,0,0,1,.49,0,.35.35,0,0,1,.1.25.39.39,0,0,1-.1.25A.39.39,0,0,1,64.75,52Z"/><path class="cls-2" d="M69.25,45.22a.39.39,0,0,1-.25-.1.36.36,0,0,1,0-.5.37.37,0,0,1,.5,0,.36.36,0,0,1,0,.5A.39.39,0,0,1,69.25,45.22Z"/><path class="cls-2" d="M59.75,39.22a.33.33,0,0,1-.25-.11.35.35,0,0,1-.1-.24.34.34,0,0,1,.11-.25.35.35,0,0,1,.49,0,.36.36,0,0,1,0,.5A.37.37,0,0,1,59.75,39.22Z"/><path class="cls-2" d="M32.25,47.22a.39.39,0,0,1-.25-.1.36.36,0,0,1,0-.5.36.36,0,0,1,.6.25.39.39,0,0,1-.1.25A.39.39,0,0,1,32.25,47.22Z"/><path class="cls-2" d="M26,38a.39.39,0,0,1-.25-.1.36.36,0,0,1,0-.5.36.36,0,0,1,.6.25.39.39,0,0,1-.1.25A.39.39,0,0,1,26,38Z"/><path class="cls-2" d="M29.5,35.72a.34.34,0,0,1-.24-.1.36.36,0,0,1-.11-.25.33.33,0,0,1,.11-.25.36.36,0,0,1,.49,0,.35.35,0,0,1,.1.25.39.39,0,0,1-.1.25A.39.39,0,0,1,29.5,35.72Z"/><path class="cls-2" d="M10.25,29.72a.39.39,0,0,1-.25-.1.36.36,0,0,1,0-.5.37.37,0,0,1,.49,0,.33.33,0,0,1,.11.25.39.39,0,0,1-.1.25A.39.39,0,0,1,10.25,29.72Z"/><path class="cls-2" d="M5.75,31.72a.39.39,0,0,1-.25-.1.36.36,0,0,1,0-.5.36.36,0,0,1,.49,0,.33.33,0,0,1,.11.25.37.37,0,0,1-.1.25A.39.39,0,0,1,5.75,31.72Z"/><path class="cls-2" d="M2.25,35.47a.39.39,0,0,1-.25-.1.36.36,0,0,1,0-.5.37.37,0,0,1,.5,0,.35.35,0,0,1,.1.25.33.33,0,0,1-.1.24A.35.35,0,0,1,2.25,35.47Z"/><path class="cls-2" d="M16.75,42.22a.39.39,0,0,1-.25-.1.4.4,0,0,1-.1-.25.33.33,0,0,1,.11-.25.35.35,0,0,1,.59.25.39.39,0,0,1-.1.25A.37.37,0,0,1,16.75,42.22Z"/><path class="cls-2" d="M12.5,36.22a.39.39,0,0,1-.25-.1.4.4,0,0,1-.1-.25.33.33,0,0,1,.11-.25.36.36,0,0,1,.49,0,.35.35,0,0,1,.1.25.39.39,0,0,1-.1.25A.37.37,0,0,1,12.5,36.22Z"/><path class="cls-2" d="M26.25,30.47a.39.39,0,0,1-.25-.1.36.36,0,0,1,0-.5.37.37,0,0,1,.5,0,.36.36,0,0,1,0,.5A.39.39,0,0,1,26.25,30.47Z"/><path class="cls-2" d="M39,31a.39.39,0,0,1-.25-.1.36.36,0,0,1,0-.5.37.37,0,0,1,.5,0,.36.36,0,0,1,0,.5A.37.37,0,0,1,39,31Z"/><path class="cls-2" d="M38,33a.39.39,0,0,1-.25-.1.36.36,0,0,1,0-.5.37.37,0,0,1,.5,0,.36.36,0,0,1,0,.5A.39.39,0,0,1,38,33Z"/><path class="cls-2" d="M27.75,42.22a.39.39,0,0,1-.25-.1.36.36,0,0,1,0-.5.37.37,0,0,1,.5,0,.36.36,0,0,1,0,.5A.39.39,0,0,1,27.75,42.22Z"/><path class="cls-2" d="M6.25,20.72a.39.39,0,0,1-.25-.1.36.36,0,0,1,0-.5.37.37,0,0,1,.5,0,.36.36,0,0,1,0,.5A.39.39,0,0,1,6.25,20.72Z"/><path class="cls-2" d="M9.5,19a.39.39,0,0,1-.25-.1.36.36,0,0,1,0-.5.36.36,0,0,1,.6.25.39.39,0,0,1-.1.25A.39.39,0,0,1,9.5,19Z"/><path class="cls-2" d="M11.5,23.72a.39.39,0,0,1-.25-.1.4.4,0,0,1-.1-.25.33.33,0,0,1,.11-.25.36.36,0,0,1,.49,0,.35.35,0,0,1,.1.25.39.39,0,0,1-.1.25A.37.37,0,0,1,11.5,23.72Z"/><path class="cls-2" d="M2.75,26a.39.39,0,0,1-.25-.1.36.36,0,0,1,0-.5.38.38,0,0,1,.5,0,.36.36,0,0,1,0,.5A.39.39,0,0,1,2.75,26Z"/><path class="cls-2" d="M64,29.72a.34.34,0,0,1-.24-.1.36.36,0,0,1-.11-.25.4.4,0,0,1,.1-.25.36.36,0,0,1,.6.25.39.39,0,0,1-.1.25A.39.39,0,0,1,64,29.72Z"/><path class="cls-2" d="M69.25,30a.39.39,0,0,1-.25-.1.4.4,0,0,1-.1-.25.34.34,0,0,1,.11-.25.36.36,0,0,1,.49,0,.35.35,0,0,1,.1.25.39.39,0,0,1-.1.25A.37.37,0,0,1,69.25,30Z"/><path class="cls-2" d="M1.25,9.22A.39.39,0,0,1,1,9.12a.36.36,0,0,1,0-.5.38.38,0,0,1,.5,0,.36.36,0,0,1,0,.5A.39.39,0,0,1,1.25,9.22Z"/><path class="cls-2" d="M16.25,6.22a.39.39,0,0,1-.25-.1.4.4,0,0,1-.1-.25.35.35,0,0,1,.6-.25.36.36,0,0,1,0,.5A.39.39,0,0,1,16.25,6.22Z"/><path class="cls-2" d="M3.5,6.22a.39.39,0,0,1-.25-.1.36.36,0,0,1,0-.5.36.36,0,0,1,.6.25.39.39,0,0,1-.1.25A.39.39,0,0,1,3.5,6.22Z"/><path class="cls-2" d="M12.5,14.47a.39.39,0,0,1-.25-.1.36.36,0,0,1,0-.5.36.36,0,0,1,.6.25.39.39,0,0,1-.1.25A.39.39,0,0,1,12.5,14.47Z"/><path class="cls-2" d="M18.25,19.47a.39.39,0,0,1-.25-.1.4.4,0,0,1-.1-.25.38.38,0,0,1,.1-.25.36.36,0,0,1,.6.25.39.39,0,0,1-.1.25A.39.39,0,0,1,18.25,19.47Z"/><path class="cls-2" d="M21,37.22a.39.39,0,0,1-.25-.1.4.4,0,0,1-.1-.25.38.38,0,0,1,.1-.25.37.37,0,0,1,.49,0,.36.36,0,0,1,.11.25.39.39,0,0,1-.1.25A.39.39,0,0,1,21,37.22Z"/><path class="cls-2" d="M.5,44.47a.39.39,0,0,1-.25-.1.4.4,0,0,1-.1-.25.33.33,0,0,1,.11-.25.36.36,0,0,1,.49,0,.35.35,0,0,1,.1.25.39.39,0,0,1-.1.25A.39.39,0,0,1,.5,44.47Z"/><path class="cls-2" d="M67.75,66.22a.39.39,0,0,1-.25-.1.4.4,0,0,1-.1-.25.33.33,0,0,1,.11-.25.36.36,0,0,1,.49,0,.35.35,0,0,1,.1.25.39.39,0,0,1-.1.25A.39.39,0,0,1,67.75,66.22Z"/><path class="cls-2" d="M59.5,70a.39.39,0,0,1-.25-.1.35.35,0,0,1-.1-.25.4.4,0,0,1,.1-.25.37.37,0,0,1,.5,0,.35.35,0,0,1,.1.25.37.37,0,0,1-.1.25A.39.39,0,0,1,59.5,70Z"/><path class="cls-2" d="M40.25,68.22a.39.39,0,0,1-.25-.1.36.36,0,0,1,0-.5.37.37,0,0,1,.5,0,.36.36,0,0,1,0,.5A.37.37,0,0,1,40.25,68.22Z"/><path class="cls-2" d="M4.25,60.22a.39.39,0,0,1-.25-.1.36.36,0,0,1,0-.5.36.36,0,0,1,.6.25.39.39,0,0,1-.1.25A.39.39,0,0,1,4.25,60.22Z"/><path class="cls-2" d="M26.25,59.72a.39.39,0,0,1-.25-.1.36.36,0,0,1,0-.5.36.36,0,0,1,.6.25.39.39,0,0,1-.1.25A.39.39,0,0,1,26.25,59.72Z"/><path class="cls-2" d="M37,48.72a.39.39,0,0,1-.25-.1.4.4,0,0,1-.1-.25.38.38,0,0,1,.1-.25.37.37,0,0,1,.5,0,.36.36,0,0,1,0,.5A.37.37,0,0,1,37,48.72Z"/><path class="cls-2" d="M8.5,40.47a.39.39,0,0,1-.25-.1.36.36,0,0,1,0-.5.36.36,0,0,1,.6.25.39.39,0,0,1-.1.25A.39.39,0,0,1,8.5,40.47Z"/><path class="cls-2" d="M52,38.22a.36.36,0,0,1-.25-.11.35.35,0,0,1-.1-.24.33.33,0,0,1,.11-.25.36.36,0,0,1,.49,0,.35.35,0,0,1,.1.25.39.39,0,0,1-.1.25A.39.39,0,0,1,52,38.22Z"/><path class="cls-2" d="M60.5,46.22a.39.39,0,0,1-.25-.1.4.4,0,0,1-.1-.25.33.33,0,0,1,.11-.25.36.36,0,0,1,.49,0,.35.35,0,0,1,.1.25.39.39,0,0,1-.1.25A.39.39,0,0,1,60.5,46.22Z"/><path class="cls-2" d="M51,66.47a.39.39,0,0,1-.25-.1.36.36,0,0,1,0-.5.37.37,0,0,1,.5,0,.39.39,0,0,1,.1.25.35.35,0,0,1-.1.25A.39.39,0,0,1,51,66.47Z"/><path class="cls-2" d="M39.75,38a.39.39,0,0,1-.25-.1.36.36,0,0,1,0-.5.36.36,0,0,1,.6.25.39.39,0,0,1-.1.25A.39.39,0,0,1,39.75,38Z"/><path class="cls-2" d="M27.25,13.72a.39.39,0,0,1-.25-.1.36.36,0,0,1,0-.5.36.36,0,0,1,.6.25.39.39,0,0,1-.1.25A.39.39,0,0,1,27.25,13.72Z"/><path class="cls-2" d="M19.5,26.72a.39.39,0,0,1-.25-.1.4.4,0,0,1-.1-.25.38.38,0,0,1,.1-.25.37.37,0,0,1,.49,0,.36.36,0,0,1,.11.25.39.39,0,0,1-.1.25A.39.39,0,0,1,19.5,26.72Z"/><path class="cls-2" d="M11.5,2a.39.39,0,0,1-.25-.1.4.4,0,0,1-.1-.25.4.4,0,0,1,.1-.25.38.38,0,0,1,.5,0,.39.39,0,0,1,.1.25.39.39,0,0,1-.1.25A.39.39,0,0,1,11.5,2Z"/><path class="cls-2" d="M55,4a.39.39,0,0,1-.25-.1.4.4,0,0,1-.1-.25.33.33,0,0,1,.11-.25.36.36,0,0,1,.49,0,.35.35,0,0,1,.1.25.39.39,0,0,1-.1.25A.39.39,0,0,1,55,4Z"/><path class="cls-2" d="M47,70a.39.39,0,0,1-.25-.1.38.38,0,0,1-.1-.25.4.4,0,0,1,.1-.25.36.36,0,0,1,.6.25.39.39,0,0,1-.1.25A.39.39,0,0,1,47,70Z"/><path class="cls-2" d="M4.5,40.47a.39.39,0,0,1-.25-.1.4.4,0,0,1-.1-.25.33.33,0,0,1,.11-.25.36.36,0,0,1,.49,0,.35.35,0,0,1,.1.25.39.39,0,0,1-.1.25A.39.39,0,0,1,4.5,40.47Z"/><path class="cls-2" d="M68.5,13.47a.39.39,0,0,1-.25-.1.36.36,0,0,1,0-.5.37.37,0,0,1,.5,0,.36.36,0,0,1,0,.5A.39.39,0,0,1,68.5,13.47Z"/><path class="cls-2" d="M23,14.22a.39.39,0,0,1-.25-.1.36.36,0,0,1,0-.5.36.36,0,0,1,.6.25.39.39,0,0,1-.1.25A.39.39,0,0,1,23,14.22Z"/><path class="cls-2" d="M20.25,17.47a.39.39,0,0,1-.25-.1.36.36,0,0,1,0-.5.37.37,0,0,1,.5,0,.36.36,0,0,1,0,.5A.39.39,0,0,1,20.25,17.47Z"/><path class="cls-2" d="M14.5,17.47a.39.39,0,0,1-.25-.1.4.4,0,0,1-.1-.25.33.33,0,0,1,.11-.25.36.36,0,0,1,.49,0,.35.35,0,0,1,.1.25.39.39,0,0,1-.1.25A.39.39,0,0,1,14.5,17.47Z"/><path class="cls-2" d="M5.75,12a.39.39,0,0,1-.25-.1.36.36,0,0,1,0-.5.36.36,0,0,1,.49,0,.33.33,0,0,1,.11.25.39.39,0,0,1-.1.25A.39.39,0,0,1,5.75,12Z"/><path class="cls-2" d="M6.75,3a.36.36,0,0,1-.24-.1.36.36,0,0,1-.11-.25.4.4,0,0,1,.1-.25.36.36,0,0,1,.6.25.39.39,0,0,1-.1.25A.39.39,0,0,1,6.75,3Z"/><path class="cls-2" d="M9.75,8.47a.39.39,0,0,1-.25-.1.36.36,0,0,1,0-.5.36.36,0,0,1,.6.25.39.39,0,0,1-.1.25A.39.39,0,0,1,9.75,8.47Z"/><path class="cls-2" d="M14,8.47a.39.39,0,0,1-.25-.1.4.4,0,0,1-.1-.25.33.33,0,0,1,.11-.25.36.36,0,0,1,.49,0,.35.35,0,0,1,.1.25.39.39,0,0,1-.1.25A.39.39,0,0,1,14,8.47Z"/><path class="cls-2" d="M25.5,7.22a.39.39,0,0,1-.25-.1.36.36,0,0,1,0-.5.36.36,0,0,1,.6.25.39.39,0,0,1-.1.25A.39.39,0,0,1,25.5,7.22Z"/><path class="cls-2" d="M36.75,7.72a.39.39,0,0,1-.25-.1.36.36,0,0,1,0-.5.37.37,0,0,1,.5,0,.36.36,0,0,1,0,.5A.39.39,0,0,1,36.75,7.72Z"/><path class="cls-2" d="M37.25,4.47a.39.39,0,0,1-.25-.1.4.4,0,0,1-.1-.25A.33.33,0,0,1,37,3.87a.35.35,0,0,1,.59.25.39.39,0,0,1-.1.25A.39.39,0,0,1,37.25,4.47Z"/><path class="cls-2" d="M43,2.47a.39.39,0,0,1-.25-.1.4.4,0,0,1-.1-.25.4.4,0,0,1,.1-.25.37.37,0,0,1,.5,0,.39.39,0,0,1,.1.25.39.39,0,0,1-.1.25A.41.41,0,0,1,43,2.47Z"/><path class="cls-2" d="M49.25,8.47a.39.39,0,0,1-.25-.1.36.36,0,0,1,0-.5.37.37,0,0,1,.5,0,.36.36,0,0,1,0,.5A.39.39,0,0,1,49.25,8.47Z"/><path class="cls-2" d="M45.75,9.47a.39.39,0,0,1-.25-.1.36.36,0,0,1,0-.5.37.37,0,0,1,.5,0,.36.36,0,0,1,0,.5A.37.37,0,0,1,45.75,9.47Z"/><path class="cls-2" d="M35.5,11.22a.39.39,0,0,1-.25-.1.4.4,0,0,1-.1-.25.38.38,0,0,1,.1-.25.36.36,0,0,1,.6.25.39.39,0,0,1-.1.25A.39.39,0,0,1,35.5,11.22Z"/><path class="cls-2" d="M39,15.22a.39.39,0,0,1-.25-.1.36.36,0,0,1,0-.5.36.36,0,0,1,.6.25.39.39,0,0,1-.1.25A.39.39,0,0,1,39,15.22Z"/><path class="cls-2" d="M24.5,18.22a.39.39,0,0,1-.25-.1.36.36,0,0,1,0-.5.36.36,0,0,1,.6.25.39.39,0,0,1-.1.25A.39.39,0,0,1,24.5,18.22Z"/><path class="cls-2" d="M8,27.47a.39.39,0,0,1-.25-.1.36.36,0,0,1,0-.5.36.36,0,0,1,.6.25.39.39,0,0,1-.1.25A.39.39,0,0,1,8,27.47Z"/><path class="cls-2" d="M15.75,32a.39.39,0,0,1-.25-.1.36.36,0,0,1,0-.5.38.38,0,0,1,.5,0,.36.36,0,0,1,0,.5A.39.39,0,0,1,15.75,32Z"/><path class="cls-2" d="M10.25,33.72a.39.39,0,0,1-.25-.1.4.4,0,0,1-.1-.25.33.33,0,0,1,.11-.25.36.36,0,0,1,.49,0,.35.35,0,0,1,.1.25.37.37,0,0,1-.1.25A.39.39,0,0,1,10.25,33.72Z"/><path class="cls-2" d="M5,37.22a.39.39,0,0,1-.25-.1.36.36,0,0,1,0-.5.38.38,0,0,1,.5,0,.37.37,0,0,1,.1.25.39.39,0,0,1-.1.25A.39.39,0,0,1,5,37.22Z"/><path class="cls-2" d="M3,20.72a.39.39,0,0,1-.25-.1.36.36,0,0,1,0-.5.38.38,0,0,1,.5,0,.36.36,0,0,1,0,.5A.39.39,0,0,1,3,20.72Z"/><path class="cls-2" d="M20.25,31a.39.39,0,0,1-.25-.1.4.4,0,0,1-.1-.25.33.33,0,0,1,.11-.25.35.35,0,0,1,.59.25.39.39,0,0,1-.1.25A.39.39,0,0,1,20.25,31Z"/><path class="cls-2" d="M17.25,35.72a.39.39,0,0,1-.25-.1.36.36,0,0,1,0-.5.37.37,0,0,1,.5,0,.36.36,0,0,1,0,.5A.39.39,0,0,1,17.25,35.72Z"/><path class="cls-2" d="M15.75,39.22a.39.39,0,0,1-.25-.1.4.4,0,0,1-.1-.25.33.33,0,0,1,.11-.25.36.36,0,0,1,.49,0,.35.35,0,0,1,.1.25.39.39,0,0,1-.1.25A.37.37,0,0,1,15.75,39.22Z"/><path class="cls-2" d="M12.5,41.47a.39.39,0,0,1-.25-.1.4.4,0,0,1-.1-.25.33.33,0,0,1,.11-.25.36.36,0,0,1,.49,0,.35.35,0,0,1,.1.25.39.39,0,0,1-.1.25A.39.39,0,0,1,12.5,41.47Z"/><path class="cls-2" d="M12.5,46.72a.39.39,0,0,1-.25-.1.4.4,0,0,1-.1-.25.33.33,0,0,1,.11-.25.36.36,0,0,1,.49,0,.35.35,0,0,1,.1.25.39.39,0,0,1-.1.25A.39.39,0,0,1,12.5,46.72Z"/><path class="cls-2" d="M5.5,48.72a.39.39,0,0,1-.25-.1.36.36,0,0,1,0-.5.38.38,0,0,1,.5,0,.36.36,0,0,1,0,.5A.39.39,0,0,1,5.5,48.72Z"/><path class="cls-2" d="M10.75,54.72a.39.39,0,0,1-.25-.1.36.36,0,0,1,0-.5.38.38,0,0,1,.5,0,.36.36,0,0,1,0,.5A.39.39,0,0,1,10.75,54.72Z"/><path class="cls-2" d="M15.25,58.72a.39.39,0,0,1-.25-.1.36.36,0,0,1,0-.5.37.37,0,0,1,.5,0,.36.36,0,0,1,0,.5A.39.39,0,0,1,15.25,58.72Z"/><path class="cls-2" d="M5.75,63.72a.39.39,0,0,1-.25-.1.36.36,0,0,1,0-.5.38.38,0,0,1,.5,0,.35.35,0,0,1,.1.25.39.39,0,0,1-.1.25A.39.39,0,0,1,5.75,63.72Z"/><path class="cls-2" d="M2,62.22a.39.39,0,0,1-.25-.1.36.36,0,0,1,0-.5.37.37,0,0,1,.49,0,.34.34,0,0,1,.11.25.39.39,0,0,1-.1.25A.39.39,0,0,1,2,62.22Z"/><path class="cls-2" d="M8.75,68.22a.39.39,0,0,1-.25-.1.36.36,0,0,1,0-.5.36.36,0,0,1,.6.25.39.39,0,0,1-.1.25A.37.37,0,0,1,8.75,68.22Z"/><path class="cls-2" d="M13.25,69.72a.39.39,0,0,1-.25-.1.36.36,0,0,1,0-.5.38.38,0,0,1,.5,0,.36.36,0,0,1,0,.5A.39.39,0,0,1,13.25,69.72Z"/><path class="cls-2" d="M21.25,68.72a.39.39,0,0,1-.25-.1.4.4,0,0,1-.1-.25.33.33,0,0,1,.11-.25.35.35,0,0,1,.59.25.39.39,0,0,1-.1.25A.39.39,0,0,1,21.25,68.72Z"/><path class="cls-2" d="M22.75,66a.39.39,0,0,1-.25-.1.36.36,0,0,1,0-.5.37.37,0,0,1,.5,0,.36.36,0,0,1,0,.5A.37.37,0,0,1,22.75,66Z"/><path class="cls-2" d="M22,60.22a.39.39,0,0,1-.25-.1.36.36,0,0,1,0-.5.38.38,0,0,1,.5,0,.36.36,0,0,1,0,.5A.37.37,0,0,1,22,60.22Z"/><path class="cls-2" d="M24,57.72a.39.39,0,0,1-.25-.1.4.4,0,0,1-.1-.25.35.35,0,0,1,.6-.25.37.37,0,0,1,.1.25.39.39,0,0,1-.1.25A.37.37,0,0,1,24,57.72Z"/><path class="cls-2" d="M26,48a.39.39,0,0,1-.25-.1.36.36,0,0,1,0-.5.37.37,0,0,1,.5,0,.36.36,0,0,1,0,.5A.39.39,0,0,1,26,48Z"/><path class="cls-2" d="M25.5,43.72a.39.39,0,0,1-.25-.1.36.36,0,0,1,0-.5.37.37,0,0,1,.5,0,.36.36,0,0,1,0,.5A.39.39,0,0,1,25.5,43.72Z"/><path class="cls-2" d="M32,31.22a.39.39,0,0,1-.25-.1.4.4,0,0,1-.1-.25.33.33,0,0,1,.11-.25.35.35,0,0,1,.59.25.39.39,0,0,1-.1.25A.39.39,0,0,1,32,31.22Z"/><path class="cls-2" d="M34,28a.39.39,0,0,1-.25-.1.4.4,0,0,1-.1-.25.35.35,0,0,1,.1-.25.37.37,0,0,1,.5,0,.36.36,0,0,1,0,.5A.37.37,0,0,1,34,28Z"/><path class="cls-2" d="M41.5,26a.39.39,0,0,1-.25-.1.36.36,0,0,1,0-.5.37.37,0,0,1,.5,0,.36.36,0,0,1,0,.5A.39.39,0,0,1,41.5,26Z"/><path class="cls-2" d="M42.75,21a.36.36,0,0,1-.25-.11.33.33,0,0,1-.1-.24.4.4,0,0,1,.1-.25.37.37,0,0,1,.5,0,.39.39,0,0,1,.1.25.34.34,0,0,1-.11.25A.34.34,0,0,1,42.75,21Z"/><path class="cls-2" d="M36.25,19.47a.39.39,0,0,1-.25-.1.37.37,0,0,1-.1-.25.31.31,0,0,1,.1-.24.35.35,0,0,1,.5,0,.36.36,0,0,1,0,.5A.39.39,0,0,1,36.25,19.47Z"/><path class="cls-2" d="M27.5,22.47a.39.39,0,0,1-.25-.1.36.36,0,0,1,0-.5.37.37,0,0,1,.5,0,.36.36,0,0,1,0,.5A.39.39,0,0,1,27.5,22.47Z"/><path class="cls-2" d="M51.75,22.22a.33.33,0,0,1-.25-.11.35.35,0,0,1-.1-.24.4.4,0,0,1,.1-.25.36.36,0,0,1,.6.25.39.39,0,0,1-.1.25A.37.37,0,0,1,51.75,22.22Z"/><path class="cls-2" d="M43,18a.37.37,0,0,1-.25-.1.36.36,0,0,1,0-.5.38.38,0,0,1,.5,0,.36.36,0,0,1,0,.5A.39.39,0,0,1,43,18Z"/><path class="cls-2" d="M50.25,18.22a.37.37,0,0,1-.25-.1.36.36,0,0,1,0-.5.36.36,0,0,1,.6.25.39.39,0,0,1-.1.25A.39.39,0,0,1,50.25,18.22Z"/><path class="cls-2" d="M59.25,17.47a.39.39,0,0,1-.25-.1.4.4,0,0,1-.1-.25.33.33,0,0,1,.11-.25.36.36,0,0,1,.49,0,.35.35,0,0,1,.1.25.39.39,0,0,1-.1.25A.39.39,0,0,1,59.25,17.47Z"/><path class="cls-2" d="M58,14.22a.37.37,0,0,1-.25-.1.36.36,0,0,1,0-.5.36.36,0,0,1,.6.25.39.39,0,0,1-.1.25A.39.39,0,0,1,58,14.22Z"/><path class="cls-2" d="M61.25,11.22a.39.39,0,0,1-.25-.1.4.4,0,0,1-.1-.25.33.33,0,0,1,.11-.25.36.36,0,0,1,.49,0,.32.32,0,0,1,.1.24.39.39,0,0,1-.1.25A.39.39,0,0,1,61.25,11.22Z"/><path class="cls-2" d="M58.5,7.72a.39.39,0,0,1-.25-.1.35.35,0,0,1-.1-.25.31.31,0,0,1,.1-.24.35.35,0,0,1,.6.24.39.39,0,0,1-.1.25A.39.39,0,0,1,58.5,7.72Z"/><path class="cls-2" d="M59.75,5a.34.34,0,0,1-.25-.11.35.35,0,0,1-.1-.24.33.33,0,0,1,.11-.25.36.36,0,0,1,.49,0,.35.35,0,0,1,.1.25.39.39,0,0,1-.1.25A.39.39,0,0,1,59.75,5Z"/><path class="cls-2" d="M67.25,6.22a.39.39,0,0,1-.25-.1.36.36,0,0,1-.1-.25.35.35,0,0,1,.6-.25.36.36,0,0,1,0,.5A.39.39,0,0,1,67.25,6.22Z"/><path class="cls-2" d="M70.5,8.72a.39.39,0,0,1-.25-.1.36.36,0,0,1-.1-.25.38.38,0,0,1,.1-.25.37.37,0,0,1,.49,0,.36.36,0,0,1,.11.25.39.39,0,0,1-.1.25A.39.39,0,0,1,70.5,8.72Z"/><path class="cls-2" d="M65.5,10a.39.39,0,0,1-.25-.1.4.4,0,0,1-.1-.25.35.35,0,0,1,.6-.25.36.36,0,0,1,0,.5A.39.39,0,0,1,65.5,10Z"/><path class="cls-2" d="M60,24a.39.39,0,0,1-.25-.1.36.36,0,0,1,0-.5.37.37,0,0,1,.5,0,.36.36,0,0,1,0,.5A.39.39,0,0,1,60,24Z"/><path class="cls-2" d="M55.25,24a.39.39,0,0,1-.25-.1.36.36,0,0,1,0-.5.38.38,0,0,1,.5,0,.36.36,0,0,1,0,.5A.39.39,0,0,1,55.25,24Z"/><path class="cls-2" d="M55.25,19a.34.34,0,0,1-.25-.11.35.35,0,0,1-.1-.24.33.33,0,0,1,.11-.25.36.36,0,0,1,.49,0,.35.35,0,0,1,.1.25.39.39,0,0,1-.1.25A.39.39,0,0,1,55.25,19Z"/><path class="cls-2" d="M64.75,26a.39.39,0,0,1-.25-.1.4.4,0,0,1-.1-.25.33.33,0,0,1,.11-.25.36.36,0,0,1,.49,0,.35.35,0,0,1,.1.25.39.39,0,0,1-.1.25A.39.39,0,0,1,64.75,26Z"/><path class="cls-2" d="M57.5,31a.33.33,0,0,1-.25-.11.35.35,0,0,1-.1-.24.33.33,0,0,1,.11-.25.36.36,0,0,1,.49,0,.35.35,0,0,1,.1.25.39.39,0,0,1-.1.25A.39.39,0,0,1,57.5,31Z"/><path class="cls-2" d="M52.5,33a.36.36,0,0,1-.25-.11.35.35,0,0,1-.1-.24.33.33,0,0,1,.11-.25.36.36,0,0,1,.49,0,.35.35,0,0,1,.1.25.39.39,0,0,1-.1.25A.39.39,0,0,1,52.5,33Z"/><path class="cls-2" d="M47.25,34a.36.36,0,0,1-.25-.11.35.35,0,0,1-.1-.24.33.33,0,0,1,.11-.25.36.36,0,0,1,.49,0,.35.35,0,0,1,.1.25.39.39,0,0,1-.1.25A.39.39,0,0,1,47.25,34Z"/><path class="cls-2" d="M44,39.47a.36.36,0,0,1-.25-.11.35.35,0,0,1-.1-.24.4.4,0,0,1,.1-.25.37.37,0,0,1,.5,0,.37.37,0,0,1,.1.25.33.33,0,0,1-.11.25A.34.34,0,0,1,44,39.47Z"/><path class="cls-2" d="M33.75,41.72a.39.39,0,0,1-.25-.1.36.36,0,0,1,0-.5.37.37,0,0,1,.5,0,.36.36,0,0,1,0,.5A.39.39,0,0,1,33.75,41.72Z"/><path class="cls-2" d="M40.5,48.22a.39.39,0,0,1-.25-.1.36.36,0,0,1,0-.5.35.35,0,0,1,.49,0,.34.34,0,0,1,.11.25.39.39,0,0,1-.1.25A.39.39,0,0,1,40.5,48.22Z"/><path class="cls-2" d="M45.5,52.47a.39.39,0,0,1-.25-.1.4.4,0,0,1-.1-.25.33.33,0,0,1,.11-.25.35.35,0,0,1,.59.25.39.39,0,0,1-.1.25A.39.39,0,0,1,45.5,52.47Z"/><path class="cls-2" d="M46.25,57a.39.39,0,0,1-.25-.1.36.36,0,0,1,0-.5.35.35,0,0,1,.49,0,.36.36,0,0,1,.11.25.39.39,0,0,1-.1.25A.39.39,0,0,1,46.25,57Z"/><path class="cls-2" d="M41.75,59.72a.34.34,0,0,1-.24-.1.36.36,0,0,1-.11-.25.4.4,0,0,1,.1-.25.37.37,0,0,1,.5,0,.36.36,0,0,1,0,.5A.39.39,0,0,1,41.75,59.72Z"/><path class="cls-2" d="M39.75,63a.39.39,0,0,1-.25-.1.36.36,0,0,1,0-.5.37.37,0,0,1,.5,0,.36.36,0,0,1,0,.5A.37.37,0,0,1,39.75,63Z"/><path class="cls-2" d="M35.75,63a.39.39,0,0,1-.25-.1.4.4,0,0,1-.1-.25.33.33,0,0,1,.11-.25.35.35,0,0,1,.59.25.39.39,0,0,1-.1.25A.39.39,0,0,1,35.75,63Z"/><path class="cls-2" d="M36.25,53a.39.39,0,0,1-.25-.1.35.35,0,0,1-.1-.25.4.4,0,0,1,.1-.25.36.36,0,0,1,.5,0,.32.32,0,0,1,.1.24.39.39,0,0,1-.1.25A.39.39,0,0,1,36.25,53Z"/><path class="cls-2" d="M29.75,63.72a.34.34,0,0,1-.24-.1.36.36,0,0,1-.11-.25.33.33,0,0,1,.11-.25.36.36,0,0,1,.49,0,.35.35,0,0,1,.1.25.39.39,0,0,1-.1.25A.39.39,0,0,1,29.75,63.72Z"/><path class="cls-2" d="M31.25,68.72a.39.39,0,0,1-.25-.1.36.36,0,0,1,0-.5.37.37,0,0,1,.5,0,.36.36,0,0,1,0,.5A.39.39,0,0,1,31.25,68.72Z"/><path class="cls-2" d="M36.75,71.22a.39.39,0,0,1-.25-.1.38.38,0,0,1-.1-.25.33.33,0,0,1,.11-.25.36.36,0,0,1,.49,0,.35.35,0,0,1,.1.25.37.37,0,0,1-.1.25A.39.39,0,0,1,36.75,71.22Z"/><path class="cls-2" d="M62.75,57.22a.39.39,0,0,1-.25-.1.4.4,0,0,1-.1-.25.33.33,0,0,1,.11-.25.36.36,0,0,1,.49,0,.35.35,0,0,1,.1.25.39.39,0,0,1-.1.25A.39.39,0,0,1,62.75,57.22Z"/><path class="cls-2" d="M59.75,51a.33.33,0,0,1-.25-.11.35.35,0,0,1-.1-.24.35.35,0,0,1,.59-.25.36.36,0,0,1,.11.25.39.39,0,0,1-.1.25A.37.37,0,0,1,59.75,51Z"/><path class="cls-2" d="M54.25,50.72a.39.39,0,0,1-.25-.1.38.38,0,0,1-.1-.25.35.35,0,0,1,.7,0,.35.35,0,0,1-.1.24A.34.34,0,0,1,54.25,50.72Z"/><path class="cls-2" d="M54.5,42a.36.36,0,0,1-.25-.11.33.33,0,0,1-.1-.24.4.4,0,0,1,.1-.25.37.37,0,0,1,.5,0,.39.39,0,0,1,.1.25.34.34,0,0,1-.11.25A.34.34,0,0,1,54.5,42Z"/><path class="cls-2" d="M62.25,42.47a.39.39,0,0,1-.25-.1.36.36,0,0,1,0-.5.37.37,0,0,1,.5,0,.36.36,0,0,1,0,.5A.39.39,0,0,1,62.25,42.47Z"/><path class="cls-2" d="M66.75,47.72a.34.34,0,0,1-.24-.1.36.36,0,0,1-.11-.25.4.4,0,0,1,.1-.25.36.36,0,0,1,.49,0,.32.32,0,0,1,.11.25.39.39,0,0,1-.1.25A.39.39,0,0,1,66.75,47.72Z"/><path class="cls-2" d="M69.25,54.47a.34.34,0,0,1-.24-.1.36.36,0,0,1-.11-.25.4.4,0,0,1,.1-.25.36.36,0,0,1,.6.25.39.39,0,0,1-.1.25A.39.39,0,0,1,69.25,54.47Z"/><path class="cls-2" d="M63.25,62a.34.34,0,0,1-.24-.1.36.36,0,0,1-.11-.25.4.4,0,0,1,.1-.25.36.36,0,0,1,.49,0,.32.32,0,0,1,.11.25.39.39,0,0,1-.1.25A.39.39,0,0,1,63.25,62Z"/><path class="cls-2" d="M70,61.22a.39.39,0,0,1-.25-.1.4.4,0,0,1-.1-.25.33.33,0,0,1,.11-.25.36.36,0,0,1,.49,0,.35.35,0,0,1,.1.25.39.39,0,0,1-.1.25A.39.39,0,0,1,70,61.22Z"/><path class="cls-2" d="M64.5,65.72a.39.39,0,0,1-.25-.1.36.36,0,0,1,0-.5.36.36,0,0,1,.5,0,.35.35,0,0,1,.1.24.39.39,0,0,1-.1.25A.39.39,0,0,1,64.5,65.72Z"/><path class="cls-2" d="M65.5,68.47a.39.39,0,0,1-.25-.1.36.36,0,0,1,0-.5.37.37,0,0,1,.5,0,.36.36,0,0,1,0,.5A.39.39,0,0,1,65.5,68.47Z"/><path class="cls-2" d="M62.25,70.47a.39.39,0,0,1-.25-.1.4.4,0,0,1-.1-.25.34.34,0,0,1,.11-.25.36.36,0,0,1,.49,0,.32.32,0,0,1,.1.24.39.39,0,0,1-.1.25A.39.39,0,0,1,62.25,70.47Z"/><path class="cls-2" d="M52.5,70a.35.35,0,0,1-.25-.1.36.36,0,0,1,0-.5.36.36,0,0,1,.6.25.39.39,0,0,1-.1.25A.37.37,0,0,1,52.5,70Z"/><path class="cls-2" d="M44.5,66.72a.34.34,0,0,1-.25-.11.35.35,0,0,1-.1-.24.33.33,0,0,1,.11-.25.36.36,0,0,1,.49,0,.35.35,0,0,1,.1.25.39.39,0,0,1-.1.25A.39.39,0,0,1,44.5,66.72Z"/><path class="cls-2" d="M28.25,71.47a.39.39,0,0,1-.25-.1.36.36,0,0,1-.1-.25.33.33,0,0,1,.11-.25.35.35,0,0,1,.59.25.33.33,0,0,1-.11.25A.34.34,0,0,1,28.25,71.47Z"/><path class="cls-2" d="M2.75,29.72a.39.39,0,0,1-.25-.1.36.36,0,0,1,0-.5.38.38,0,0,1,.5,0,.36.36,0,0,1,0,.5A.39.39,0,0,1,2.75,29.72Z"/><path class="cls-2" d="M13,5.22a.36.36,0,0,1-.25-.11.32.32,0,0,1-.1-.24.38.38,0,0,1,.1-.25.36.36,0,0,1,.6.25.33.33,0,0,1-.11.25A.34.34,0,0,1,13,5.22Z"/><path class="cls-2" d="M70,34.72a.39.39,0,0,1-.25-.1.4.4,0,0,1-.1-.25.33.33,0,0,1,.11-.25.36.36,0,0,1,.49,0,.35.35,0,0,1,.1.25.39.39,0,0,1-.1.25A.39.39,0,0,1,70,34.72Z"/><path class="cls-2" d="M71,41.47a.39.39,0,0,1-.25-.1.36.36,0,0,1,0-.5.37.37,0,0,1,.5,0,.36.36,0,0,1,0,.5A.39.39,0,0,1,71,41.47Z"/><path class="cls-2" d="M.75,52a.39.39,0,0,1-.25-.1.4.4,0,0,1-.1-.25.33.33,0,0,1,.11-.25.36.36,0,0,1,.49,0,.35.35,0,0,1,.1.25.39.39,0,0,1-.1.25A.39.39,0,0,1,.75,52Z"/><path class="cls-2" d="M71.75,23.72a.39.39,0,0,1-.25-.1.36.36,0,0,1,0-.5.38.38,0,0,1,.5,0,.36.36,0,0,1,0,.5A.39.39,0,0,1,71.75,23.72Z"/><path class="cls-2" d="M68.75,26.72a.39.39,0,0,1-.25-.1.36.36,0,0,1,0-.5.37.37,0,0,1,.5,0,.39.39,0,0,1,.1.25.35.35,0,0,1-.1.25A.39.39,0,0,1,68.75,26.72Z"/><path class="cls-2" d="M68.25,60.47a.39.39,0,0,1-.25-.1.4.4,0,0,1-.1-.25.35.35,0,0,1,.6-.25.36.36,0,0,1,0,.5A.39.39,0,0,1,68.25,60.47Z"/><path class="cls-2" d="M71.25,68.47a.39.39,0,0,1-.25-.1.36.36,0,0,1,0-.5.37.37,0,0,1,.5,0,.39.39,0,0,1,.1.25.35.35,0,0,1-.1.25A.39.39,0,0,1,71.25,68.47Z"/><path class="cls-2" d="M.25,58a.39.39,0,0,1-.25-.1.36.36,0,0,1,0-.5.38.38,0,0,1,.5,0,.36.36,0,0,1,0,.5A.39.39,0,0,1,.25,58Z"/><path class="cls-2" d="M2.5,71.47a.39.39,0,0,1-.25-.1.36.36,0,0,1,0-.5.36.36,0,0,1,.6.25.39.39,0,0,1-.1.25A.39.39,0,0,1,2.5,71.47Z"/><path class="cls-2" d="M70,24.22a.39.39,0,0,1-.25-.1.4.4,0,0,1-.1-.25.33.33,0,0,1,.11-.25.36.36,0,0,1,.49,0,.35.35,0,0,1,.1.25.39.39,0,0,1-.1.25A.39.39,0,0,1,70,24.22Z"/><path class="cls-2" d="M1,17a.39.39,0,0,1-.25-.1.36.36,0,0,1,0-.5.38.38,0,0,1,.5,0,.36.36,0,0,1,0,.5A.39.39,0,0,1,1,17Z"/><path class="cls-2" d="M17.75,13.27a.65.65,0,0,1-.65-.65.66.66,0,0,1,.19-.46.68.68,0,0,1,.92,0,.65.65,0,0,1-.46,1.11Z"/><path class="cls-2" d="M29,11.27a.66.66,0,0,1-.46-.19.68.68,0,0,1-.19-.46.66.66,0,0,1,.19-.46.67.67,0,0,1,.92,0,.66.66,0,0,1,.19.46.65.65,0,0,1-.65.65Z"/><path class="cls-2" d="M29,3.77a.65.65,0,0,1-.65-.65.64.64,0,0,1,.19-.46.68.68,0,0,1,.92,0,.65.65,0,0,1,0,.92A.68.68,0,0,1,29,3.77Z"/><path class="cls-2" d="M40,10.77a.65.65,0,0,1-.65-.65.66.66,0,0,1,.19-.46.68.68,0,0,1,.92,0,.63.63,0,0,1,.19.46.68.68,0,0,1-.19.46A.66.66,0,0,1,40,10.77Z"/><path class="cls-2" d="M44.75,12.27a.61.61,0,0,1-.46-.2.63.63,0,0,1-.19-.45.66.66,0,0,1,.19-.46.68.68,0,0,1,.92,0,.63.63,0,0,1,.19.46.61.61,0,0,1-.2.46A.6.6,0,0,1,44.75,12.27Z"/><path class="cls-2" d="M47,23.27a.65.65,0,0,1-.46-1.11.68.68,0,0,1,.92,0A.65.65,0,0,1,47,23.27Z"/><path class="cls-2" d="M54.5,7.27A.64.64,0,0,1,54,7.08a.65.65,0,0,1,0-.92.68.68,0,0,1,.92,0,.64.64,0,0,1,.19.46.66.66,0,0,1-.19.46A.64.64,0,0,1,54.5,7.27Z"/><path class="cls-2" d="M63.75,7a.65.65,0,0,1-.46-1.11.68.68,0,0,1,.92,0A.65.65,0,0,1,63.75,7Z"/><path class="cls-2" d="M64.75,3a.66.66,0,0,1-.46-.19.68.68,0,0,1-.19-.46.66.66,0,0,1,.19-.46.68.68,0,0,1,.92,0,.68.68,0,0,1,.19.46.62.62,0,0,1-.18.45A.67.67,0,0,1,64.75,3Z"/><path class="cls-2" d="M69.25,18.52a.65.65,0,0,1-.46-1.11.67.67,0,0,1,.92,0,.65.65,0,0,1-.46,1.11Z"/><path class="cls-2" d="M7.75,47.52a.64.64,0,0,1-.46-.19.68.68,0,0,1-.19-.46.66.66,0,0,1,.19-.46.68.68,0,0,1,.92,0,.66.66,0,0,1,.19.46.68.68,0,0,1-.19.46A.64.64,0,0,1,7.75,47.52Z"/><path class="cls-2" d="M4.75,57.27a.64.64,0,0,1-.46-.19.65.65,0,0,1,0-.92.67.67,0,0,1,.92,0,.65.65,0,0,1,0,.92A.64.64,0,0,1,4.75,57.27Z"/><path class="cls-2" d="M2,67.52a.66.66,0,0,1-.46-.19.68.68,0,0,1-.19-.46.66.66,0,0,1,.19-.46.68.68,0,0,1,.92,0,.66.66,0,0,1,.19.46.68.68,0,0,1-.19.46A.66.66,0,0,1,2,67.52Z"/><path class="cls-2" d="M17.5,70.27a.66.66,0,0,1-.46-.19.68.68,0,0,1-.19-.46.66.66,0,0,1,.19-.46.68.68,0,0,1,.92,0,.66.66,0,0,1,.19.46.68.68,0,0,1-.19.46A.66.66,0,0,1,17.5,70.27Z"/><path class="cls-2" d="M19,62.77a.65.65,0,0,1-.65-.65.64.64,0,0,1,.19-.46.67.67,0,0,1,.92,0,.66.66,0,0,1,.19.46.68.68,0,0,1-.19.46A.66.66,0,0,1,19,62.77Z"/><path class="cls-2" d="M20.75,45.77a.65.65,0,0,1-.65-.65.64.64,0,0,1,.19-.46.67.67,0,0,1,.92,0,.66.66,0,0,1,.19.46.68.68,0,0,1-.19.46A.64.64,0,0,1,20.75,45.77Z"/><path class="cls-2" d="M28.25,51.52a.65.65,0,0,1-.46-1.11.67.67,0,0,1,.92,0,.66.66,0,0,1,.19.46.68.68,0,0,1-.19.46A.64.64,0,0,1,28.25,51.52Z"/><path class="cls-2" d="M33.75,60.77a.65.65,0,0,1-.65-.65.64.64,0,0,1,.19-.46.68.68,0,0,1,.92,0,.63.63,0,0,1,.19.46.64.64,0,0,1-.19.46A.66.66,0,0,1,33.75,60.77Z"/><path class="cls-2" d="M34,67.27a.64.64,0,0,1-.46-.19.65.65,0,0,1,0-.92.67.67,0,0,1,.92,0,.65.65,0,0,1,0,.92A.66.66,0,0,1,34,67.27Z"/><path class="cls-2" d="M41.5,55.52A.65.65,0,0,1,41,54.41a.68.68,0,0,1,.92,0,.65.65,0,0,1-.46,1.11Z"/><path class="cls-2" d="M52,60.27a.65.65,0,0,1-.46-1.11.68.68,0,0,1,.92,0A.65.65,0,0,1,52,60.27Z"/><path class="cls-2" d="M54.75,65.77a.66.66,0,0,1-.46-.19.68.68,0,0,1-.19-.46.64.64,0,0,1,.19-.46.68.68,0,0,1,.92,0,.64.64,0,0,1,.19.46.68.68,0,0,1-.19.46A.66.66,0,0,1,54.75,65.77Z"/><path class="cls-2" d="M25,25a.66.66,0,0,1-.46-.19.68.68,0,0,1-.19-.46.66.66,0,0,1,.19-.46.68.68,0,0,1,.92,0,.66.66,0,0,1,.19.46.68.68,0,0,1-.19.46A.66.66,0,0,1,25,25Z"/><path class="cls-2" d="M35,23.77a.64.64,0,0,1-.46-.19.65.65,0,0,1,0-.92.68.68,0,0,1,.92,0A.65.65,0,0,1,35,23.77Z"/><path class="cls-2" d="M44.75,30a.65.65,0,0,1-.46-1.11.68.68,0,0,1,.92,0,.63.63,0,0,1,.19.46.67.67,0,0,1-.65.65Z"/><path class="cls-2" d="M51.75,43.52a.65.65,0,0,1-.46-1.11.67.67,0,0,1,.92,0,.64.64,0,0,1,.19.46.65.65,0,0,1-.65.65Z"/><path class="cls-2" d="M66.75,52.27a.65.65,0,0,1-.65-.65.61.61,0,0,1,.2-.46.67.67,0,0,1,.91,0,.65.65,0,0,1-.46,1.11Z"/><path class="cls-2" d="M47,48.27a.65.65,0,0,1-.46-1.11.68.68,0,0,1,.92,0A.65.65,0,0,1,47,48.27Z"/><path class="cls-2" d="M36.75,45a.66.66,0,0,1-.46-.19.68.68,0,0,1-.19-.46.66.66,0,0,1,.19-.46.68.68,0,0,1,.92,0,.66.66,0,0,1,.19.46.68.68,0,0,1-.19.46A.66.66,0,0,1,36.75,45Z"/><path class="cls-2" d="M16.75,29a.65.65,0,0,1-.46-1.11.68.68,0,0,1,.92,0,.65.65,0,0,1,0,.92A.64.64,0,0,1,16.75,29Z"/><path class="cls-2" d="M11,37.27a.65.65,0,0,1-.65-.65.64.64,0,0,1,.19-.46.67.67,0,0,1,.92,0A.65.65,0,0,1,11,37.27Z"/><path class="cls-2" d="M67.25,31.27a.66.66,0,0,1-.46-.19.68.68,0,0,1-.19-.46.66.66,0,0,1,.19-.46.68.68,0,0,1,.92,0,.64.64,0,0,1,.19.46.65.65,0,0,1-.65.65Z"/><path class="cls-2" d="M7,16.27a.67.67,0,0,1-.65-.65.66.66,0,0,1,.19-.46.67.67,0,0,1,.92,0,.65.65,0,0,1,0,.92A.64.64,0,0,1,7,16.27Z"/><path class="cls-2" d="M8.25,5.77a.68.68,0,0,1-.46-.19.66.66,0,0,1-.19-.46.64.64,0,0,1,.19-.46.67.67,0,0,1,.92,0,.64.64,0,0,1,.19.46.65.65,0,0,1-.65.65Z"/><path class="cls-2" d="M3.25,3a.66.66,0,0,1-.46-.19.68.68,0,0,1-.19-.46.66.66,0,0,1,.19-.46.68.68,0,0,1,.92,0,.66.66,0,0,1,.19.46.68.68,0,0,1-.19.46A.66.66,0,0,1,3.25,3Z"/><path class="cls-2" d="M66.25,37.77a.65.65,0,0,1-.46-1.11.68.68,0,0,1,.92,0,.64.64,0,0,1,.19.46.66.66,0,0,1-.19.46A.64.64,0,0,1,66.25,37.77Z"/><path class="cls-2" d="M43.75,63.52a.66.66,0,0,1-.46-.19.68.68,0,0,1-.19-.46.66.66,0,0,1,.19-.46.67.67,0,0,1,.92,0,.66.66,0,0,1,.19.46.68.68,0,0,1-.19.46A.66.66,0,0,1,43.75,63.52Z"/><path class="cls-2" d="M25.5,70.52a.66.66,0,0,1-.46-.19.68.68,0,0,1-.19-.46.66.66,0,0,1,.19-.46.67.67,0,0,1,.92,0,.66.66,0,0,1,.19.46.68.68,0,0,1-.19.46A.66.66,0,0,1,25.5,70.52Z"/><path class="cls-2" d="M21.75,42.27a.66.66,0,0,1-.46-.19.65.65,0,0,1,0-.92.68.68,0,0,1,.92,0,.65.65,0,0,1-.46,1.11Z"/><path class="cls-2" d="M23.75,29.52a.66.66,0,0,1-.46-.19.68.68,0,0,1-.19-.46.66.66,0,0,1,.19-.46.67.67,0,0,1,.92,0,.64.64,0,0,1,.19.46.65.65,0,0,1-.65.65Z"/><path class="cls-2" d="M41.25,35a.65.65,0,0,1-.46-1.11.68.68,0,0,1,.92,0,.66.66,0,0,1,.19.46.68.68,0,0,1-.19.46A.66.66,0,0,1,41.25,35Z"/><path class="cls-2" d="M67.25,44.27a.66.66,0,0,1-.46-.19.68.68,0,0,1-.19-.46.66.66,0,0,1,.19-.46.68.68,0,0,1,.92,0,.64.64,0,0,1,.19.46.65.65,0,0,1-.65.65Z"/><path class="cls-2" d="M53,15.52a.65.65,0,0,1-.46-1.11.68.68,0,0,1,.92,0,.66.66,0,0,1,.19.46.68.68,0,0,1-.19.46A.66.66,0,0,1,53,15.52Z"/><path class="cls-2" d="M33.75,16.52a.66.66,0,0,1-.46-.19.68.68,0,0,1-.19-.46.64.64,0,0,1,.19-.46.68.68,0,0,1,.92,0,.64.64,0,0,1,.19.46.65.65,0,0,1-.65.65Z"/><path class="cls-2" d="M12.5,19.77A.65.65,0,0,1,12,18.66a.67.67,0,0,1,.92,0,.65.65,0,0,1-.46,1.11Z"/><path class="cls-2" d="M49.25,5a.65.65,0,0,1-.46-1.11.68.68,0,0,1,.92,0A.65.65,0,0,1,49.25,5Z"/><path class="cls-2" d="M58.75,21.27a.65.65,0,0,1-.46-1.11.68.68,0,0,1,.92,0,.64.64,0,0,1,.19.46.65.65,0,0,1-.65.65Z"/><path class="cls-2" d="M67.25,57.77a.66.66,0,0,1-.46-.19.68.68,0,0,1-.19-.46.66.66,0,0,1,.19-.46.68.68,0,0,1,.92,0,.64.64,0,0,1,.19.46.65.65,0,0,1-.65.65Z"/><path class="cls-2" d="M5,70.27a.64.64,0,0,1-.46-.19.65.65,0,0,1,0-.92.67.67,0,0,1,.92,0,.65.65,0,0,1,0,.92A.64.64,0,0,1,5,70.27Z"/><path class="cls-2" d="M2.5,13.77a.61.61,0,0,1-.46-.2.62.62,0,0,1-.19-.45A.66.66,0,0,1,2,12.66a.67.67,0,0,1,.92,0,.65.65,0,0,1,0,.92A.64.64,0,0,1,2.5,13.77Z"/><path class="cls-2" d="M16.25,3.77a.65.65,0,0,1-.46-1.11.68.68,0,0,1,.92,0,.65.65,0,0,1-.46,1.11Z"/><path class="cls-2" d="M40.25,5a.65.65,0,0,1-.46-1.11.68.68,0,0,1,.92,0,.64.64,0,0,1,.19.46.65.65,0,0,1-.65.65Z"/><path class="cls-2" d="M2.5,32.52A.64.64,0,0,1,2,32.33a.65.65,0,0,1,0-.92.68.68,0,0,1,.92,0,.65.65,0,0,1-.46,1.11Z"/><path class="cls-2" d="M7.25,25.52a.64.64,0,0,1-.46-.19.65.65,0,0,1,0-.92.68.68,0,0,1,.92,0,.64.64,0,0,1,.19.46.66.66,0,0,1-.19.46A.64.64,0,0,1,7.25,25.52Z"/><path class="cls-2" d="M3.75,47.27a.66.66,0,0,1-.46-.19.68.68,0,0,1-.19-.46.66.66,0,0,1,.19-.46.67.67,0,0,1,.92,0,.66.66,0,0,1,.19.46.68.68,0,0,1-.19.46A.64.64,0,0,1,3.75,47.27Z"/><path class="cls-2" d="M10.75,51a.66.66,0,0,1-.46-.19.68.68,0,0,1-.19-.46.64.64,0,0,1,.19-.46.68.68,0,0,1,.92,0,.66.66,0,0,1,.19.46.68.68,0,0,1-.19.46A.66.66,0,0,1,10.75,51Z"/><path class="cls-2" d="M9.75,60.27a.64.64,0,0,1-.46-.19.65.65,0,0,1,0-.92.68.68,0,0,1,.92,0,.65.65,0,0,1,0,.92A.64.64,0,0,1,9.75,60.27Z"/><path class="cls-2" d="M13.25,66.27a.66.66,0,0,1-.46-.19.68.68,0,0,1-.19-.46.64.64,0,0,1,.19-.46.67.67,0,0,1,.92,0,.66.66,0,0,1,.19.46.68.68,0,0,1-.19.46A.66.66,0,0,1,13.25,66.27Z"/><path class="cls-2" d="M21.75,53.77a.66.66,0,0,1-.46-.19.64.64,0,0,1-.19-.46.6.6,0,0,1,.2-.46.65.65,0,0,1,1.1.46.68.68,0,0,1-.19.46A.66.66,0,0,1,21.75,53.77Z"/><path class="cls-2" d="M31,38a.66.66,0,0,1-.46-.19.68.68,0,0,1-.19-.46.66.66,0,0,1,.19-.46.68.68,0,0,1,.92,0,.66.66,0,0,1,.19.46.68.68,0,0,1-.19.46A.66.66,0,0,1,31,38Z"/><path class="cls-2" d="M25.75,34.52a.65.65,0,0,1-.46-1.11.67.67,0,0,1,.92,0,.65.65,0,0,1-.46,1.11Z"/><path class="cls-2" d="M37,29a.66.66,0,0,1-.46-.19.68.68,0,0,1-.19-.46.66.66,0,0,1,.19-.46.68.68,0,0,1,.92,0,.66.66,0,0,1,.19.46.68.68,0,0,1-.19.46A.66.66,0,0,1,37,29Z"/><path class="cls-2" d="M61.5,17a.66.66,0,0,1-.46-.19.68.68,0,0,1-.19-.46.66.66,0,0,1,.19-.46.68.68,0,0,1,.92,0,.64.64,0,0,1,.19.46.65.65,0,0,1-.65.65Z"/><path class="cls-2" d="M61,27.52a.64.64,0,0,1-.46-.19.68.68,0,0,1-.19-.46.66.66,0,0,1,.19-.46.68.68,0,0,1,.92,0,.65.65,0,0,1,0,.92A.64.64,0,0,1,61,27.52Z"/><path class="cls-2" d="M58.5,57.52a.66.66,0,0,1-.46-.19.68.68,0,0,1-.19-.46.66.66,0,0,1,.19-.46.68.68,0,0,1,.92,0,.66.66,0,0,1,.19.46.68.68,0,0,1-.19.46A.66.66,0,0,1,58.5,57.52Z"/><path class="cls-2" d="M59,44.77a.64.64,0,0,1-.46-.19.65.65,0,0,1,0-.92.68.68,0,0,1,.92,0,.65.65,0,0,1,0,.92A.64.64,0,0,1,59,44.77Z"/><path class="cls-2" d="M55.5,36a.66.66,0,0,1-.46-.19.68.68,0,0,1-.19-.46.66.66,0,0,1,.19-.46.68.68,0,0,1,.92,0,.66.66,0,0,1,.19.46.68.68,0,0,1-.19.46A.66.66,0,0,1,55.5,36Z"/><path class="cls-2" d="M69,71a.68.68,0,0,1-.46-.19.65.65,0,0,1,0-.92.69.69,0,0,1,.92,0A.65.65,0,0,1,69,71Z"/><path class="cls-2" d="M60.5,66.27A.65.65,0,0,1,60,65.16a.67.67,0,0,1,.92,0,.64.64,0,0,1,.19.46.65.65,0,0,1-.65.65Z"/><path class="cls-2" d="M44.25,71.77a.65.65,0,0,1-.46-1.11.68.68,0,0,1,.92,0,.65.65,0,0,1-.46,1.11Z"/><path class="cls-2" d="M24.25,1.52A.65.65,0,0,1,23.6.87a.64.64,0,0,1,.19-.46.67.67,0,0,1,.92,0,.66.66,0,0,1,.19.46.68.68,0,0,1-.19.46A.64.64,0,0,1,24.25,1.52Z"/><path class="cls-2" d="M-.25,23.72a.39.39,0,0,1-.25-.1.4.4,0,0,1-.1-.25.4.4,0,0,1,.1-.25.38.38,0,0,1,.5,0,.39.39,0,0,1,.1.25.39.39,0,0,1-.1.25A.39.39,0,0,1-.25,23.72Z"/></pattern></defs><title>MARCOS DINAMICOS FINALES</title><path class="cls-3" d="M1.91,61.35v-60H190v60ZM177.06,14.27H14.84V48.42H177.06Z"/><path class="cls-2" d="M26.85,39.88H24.46V22.8h2.48c2.81,0,4.91,1.78,4.91,4.49,0,1.94-.84,3.3-2.43,3.81A4,4,0,0,1,32.28,35C32.28,38,30.24,39.88,26.85,39.88Zm.24-15.09h-.51v5.52h.58c1.76,0,2.6-1.31,2.6-3A2.63,2.63,0,0,0,27.08,24.79Zm.14,7.51h-.66v5.59h.56c2,0,2.95-1.08,2.95-2.79A2.72,2.72,0,0,0,27.22,32.3Z"/><path class="cls-2" d="M39.82,40.16a4.66,4.66,0,0,1-4.56-4.63V22.8h2.13V34.9c0,2,.91,3.18,2.43,3.18s2.48-1.19,2.48-3.18V22.8h2.08V35.53A4.66,4.66,0,0,1,39.82,40.16Z"/><path class="cls-2" d="M48.13,39.88V22.8H54.8v2H50.24V30.5h4.28v2H50.24v5.41H55v2Z"/><path class="cls-2" d="M65.53,39.88,60.15,28.39s.07.77.07,1.13V39.88H58.11V22.8h1.64l5.38,11.58s-.07-.77-.07-1.13V22.8h2.11V39.88Z"/><path class="cls-2" d="M75.66,40.16c-4,0-5.33-4.91-5.33-8.89s1.36-8.75,5.33-8.75c4.26,0,5.34,4.68,5.34,8.75S79.73,40.16,75.66,40.16Zm0-15.56c-2.57,0-3.14,3.56-3.14,6.67,0,2.95.56,6.81,3.14,6.81s3.14-3.86,3.14-6.81C78.8,28.16,78.31,24.6,75.66,24.6Z"/><path class="cls-2" d="M86.82,40.16a4.08,4.08,0,0,1-3.49-1.85l1.43-1.43a2.71,2.71,0,0,0,2.11,1.19c1.26,0,1.73-1,1.73-2.06,0-3.3-5.2-5.19-5.2-9.22a4,4,0,0,1,3.84-4.28,3.67,3.67,0,0,1,3.18,1.61L89,25.49a2.25,2.25,0,0,0-1.71-.89c-1.17,0-1.69.94-1.69,2.08,0,2.88,5.2,4.79,5.2,9.2A4,4,0,0,1,86.82,40.16Z"/><path class="cls-2" d="M102.64,39.88V29.19a10.4,10.4,0,0,1,.09-1.12l-3,7.21h-.94l-3-7.21a10.4,10.4,0,0,1,.09,1.12V39.88H93.75V22.8H95.6l3.32,7.89a8.13,8.13,0,0,1,.35,1.05s.19-.63.35-1.05l3.32-7.89h1.8V39.88Z"/><path class="cls-2" d="M113.24,40.16c-4,0-5.33-4.91-5.33-8.89s1.36-8.75,5.33-8.75c4.26,0,5.34,4.68,5.34,8.75S117.31,40.16,113.24,40.16Zm0-15.56c-2.57,0-3.13,3.56-3.13,6.67,0,2.95.56,6.81,3.13,6.81s3.14-3.86,3.14-6.81C116.38,28.16,115.89,24.6,113.24,24.6Z"/><path class="cls-2" d="M125.29,24.79V39.88h-2.11V24.79h-2.67v-2H128v2Z"/><path class="cls-2" d="M130.83,39.88V22.8h2.11V39.88Z"/><path class="cls-2" d="M141.66,39.88h-1.59L135.69,22.8h2.18l2.67,10.76c.14.56.35,1.87.35,1.87s.21-1.31.35-1.87L143.9,22.8H146Z"/><path class="cls-2" d="M153,40.16c-4,0-5.34-4.91-5.34-8.89S149,22.52,153,22.52c4.26,0,5.33,4.68,5.33,8.75S157.08,40.16,153,40.16Zm0-15.56c-2.57,0-3.14,3.56-3.14,6.67,0,2.95.56,6.81,3.14,6.81s3.13-3.86,3.13-6.81C156.15,28.16,155.66,24.6,153,24.6Z"/><path class="cls-2" d="M164.3,40.16a4.08,4.08,0,0,1-3.49-1.85l1.43-1.43a2.7,2.7,0,0,0,2.1,1.19c1.26,0,1.73-1,1.73-2.06,0-3.3-5.19-5.19-5.19-9.22a4,4,0,0,1,3.84-4.28,3.67,3.67,0,0,1,3.18,1.61l-1.47,1.36a2.25,2.25,0,0,0-1.71-.89c-1.17,0-1.68.94-1.68,2.08,0,2.88,5.19,4.79,5.19,9.2A4,4,0,0,1,164.3,40.16Z"/><path class="cls-2" d="M28.37,68.29v7h-.94v-7H24.51v-.82h6.78v.82Z"/><path class="cls-2" d="M33.24,67.8a.6.6,0,0,1-.63.59A.59.59,0,0,1,32,67.8a.6.6,0,0,1,.61-.59A.61.61,0,0,1,33.24,67.8Zm-1.07,7.46V69.53h.9v5.73Z"/><path class="cls-2" d="M40.37,72.57h-5a2.1,2.1,0,0,0,2.07,2.06,2,2,0,0,0,2-1.23l.8.19a2.78,2.78,0,0,1-2.77,1.82,3,3,0,0,1,.05-6,2.82,2.82,0,0,1,2.85,2.86Zm-4.94-.66h4a1.9,1.9,0,0,0-1.94-1.74A2.07,2.07,0,0,0,35.43,71.91Z"/><path class="cls-2" d="M47.2,71.83v3.43h-.89V72A1.62,1.62,0,0,0,44.7,70.2c-1.21,0-2,.81-2,2.3v2.76h-.9V69.53h.9v1a2.49,2.49,0,0,1,2.19-1.09A2.26,2.26,0,0,1,47.2,71.83Z"/><path class="cls-2" d="M54.63,75.26h-.9v-.91a2.83,2.83,0,0,1-2.31,1.06,3,3,0,0,1,0-6,2.83,2.83,0,0,1,2.31,1.06V66.89h.9Zm-.9-2.86a2.18,2.18,0,0,0-2.16-2.23,2.23,2.23,0,0,0,0,4.45A2.17,2.17,0,0,0,53.73,72.4Z"/><path class="cls-2" d="M62.13,75.26h-.89v-.91a2.83,2.83,0,0,1-2.3,1.06,3,3,0,0,1,0-6,2.83,2.83,0,0,1,2.3,1.06v-.92h.89Zm-.89-2.86a2.17,2.17,0,0,0-2.16-2.23,2.23,2.23,0,0,0,0,4.45A2.17,2.17,0,0,0,61.24,72.4Z"/><path class="cls-2" d="M71.71,73.29l.82.22a2.73,2.73,0,0,1-2.74,1.89,3,3,0,1,1,0-6,2.79,2.79,0,0,1,2.75,1.91l-.86.25a1.9,1.9,0,0,0-1.9-1.35,2.11,2.11,0,0,0-2.15,2.2,2.09,2.09,0,0,0,2.15,2.19A1.91,1.91,0,0,0,71.71,73.29Z"/><path class="cls-2" d="M79.61,72.39a3.08,3.08,0,1,1-3.07-3A3,3,0,0,1,79.61,72.39Zm-.88,0a2.2,2.2,0,1,0-4.39,0,2.2,2.2,0,1,0,4.39,0Z"/><path class="cls-2" d="M86.44,71.83v3.43h-.89V72a1.62,1.62,0,0,0-1.61-1.79c-1.21,0-2,.81-2,2.3v2.76H81V69.53h.89v1a2.49,2.49,0,0,1,2.18-1.09A2.26,2.26,0,0,1,86.44,71.83Z"/><path class="cls-2" d="M91.87,73.52c.08.76.79,1.16,1.71,1.16s1.39-.38,1.39-1-.37-.7-1-.83l-1.33-.29c-1-.2-1.5-.67-1.5-1.46,0-1,.87-1.73,2.19-1.73A2.2,2.2,0,0,1,95.74,71l-.86.19a1.4,1.4,0,0,0-1.53-1.06c-.82,0-1.28.39-1.28.94s.32.66.88.79l1.4.3c.85.19,1.49.63,1.49,1.5,0,1.13-1,1.77-2.34,1.77s-2.38-.58-2.53-1.7Z"/><path class="cls-2" d="M102.66,72.57h-5a2.11,2.11,0,0,0,2.07,2.06,2,2,0,0,0,2-1.23l.8.19a2.79,2.79,0,0,1-2.77,1.82,3,3,0,0,1,.06-6,2.81,2.81,0,0,1,2.84,2.86Zm-4.94-.66h4a1.91,1.91,0,0,0-1.94-1.74A2.07,2.07,0,0,0,97.73,71.91Z"/><path class="cls-2" d="M109.5,71.83v3.43h-.9V72A1.61,1.61,0,0,0,107,70.2c-1.21,0-2,.81-2,2.3v2.76h-.89V69.53H105v1a2.49,2.49,0,0,1,2.18-1.09A2.26,2.26,0,0,1,109.5,71.83Z"/><path class="cls-2" d="M114.75,75a2.21,2.21,0,0,1-1.34.46,1.77,1.77,0,0,1-1.91-1.94v-3.2h-1.26v-.75h1.26V67.7h.9v1.83h2.07v.75H112.4v3.14a1,1,0,0,0,1.07,1.16,1.81,1.81,0,0,0,1-.35Z"/><path class="cls-2" d="M116.93,67.8a.6.6,0,0,1-.63.59.59.59,0,0,1-.61-.59.6.6,0,0,1,.61-.59A.61.61,0,0,1,116.93,67.8Zm-1.07,7.46V69.53h.9v5.73Z"/><path class="cls-2" d="M124.3,75.26h-.89v-.91a2.84,2.84,0,0,1-2.31,1.06,3,3,0,0,1,0-6,2.84,2.84,0,0,1,2.31,1.06V66.89h.89Zm-.89-2.86a2.17,2.17,0,0,0-2.16-2.23,2.23,2.23,0,0,0,0,4.45A2.17,2.17,0,0,0,123.41,72.4Z"/><path class="cls-2" d="M131.9,72.39a3.07,3.07,0,1,1-3.07-3A3,3,0,0,1,131.9,72.39Zm-.88,0a2.2,2.2,0,1,0-4.4,0,2.2,2.2,0,1,0,4.4,0Z"/><path class="cls-2" d="M136.92,73.52c.09.76.79,1.16,1.71,1.16s1.39-.38,1.39-1-.37-.7-1-.83l-1.33-.29c-1-.2-1.5-.67-1.5-1.46,0-1,.87-1.73,2.19-1.73A2.2,2.2,0,0,1,140.79,71l-.86.19a1.39,1.39,0,0,0-1.53-1.06c-.82,0-1.28.39-1.28.94s.32.66.89.79l1.39.3c.84.19,1.49.63,1.49,1.5,0,1.13-1,1.77-2.34,1.77s-2.38-.58-2.52-1.7Z"/><path class="cls-2" d="M148,72.39a3.08,3.08,0,1,1-3.07-3A3,3,0,0,1,148,72.39Zm-.88,0a2.2,2.2,0,1,0-4.4,0,2.2,2.2,0,1,0,4.4,0Z"/><path class="cls-2" d="M154,73.29l.82.22A2.72,2.72,0,0,1,152,75.41a3,3,0,1,1,0-6,2.78,2.78,0,0,1,2.75,1.91l-.86.25A1.89,1.89,0,0,0,152,70.2a2.11,2.11,0,0,0-2.15,2.2A2.09,2.09,0,0,0,152,74.58,1.91,1.91,0,0,0,154,73.29Z"/><path class="cls-2" d="M157.29,67.8a.6.6,0,0,1-.62.59.59.59,0,0,1-.61-.59.6.6,0,0,1,.61-.59A.61.61,0,0,1,157.29,67.8Zm-1.07,7.46V69.53h.9v5.73Z"/><path class="cls-2" d="M164.64,75.26h-.89v-.91a2.82,2.82,0,0,1-2.3,1.06,3,3,0,0,1,0-6,2.82,2.82,0,0,1,2.3,1.06v-.92h.89Zm-.89-2.86a2.17,2.17,0,0,0-2.16-2.23,2.23,2.23,0,0,0,0,4.45A2.17,2.17,0,0,0,163.75,72.4Z"/><path class="cls-2" d="M166.5,75.26V66.89h.89v8.37Z"/></svg>