<svg id="Capa_1" data-name="Capa 1" xmlns="http://www.w3.org/2000/svg" xmlns:xlink="http://www.w3.org/1999/xlink" viewBox="0 0 190 78"><defs><style>.cls-1{fill:none;}.cls-2{fill:#070308;}.cls-3{fill:url(#_10_dpi_10_);}</style><pattern id="_10_dpi_10_" data-name="10 dpi 10%" width="28.8" height="28.8" patternTransform="translate(83 275.15) scale(0.7)" patternUnits="userSpaceOnUse" viewBox="0 0 28.8 28.8"><rect class="cls-1" width="28.8" height="28.8"/><circle class="cls-2" cx="28.8" cy="28.8" r="0.72"/><circle class="cls-2" cx="14.4" cy="28.8" r="0.72"/><circle class="cls-2" cx="28.8" cy="14.4" r="0.72"/><circle class="cls-2" cx="14.4" cy="14.4" r="0.72"/><circle class="cls-2" cx="7.2" cy="21.6" r="0.72"/><circle class="cls-2" cx="21.6" cy="21.6" r="0.72"/><circle class="cls-2" cx="7.2" cy="7.2" r="0.72"/><circle class="cls-2" cx="21.6" cy="7.2" r="0.72"/><circle class="cls-2" cy="28.8" r="0.72"/><circle class="cls-2" cy="14.4" r="0.72"/><circle class="cls-2" cx="28.8" r="0.72"/><circle class="cls-2" cx="14.4" r="0.72"/><circle class="cls-2" r="0.72"/></pattern></defs><title>MARCOS DINAMICOS FINALES</title><path class="cls-3" d="M.81,60.7V.66H189v60ZM176.06,13.59H13.75V47.76H176.06Z"/><path class="cls-2" d="M25.76,39.22H23.37V22.13h2.48c2.81,0,4.92,1.78,4.92,4.5,0,1.94-.84,3.3-2.44,3.82a4,4,0,0,1,2.86,3.93C31.19,37.33,29.16,39.22,25.76,39.22ZM26,24.12h-.51v5.53h.59c1.75,0,2.6-1.31,2.6-3A2.63,2.63,0,0,0,26,24.12Zm.14,7.52h-.66v5.6H26c2,0,2.95-1.08,2.95-2.79A2.72,2.72,0,0,0,26.14,31.64Z"/><path class="cls-2" d="M38.74,39.5a4.66,4.66,0,0,1-4.57-4.64V22.13h2.13v12.1c0,2,.91,3.18,2.44,3.18s2.48-1.19,2.48-3.18V22.13h2.08V34.87A4.66,4.66,0,0,1,38.74,39.5Z"/><path class="cls-2" d="M47.06,39.22V22.13h6.67v2H49.16v5.71h4.28v2H49.16v5.41h4.78v2Z"/><path class="cls-2" d="M64.47,39.22,59.08,27.73s.07.77.07,1.13V39.22H57V22.13h1.64l5.38,11.59S64,32.95,64,32.6V22.13h2.11V39.22Z"/><path class="cls-2" d="M74.61,39.5c-4,0-5.34-4.92-5.34-8.9s1.36-8.76,5.34-8.76c4.26,0,5.34,4.68,5.34,8.76S78.68,39.5,74.61,39.5Zm0-15.57c-2.58,0-3.14,3.56-3.14,6.67,0,2.95.56,6.81,3.14,6.81s3.14-3.86,3.14-6.81C77.74,27.49,77.25,23.93,74.61,23.93Z"/><path class="cls-2" d="M85.77,39.5a4.08,4.08,0,0,1-3.49-1.85l1.43-1.43a2.7,2.7,0,0,0,2.11,1.19c1.26,0,1.73-1,1.73-2.06,0-3.3-5.2-5.2-5.2-9.22a4,4,0,0,1,3.84-4.28,3.67,3.67,0,0,1,3.18,1.61L87.9,24.82a2.25,2.25,0,0,0-1.71-.89c-1.17,0-1.68.94-1.68,2.08,0,2.88,5.2,4.8,5.2,9.2A4,4,0,0,1,85.77,39.5Z"/><path class="cls-2" d="M101.6,39.22V28.52a10.54,10.54,0,0,1,.09-1.13l-3,7.21h-.94l-3-7.21a10.47,10.47,0,0,1,.09,1.13v10.7H92.7V22.13h1.85L97.87,30a8.43,8.43,0,0,1,.35,1.05s.19-.63.35-1.05l3.33-7.89h1.8V39.22Z"/><path class="cls-2" d="M112.2,39.5c-4,0-5.34-4.92-5.34-8.9s1.36-8.76,5.34-8.76c4.26,0,5.34,4.68,5.34,8.76S116.28,39.5,112.2,39.5Zm0-15.57c-2.58,0-3.14,3.56-3.14,6.67,0,2.95.56,6.81,3.14,6.81s3.14-3.86,3.14-6.81C115.34,27.49,114.85,23.93,112.2,23.93Z"/><path class="cls-2" d="M124.26,24.12v15.1h-2.11V24.12h-2.67v-2h7.45v2Z"/><path class="cls-2" d="M129.8,39.22V22.13h2.11V39.22Z"/><path class="cls-2" d="M140.63,39.22H139l-4.38-17.09h2.18l2.67,10.77c.14.56.35,1.87.35,1.87s.21-1.31.35-1.87l2.67-10.77H145Z"/><path class="cls-2" d="M152,39.5c-4,0-5.34-4.92-5.34-8.9S148,21.85,152,21.85c4.26,0,5.34,4.68,5.34,8.76S156.07,39.5,152,39.5Zm0-15.57c-2.57,0-3.14,3.56-3.14,6.67,0,2.95.56,6.81,3.14,6.81s3.14-3.86,3.14-6.81C155.13,27.49,154.64,23.93,152,23.93Z"/><path class="cls-2" d="M163.3,39.5a4.08,4.08,0,0,1-3.49-1.85l1.43-1.43a2.7,2.7,0,0,0,2.11,1.19c1.26,0,1.73-1,1.73-2.06,0-3.3-5.2-5.2-5.2-9.22a4,4,0,0,1,3.84-4.28,3.68,3.68,0,0,1,3.19,1.61l-1.48,1.36a2.25,2.25,0,0,0-1.71-.89c-1.17,0-1.69.94-1.69,2.08,0,2.88,5.2,4.8,5.2,9.2A4,4,0,0,1,163.3,39.5Z"/><path class="cls-2" d="M27.29,68.66v7h-.94v-7H23.42v-.83H30.2v.83Z"/><path class="cls-2" d="M32.16,68.16a.6.6,0,0,1-.63.59.59.59,0,0,1-.61-.59.6.6,0,0,1,.61-.59A.61.61,0,0,1,32.16,68.16Zm-1.07,7.47V69.89H32v5.73Z"/><path class="cls-2" d="M39.29,72.94h-5A2.11,2.11,0,0,0,36.39,75a2,2,0,0,0,2-1.23l.8.19a2.78,2.78,0,0,1-2.77,1.82,3,3,0,0,1,.05-6,2.82,2.82,0,0,1,2.85,2.86Zm-4.94-.66h4a1.9,1.9,0,0,0-1.94-1.74A2.08,2.08,0,0,0,34.35,72.27Z"/><path class="cls-2" d="M46.13,72.19v3.43h-.89V72.36a1.62,1.62,0,0,0-1.61-1.79c-1.21,0-2,.81-2,2.3v2.76h-.9V69.89h.9v1a2.49,2.49,0,0,1,2.19-1.09A2.26,2.26,0,0,1,46.13,72.19Z"/><path class="cls-2" d="M53.56,75.62h-.9v-.91a2.83,2.83,0,0,1-2.31,1.06,3,3,0,0,1,0-6,2.83,2.83,0,0,1,2.31,1.06V67.25h.9Zm-.9-2.86a2.18,2.18,0,0,0-2.16-2.23,2.23,2.23,0,0,0,0,4.45A2.17,2.17,0,0,0,52.66,72.76Z"/><path class="cls-2" d="M61.06,75.62h-.89v-.91a2.83,2.83,0,0,1-2.3,1.06,3,3,0,0,1,0-6,2.83,2.83,0,0,1,2.3,1.06v-.92h.89Zm-.89-2.86A2.18,2.18,0,0,0,58,70.53,2.23,2.23,0,0,0,58,75,2.17,2.17,0,0,0,60.17,72.76Z"/><path class="cls-2" d="M70.65,73.66l.82.22a2.73,2.73,0,0,1-2.74,1.89,3,3,0,1,1,0-6,2.79,2.79,0,0,1,2.75,1.91l-.86.25a1.9,1.9,0,0,0-1.9-1.35,2.12,2.12,0,0,0-2.15,2.2,2.09,2.09,0,0,0,2.15,2.19A1.91,1.91,0,0,0,70.65,73.66Z"/><path class="cls-2" d="M78.55,72.75a3.08,3.08,0,1,1-3.07-3A3,3,0,0,1,78.55,72.75Zm-.88,0a2.2,2.2,0,1,0-4.39,0,2.2,2.2,0,1,0,4.39,0Z"/><path class="cls-2" d="M85.39,72.19v3.43h-.89V72.36a1.62,1.62,0,0,0-1.61-1.79c-1.22,0-2,.81-2,2.3v2.76H80V69.89h.89v1a2.5,2.5,0,0,1,2.19-1.09A2.26,2.26,0,0,1,85.39,72.19Z"/><path class="cls-2" d="M90.82,73.88c.08.76.79,1.16,1.71,1.16s1.39-.38,1.39-1-.37-.7-1-.83l-1.33-.29c-1-.2-1.5-.67-1.5-1.47,0-1,.87-1.73,2.19-1.73a2.21,2.21,0,0,1,2.37,1.59l-.86.19a1.4,1.4,0,0,0-1.53-1.06c-.82,0-1.29.39-1.29.94s.32.66.88.79l1.4.3c.85.19,1.49.63,1.49,1.5,0,1.13-1,1.77-2.34,1.77s-2.39-.58-2.53-1.7Z"/><path class="cls-2" d="M101.62,72.94h-5A2.11,2.11,0,0,0,98.72,75a2,2,0,0,0,2-1.23l.8.19a2.79,2.79,0,0,1-2.78,1.82,3,3,0,0,1,.06-6,2.81,2.81,0,0,1,2.85,2.86Zm-4.94-.66h4a1.91,1.91,0,0,0-1.94-1.74A2.07,2.07,0,0,0,96.68,72.27Z"/><path class="cls-2" d="M108.46,72.19v3.43h-.9V72.36A1.62,1.62,0,0,0,106,70.56c-1.21,0-2,.81-2,2.3v2.76H103V69.89h.89v1a2.49,2.49,0,0,1,2.19-1.09A2.26,2.26,0,0,1,108.46,72.19Z"/><path class="cls-2" d="M113.72,75.32a2.21,2.21,0,0,1-1.34.45,1.77,1.77,0,0,1-1.91-1.94v-3.2H109.2v-.75h1.26V68.06h.9v1.83h2.07v.75h-2.07v3.14a1,1,0,0,0,1.07,1.16,1.8,1.8,0,0,0,1-.35Z"/><path class="cls-2" d="M115.89,68.16a.6.6,0,0,1-.63.59.59.59,0,0,1-.61-.59.6.6,0,0,1,.61-.59A.61.61,0,0,1,115.89,68.16Zm-1.07,7.47V69.89h.9v5.73Z"/><path class="cls-2" d="M123.27,75.62h-.89v-.91a2.84,2.84,0,0,1-2.31,1.06,3,3,0,0,1,0-6,2.84,2.84,0,0,1,2.31,1.06V67.25h.89Zm-.89-2.86a2.17,2.17,0,0,0-2.16-2.23,2.23,2.23,0,0,0,0,4.45A2.17,2.17,0,0,0,122.38,72.76Z"/><path class="cls-2" d="M130.87,72.75a3.08,3.08,0,1,1-3.07-3A3,3,0,0,1,130.87,72.75Zm-.88,0a2.2,2.2,0,1,0-4.4,0,2.2,2.2,0,1,0,4.4,0Z"/><path class="cls-2" d="M135.9,73.88c.09.76.79,1.16,1.71,1.16s1.39-.38,1.39-1-.37-.7-1-.83l-1.33-.29c-1-.2-1.5-.67-1.5-1.47,0-1,.87-1.73,2.19-1.73a2.2,2.2,0,0,1,2.37,1.59l-.86.19a1.39,1.39,0,0,0-1.53-1.06c-.82,0-1.28.39-1.28.94s.32.66.89.79l1.4.3c.84.19,1.49.63,1.49,1.5,0,1.13-1,1.77-2.34,1.77s-2.38-.58-2.52-1.7Z"/><path class="cls-2" d="M147,72.75a3.08,3.08,0,1,1-3.07-3A3,3,0,0,1,147,72.75Zm-.88,0a2.2,2.2,0,1,0-4.4,0,2.2,2.2,0,1,0,4.4,0Z"/><path class="cls-2" d="M152.94,73.66l.82.22A2.72,2.72,0,0,1,151,75.77a3,3,0,1,1,0-6,2.79,2.79,0,0,1,2.76,1.91l-.86.25a1.89,1.89,0,0,0-1.9-1.35,2.11,2.11,0,0,0-2.15,2.2A2.09,2.09,0,0,0,151,74.95,1.91,1.91,0,0,0,152.94,73.66Z"/><path class="cls-2" d="M156.28,68.16a.6.6,0,0,1-.62.59.59.59,0,0,1-.61-.59.6.6,0,0,1,.61-.59A.61.61,0,0,1,156.28,68.16Zm-1.07,7.47V69.89h.9v5.73Z"/><path class="cls-2" d="M163.63,75.62h-.89v-.91a2.82,2.82,0,0,1-2.3,1.06,3,3,0,0,1,0-6,2.82,2.82,0,0,1,2.3,1.06v-.92h.89Zm-.89-2.86a2.17,2.17,0,0,0-2.17-2.23,2.23,2.23,0,0,0,0,4.45A2.17,2.17,0,0,0,162.74,72.76Z"/><path class="cls-2" d="M165.49,75.62V67.25h.89v8.37Z"/></svg>