<svg id="Capa_1" data-name="Capa 1" xmlns="http://www.w3.org/2000/svg" xmlns:xlink="http://www.w3.org/1999/xlink" viewBox="0 0 190 78"><defs><style>.cls-1,.cls-2{fill:none;}.cls-2{stroke:#070308;stroke-width:0.4px;}.cls-3{fill:url(#Waves_Water);}.cls-4{fill:#070308;}</style><pattern id="Waves_Water" data-name="Waves Water" width="55.51" height="59.27" patternTransform="translate(-385.83 585.23) scale(0.79)" patternUnits="userSpaceOnUse" viewBox="0 0 55.51 59.27"><rect class="cls-1" width="55.51" height="59.27"/><path class="cls-2" d="M116.56,61.14c-2.44,0-4.54-.76-5.55-1.86-1,1.1-3.12,1.86-5.55,1.86s-4.54-.76-5.55-1.86c-1,1.1-3.11,1.86-5.55,1.86s-4.54-.76-5.55-1.86c-1,1.1-3.12,1.86-5.55,1.86s-4.54-.76-5.55-1.86c-1,1.1-3.12,1.86-5.55,1.86s-4.54-.76-5.55-1.86c-1,1.1-3.11,1.86-5.55,1.86s-4.54-.76-5.55-1.86c-1,1.1-3.12,1.86-5.55,1.86"/><path class="cls-2" d="M61.05,61.14c-2.44,0-4.54-.76-5.55-1.86-1,1.1-3.12,1.86-5.55,1.86s-4.54-.76-5.55-1.86c-1,1.1-3.11,1.86-5.55,1.86s-4.54-.76-5.55-1.86c-1,1.1-3.12,1.86-5.55,1.86s-4.54-.76-5.55-1.86c-1,1.1-3.12,1.86-5.55,1.86s-4.54-.76-5.55-1.86c-1,1.1-3.11,1.86-5.55,1.86S1,60.38,0,59.27c-1,1.1-3.12,1.86-5.55,1.86"/><path class="cls-2" d="M5.55,61.14C3.11,61.14,1,60.38,0,59.27c-1,1.1-3.12,1.86-5.55,1.86s-4.54-.76-5.55-1.86c-1,1.1-3.11,1.86-5.55,1.86s-4.54-.76-5.55-1.86c-1,1.1-3.12,1.86-5.55,1.86s-4.54-.76-5.55-1.86c-1,1.1-3.12,1.86-5.55,1.86s-4.54-.76-5.55-1.86c-1,1.1-3.11,1.86-5.55,1.86s-4.54-.76-5.55-1.86c-1,1.1-3.12,1.86-5.55,1.86"/><path class="cls-2" d="M116.56,61.14c-2.44,0-4.54-.76-5.55-1.86-1,1.11-3.12,1.86-5.55,1.86s-4.54-.76-5.55-1.86c-1,1.11-3.11,1.86-5.55,1.86s-4.54-.76-5.55-1.86c-1,1.11-3.12,1.86-5.55,1.86s-4.54-.76-5.55-1.86c-1,1.11-3.12,1.86-5.55,1.86s-4.54-.76-5.55-1.86c-1,1.11-3.11,1.86-5.55,1.86s-4.54-.76-5.55-1.86c-1,1.11-3.12,1.86-5.55,1.86"/><path class="cls-2" d="M116.56,54.55c-2.44,0-4.54-.76-5.55-1.86-1,1.11-3.12,1.86-5.55,1.86s-4.54-.76-5.55-1.86c-1,1.11-3.11,1.86-5.55,1.86s-4.54-.76-5.55-1.86c-1,1.11-3.12,1.86-5.55,1.86s-4.54-.76-5.55-1.86c-1,1.11-3.12,1.86-5.55,1.86s-4.54-.76-5.55-1.86c-1,1.11-3.11,1.86-5.55,1.86s-4.54-.76-5.55-1.86c-1,1.11-3.12,1.86-5.55,1.86"/><path class="cls-2" d="M116.56,48c-2.44,0-4.54-.76-5.55-1.86-1,1.11-3.12,1.86-5.55,1.86s-4.54-.76-5.55-1.86C98.9,47.21,96.8,48,94.36,48s-4.54-.76-5.55-1.86c-1,1.11-3.12,1.86-5.55,1.86s-4.54-.76-5.55-1.86c-1,1.11-3.12,1.86-5.55,1.86s-4.54-.76-5.55-1.86c-1,1.11-3.11,1.86-5.55,1.86s-4.54-.76-5.55-1.86C54.49,47.21,52.39,48,50,48"/><path class="cls-2" d="M116.56,41.38c-2.44,0-4.54-.76-5.55-1.86-1,1.11-3.12,1.86-5.55,1.86s-4.54-.76-5.55-1.86c-1,1.11-3.11,1.86-5.55,1.86s-4.54-.76-5.55-1.86c-1,1.11-3.12,1.86-5.55,1.86s-4.54-.76-5.55-1.86c-1,1.11-3.12,1.86-5.55,1.86s-4.54-.76-5.55-1.86c-1,1.11-3.11,1.86-5.55,1.86s-4.54-.76-5.55-1.86c-1,1.11-3.12,1.86-5.55,1.86"/><path class="cls-2" d="M116.56,34.79c-2.44,0-4.54-.76-5.55-1.86-1,1.11-3.12,1.86-5.55,1.86s-4.54-.76-5.55-1.86c-1,1.11-3.11,1.86-5.55,1.86s-4.54-.76-5.55-1.86c-1,1.11-3.12,1.86-5.55,1.86s-4.54-.76-5.55-1.86c-1,1.11-3.12,1.86-5.55,1.86s-4.54-.76-5.55-1.86c-1,1.11-3.11,1.86-5.55,1.86s-4.54-.76-5.55-1.86c-1,1.11-3.12,1.86-5.55,1.86"/><path class="cls-2" d="M116.56,28.21c-2.44,0-4.54-.76-5.55-1.86-1,1.1-3.12,1.86-5.55,1.86s-4.54-.76-5.55-1.86c-1,1.1-3.11,1.86-5.55,1.86s-4.54-.76-5.55-1.86c-1,1.1-3.12,1.86-5.55,1.86s-4.54-.76-5.55-1.86c-1,1.1-3.12,1.86-5.55,1.86s-4.54-.76-5.55-1.86c-1,1.1-3.11,1.86-5.55,1.86s-4.54-.76-5.55-1.86c-1,1.1-3.12,1.86-5.55,1.86"/><path class="cls-2" d="M116.56,21.62c-2.44,0-4.54-.76-5.55-1.86-1,1.1-3.12,1.86-5.55,1.86s-4.54-.76-5.55-1.86c-1,1.1-3.11,1.86-5.55,1.86s-4.54-.76-5.55-1.86c-1,1.1-3.12,1.86-5.55,1.86s-4.54-.76-5.55-1.86c-1,1.1-3.12,1.86-5.55,1.86s-4.54-.76-5.55-1.86c-1,1.1-3.11,1.86-5.55,1.86s-4.54-.76-5.55-1.86c-1,1.1-3.12,1.86-5.55,1.86"/><path class="cls-2" d="M116.56,15c-2.44,0-4.54-.76-5.55-1.86-1,1.1-3.12,1.86-5.55,1.86s-4.54-.76-5.55-1.86c-1,1.1-3.11,1.86-5.55,1.86s-4.54-.76-5.55-1.86c-1,1.1-3.12,1.86-5.55,1.86s-4.54-.76-5.55-1.86c-1,1.1-3.12,1.86-5.55,1.86s-4.54-.76-5.55-1.86c-1,1.1-3.11,1.86-5.55,1.86s-4.54-.76-5.55-1.86C54.49,14.28,52.39,15,50,15"/><path class="cls-2" d="M116.56,8.45c-2.44,0-4.54-.76-5.55-1.86-1,1.1-3.12,1.86-5.55,1.86s-4.54-.76-5.55-1.86c-1,1.1-3.11,1.86-5.55,1.86s-4.54-.76-5.55-1.86c-1,1.1-3.12,1.86-5.55,1.86s-4.54-.76-5.55-1.86c-1,1.1-3.12,1.86-5.55,1.86s-4.54-.76-5.55-1.86c-1,1.1-3.11,1.86-5.55,1.86s-4.54-.76-5.55-1.86c-1,1.1-3.12,1.86-5.55,1.86"/><path class="cls-2" d="M116.56,1.86C114.12,1.86,112,1.1,111,0c-1,1.1-3.12,1.86-5.55,1.86S100.92,1.1,99.91,0c-1,1.1-3.11,1.86-5.55,1.86S89.82,1.1,88.81,0c-1,1.1-3.12,1.86-5.55,1.86S78.72,1.1,77.71,0c-1,1.1-3.12,1.86-5.55,1.86S67.62,1.1,66.61,0c-1,1.1-3.11,1.86-5.55,1.86S56.52,1.1,55.51,0c-1,1.1-3.12,1.86-5.55,1.86"/><path class="cls-2" d="M61.05,61.14c-2.44,0-4.54-.76-5.55-1.86-1,1.11-3.12,1.86-5.55,1.86s-4.54-.76-5.55-1.86c-1,1.11-3.11,1.86-5.55,1.86s-4.54-.76-5.55-1.86c-1,1.11-3.12,1.86-5.55,1.86s-4.54-.76-5.55-1.86c-1,1.11-3.12,1.86-5.55,1.86s-4.54-.76-5.55-1.86c-1,1.11-3.11,1.86-5.55,1.86S1,60.38,0,59.27c-1,1.11-3.12,1.86-5.55,1.86"/><path class="cls-2" d="M61.05,54.55c-2.44,0-4.54-.76-5.55-1.86-1,1.11-3.12,1.86-5.55,1.86s-4.54-.76-5.55-1.86c-1,1.11-3.11,1.86-5.55,1.86s-4.54-.76-5.55-1.86c-1,1.11-3.12,1.86-5.55,1.86s-4.54-.76-5.55-1.86c-1,1.11-3.12,1.86-5.55,1.86s-4.54-.76-5.55-1.86c-1,1.11-3.11,1.86-5.55,1.86S1,53.79,0,52.69c-1,1.11-3.12,1.86-5.55,1.86"/><path class="cls-2" d="M61.05,48c-2.44,0-4.54-.76-5.55-1.86C54.49,47.21,52.39,48,50,48s-4.54-.76-5.55-1.86c-1,1.11-3.11,1.86-5.55,1.86s-4.54-.76-5.55-1.86c-1,1.11-3.12,1.86-5.55,1.86s-4.54-.76-5.55-1.86c-1,1.11-3.12,1.86-5.55,1.86s-4.54-.76-5.55-1.86C10.09,47.21,8,48,5.55,48S1,47.21,0,46.1C-1,47.21-3.12,48-5.55,48"/><path class="cls-2" d="M61.05,41.38c-2.44,0-4.54-.76-5.55-1.86-1,1.11-3.12,1.86-5.55,1.86s-4.54-.76-5.55-1.86c-1,1.11-3.11,1.86-5.55,1.86s-4.54-.76-5.55-1.86c-1,1.11-3.12,1.86-5.55,1.86s-4.54-.76-5.55-1.86c-1,1.11-3.12,1.86-5.55,1.86s-4.54-.76-5.55-1.86c-1,1.11-3.11,1.86-5.55,1.86S1,40.62,0,39.52c-1,1.11-3.12,1.86-5.55,1.86"/><path class="cls-2" d="M61.05,34.79c-2.44,0-4.54-.76-5.55-1.86-1,1.11-3.12,1.86-5.55,1.86S45.42,34,44.4,32.93c-1,1.11-3.11,1.86-5.55,1.86S34.31,34,33.3,32.93c-1,1.11-3.12,1.86-5.55,1.86S23.21,34,22.2,32.93c-1,1.11-3.12,1.86-5.55,1.86S12.11,34,11.1,32.93C10.09,34,8,34.79,5.55,34.79S1,34,0,32.93C-1,34-3.12,34.79-5.55,34.79"/><path class="cls-2" d="M61.05,28.21c-2.44,0-4.54-.76-5.55-1.86-1,1.1-3.12,1.86-5.55,1.86s-4.54-.76-5.55-1.86c-1,1.1-3.11,1.86-5.55,1.86s-4.54-.76-5.55-1.86c-1,1.1-3.12,1.86-5.55,1.86s-4.54-.76-5.55-1.86c-1,1.1-3.12,1.86-5.55,1.86s-4.54-.76-5.55-1.86c-1,1.1-3.11,1.86-5.55,1.86S1,27.45,0,26.34c-1,1.1-3.12,1.86-5.55,1.86"/><path class="cls-2" d="M61.05,21.62c-2.44,0-4.54-.76-5.55-1.86-1,1.1-3.12,1.86-5.55,1.86s-4.54-.76-5.55-1.86c-1,1.1-3.11,1.86-5.55,1.86s-4.54-.76-5.55-1.86c-1,1.1-3.12,1.86-5.55,1.86s-4.54-.76-5.55-1.86c-1,1.1-3.12,1.86-5.55,1.86s-4.54-.76-5.55-1.86c-1,1.1-3.11,1.86-5.55,1.86S1,20.86,0,19.76c-1,1.1-3.12,1.86-5.55,1.86"/><path class="cls-2" d="M61.05,15c-2.44,0-4.54-.76-5.55-1.86C54.49,14.28,52.39,15,50,15s-4.54-.76-5.55-1.86c-1,1.1-3.11,1.86-5.55,1.86s-4.54-.76-5.55-1.86c-1,1.1-3.12,1.86-5.55,1.86s-4.54-.76-5.55-1.86c-1,1.1-3.12,1.86-5.55,1.86s-4.54-.76-5.55-1.86C10.09,14.28,8,15,5.55,15S1,14.28,0,13.17C-1,14.28-3.12,15-5.55,15"/><path class="cls-2" d="M61.05,8.45c-2.44,0-4.54-.76-5.55-1.86-1,1.1-3.12,1.86-5.55,1.86s-4.54-.76-5.55-1.86c-1,1.1-3.11,1.86-5.55,1.86s-4.54-.76-5.55-1.86c-1,1.1-3.12,1.86-5.55,1.86s-4.54-.76-5.55-1.86c-1,1.1-3.12,1.86-5.55,1.86s-4.54-.76-5.55-1.86c-1,1.1-3.11,1.86-5.55,1.86S1,7.69,0,6.59c-1,1.1-3.12,1.86-5.55,1.86"/><path class="cls-2" d="M61.05,1.86c-2.44,0-4.54-.76-5.55-1.86-1,1.1-3.12,1.86-5.55,1.86S45.42,1.1,44.4,0c-1,1.1-3.11,1.86-5.55,1.86S34.31,1.1,33.3,0c-1,1.1-3.12,1.86-5.55,1.86S23.21,1.1,22.2,0c-1,1.1-3.12,1.86-5.55,1.86S12.11,1.1,11.1,0C10.09,1.1,8,1.86,5.55,1.86S1,1.1,0,0C-1,1.1-3.12,1.86-5.55,1.86"/><path class="cls-2" d="M5.55,61.14C3.11,61.14,1,60.38,0,59.27c-1,1.11-3.12,1.86-5.55,1.86s-4.54-.76-5.55-1.86c-1,1.11-3.11,1.86-5.55,1.86s-4.54-.76-5.55-1.86c-1,1.11-3.12,1.86-5.55,1.86s-4.54-.76-5.55-1.86c-1,1.11-3.12,1.86-5.55,1.86s-4.54-.76-5.55-1.86c-1,1.11-3.11,1.86-5.55,1.86s-4.54-.76-5.55-1.86c-1,1.11-3.12,1.86-5.55,1.86"/><path class="cls-2" d="M5.55,54.55C3.11,54.55,1,53.79,0,52.69c-1,1.11-3.12,1.86-5.55,1.86s-4.54-.76-5.55-1.86c-1,1.11-3.11,1.86-5.55,1.86s-4.54-.76-5.55-1.86c-1,1.11-3.12,1.86-5.55,1.86s-4.54-.76-5.55-1.86c-1,1.11-3.12,1.86-5.55,1.86s-4.54-.76-5.55-1.86c-1,1.11-3.11,1.86-5.55,1.86s-4.54-.76-5.55-1.86c-1,1.11-3.12,1.86-5.55,1.86"/><path class="cls-2" d="M5.55,48C3.11,48,1,47.21,0,46.1-1,47.21-3.12,48-5.55,48s-4.54-.76-5.55-1.86c-1,1.11-3.11,1.86-5.55,1.86s-4.54-.76-5.55-1.86c-1,1.11-3.12,1.86-5.55,1.86s-4.54-.76-5.55-1.86c-1,1.11-3.12,1.86-5.55,1.86s-4.54-.76-5.55-1.86C-45.42,47.21-47.52,48-50,48s-4.54-.76-5.55-1.86c-1,1.11-3.12,1.86-5.55,1.86"/><path class="cls-2" d="M5.55,41.38C3.11,41.38,1,40.62,0,39.52c-1,1.11-3.12,1.86-5.55,1.86s-4.54-.76-5.55-1.86c-1,1.11-3.11,1.86-5.55,1.86s-4.54-.76-5.55-1.86c-1,1.11-3.12,1.86-5.55,1.86s-4.54-.76-5.55-1.86c-1,1.11-3.12,1.86-5.55,1.86s-4.54-.76-5.55-1.86c-1,1.11-3.11,1.86-5.55,1.86s-4.54-.76-5.55-1.86c-1,1.11-3.12,1.86-5.55,1.86"/><path class="cls-2" d="M5.55,34.79C3.11,34.79,1,34,0,32.93-1,34-3.12,34.79-5.55,34.79s-4.54-.76-5.55-1.86c-1,1.11-3.11,1.86-5.55,1.86s-4.54-.76-5.55-1.86c-1,1.11-3.12,1.86-5.55,1.86s-4.54-.76-5.55-1.86c-1,1.11-3.12,1.86-5.55,1.86s-4.54-.76-5.55-1.86c-1,1.11-3.11,1.86-5.55,1.86s-4.54-.76-5.55-1.86c-1,1.11-3.12,1.86-5.55,1.86"/><path class="cls-2" d="M5.55,28.21C3.11,28.21,1,27.45,0,26.34c-1,1.1-3.12,1.86-5.55,1.86s-4.54-.76-5.55-1.86c-1,1.1-3.11,1.86-5.55,1.86s-4.54-.76-5.55-1.86c-1,1.1-3.12,1.86-5.55,1.86s-4.54-.76-5.55-1.86c-1,1.1-3.12,1.86-5.55,1.86s-4.54-.76-5.55-1.86c-1,1.1-3.11,1.86-5.55,1.86s-4.54-.76-5.55-1.86c-1,1.1-3.12,1.86-5.55,1.86"/><path class="cls-2" d="M5.55,21.62C3.11,21.62,1,20.86,0,19.76c-1,1.1-3.12,1.86-5.55,1.86s-4.54-.76-5.55-1.86c-1,1.1-3.11,1.86-5.55,1.86s-4.54-.76-5.55-1.86c-1,1.1-3.12,1.86-5.55,1.86s-4.54-.76-5.55-1.86c-1,1.1-3.12,1.86-5.55,1.86s-4.54-.76-5.55-1.86c-1,1.1-3.11,1.86-5.55,1.86s-4.54-.76-5.55-1.86c-1,1.1-3.12,1.86-5.55,1.86"/><path class="cls-2" d="M5.55,15C3.11,15,1,14.28,0,13.17-1,14.28-3.12,15-5.55,15s-4.54-.76-5.55-1.86c-1,1.1-3.11,1.86-5.55,1.86s-4.54-.76-5.55-1.86c-1,1.1-3.12,1.86-5.55,1.86s-4.54-.76-5.55-1.86c-1,1.1-3.12,1.86-5.55,1.86s-4.54-.76-5.55-1.86c-1,1.1-3.11,1.86-5.55,1.86s-4.54-.76-5.55-1.86c-1,1.1-3.12,1.86-5.55,1.86"/><path class="cls-2" d="M5.55,8.45C3.11,8.45,1,7.69,0,6.59c-1,1.1-3.12,1.86-5.55,1.86s-4.54-.76-5.55-1.86c-1,1.1-3.11,1.86-5.55,1.86s-4.54-.76-5.55-1.86c-1,1.1-3.12,1.86-5.55,1.86s-4.54-.76-5.55-1.86c-1,1.1-3.12,1.86-5.55,1.86s-4.54-.76-5.55-1.86c-1,1.1-3.11,1.86-5.55,1.86s-4.54-.76-5.55-1.86c-1,1.1-3.12,1.86-5.55,1.86"/><path class="cls-2" d="M5.55,1.86C3.11,1.86,1,1.1,0,0-1,1.1-3.12,1.86-5.55,1.86S-10.09,1.1-11.1,0c-1,1.1-3.11,1.86-5.55,1.86S-21.19,1.1-22.2,0c-1,1.1-3.12,1.86-5.55,1.86S-32.29,1.1-33.3,0c-1,1.1-3.12,1.86-5.55,1.86S-43.39,1.1-44.41,0c-1,1.1-3.11,1.86-5.55,1.86S-54.49,1.1-55.51,0c-1,1.1-3.12,1.86-5.55,1.86"/><path class="cls-2" d="M116.56,1.86C114.12,1.86,112,1.11,111,0c-1,1.11-3.12,1.86-5.55,1.86S100.92,1.11,99.91,0c-1,1.11-3.11,1.86-5.55,1.86S89.82,1.11,88.81,0c-1,1.11-3.12,1.86-5.55,1.86S78.72,1.11,77.71,0c-1,1.11-3.12,1.86-5.55,1.86S67.62,1.11,66.61,0c-1,1.11-3.11,1.86-5.55,1.86S56.52,1.11,55.51,0c-1,1.11-3.12,1.86-5.55,1.86"/><path class="cls-2" d="M61.05,1.86c-2.44,0-4.54-.76-5.55-1.86-1,1.11-3.12,1.86-5.55,1.86S45.42,1.11,44.4,0c-1,1.11-3.11,1.86-5.55,1.86S34.31,1.11,33.3,0c-1,1.11-3.12,1.86-5.55,1.86S23.21,1.11,22.2,0c-1,1.11-3.12,1.86-5.55,1.86S12.11,1.11,11.1,0C10.09,1.11,8,1.86,5.55,1.86S1,1.11,0,0C-1,1.11-3.12,1.86-5.55,1.86"/><path class="cls-2" d="M5.55,1.86C3.11,1.86,1,1.11,0,0-1,1.11-3.12,1.86-5.55,1.86S-10.09,1.11-11.1,0c-1,1.11-3.11,1.86-5.55,1.86S-21.19,1.11-22.2,0c-1,1.11-3.12,1.86-5.55,1.86S-32.29,1.11-33.3,0c-1,1.11-3.12,1.86-5.55,1.86S-43.39,1.11-44.41,0c-1,1.11-3.11,1.86-5.55,1.86S-54.49,1.11-55.51,0c-1,1.11-3.12,1.86-5.55,1.86"/></pattern></defs><title>MARCOS DINAMICOS FINALES</title><path class="cls-3" d="M2.07,61.36V1.29H190.33V61.36ZM177.39,14.23H15V48.41H177.39Z"/><path class="cls-4" d="M28.56,68.31v7h-.94v-7H24.69v-.83h6.78v.83Z"/><path class="cls-4" d="M33.43,67.81a.6.6,0,0,1-.63.59.59.59,0,0,1-.61-.59.6.6,0,0,1,.61-.59A.61.61,0,0,1,33.43,67.81Zm-1.07,7.47V69.55h.91v5.74Z"/><path class="cls-4" d="M40.57,72.6h-5a2.11,2.11,0,0,0,2.07,2.06,2,2,0,0,0,2-1.23l.8.19a2.78,2.78,0,0,1-2.77,1.83,3,3,0,0,1,.05-6,2.82,2.82,0,0,1,2.85,2.86Zm-4.94-.66h4a1.9,1.9,0,0,0-1.94-1.74A2.08,2.08,0,0,0,35.63,71.93Z"/><path class="cls-4" d="M47.41,71.85v3.43h-.9V72a1.62,1.62,0,0,0-1.61-1.79c-1.21,0-2,.81-2,2.3v2.76H42V69.55h.9v1a2.5,2.5,0,0,1,2.19-1.09A2.26,2.26,0,0,1,47.41,71.85Z"/><path class="cls-4" d="M54.84,75.29h-.9v-.91a2.83,2.83,0,0,1-2.31,1.06,3,3,0,0,1,0-6,2.83,2.83,0,0,1,2.31,1.06V66.91h.9Zm-.9-2.86a2.18,2.18,0,0,0-2.16-2.23,2.23,2.23,0,0,0,0,4.45A2.18,2.18,0,0,0,53.95,72.42Z"/><path class="cls-4" d="M62.35,75.29h-.89v-.91a2.83,2.83,0,0,1-2.31,1.06,3,3,0,0,1,0-6,2.83,2.83,0,0,1,2.31,1.06v-.92h.89Zm-.89-2.86a2.18,2.18,0,0,0-2.16-2.23,2.23,2.23,0,0,0,0,4.45A2.17,2.17,0,0,0,61.46,72.42Z"/><path class="cls-4" d="M71.94,73.32l.82.22A2.73,2.73,0,0,1,70,75.44a3,3,0,1,1,0-6,2.79,2.79,0,0,1,2.76,1.91l-.86.25A1.9,1.9,0,0,0,70,70.22a2.12,2.12,0,0,0-2.15,2.2A2.09,2.09,0,0,0,70,74.61,1.92,1.92,0,0,0,71.94,73.32Z"/><path class="cls-4" d="M79.84,72.41a3.08,3.08,0,1,1-3.07-3A3,3,0,0,1,79.84,72.41Zm-.88,0a2.2,2.2,0,1,0-4.4,0,2.2,2.2,0,1,0,4.4,0Z"/><path class="cls-4" d="M86.68,71.85v3.43h-.89V72a1.62,1.62,0,0,0-1.61-1.79c-1.22,0-2,.81-2,2.3v2.76h-.89V69.55h.89v1a2.5,2.5,0,0,1,2.19-1.09A2.26,2.26,0,0,1,86.68,71.85Z"/><path class="cls-4" d="M92.12,73.54c.08.76.79,1.16,1.71,1.16s1.39-.38,1.39-1-.37-.7-1-.83l-1.33-.29c-1-.2-1.5-.67-1.5-1.47,0-1,.87-1.73,2.19-1.73A2.2,2.2,0,0,1,96,71l-.86.19a1.4,1.4,0,0,0-1.53-1.06c-.82,0-1.29.39-1.29.94s.32.66.89.79l1.4.3c.85.19,1.49.63,1.49,1.5,0,1.13-1,1.77-2.34,1.77s-2.39-.58-2.53-1.7Z"/><path class="cls-4" d="M102.92,72.6h-5A2.11,2.11,0,0,0,100,74.66a2,2,0,0,0,2-1.23l.8.19A2.79,2.79,0,0,1,100,75.44a3,3,0,0,1,.06-6,2.81,2.81,0,0,1,2.85,2.86ZM98,71.93h4a1.91,1.91,0,0,0-1.94-1.74A2.07,2.07,0,0,0,98,71.93Z"/><path class="cls-4" d="M109.76,71.85v3.43h-.9V72a1.62,1.62,0,0,0-1.61-1.79c-1.21,0-2,.81-2,2.3v2.76h-.89V69.55h.89v1a2.49,2.49,0,0,1,2.19-1.09A2.26,2.26,0,0,1,109.76,71.85Z"/><path class="cls-4" d="M115,75a2.21,2.21,0,0,1-1.34.46,1.77,1.77,0,0,1-1.92-1.94v-3.2h-1.26v-.75h1.26V67.72h.9v1.83h2.07v.75h-2.07v3.14a1,1,0,0,0,1.07,1.16,1.81,1.81,0,0,0,1-.35Z"/><path class="cls-4" d="M117.2,67.81a.6.6,0,0,1-.63.59.59.59,0,0,1-.61-.59.6.6,0,0,1,.61-.59A.61.61,0,0,1,117.2,67.81Zm-1.07,7.47V69.55h.9v5.74Z"/><path class="cls-4" d="M124.58,75.29h-.89v-.91a2.84,2.84,0,0,1-2.31,1.06,3,3,0,0,1,0-6,2.84,2.84,0,0,1,2.31,1.06V66.91h.89Zm-.89-2.86a2.18,2.18,0,0,0-2.17-2.23,2.23,2.23,0,0,0,0,4.45A2.17,2.17,0,0,0,123.69,72.42Z"/><path class="cls-4" d="M132.19,72.41a3.08,3.08,0,0,1-6.15,0,3.08,3.08,0,0,1,6.15,0Zm-.89,0a2.2,2.2,0,1,0-4.4,0,2.2,2.2,0,1,0,4.4,0Z"/><path class="cls-4" d="M137.21,73.54c.08.76.79,1.16,1.71,1.16s1.39-.38,1.39-1-.37-.7-1-.83L138,72.61c-1-.2-1.5-.67-1.5-1.47,0-1,.87-1.73,2.19-1.73A2.2,2.2,0,0,1,141.09,71l-.86.19a1.39,1.39,0,0,0-1.53-1.06c-.82,0-1.28.39-1.28.94s.32.66.89.79l1.4.3c.85.19,1.49.63,1.49,1.5,0,1.13-1,1.77-2.34,1.77s-2.38-.58-2.52-1.7Z"/><path class="cls-4" d="M148.33,72.41a3.08,3.08,0,1,1-3.07-3A3,3,0,0,1,148.33,72.41Zm-.89,0a2.2,2.2,0,1,0-4.4,0,2.2,2.2,0,1,0,4.4,0Z"/><path class="cls-4" d="M154.27,73.32l.82.22a2.72,2.72,0,0,1-2.74,1.9,3,3,0,1,1,0-6,2.79,2.79,0,0,1,2.76,1.91l-.86.25a1.89,1.89,0,0,0-1.9-1.35,2.11,2.11,0,0,0-2.15,2.2,2.09,2.09,0,0,0,2.15,2.19A1.92,1.92,0,0,0,154.27,73.32Z"/><path class="cls-4" d="M157.6,67.81a.6.6,0,0,1-.62.59.59.59,0,0,1-.61-.59.6.6,0,0,1,.61-.59A.61.61,0,0,1,157.6,67.81Zm-1.07,7.47V69.55h.9v5.74Z"/><path class="cls-4" d="M165,75.29h-.89v-.91a2.83,2.83,0,0,1-2.31,1.06,3,3,0,0,1,0-6,2.83,2.83,0,0,1,2.31,1.06v-.92H165Zm-.89-2.86a2.17,2.17,0,0,0-2.17-2.23,2.23,2.23,0,0,0,0,4.45A2.17,2.17,0,0,0,164.07,72.42Z"/><path class="cls-4" d="M166.82,75.29V66.91h.89v8.38Z"/><path class="cls-4" d="M27,38.59H24.65V21.5h2.48C29.94,21.5,32,23.28,32,26c0,1.95-.84,3.3-2.43,3.82a4,4,0,0,1,2.86,3.93C32.47,36.7,30.43,38.59,27,38.59Zm.23-15.11h-.51V29h.58c1.76,0,2.6-1.31,2.6-3A2.64,2.64,0,0,0,27.27,23.49ZM27.41,31h-.66v5.6h.56c2,0,3-1.08,3-2.79A2.72,2.72,0,0,0,27.41,31Z"/><path class="cls-4" d="M40,38.87a4.67,4.67,0,0,1-4.57-4.64V21.5h2.13V33.6c0,2,.91,3.19,2.44,3.19s2.48-1.2,2.48-3.19V21.5h2.08V34.24A4.66,4.66,0,0,1,40,38.87Z"/><path class="cls-4" d="M48.34,38.59V21.5H55v2H50.45V29.2h4.28v2H50.45V36.6h4.78v2Z"/><path class="cls-4" d="M65.75,38.59l-5.39-11.5s.07.78.07,1.13V38.59H58.33V21.5H60l5.39,11.59s-.07-.77-.07-1.12V21.5h2.11v17.1Z"/><path class="cls-4" d="M75.9,38.87c-4,0-5.34-4.92-5.34-8.9s1.36-8.76,5.34-8.76c4.26,0,5.34,4.68,5.34,8.76S80,38.87,75.9,38.87Zm0-15.57c-2.58,0-3.14,3.56-3.14,6.67,0,3,.56,6.82,3.14,6.82S79,32.93,79,30C79,26.86,78.54,23.3,75.9,23.3Z"/><path class="cls-4" d="M87.06,38.87A4.07,4.07,0,0,1,83.58,37L85,35.59a2.7,2.7,0,0,0,2.11,1.2c1.26,0,1.73-1,1.73-2.06,0-3.3-5.2-5.2-5.2-9.23a4.05,4.05,0,0,1,3.84-4.29,3.67,3.67,0,0,1,3.18,1.62L89.2,24.19a2.26,2.26,0,0,0-1.71-.89c-1.17,0-1.69.94-1.69,2.09,0,2.88,5.2,4.8,5.2,9.21A4,4,0,0,1,87.06,38.87Z"/><path class="cls-4" d="M102.9,38.59V27.89a10.22,10.22,0,0,1,.1-1.13L100,34H99l-3-7.21a10.76,10.76,0,0,1,.09,1.13v10.7H94V21.5h1.85l3.32,7.89a8.57,8.57,0,0,1,.35,1.06s.19-.63.35-1.06l3.32-7.89H105v17.1Z"/><path class="cls-4" d="M113.51,38.87c-4,0-5.34-4.92-5.34-8.9s1.36-8.76,5.34-8.76c4.26,0,5.34,4.68,5.34,8.76S117.58,38.87,113.51,38.87Zm0-15.57c-2.58,0-3.14,3.56-3.14,6.67,0,3,.56,6.82,3.14,6.82s3.14-3.86,3.14-6.82C116.65,26.86,116.16,23.3,113.51,23.3Z"/><path class="cls-4" d="M125.57,23.49V38.59h-2.11V23.49h-2.67v-2h7.45v2Z"/><path class="cls-4" d="M131.11,38.59V21.5h2.11v17.1Z"/><path class="cls-4" d="M141.95,38.59h-1.59L136,21.5h2.18l2.67,10.77c.14.56.35,1.87.35,1.87s.21-1.31.35-1.87L144.2,21.5h2.14Z"/><path class="cls-4" d="M153.32,38.87c-4,0-5.34-4.92-5.34-8.9s1.36-8.76,5.34-8.76c4.26,0,5.34,4.68,5.34,8.76S157.39,38.87,153.32,38.87Zm0-15.57c-2.58,0-3.14,3.56-3.14,6.67,0,3,.56,6.82,3.14,6.82s3.14-3.86,3.14-6.82C156.45,26.86,156,23.3,153.32,23.3Z"/><path class="cls-4" d="M164.62,38.87A4.08,4.08,0,0,1,161.13,37l1.43-1.43a2.7,2.7,0,0,0,2.11,1.2c1.26,0,1.74-1,1.74-2.06,0-3.3-5.2-5.2-5.2-9.23A4.05,4.05,0,0,1,165,21.21a3.68,3.68,0,0,1,3.18,1.62l-1.48,1.36A2.25,2.25,0,0,0,165,23.3c-1.17,0-1.69.94-1.69,2.09,0,2.88,5.2,4.8,5.2,9.21A4,4,0,0,1,164.62,38.87Z"/></svg>