<svg id="Capa_1" data-name="Capa 1" xmlns="http://www.w3.org/2000/svg" xmlns:xlink="http://www.w3.org/1999/xlink" viewBox="0 0 190 78"><defs><style>.cls-1,.cls-2{fill:none;}.cls-2{stroke:#070308;stroke-width:0.4px;}.cls-3{fill:url(#Scotch_Rule_1);}.cls-4{fill:#070308;}</style><pattern id="Scotch_Rule_1" data-name="Scotch Rule 1" width="73.12" height="72" patternTransform="translate(-461.41 417.78) scale(0.54)" patternUnits="userSpaceOnUse" viewBox="0 0 73.12 72"><rect class="cls-1" width="73.12" height="72"/><line class="cls-2" x1="14.4" y1="72" x2="14.4"/><line class="cls-2" x1="32.13" y1="72" x2="32.13"/><line class="cls-2" x1="49.85" y1="72" x2="49.85"/><line class="cls-2" x1="67.58" y1="72" x2="67.58"/><line class="cls-2" x1="5.54" y1="72" x2="5.54"/><line class="cls-2" x1="23.27" y1="72" x2="23.27"/><line class="cls-2" x1="40.99" y1="72" x2="40.99"/><line class="cls-2" x1="58.72" y1="72" x2="58.72"/></pattern></defs><title>MARCOS DINAMICOS FINALES</title><path class="cls-3" d="M1.14,61.35V.82H190.86V61.35ZM177.81,13.86H14.19V48.3H177.81Z"/><path class="cls-4" d="M26.3,39.69H23.89V22.46h2.5c2.83,0,5,1.79,5,4.53,0,2-.85,3.33-2.45,3.85a4,4,0,0,1,2.88,4C31.78,37.78,29.72,39.69,26.3,39.69Zm.24-15.22H26V30h.59c1.77,0,2.62-1.32,2.62-3A2.66,2.66,0,0,0,26.54,24.47ZM26.68,32H26v5.64h.57c2.05,0,3-1.09,3-2.81A2.74,2.74,0,0,0,26.68,32Z"/><path class="cls-4" d="M39.39,40a4.7,4.7,0,0,1-4.6-4.67V22.46h2.15v12.2c0,2,.92,3.21,2.46,3.21s2.5-1.2,2.5-3.21V22.46H44V35.31A4.7,4.7,0,0,1,39.39,40Z"/><path class="cls-4" d="M47.77,39.69V22.46h6.73v2h-4.6v5.76h4.32v2H49.89v5.45h4.82v2Z"/><path class="cls-4" d="M65.32,39.69,59.89,28.1s.07.78.07,1.13V39.69H57.83V22.46h1.65l5.43,11.68s-.07-.78-.07-1.13V22.46H67V39.69Z"/><path class="cls-4" d="M75.54,40c-4,0-5.38-5-5.38-9s1.37-8.83,5.38-8.83c4.3,0,5.38,4.72,5.38,8.83S79.65,40,75.54,40Zm0-15.7c-2.6,0-3.16,3.59-3.16,6.73,0,3,.56,6.87,3.16,6.87S78.7,34,78.7,31C78.7,27.87,78.2,24.28,75.54,24.28Z"/><path class="cls-4" d="M86.79,40a4.11,4.11,0,0,1-3.52-1.86l1.44-1.44a2.72,2.72,0,0,0,2.12,1.2c1.28,0,1.75-1,1.75-2.07,0-3.33-5.24-5.24-5.24-9.3a4.08,4.08,0,0,1,3.87-4.32,3.7,3.7,0,0,1,3.21,1.63l-1.49,1.37a2.28,2.28,0,0,0-1.72-.89c-1.18,0-1.7.95-1.7,2.1,0,2.9,5.24,4.84,5.24,9.27A4.05,4.05,0,0,1,86.79,40Z"/><path class="cls-4" d="M102.75,39.69V28.91a10.47,10.47,0,0,1,.1-1.13L99.8,35h-.95l-3-7.27a10.75,10.75,0,0,1,.09,1.13V39.69H93.78V22.46h1.87l3.35,8a8.49,8.49,0,0,1,.35,1.06s.19-.64.35-1.06l3.35-8h1.82V39.69Z"/><path class="cls-4" d="M113.44,40c-4,0-5.38-5-5.38-9s1.37-8.83,5.38-8.83c4.29,0,5.38,4.72,5.38,8.83S117.55,40,113.44,40Zm0-15.7c-2.6,0-3.16,3.59-3.16,6.73,0,3,.56,6.87,3.16,6.87S116.6,34,116.6,31C116.6,27.87,116.11,24.28,113.44,24.28Z"/><path class="cls-4" d="M125.59,24.47V39.69h-2.12V24.47h-2.69v-2h7.51v2Z"/><path class="cls-4" d="M131.18,39.69V22.46h2.13V39.69Z"/><path class="cls-4" d="M142.1,39.69h-1.6l-4.41-17.23h2.19L141,33.32c.14.57.36,1.89.36,1.89s.21-1.32.35-1.89l2.69-10.86h2.15Z"/><path class="cls-4" d="M153.55,40c-4,0-5.38-5-5.38-9s1.37-8.83,5.38-8.83c4.29,0,5.38,4.72,5.38,8.83S157.66,40,153.55,40Zm0-15.7c-2.6,0-3.16,3.59-3.16,6.73,0,3,.57,6.87,3.16,6.87S156.71,34,156.71,31C156.71,27.87,156.22,24.28,153.55,24.28Z"/><path class="cls-4" d="M164.94,40a4.12,4.12,0,0,1-3.52-1.86l1.44-1.44a2.73,2.73,0,0,0,2.12,1.2c1.27,0,1.75-1,1.75-2.07,0-3.33-5.24-5.24-5.24-9.3a4.08,4.08,0,0,1,3.87-4.32,3.7,3.7,0,0,1,3.21,1.63l-1.49,1.37a2.28,2.28,0,0,0-1.72-.89c-1.18,0-1.7.95-1.7,2.1,0,2.9,5.24,4.84,5.24,9.27A4,4,0,0,1,164.94,40Z"/><path class="cls-4" d="M27.84,69.38v7h-.95v-7H23.94v-.83h6.84v.83Z"/><path class="cls-4" d="M32.75,68.88a.6.6,0,0,1-.63.6.59.59,0,0,1-.62-.6.61.61,0,0,1,.62-.6A.62.62,0,0,1,32.75,68.88ZM31.67,76.4V70.62h.91V76.4Z"/><path class="cls-4" d="M39.94,73.7h-5A2.12,2.12,0,0,0,37,75.77a2,2,0,0,0,2-1.24l.81.19A2.8,2.8,0,0,1,37,76.56a3,3,0,0,1,.05-6.07,2.84,2.84,0,0,1,2.87,2.88ZM35,73H39a1.92,1.92,0,0,0-2-1.76A2.09,2.09,0,0,0,35,73Z"/><path class="cls-4" d="M46.83,72.95V76.4h-.9V73.11a1.63,1.63,0,0,0-1.62-1.81c-1.22,0-2,.82-2,2.32V76.4h-.9V70.62h.9v1a2.51,2.51,0,0,1,2.2-1.1A2.28,2.28,0,0,1,46.83,72.95Z"/><path class="cls-4" d="M54.32,76.4h-.9v-.92a2.85,2.85,0,0,1-2.33,1.07,3,3,0,0,1,0-6.07,2.85,2.85,0,0,1,2.33,1.07V68h.9Zm-.9-2.89a2.2,2.2,0,0,0-2.18-2.25,2.25,2.25,0,0,0,0,4.49A2.19,2.19,0,0,0,53.42,73.52Z"/><path class="cls-4" d="M61.89,76.4H61v-.92a2.85,2.85,0,0,1-2.32,1.07,3,3,0,0,1,0-6.07A2.85,2.85,0,0,1,61,71.55v-.93h.9ZM61,73.52a2.19,2.19,0,0,0-2.18-2.25,2.25,2.25,0,0,0,0,4.49A2.19,2.19,0,0,0,61,73.52Z"/><path class="cls-4" d="M71.55,74.42l.83.22a2.75,2.75,0,0,1-2.76,1.91,3,3,0,1,1,0-6.07,2.81,2.81,0,0,1,2.78,1.92l-.86.25a1.92,1.92,0,0,0-1.91-1.36,2.13,2.13,0,0,0-2.17,2.21,2.11,2.11,0,0,0,2.17,2.21A1.93,1.93,0,0,0,71.55,74.42Z"/><path class="cls-4" d="M79.52,73.51a3.1,3.1,0,1,1-3.09-3A3,3,0,0,1,79.52,73.51Zm-.89,0a2.21,2.21,0,1,0-4.43,0,2.21,2.21,0,1,0,4.43,0Z"/><path class="cls-4" d="M86.41,72.95V76.4h-.9V73.11a1.63,1.63,0,0,0-1.62-1.81c-1.23,0-2,.82-2,2.32V76.4H81V70.62h.9v1a2.52,2.52,0,0,1,2.2-1.1A2.28,2.28,0,0,1,86.41,72.95Z"/><path class="cls-4" d="M91.88,74.65c.08.76.8,1.17,1.72,1.17s1.4-.39,1.4-1-.37-.7-1-.83l-1.34-.29c-1-.2-1.52-.68-1.52-1.48,0-1,.87-1.75,2.21-1.75a2.22,2.22,0,0,1,2.39,1.61l-.86.19a1.41,1.41,0,0,0-1.54-1.06c-.83,0-1.3.4-1.3.95s.32.67.89.8l1.41.3c.85.19,1.51.63,1.51,1.51,0,1.14-1,1.78-2.36,1.78S91.13,76,91,74.84Z"/><path class="cls-4" d="M102.77,73.7h-5a2.13,2.13,0,0,0,2.09,2.07,2,2,0,0,0,2-1.24l.81.19a2.81,2.81,0,0,1-2.8,1.84,3,3,0,0,1,.06-6.07,2.83,2.83,0,0,1,2.87,2.88Zm-5-.67h4.07a1.93,1.93,0,0,0-2-1.76A2.09,2.09,0,0,0,97.79,73Z"/><path class="cls-4" d="M109.66,72.95V76.4h-.9V73.11a1.63,1.63,0,0,0-1.62-1.81c-1.22,0-2,.82-2,2.32V76.4h-.9V70.62h.9v1a2.51,2.51,0,0,1,2.2-1.1A2.28,2.28,0,0,1,109.66,72.95Z"/><path class="cls-4" d="M115,76.1a2.23,2.23,0,0,1-1.35.46,1.78,1.78,0,0,1-1.93-2V71.38h-1.27v-.75h1.27V68.78h.91v1.84h2.08v.75H112.6v3.16a1,1,0,0,0,1.08,1.17,1.82,1.82,0,0,0,1-.35Z"/><path class="cls-4" d="M117.16,68.88a.6.6,0,0,1-.63.6.59.59,0,0,1-.61-.6.61.61,0,0,1,.61-.6A.62.62,0,0,1,117.16,68.88Zm-1.08,7.53V70.62H117V76.4Z"/><path class="cls-4" d="M124.6,76.4h-.89v-.92a2.86,2.86,0,0,1-2.33,1.07,3,3,0,0,1,0-6.07,2.86,2.86,0,0,1,2.33,1.07V68h.89Zm-.89-2.89a2.19,2.19,0,0,0-2.18-2.25,2.25,2.25,0,0,0,0,4.49A2.19,2.19,0,0,0,123.7,73.52Z"/><path class="cls-4" d="M132.26,73.51a3.1,3.1,0,0,1-6.2,0,3.1,3.1,0,0,1,6.2,0Zm-.89,0a2.22,2.22,0,1,0-4.43,0,2.22,2.22,0,1,0,4.43,0Z"/><path class="cls-4" d="M137.33,74.65c.09.76.8,1.17,1.72,1.17s1.4-.39,1.4-1-.37-.7-1-.83l-1.34-.29c-1-.2-1.51-.68-1.51-1.48,0-1,.88-1.75,2.21-1.75a2.22,2.22,0,0,1,2.39,1.61l-.87.19a1.4,1.4,0,0,0-1.54-1.06c-.83,0-1.29.4-1.29.95s.32.67.89.8l1.41.3c.85.19,1.5.63,1.5,1.51,0,1.14-1,1.78-2.36,1.78s-2.4-.59-2.54-1.71Z"/><path class="cls-4" d="M148.53,73.51a3.1,3.1,0,1,1-3.1-3A3,3,0,0,1,148.53,73.51Zm-.89,0a2.22,2.22,0,1,0-4.43,0,2.22,2.22,0,1,0,4.43,0Z"/><path class="cls-4" d="M154.51,74.42l.83.22a2.74,2.74,0,0,1-2.76,1.91,3,3,0,1,1,0-6.07,2.81,2.81,0,0,1,2.78,1.92l-.86.25a1.91,1.91,0,0,0-1.91-1.36,2.13,2.13,0,0,0-2.17,2.21,2.11,2.11,0,0,0,2.17,2.21A1.93,1.93,0,0,0,154.51,74.42Z"/><path class="cls-4" d="M157.87,68.88a.6.6,0,0,1-.63.6.59.59,0,0,1-.61-.6.61.61,0,0,1,.61-.6A.62.62,0,0,1,157.87,68.88ZM156.8,76.4V70.62h.91V76.4Z"/><path class="cls-4" d="M165.28,76.4h-.9v-.92a2.85,2.85,0,0,1-2.32,1.07,3,3,0,0,1,0-6.07,2.85,2.85,0,0,1,2.32,1.07v-.93h.9Zm-.9-2.89a2.19,2.19,0,0,0-2.18-2.25,2.25,2.25,0,0,0,0,4.49A2.19,2.19,0,0,0,164.39,73.52Z"/><path class="cls-4" d="M167.16,76.4V68h.9V76.4Z"/></svg>