<svg id="Capa_1" data-name="Capa 1" xmlns="http://www.w3.org/2000/svg" xmlns:xlink="http://www.w3.org/1999/xlink" viewBox="0 0 190 78"><defs><style>.cls-1{fill:none;}.cls-2{fill:#070308;}.cls-3{fill:url(#USGS_8B_Intermit._Pond);}</style><pattern id="USGS_8B_Intermit._Pond" data-name="USGS 8B Intermit. Pond" width="71.91" height="54.09" patternTransform="translate(-1294.91 386.85) scale(1.75)" patternUnits="userSpaceOnUse" viewBox="0 0 71.91 54.09"><rect class="cls-1" width="71.91" height="54.09"/><path class="cls-2" d="M.59,49a.29.29,0,0,1-.21-.09.31.31,0,0,1-.09-.21.28.28,0,0,1,.09-.21.3.3,0,0,1,.42,0,.33.33,0,0,1,.09.22.32.32,0,0,1-.08.21A.31.31,0,0,1,.59,49Z"/><path class="cls-2" d="M1.8,50.19a.31.31,0,0,1-.31-.3.3.3,0,0,1,.61,0A.34.34,0,0,1,2,50.1.31.31,0,0,1,1.8,50.19Z"/><path class="cls-2" d="M3,51.38a.29.29,0,0,1-.22-.09.3.3,0,0,1-.08-.21.28.28,0,0,1,.09-.21.32.32,0,0,1,.42,0,.29.29,0,0,1,.09.21.28.28,0,0,1-.09.21A.27.27,0,0,1,3,51.38Z"/><path class="cls-2" d="M4.2,52.6A.34.34,0,0,1,4,52.51a.31.31,0,0,1-.09-.22.29.29,0,0,1,.08-.2.3.3,0,0,1,.43,0,.29.29,0,0,1,.09.21.28.28,0,0,1-.09.22A.32.32,0,0,1,4.2,52.6Z"/><path class="cls-2" d="M.58,43a.28.28,0,0,1-.21-.09.28.28,0,0,1-.09-.21.32.32,0,0,1,.09-.21.3.3,0,0,1,.43,0,.31.31,0,0,1,.08.21.29.29,0,0,1-.09.21A.24.24,0,0,1,.58,43Z"/><path class="cls-2" d="M1.79,44.18a.33.33,0,0,1-.21-.08.3.3,0,0,1-.1-.22.3.3,0,1,1,.52.21A.31.31,0,0,1,1.79,44.18Z"/><path class="cls-2" d="M3,45.37a.31.31,0,0,1-.22-.09.32.32,0,0,1-.08-.21.34.34,0,0,1,.08-.21.31.31,0,0,1,.43,0,.29.29,0,0,1,.09.21.28.28,0,0,1-.1.22A.26.26,0,0,1,3,45.37Z"/><path class="cls-2" d="M4.19,46.57A.3.3,0,0,1,4,46.49a.32.32,0,0,1-.09-.22A.35.35,0,0,1,4,46.06a.32.32,0,0,1,.44,0,.26.26,0,0,1,.08.2.31.31,0,0,1-.09.22A.31.31,0,0,1,4.19,46.57Z"/><path class="cls-2" d="M5.39,47.78a.29.29,0,0,1-.21-.09.29.29,0,0,1-.09-.21.31.31,0,0,1,.09-.22.32.32,0,0,1,.43,0,.3.3,0,0,1,.08.21.35.35,0,0,1-.08.21A.31.31,0,0,1,5.39,47.78Z"/><path class="cls-2" d="M6.59,49a.27.27,0,0,1-.21-.09.29.29,0,0,1-.09-.21.33.33,0,0,1,.1-.22.31.31,0,0,1,.42,0,.3.3,0,0,1,.08.21.28.28,0,0,1-.09.21A.27.27,0,0,1,6.59,49Z"/><path class="cls-2" d="M7.8,50.19a.32.32,0,0,1-.21-.08.3.3,0,0,1-.1-.22A.3.3,0,0,1,8,49.68a.3.3,0,0,1,.08.21A.31.31,0,0,1,8,50.1.31.31,0,0,1,7.8,50.19Z"/><path class="cls-2" d="M9,51.38a.31.31,0,0,1-.22-.09.29.29,0,0,1-.08-.21.28.28,0,0,1,.09-.21.32.32,0,0,1,.42,0,.29.29,0,0,1,.09.21.31.31,0,0,1-.3.3Z"/><path class="cls-2" d="M10.2,52.6a.28.28,0,0,1-.21-.1.26.26,0,0,1-.09-.21.3.3,0,0,1,.09-.21.31.31,0,0,1,.42,0,.32.32,0,0,1,.09.21.3.3,0,0,1-.08.21A.34.34,0,0,1,10.2,52.6Z"/><path class="cls-2" d="M.57,37a.3.3,0,0,1-.21-.09.29.29,0,0,1-.09-.21.27.27,0,0,1,.09-.21.31.31,0,0,1,.43,0,.31.31,0,0,1,.08.21.29.29,0,0,1-.09.21A.27.27,0,0,1,.57,37Z"/><path class="cls-2" d="M1.78,38.16a.3.3,0,0,1-.22-.09.31.31,0,0,1-.09-.21.33.33,0,0,1,.09-.21.31.31,0,0,1,.43,0,.29.29,0,0,1,.09.21.28.28,0,0,1-.1.21A.25.25,0,0,1,1.78,38.16Z"/><path class="cls-2" d="M3,39.36a.31.31,0,0,1-.22-.09.31.31,0,0,1-.08-.21.3.3,0,0,1,.51-.21.29.29,0,0,1,.09.21.31.31,0,0,1-.3.3Z"/><path class="cls-2" d="M4.18,40.56A.31.31,0,0,1,4,40.48a.33.33,0,0,1-.09-.22.27.27,0,0,1,.09-.2.3.3,0,0,1,.51.2.31.31,0,0,1-.09.22A.3.3,0,0,1,4.18,40.56Z"/><path class="cls-2" d="M5.38,41.78a.31.31,0,0,1-.3-.3.27.27,0,0,1,.09-.21.3.3,0,0,1,.43,0,.3.3,0,0,1,.08.21.31.31,0,0,1-.3.3Z"/><path class="cls-2" d="M6.58,43a.31.31,0,0,1-.3-.3.29.29,0,0,1,.09-.21.3.3,0,0,1,.42,0,.35.35,0,0,1,.1.22.3.3,0,0,1-.1.21A.26.26,0,0,1,6.58,43Z"/><path class="cls-2" d="M7.79,44.18a.3.3,0,0,1-.22-.09.28.28,0,0,1-.09-.21.3.3,0,0,1,.61,0,.29.29,0,0,1-.09.21A.27.27,0,0,1,7.79,44.18Z"/><path class="cls-2" d="M9,45.37a.29.29,0,0,1-.22-.09.32.32,0,0,1-.08-.21.27.27,0,0,1,.09-.21.3.3,0,0,1,.42,0,.27.27,0,0,1,.09.2.27.27,0,0,1-.09.21A.27.27,0,0,1,9,45.37Z"/><path class="cls-2" d="M10.19,46.57a.29.29,0,0,1-.3-.3.35.35,0,0,1,.08-.21.3.3,0,0,1,.43,0,.25.25,0,0,1,.09.2.31.31,0,0,1-.09.22A.32.32,0,0,1,10.19,46.57Z"/><path class="cls-2" d="M11.39,47.78a.29.29,0,0,1-.21-.09.29.29,0,0,1-.09-.21.31.31,0,0,1,.09-.22.32.32,0,0,1,.43,0,.3.3,0,0,1,.08.21.35.35,0,0,1-.08.21A.33.33,0,0,1,11.39,47.78Z"/><path class="cls-2" d="M12.59,49a.31.31,0,0,1-.3-.3.32.32,0,0,1,.1-.22.31.31,0,0,1,.42,0,.3.3,0,0,1,.08.21.29.29,0,0,1-.08.21A.31.31,0,0,1,12.59,49Z"/><path class="cls-2" d="M13.8,50.19a.31.31,0,0,1-.22-.09.29.29,0,0,1-.09-.21.28.28,0,0,1,.1-.21.3.3,0,0,1,.51.21.34.34,0,0,1-.09.21A.31.31,0,0,1,13.8,50.19Z"/><path class="cls-2" d="M15,51.38a.3.3,0,0,1-.21-.08.31.31,0,0,1-.09-.22.28.28,0,0,1,.09-.21.31.31,0,0,1,.42,0,.27.27,0,0,1,.09.2.27.27,0,0,1-.09.21A.28.28,0,0,1,15,51.38Z"/><path class="cls-2" d="M16.2,52.58a.29.29,0,0,1-.3-.3.26.26,0,0,1,.09-.2.3.3,0,0,1,.42,0,.29.29,0,0,1,.09.21.3.3,0,0,1-.09.22A.31.31,0,0,1,16.2,52.58Z"/><path class="cls-2" d="M.56,31a.3.3,0,0,1-.21-.09.31.31,0,0,1-.09-.21.29.29,0,0,1,.09-.21.3.3,0,0,1,.42,0,.31.31,0,0,1,.09.22.32.32,0,0,1-.08.21A.31.31,0,0,1,.56,31Z"/><path class="cls-2" d="M1.77,32.15a.28.28,0,0,1-.22-.09.29.29,0,0,1,0-.43.32.32,0,0,1,.42,0,.32.32,0,0,1,.09.21.28.28,0,0,1-.09.21A.29.29,0,0,1,1.77,32.15Z"/><path class="cls-2" d="M3,33.35a.29.29,0,0,1-.3-.3.32.32,0,0,1,.08-.21.31.31,0,0,1,.43,0,.28.28,0,0,1,.09.21.36.36,0,0,1-.09.22A.3.3,0,0,1,3,33.35Z"/><path class="cls-2" d="M4.17,34.56A.31.31,0,0,1,4,34.47a.29.29,0,0,1-.09-.21A.3.3,0,0,1,4,34a.3.3,0,0,1,.43.42A.3.3,0,0,1,4.17,34.56Z"/><path class="cls-2" d="M5.37,35.77a.28.28,0,0,1-.21-.1.25.25,0,0,1-.09-.2.29.29,0,0,1,.51-.21.27.27,0,0,1,.09.21.29.29,0,0,1-.09.21A.32.32,0,0,1,5.37,35.77Z"/><path class="cls-2" d="M6.57,37a.31.31,0,0,1-.3-.3.31.31,0,0,1,.09-.22.32.32,0,0,1,.43,0,.31.31,0,0,1,.08.21.35.35,0,0,1-.08.21A.33.33,0,0,1,6.57,37Z"/><path class="cls-2" d="M7.78,38.16a.31.31,0,0,1-.22-.09.33.33,0,0,1-.09-.21.28.28,0,0,1,.1-.21.3.3,0,0,1,.42,0,.29.29,0,0,1,0,.42A.29.29,0,0,1,7.78,38.16Z"/><path class="cls-2" d="M9,39.36a.3.3,0,0,1-.22-.09.31.31,0,0,1-.08-.21.27.27,0,0,1,.09-.21.32.32,0,0,1,.42,0,.29.29,0,0,1,.09.21.29.29,0,0,1-.09.21A.28.28,0,0,1,9,39.36Z"/><path class="cls-2" d="M10.18,40.56a.27.27,0,0,1-.21-.09.26.26,0,0,1-.09-.21.3.3,0,0,1,.51-.21.33.33,0,0,1,.09.21.31.31,0,0,1-.3.3Z"/><path class="cls-2" d="M11.38,41.78a.29.29,0,0,1-.21-.09.3.3,0,1,1,.43-.42.26.26,0,0,1,.08.21.29.29,0,0,1-.09.21A.27.27,0,0,1,11.38,41.78Z"/><path class="cls-2" d="M12.58,43a.28.28,0,0,1-.21-.09.31.31,0,0,1-.09-.21.33.33,0,0,1,.1-.22.3.3,0,0,1,.5.22.32.32,0,0,1-.08.21A.31.31,0,0,1,12.58,43Z"/><path class="cls-2" d="M13.79,44.18a.3.3,0,0,1-.22-.09.32.32,0,0,1,0-.42.33.33,0,0,1,.43,0,.33.33,0,0,1,.09.22.33.33,0,0,1-.09.21A.29.29,0,0,1,13.79,44.18Z"/><path class="cls-2" d="M15,45.37a.31.31,0,0,1-.22-.09.3.3,0,0,1-.08-.21.34.34,0,0,1,.08-.21.31.31,0,0,1,.43,0,.27.27,0,0,1,.09.21.3.3,0,0,1-.1.22A.26.26,0,0,1,15,45.37Z"/><path class="cls-2" d="M16.19,46.57a.32.32,0,0,1-.21-.08.31.31,0,0,1-.09-.22.29.29,0,0,1,.09-.21.3.3,0,0,1,.42,0,.25.25,0,0,1,.09.2.31.31,0,0,1-.09.22A.32.32,0,0,1,16.19,46.57Z"/><path class="cls-2" d="M17.39,47.78a.28.28,0,0,1-.21-.1.27.27,0,0,1-.09-.2.3.3,0,0,1,.51-.22.32.32,0,0,1,.09.22.29.29,0,0,1-.09.21A.31.31,0,0,1,17.39,47.78Z"/><path class="cls-2" d="M18.59,49a.29.29,0,0,1-.21-.09.31.31,0,0,1-.09-.21.32.32,0,0,1,.1-.22.31.31,0,0,1,.42,0,.3.3,0,0,1,.08.21.32.32,0,0,1-.08.21A.31.31,0,0,1,18.59,49Z"/><path class="cls-2" d="M19.8,50.19a.29.29,0,0,1-.22-.09.31.31,0,0,1-.08-.21.3.3,0,0,1,.08-.21.31.31,0,0,1,.42,0,.31.31,0,0,1,.1.22.31.31,0,0,1-.3.3Z"/><path class="cls-2" d="M21,51.38a.31.31,0,0,1-.22-.09.29.29,0,0,1-.08-.21.28.28,0,0,1,.09-.21.31.31,0,0,1,.42,0,.25.25,0,0,1,.09.2.27.27,0,0,1-.09.21A.28.28,0,0,1,21,51.38Z"/><path class="cls-2" d="M22.2,52.58a.27.27,0,0,1-.21-.09.26.26,0,0,1-.09-.21.28.28,0,0,1,.09-.21.3.3,0,0,1,.51.21.31.31,0,0,1-.09.22A.31.31,0,0,1,22.2,52.58Z"/><path class="cls-2" d="M.55,24.94a.29.29,0,0,1-.21-.09.29.29,0,0,1-.09-.21.29.29,0,0,1,.09-.21.3.3,0,0,1,.42,0,.3.3,0,0,1,.09.22.27.27,0,0,1-.09.21A.31.31,0,0,1,.55,24.94Z"/><path class="cls-2" d="M1.76,26.14a.31.31,0,0,1-.22-.09.29.29,0,0,1-.09-.21.32.32,0,0,1,.09-.21.3.3,0,0,1,.51.21.31.31,0,0,1-.08.21A.3.3,0,0,1,1.76,26.14Z"/><path class="cls-2" d="M3,27.35a.31.31,0,0,1-.21-.08A.33.33,0,0,1,2.66,27a.27.27,0,0,1,.09-.21.3.3,0,0,1,.42,0,.31.31,0,0,1,.09.21.29.29,0,0,1-.09.21A.31.31,0,0,1,3,27.35Z"/><path class="cls-2" d="M4.16,28.54A.32.32,0,0,1,4,28.46a.32.32,0,0,1-.09-.22A.29.29,0,0,1,4,28a.3.3,0,0,1,.42,0,.27.27,0,0,1,.09.21.31.31,0,0,1-.09.22A.32.32,0,0,1,4.16,28.54Z"/><path class="cls-2" d="M5.36,29.76a.31.31,0,0,1-.21-.09.3.3,0,0,1-.09-.21.31.31,0,0,1,.09-.22.31.31,0,0,1,.43,0,.29.29,0,0,1,.08.21.31.31,0,0,1-.09.21A.34.34,0,0,1,5.36,29.76Z"/><path class="cls-2" d="M6.56,31a.32.32,0,0,1-.21-.09.29.29,0,0,1,0-.42.3.3,0,0,1,.42,0,.31.31,0,0,1,.09.22.27.27,0,0,1-.09.21A.3.3,0,0,1,6.56,31Z"/><path class="cls-2" d="M7.77,32.15a.29.29,0,0,1-.22-.09.28.28,0,0,1-.09-.21.31.31,0,0,1,.61,0,.33.33,0,0,1-.09.21A.27.27,0,0,1,7.77,32.15Z"/><path class="cls-2" d="M9,33.35a.27.27,0,0,1-.21-.09.29.29,0,0,1-.09-.21.27.27,0,0,1,.09-.21.3.3,0,0,1,.42,0,.26.26,0,0,1,.09.2.27.27,0,0,1-.09.21A.29.29,0,0,1,9,33.35Z"/><path class="cls-2" d="M10.17,34.56a.32.32,0,0,1-.22-.1.26.26,0,0,1-.08-.2A.3.3,0,0,1,10,34a.31.31,0,0,1,.42,0,.27.27,0,0,1,.09.21.33.33,0,0,1-.09.21A.31.31,0,0,1,10.17,34.56Z"/><path class="cls-2" d="M11.37,35.77a.34.34,0,0,1-.21-.09.3.3,0,0,1,0-.43.32.32,0,0,1,.43,0,.3.3,0,0,1,.08.21.31.31,0,0,1-.09.21A.32.32,0,0,1,11.37,35.77Z"/><path class="cls-2" d="M12.57,37a.28.28,0,0,1-.21-.09.27.27,0,0,1-.09-.21.32.32,0,0,1,.1-.22.31.31,0,0,1,.42,0,.31.31,0,0,1,.08.21.32.32,0,0,1-.08.21A.31.31,0,0,1,12.57,37Z"/><path class="cls-2" d="M13.78,38.16a.31.31,0,0,1-.22-.09.33.33,0,0,1-.09-.21.28.28,0,0,1,.1-.21.3.3,0,0,1,.42,0,.31.31,0,0,1,.09.21.29.29,0,0,1-.09.21A.31.31,0,0,1,13.78,38.16Z"/><path class="cls-2" d="M15,39.36a.31.31,0,0,1-.22-.09.31.31,0,0,1-.08-.21.29.29,0,0,1,.09-.21.31.31,0,0,1,.42,0,.27.27,0,0,1,.09.21.36.36,0,0,1-.09.22A.31.31,0,0,1,15,39.36Z"/><path class="cls-2" d="M16.18,40.56a.29.29,0,0,1-.21-.5.3.3,0,0,1,.42,0,.3.3,0,0,1,0,.43A.3.3,0,0,1,16.18,40.56Z"/><path class="cls-2" d="M17.38,41.78a.31.31,0,0,1-.3-.3.29.29,0,0,1,.09-.21.3.3,0,0,1,.42,0,.3.3,0,0,1,.09.22.27.27,0,0,1-.09.21A.29.29,0,0,1,17.38,41.78Z"/><path class="cls-2" d="M18.58,43a.27.27,0,0,1-.21-.09.31.31,0,0,1-.09-.21.27.27,0,0,1,.09-.21.31.31,0,0,1,.42,0,.33.33,0,0,1,.09.22.3.3,0,0,1-.08.21A.29.29,0,0,1,18.58,43Z"/><path class="cls-2" d="M19.79,44.18a.3.3,0,0,1-.22-.09.3.3,0,0,1-.08-.21.3.3,0,1,1,.51.21A.31.31,0,0,1,19.79,44.18Z"/><path class="cls-2" d="M21,45.37a.29.29,0,0,1-.22-.09.3.3,0,0,1-.08-.21.29.29,0,0,1,.09-.21.3.3,0,0,1,.51.21.29.29,0,0,1-.09.21A.27.27,0,0,1,21,45.37Z"/><path class="cls-2" d="M22.19,46.57a.3.3,0,0,1-.21-.08.29.29,0,0,1-.09-.22.27.27,0,0,1,.09-.21.32.32,0,0,1,.42,0,.31.31,0,0,1,.09.21.27.27,0,0,1-.09.21A.29.29,0,0,1,22.19,46.57Z"/><path class="cls-2" d="M23.39,47.78a.29.29,0,0,1-.21-.09.29.29,0,0,1-.09-.21.33.33,0,0,1,.09-.22.32.32,0,0,1,.43,0,.3.3,0,0,1,.08.21.35.35,0,0,1-.08.21A.33.33,0,0,1,23.39,47.78Z"/><path class="cls-2" d="M24.59,49a.29.29,0,0,1-.21-.09.31.31,0,0,1-.09-.21.36.36,0,0,1,.09-.22.33.33,0,0,1,.43,0,.32.32,0,0,1,.08.21.32.32,0,0,1-.08.21A.29.29,0,0,1,24.59,49Z"/><path class="cls-2" d="M25.8,50.19a.29.29,0,0,1-.22-.09.31.31,0,0,1-.08-.21.3.3,0,0,1,.08-.21.32.32,0,0,1,.43,0,.33.33,0,0,1,.09.21.32.32,0,0,1-.1.22A.26.26,0,0,1,25.8,50.19Z"/><path class="cls-2" d="M27,51.38a.3.3,0,0,1-.21-.08.31.31,0,0,1-.09-.22.29.29,0,0,1,.09-.21.31.31,0,0,1,.42,0,.3.3,0,0,1,.09.21.31.31,0,0,1-.3.3Z"/><path class="cls-2" d="M28.2,52.58a.27.27,0,0,1-.21-.09.26.26,0,0,1-.09-.21.28.28,0,0,1,.09-.21.3.3,0,0,1,.51.21.31.31,0,0,1-.09.22A.31.31,0,0,1,28.2,52.58Z"/><path class="cls-2" d="M.54,18.94a.29.29,0,0,1-.21-.09.29.29,0,0,1-.09-.21.27.27,0,0,1,.09-.21.3.3,0,0,1,.51.21.29.29,0,0,1-.09.21A.27.27,0,0,1,.54,18.94Z"/><path class="cls-2" d="M1.74,20.13A.28.28,0,0,1,1.53,20a.31.31,0,0,1-.09-.21.29.29,0,0,1,.09-.21.3.3,0,0,1,.42,0,.33.33,0,0,1,.09.22A.32.32,0,0,1,2,20,.31.31,0,0,1,1.74,20.13Z"/><path class="cls-2" d="M3,21.33a.31.31,0,0,1-.31-.3.33.33,0,0,1,.09-.21.31.31,0,0,1,.43,0,.33.33,0,0,1,.09.21.31.31,0,0,1-.1.22A.27.27,0,0,1,3,21.33Z"/><path class="cls-2" d="M4.15,22.53a.27.27,0,0,1-.21-.09.27.27,0,0,1-.09-.21A.27.27,0,0,1,3.94,22a.3.3,0,0,1,.42,0,.27.27,0,0,1,.09.2.31.31,0,0,1-.09.22A.32.32,0,0,1,4.15,22.53Z"/><path class="cls-2" d="M5.35,23.74a.28.28,0,0,1-.21-.1.26.26,0,0,1-.09-.21.3.3,0,0,1,.51-.21.3.3,0,0,1,0,.43A.31.31,0,0,1,5.35,23.74Z"/><path class="cls-2" d="M6.55,24.94a.31.31,0,0,1-.3-.3.32.32,0,0,1,.1-.22.31.31,0,0,1,.42,0,.3.3,0,0,1,.08.21.29.29,0,0,1-.09.21A.27.27,0,0,1,6.55,24.94Z"/><path class="cls-2" d="M7.76,26.14a.31.31,0,0,1-.22-.09.29.29,0,0,1-.09-.21.32.32,0,0,1,.09-.21.31.31,0,0,1,.43,0,.3.3,0,0,1,.08.21.3.3,0,0,1-.08.21A.28.28,0,0,1,7.76,26.14Z"/><path class="cls-2" d="M9,27.35a.31.31,0,0,1-.22-.09A.29.29,0,0,1,8.66,27a.27.27,0,0,1,.09-.21.3.3,0,0,1,.42,0,.28.28,0,0,1,.09.21.27.27,0,0,1-.09.21A.29.29,0,0,1,9,27.35Z"/><path class="cls-2" d="M10.16,28.54a.31.31,0,0,1-.22-.09.3.3,0,0,1-.08-.21A.29.29,0,0,1,10,28a.3.3,0,0,1,.51.21.29.29,0,0,1-.09.21A.27.27,0,0,1,10.16,28.54Z"/><path class="cls-2" d="M11.36,29.74a.3.3,0,0,1-.21-.08.31.31,0,0,1-.09-.22.29.29,0,0,1,.09-.21.31.31,0,0,1,.43,0,.26.26,0,0,1,.08.2.29.29,0,0,1-.09.22A.3.3,0,0,1,11.36,29.74Z"/><path class="cls-2" d="M12.56,31a.29.29,0,0,1-.21-.1.27.27,0,0,1-.09-.2.36.36,0,0,1,.09-.22.32.32,0,0,1,.43,0,.3.3,0,0,1,.08.21.29.29,0,0,1-.09.21A.27.27,0,0,1,12.56,31Z"/><path class="cls-2" d="M13.77,32.15a.31.31,0,0,1-.22-.09.3.3,0,0,1-.08-.21.3.3,0,0,1,.6,0,.28.28,0,0,1-.09.21A.31.31,0,0,1,13.77,32.15Z"/><path class="cls-2" d="M15,33.35a.31.31,0,0,1-.22-.09.33.33,0,0,1-.08-.21.34.34,0,0,1,.08-.21.31.31,0,0,1,.43,0,.3.3,0,0,1,.09.21.34.34,0,0,1-.09.22A.3.3,0,0,1,15,33.35Z"/><path class="cls-2" d="M16.17,34.56a.31.31,0,0,1-.21-.09.29.29,0,0,1-.09-.21A.28.28,0,0,1,16,34a.31.31,0,0,1,.42,0,.28.28,0,0,1,.09.21.3.3,0,0,1-.09.21A.33.33,0,0,1,16.17,34.56Z"/><path class="cls-2" d="M17.37,35.76a.31.31,0,0,1-.21-.08.29.29,0,0,1-.09-.21.3.3,0,0,1,.51-.22.31.31,0,0,1,.09.22.29.29,0,0,1-.09.21A.31.31,0,0,1,17.37,35.76Z"/><path class="cls-2" d="M18.57,37a.31.31,0,0,1-.3-.3.33.33,0,0,1,.09-.22.32.32,0,0,1,.43,0,.31.31,0,0,1,.08.21.27.27,0,0,1-.09.21A.29.29,0,0,1,18.57,37Z"/><path class="cls-2" d="M19.78,38.16a.3.3,0,0,1-.22-.09.32.32,0,0,1,0-.42.31.31,0,0,1,.42,0,.3.3,0,0,1,.1.22.31.31,0,0,1-.3.3Z"/><path class="cls-2" d="M21,39.36a.3.3,0,0,1-.22-.09.29.29,0,0,1-.08-.21.29.29,0,0,1,.09-.21.31.31,0,0,1,.42,0,.29.29,0,0,1,.09.21.36.36,0,0,1-.09.22A.31.31,0,0,1,21,39.36Z"/><path class="cls-2" d="M22.18,40.56a.27.27,0,0,1-.21-.09.24.24,0,0,1-.09-.21.29.29,0,0,1,.09-.21.31.31,0,0,1,.42,0,.3.3,0,0,1,0,.43A.3.3,0,0,1,22.18,40.56Z"/><path class="cls-2" d="M23.38,41.78a.31.31,0,0,1-.21-.09.29.29,0,0,1-.09-.21.31.31,0,0,1,.09-.22.32.32,0,0,1,.42,0,.32.32,0,0,1,.09.22.34.34,0,0,1-.08.21A.31.31,0,0,1,23.38,41.78Z"/><path class="cls-2" d="M24.58,43a.27.27,0,0,1-.21-.09.28.28,0,0,1-.09-.21.32.32,0,0,1,.09-.21.31.31,0,0,1,.42,0,.33.33,0,0,1,.09.22.34.34,0,0,1-.08.21A.29.29,0,0,1,24.58,43Z"/><path class="cls-2" d="M25.79,44.18a.3.3,0,0,1-.22-.09.3.3,0,0,1-.08-.21.3.3,0,0,1,.6,0,.33.33,0,0,1-.1.22A.27.27,0,0,1,25.79,44.18Z"/><path class="cls-2" d="M27,45.37a.3.3,0,0,1-.21-.51.32.32,0,0,1,.42,0,.29.29,0,0,1,0,.42A.29.29,0,0,1,27,45.37Z"/><path class="cls-2" d="M28.19,46.57a.3.3,0,0,1-.21-.08.29.29,0,0,1-.09-.22.27.27,0,0,1,.09-.21.31.31,0,0,1,.42,0,.27.27,0,0,1,.09.2.29.29,0,0,1-.09.22A.32.32,0,0,1,28.19,46.57Z"/><path class="cls-2" d="M29.39,47.78a.29.29,0,0,1-.21-.09.29.29,0,0,1-.09-.21.31.31,0,0,1,.09-.22.32.32,0,0,1,.43,0,.3.3,0,0,1,0,.42A.27.27,0,0,1,29.39,47.78Z"/><path class="cls-2" d="M30.59,49a.29.29,0,0,1-.21-.09.33.33,0,0,1-.09-.21.32.32,0,0,1,.09-.21.31.31,0,0,1,.42,0,.33.33,0,0,1,.09.22.33.33,0,0,1-.08.21A.31.31,0,0,1,30.59,49Z"/><path class="cls-2" d="M31.8,50.19a.28.28,0,0,1-.22-.09.31.31,0,0,1-.08-.21.27.27,0,0,1,.09-.21.3.3,0,0,1,.51.21.32.32,0,0,1-.09.21A.29.29,0,0,1,31.8,50.19Z"/><path class="cls-2" d="M33,51.38a.31.31,0,0,1-.22-.09.29.29,0,0,1-.08-.21.28.28,0,0,1,.09-.21.31.31,0,0,1,.42,0,.3.3,0,0,1,.09.21.27.27,0,0,1-.09.21A.28.28,0,0,1,33,51.38Z"/><path class="cls-2" d="M34.2,52.58a.33.33,0,0,1-.21-.08.28.28,0,0,1-.09-.22.27.27,0,0,1,.09-.21.32.32,0,0,1,.43,0,.3.3,0,0,1,.08.2.31.31,0,0,1-.09.22A.31.31,0,0,1,34.2,52.58Z"/><path class="cls-2" d="M.53,12.93a.31.31,0,0,1-.21-.09.3.3,0,0,1-.09-.21.31.31,0,0,1,.09-.22.32.32,0,0,1,.43,0,.3.3,0,0,1,0,.42A.31.31,0,0,1,.53,12.93Z"/><path class="cls-2" d="M1.73,14.12a.3.3,0,0,1-.21-.51.3.3,0,0,1,.51.21.27.27,0,0,1-.09.21A.26.26,0,0,1,1.73,14.12Z"/><path class="cls-2" d="M2.94,15.32a.29.29,0,0,1-.3-.3.31.31,0,0,1,.08-.21.31.31,0,0,1,.43,0,.31.31,0,0,1,.08.21.3.3,0,0,1-.08.21A.29.29,0,0,1,2.94,15.32Z"/><path class="cls-2" d="M4.14,16.52a.31.31,0,0,1-.3-.3A.32.32,0,0,1,3.92,16a.31.31,0,0,1,.43,0,.27.27,0,0,1,.09.21.3.3,0,0,1-.1.22A.26.26,0,0,1,4.14,16.52Z"/><path class="cls-2" d="M5.34,17.73a.31.31,0,0,1-.21-.09A.32.32,0,0,1,5,17.44a.31.31,0,0,1,.08-.21.3.3,0,0,1,.43,0,.27.27,0,0,1,.09.21.3.3,0,0,1-.09.21A.31.31,0,0,1,5.34,17.73Z"/><path class="cls-2" d="M6.54,18.94a.29.29,0,0,1-.21-.09.29.29,0,0,1-.09-.21.27.27,0,0,1,.09-.21.29.29,0,0,1,.51.21.29.29,0,0,1-.09.21A.27.27,0,0,1,6.54,18.94Z"/><path class="cls-2" d="M7.74,20.13A.3.3,0,0,1,7.53,20a.28.28,0,0,1-.09-.21.32.32,0,0,1,.09-.21.3.3,0,0,1,.43,0,.31.31,0,0,1,.08.21A.32.32,0,0,1,8,20,.31.31,0,0,1,7.74,20.13Z"/><path class="cls-2" d="M9,21.33a.29.29,0,0,1-.22-.09A.31.31,0,0,1,8.64,21a.33.33,0,0,1,.09-.21.32.32,0,0,1,.43,0,.33.33,0,0,1,.09.22.27.27,0,0,1-.09.21A.29.29,0,0,1,9,21.33Z"/><path class="cls-2" d="M10.15,22.53a.29.29,0,0,1-.3-.3A.27.27,0,0,1,9.94,22a.32.32,0,0,1,.42,0,.31.31,0,0,1,.09.21.28.28,0,0,1-.09.21A.29.29,0,0,1,10.15,22.53Z"/><path class="cls-2" d="M11.35,23.73a.27.27,0,0,1-.21-.09.26.26,0,0,1-.09-.2.28.28,0,0,1,.09-.22.31.31,0,0,1,.42,0,.27.27,0,0,1,.09.21.29.29,0,0,1-.3.29Z"/><path class="cls-2" d="M12.55,24.94a.29.29,0,0,1-.21-.09.32.32,0,0,1-.09-.21.3.3,0,0,1,.1-.22.31.31,0,0,1,.42,0,.3.3,0,0,1,.08.21.35.35,0,0,1-.08.21A.33.33,0,0,1,12.55,24.94Z"/><path class="cls-2" d="M13.76,26.14a.31.31,0,0,1-.22-.09.27.27,0,0,1-.09-.21.33.33,0,0,1,.1-.22.31.31,0,0,1,.42,0,.3.3,0,0,1,.08.21.31.31,0,0,1-.29.3Z"/><path class="cls-2" d="M15,27.35a.3.3,0,0,1-.22-.09.29.29,0,0,1-.08-.21.3.3,0,0,1,.51-.21.33.33,0,0,1,.09.21.33.33,0,0,1-.1.22A.27.27,0,0,1,15,27.35Z"/><path class="cls-2" d="M16.16,28.54a.29.29,0,0,1-.22-.09.3.3,0,0,1-.08-.21A.29.29,0,0,1,16,28a.31.31,0,0,1,.42,0,.29.29,0,0,1,.09.21.31.31,0,0,1-.09.22A.3.3,0,0,1,16.16,28.54Z"/><path class="cls-2" d="M17.36,29.76a.29.29,0,0,1-.21-.09.3.3,0,0,1-.09-.21.3.3,0,0,1,.52-.21.27.27,0,0,1,.08.21.29.29,0,0,1-.09.21A.34.34,0,0,1,17.36,29.76Z"/><path class="cls-2" d="M18.56,31a.31.31,0,0,1-.3-.3.3.3,0,0,1,.1-.22.31.31,0,0,1,.42,0,.3.3,0,0,1,.08.21.29.29,0,0,1-.09.21A.3.3,0,0,1,18.56,31Z"/><path class="cls-2" d="M19.76,32.15a.27.27,0,0,1-.21-.09.32.32,0,0,1-.08-.21.31.31,0,0,1,.08-.21.32.32,0,0,1,.43,0,.29.29,0,0,1,.09.21.28.28,0,0,1-.09.21A.31.31,0,0,1,19.76,32.15Z"/><path class="cls-2" d="M21,33.35a.31.31,0,0,1-.22-.09.29.29,0,0,1-.08-.21.27.27,0,0,1,.09-.21.3.3,0,0,1,.51.21.27.27,0,0,1-.09.21A.29.29,0,0,1,21,33.35Z"/><path class="cls-2" d="M22.17,34.55a.3.3,0,0,1-.21-.08A.3.3,0,0,1,22,34a.31.31,0,0,1,.42,0,.3.3,0,0,1,.09.21.31.31,0,0,1-.3.3Z"/><path class="cls-2" d="M23.37,35.77a.34.34,0,0,1-.21-.09.29.29,0,0,1-.09-.21.28.28,0,0,1,.09-.22.32.32,0,0,1,.42,0,.31.31,0,0,1,.09.22.31.31,0,0,1-.3.3Z"/><path class="cls-2" d="M24.57,37a.31.31,0,0,1-.3-.3.33.33,0,0,1,.09-.22.32.32,0,0,1,.43,0,.31.31,0,0,1,.08.21.27.27,0,0,1-.09.21A.29.29,0,0,1,24.57,37Z"/><path class="cls-2" d="M25.78,38.16a.3.3,0,0,1-.22-.09.3.3,0,0,1-.08-.21.27.27,0,0,1,.09-.21.3.3,0,0,1,.42,0,.31.31,0,0,1,.09.21.28.28,0,0,1-.1.21A.24.24,0,0,1,25.78,38.16Z"/><path class="cls-2" d="M27,39.36a.3.3,0,0,1-.21-.08.31.31,0,0,1-.09-.22.27.27,0,0,1,.09-.21.32.32,0,0,1,.42,0,.31.31,0,0,1,.09.21.28.28,0,0,1-.09.21A.29.29,0,0,1,27,39.36Z"/><path class="cls-2" d="M28.18,40.56a.27.27,0,0,1-.21-.09.25.25,0,0,1-.09-.2.28.28,0,0,1,.09-.22.3.3,0,0,1,.51.22.29.29,0,0,1-.08.2A.31.31,0,0,1,28.18,40.56Z"/><path class="cls-2" d="M29.38,41.78a.29.29,0,0,1-.21-.09.28.28,0,0,1-.09-.21.31.31,0,0,1,.09-.22.31.31,0,0,1,.42,0,.27.27,0,0,1,.09.21.29.29,0,0,1-.09.21A.31.31,0,0,1,29.38,41.78Z"/><path class="cls-2" d="M30.58,43a.31.31,0,0,1-.3-.3.27.27,0,0,1,.09-.21.3.3,0,0,1,.43,0,.33.33,0,0,1,.08.21.34.34,0,0,1-.08.21A.31.31,0,0,1,30.58,43Z"/><path class="cls-2" d="M31.79,44.18a.31.31,0,0,1-.22-.09.3.3,0,0,1-.08-.21.3.3,0,0,1,.6,0,.29.29,0,0,1-.09.21A.31.31,0,0,1,31.79,44.18Z"/><path class="cls-2" d="M33,45.37a.29.29,0,0,1-.22-.09.28.28,0,0,1-.08-.21.27.27,0,0,1,.09-.21.31.31,0,0,1,.42,0,.27.27,0,0,1,.09.21.31.31,0,0,1-.09.22A.3.3,0,0,1,33,45.37Z"/><path class="cls-2" d="M34.19,46.57a.32.32,0,0,1-.21-.08.3.3,0,0,1,0-.43.32.32,0,0,1,.42,0,.31.31,0,0,1,.09.21.27.27,0,0,1-.09.21A.29.29,0,0,1,34.19,46.57Z"/><path class="cls-2" d="M35.39,47.78a.29.29,0,0,1-.21-.09.32.32,0,0,1-.09-.21.33.33,0,0,1,.09-.22.32.32,0,0,1,.43,0,.3.3,0,0,1,.08.21.29.29,0,0,1-.09.21A.31.31,0,0,1,35.39,47.78Z"/><path class="cls-2" d="M36.59,49a.32.32,0,0,1-.2-.08.3.3,0,0,1-.1-.22.36.36,0,0,1,.09-.22.32.32,0,0,1,.42,0,.31.31,0,0,1,.09.22.33.33,0,0,1-.08.21A.32.32,0,0,1,36.59,49Z"/><path class="cls-2" d="M37.8,50.19a.32.32,0,0,1-.21-.08.31.31,0,0,1-.09-.22.31.31,0,0,1,.09-.22.32.32,0,0,1,.42,0,.33.33,0,0,1,.09.21.29.29,0,0,1-.09.21A.31.31,0,0,1,37.8,50.19Z"/><path class="cls-2" d="M39,51.38a.29.29,0,0,1-.22-.09.3.3,0,0,1-.08-.21.29.29,0,0,1,.09-.21.31.31,0,0,1,.42,0,.3.3,0,0,1,.09.21.31.31,0,0,1-.3.3Z"/><path class="cls-2" d="M40.2,52.58a.31.31,0,0,1-.21-.08.29.29,0,0,1-.09-.22.28.28,0,0,1,.09-.21.31.31,0,0,1,.42,0,.3.3,0,0,1,0,.42A.31.31,0,0,1,40.2,52.58Z"/><path class="cls-2" d="M.52,6.91a.32.32,0,0,1-.21-.09.29.29,0,0,1-.09-.21A.27.27,0,0,1,.31,6.4a.3.3,0,0,1,.43,0,.3.3,0,0,1,.08.21.27.27,0,0,1-.09.21A.32.32,0,0,1,.52,6.91Z"/><path class="cls-2" d="M1.72,8.11A.28.28,0,0,1,1.51,8a.28.28,0,0,1,0-.41.31.31,0,0,1,.42,0A.32.32,0,0,1,2,7.81.29.29,0,0,1,1.93,8,.26.26,0,0,1,1.72,8.11Z"/><path class="cls-2" d="M2.93,9.31a.29.29,0,0,1-.22-.09A.31.31,0,0,1,2.62,9a.29.29,0,0,1,.09-.21.31.31,0,0,1,.43,0A.33.33,0,0,1,3.23,9a.28.28,0,0,1-.1.21A.24.24,0,0,1,2.93,9.31Z"/><path class="cls-2" d="M4.13,10.52a.29.29,0,0,1-.3-.3.29.29,0,0,1,.08-.2.3.3,0,0,1,.43,0,.28.28,0,0,1,.09.21.31.31,0,0,1-.1.22A.26.26,0,0,1,4.13,10.52Z"/><path class="cls-2" d="M5.33,11.71a.3.3,0,0,1-.21-.08A.31.31,0,0,1,5,11.41a.3.3,0,0,1,.08-.2.3.3,0,0,1,.43,0,.29.29,0,0,1,.09.21.32.32,0,0,1-.09.22A.3.3,0,0,1,5.33,11.71Z"/><path class="cls-2" d="M6.53,12.93a.33.33,0,0,1-.21-.09.3.3,0,0,1-.09-.21.31.31,0,0,1,.09-.22.32.32,0,0,1,.43,0,.27.27,0,0,1,.08.21.29.29,0,0,1-.09.21A.31.31,0,0,1,6.53,12.93Z"/><path class="cls-2" d="M7.74,14.12A.31.31,0,0,1,7.52,14a.29.29,0,0,1-.09-.21A.31.31,0,0,1,8,13.61a.3.3,0,0,1,.08.21.27.27,0,0,1-.09.21A.27.27,0,0,1,7.74,14.12Z"/><path class="cls-2" d="M8.94,15.32a.3.3,0,0,1-.22-.09A.3.3,0,0,1,8.64,15a.3.3,0,0,1,.51-.21.32.32,0,0,1,.09.21.31.31,0,0,1-.3.3Z"/><path class="cls-2" d="M10.14,16.52a.31.31,0,0,1-.21-.08.31.31,0,0,1-.09-.22A.27.27,0,0,1,9.93,16a.32.32,0,0,1,.42,0,.28.28,0,0,1,.09.21.31.31,0,0,1-.3.3Z"/><path class="cls-2" d="M11.34,17.73a.29.29,0,0,1-.21-.09.3.3,0,0,1-.09-.21.31.31,0,0,1,.09-.22.3.3,0,0,1,.42,0,.29.29,0,0,1,0,.42A.33.33,0,0,1,11.34,17.73Z"/><path class="cls-2" d="M12.54,18.94a.27.27,0,0,1-.21-.09.29.29,0,0,1-.09-.21.34.34,0,0,1,.09-.22.32.32,0,0,1,.43,0,.3.3,0,0,1,.08.21.35.35,0,0,1-.08.21A.31.31,0,0,1,12.54,18.94Z"/><path class="cls-2" d="M13.74,20.13a.27.27,0,0,1-.21-.09.31.31,0,0,1-.09-.21.27.27,0,0,1,.09-.21.31.31,0,0,1,.42,0,.33.33,0,0,1,.09.22A.32.32,0,0,1,14,20,.31.31,0,0,1,13.74,20.13Z"/><path class="cls-2" d="M15,21.33a.29.29,0,0,1-.22-.09.29.29,0,0,1,0-.42.32.32,0,0,1,.43,0,.29.29,0,0,1,0,.42A.27.27,0,0,1,15,21.33Z"/><path class="cls-2" d="M16.15,22.53a.29.29,0,0,1-.22-.09.29.29,0,0,1-.08-.21.29.29,0,0,1,.09-.21.3.3,0,0,1,.51.21.28.28,0,0,1-.09.21A.29.29,0,0,1,16.15,22.53Z"/><path class="cls-2" d="M17.35,23.74a.34.34,0,0,1-.21-.09.3.3,0,0,1-.09-.21.31.31,0,0,1,.09-.22.32.32,0,0,1,.43,0,.3.3,0,0,1,0,.42A.31.31,0,0,1,17.35,23.74Z"/><path class="cls-2" d="M18.55,24.94a.31.31,0,0,1-.21-.09.34.34,0,0,1-.09-.21.3.3,0,0,1,.1-.22.31.31,0,0,1,.42,0,.3.3,0,0,1,.08.21.35.35,0,0,1-.08.21A.33.33,0,0,1,18.55,24.94Z"/><path class="cls-2" d="M19.76,26.14a.28.28,0,0,1-.22-.09.31.31,0,0,1-.09-.21.32.32,0,0,1,.09-.21.32.32,0,0,1,.42,0,.33.33,0,0,1,.09.22.32.32,0,0,1-.08.21A.28.28,0,0,1,19.76,26.14Z"/><path class="cls-2" d="M21,27.35a.3.3,0,0,1-.22-.09.31.31,0,0,1-.08-.21.27.27,0,0,1,.09-.21.31.31,0,0,1,.42,0,.3.3,0,0,1,.09.21.32.32,0,0,1-.08.21A.33.33,0,0,1,21,27.35Z"/><path class="cls-2" d="M22.16,28.54a.31.31,0,0,1-.22-.09.28.28,0,0,1-.08-.21A.27.27,0,0,1,22,28a.32.32,0,0,1,.42,0,.29.29,0,0,1,.09.21.27.27,0,0,1-.09.21A.27.27,0,0,1,22.16,28.54Z"/><path class="cls-2" d="M23.36,29.76a.33.33,0,0,1-.22-.1.26.26,0,0,1-.08-.2.28.28,0,0,1,.09-.22.32.32,0,0,1,.43,0,.3.3,0,0,1,0,.42A.34.34,0,0,1,23.36,29.76Z"/><path class="cls-2" d="M24.56,31a.31.31,0,0,1-.3-.3.36.36,0,0,1,.09-.22.3.3,0,0,1,.51.22.27.27,0,0,1-.09.21A.3.3,0,0,1,24.56,31Z"/><path class="cls-2" d="M25.77,32.15a.28.28,0,0,1-.22-.09.3.3,0,0,1-.08-.21.31.31,0,0,1,.08-.21.32.32,0,0,1,.43,0,.31.31,0,0,1,.08.21.3.3,0,0,1-.08.21A.27.27,0,0,1,25.77,32.15Z"/><path class="cls-2" d="M27,33.35a.29.29,0,0,1-.22-.09.31.31,0,0,1-.08-.21.29.29,0,0,1,.09-.21.31.31,0,0,1,.42,0,.28.28,0,0,1,.09.21.31.31,0,0,1-.3.3Z"/><path class="cls-2" d="M28.17,34.55a.3.3,0,0,1-.21-.08A.3.3,0,0,1,28,34a.31.31,0,0,1,.42,0,.29.29,0,0,1,.09.21.31.31,0,0,1-.09.22A.32.32,0,0,1,28.17,34.55Z"/><path class="cls-2" d="M29.37,35.76a.27.27,0,0,1-.21-.09.24.24,0,0,1-.09-.2.28.28,0,0,1,.09-.22.32.32,0,0,1,.42,0,.31.31,0,0,1,.09.22.35.35,0,0,1-.08.21A.35.35,0,0,1,29.37,35.76Z"/><path class="cls-2" d="M30.57,37a.28.28,0,0,1-.21-.09.31.31,0,0,1-.09-.21.32.32,0,0,1,.1-.22.31.31,0,0,1,.42,0,.31.31,0,0,1,.08.21.32.32,0,0,1-.08.21A.31.31,0,0,1,30.57,37Z"/><path class="cls-2" d="M31.78,38.16a.3.3,0,0,1-.22-.09.3.3,0,0,1-.08-.21.3.3,0,0,1,.6,0,.32.32,0,0,1-.1.22A.28.28,0,0,1,31.78,38.16Z"/><path class="cls-2" d="M33,39.36a.32.32,0,0,1-.21-.08.31.31,0,0,1-.09-.22.27.27,0,0,1,.09-.21.31.31,0,0,1,.42,0,.29.29,0,0,1,.09.21.29.29,0,0,1-.09.21A.31.31,0,0,1,33,39.36Z"/><path class="cls-2" d="M34.18,40.57a.28.28,0,0,1-.21-.1.25.25,0,0,1-.09-.2.28.28,0,0,1,.09-.22.31.31,0,0,1,.42,0,.25.25,0,0,1,.09.21.29.29,0,0,1-.09.21A.31.31,0,0,1,34.18,40.57Z"/><path class="cls-2" d="M35.38,41.78a.31.31,0,0,1-.3-.3.31.31,0,0,1,.09-.22.3.3,0,0,1,.42,0,.27.27,0,0,1,.09.21.29.29,0,0,1-.09.21A.31.31,0,0,1,35.38,41.78Z"/><path class="cls-2" d="M36.58,43a.31.31,0,0,1-.2-.08.29.29,0,0,1-.1-.22.33.33,0,0,1,.1-.22.31.31,0,0,1,.41,0,.31.31,0,0,1,.09.22.34.34,0,0,1-.08.21A.32.32,0,0,1,36.58,43Z"/><path class="cls-2" d="M37.79,44.18a.3.3,0,0,1-.22-.09.32.32,0,0,1,0-.42.31.31,0,0,1,.43,0,.32.32,0,0,1,0,.42A.27.27,0,0,1,37.79,44.18Z"/><path class="cls-2" d="M39,45.37a.31.31,0,0,1-.22-.09.32.32,0,0,1-.08-.21.34.34,0,0,1,.08-.21.3.3,0,0,1,.52.21.29.29,0,0,1-.09.21A.29.29,0,0,1,39,45.37Z"/><path class="cls-2" d="M40.19,46.57a.3.3,0,0,1-.21-.08.29.29,0,0,1-.09-.22.27.27,0,0,1,.09-.21.32.32,0,0,1,.42,0,.28.28,0,0,1,.09.21.31.31,0,0,1-.09.22A.32.32,0,0,1,40.19,46.57Z"/><path class="cls-2" d="M41.39,47.78a.3.3,0,0,1-.21-.09.29.29,0,0,1-.09-.21.31.31,0,0,1,.09-.22.32.32,0,0,1,.42,0,.31.31,0,0,1,.09.22.35.35,0,0,1-.08.21A.33.33,0,0,1,41.39,47.78Z"/><path class="cls-2" d="M42.59,49a.32.32,0,0,1-.2-.08.28.28,0,0,1-.1-.22.32.32,0,0,1,.1-.22.31.31,0,0,1,.42,0,.3.3,0,0,1,.08.21.32.32,0,0,1-.08.21A.31.31,0,0,1,42.59,49Z"/><path class="cls-2" d="M43.8,50.19a.31.31,0,0,1-.31-.3.29.29,0,0,1,.09-.21.31.31,0,0,1,.43,0,.28.28,0,0,1,.09.21.29.29,0,0,1-.09.21A.31.31,0,0,1,43.8,50.19Z"/><path class="cls-2" d="M45,51.38a.28.28,0,0,1-.21-.08.31.31,0,0,1-.09-.22.28.28,0,0,1,.09-.21.31.31,0,0,1,.42,0,.3.3,0,0,1,.09.21.32.32,0,0,1-.08.21A.32.32,0,0,1,45,51.38Z"/><path class="cls-2" d="M46.2,52.6a.34.34,0,0,1-.21-.09.29.29,0,0,1-.09-.22.28.28,0,0,1,.09-.21.31.31,0,0,1,.42,0,.31.31,0,0,1-.21.52Z"/><path class="cls-2" d="M.51.9A.29.29,0,0,1,.3.81.3.3,0,0,1,.21.61.31.31,0,0,1,.3.38a.31.31,0,0,1,.42,0A.26.26,0,0,1,.81.61.28.28,0,0,1,.72.81.31.31,0,0,1,.51.9Z"/><path class="cls-2" d="M1.71,2.11A.27.27,0,0,1,1.5,2a.29.29,0,0,1-.09-.21A.27.27,0,0,1,1.5,1.6a.31.31,0,0,1,.43,0A.3.3,0,0,1,2,1.8.32.32,0,0,1,1.93,2,.29.29,0,0,1,1.71,2.11Z"/><path class="cls-2" d="M2.92,3.3a.31.31,0,0,1-.22-.09A.27.27,0,0,1,2.61,3a.29.29,0,0,1,.09-.21.31.31,0,0,1,.43,0,.31.31,0,0,1,0,.43A.28.28,0,0,1,2.92,3.3Z"/><path class="cls-2" d="M4.12,4.51a.31.31,0,0,1-.21-.08.34.34,0,0,1-.1-.22A.28.28,0,0,1,3.91,4a.3.3,0,0,1,.42,0,.31.31,0,0,1,.09.21.29.29,0,0,1-.09.21A.31.31,0,0,1,4.12,4.51Z"/><path class="cls-2" d="M5.32,5.7a.3.3,0,0,1-.21-.08A.33.33,0,0,1,5,5.4a.34.34,0,0,1,.08-.21.31.31,0,0,1,.43,0,.24.24,0,0,1,.09.2.27.27,0,0,1-.09.21A.27.27,0,0,1,5.32,5.7Z"/><path class="cls-2" d="M6.52,6.91a.32.32,0,0,1-.21-.09.29.29,0,0,1-.09-.21A.32.32,0,0,1,6.3,6.4a.3.3,0,0,1,.43,0,.31.31,0,0,1,.09.22.29.29,0,0,1-.09.21A.32.32,0,0,1,6.52,6.91Z"/><path class="cls-2" d="M7.72,8.11a.31.31,0,0,1-.3-.3.27.27,0,0,1,.09-.21A.3.3,0,0,1,8,7.81.33.33,0,0,1,7.94,8,.31.31,0,0,1,7.72,8.11Z"/><path class="cls-2" d="M8.93,9.31a.28.28,0,0,1-.22-.09A.31.31,0,0,1,8.62,9a.34.34,0,0,1,.09-.21.31.31,0,0,1,.42,0,.32.32,0,0,1,.1.22.33.33,0,0,1-.09.21A.28.28,0,0,1,8.93,9.31Z"/><path class="cls-2" d="M10.13,10.52a.29.29,0,0,1-.3-.3A.27.27,0,0,1,9.92,10a.3.3,0,0,1,.51.21.27.27,0,0,1-.09.21A.29.29,0,0,1,10.13,10.52Z"/><path class="cls-2" d="M11.33,11.71a.31.31,0,0,1-.22-.09.3.3,0,0,1-.08-.21.3.3,0,0,1,.09-.21.3.3,0,0,1,.42.43A.3.3,0,0,1,11.33,11.71Z"/><path class="cls-2" d="M12.53,12.93a.28.28,0,0,1-.21-.1.25.25,0,0,1-.09-.2.29.29,0,0,1,.09-.22.3.3,0,0,1,.51.22.3.3,0,0,1-.08.2A.32.32,0,0,1,12.53,12.93Z"/><path class="cls-2" d="M13.73,14.12a.27.27,0,0,1-.21-.09.31.31,0,0,1-.09-.21.32.32,0,0,1,.1-.22.31.31,0,0,1,.42,0,.3.3,0,0,1,.08.21.27.27,0,0,1-.09.21A.3.3,0,0,1,13.73,14.12Z"/><path class="cls-2" d="M14.94,15.32a.31.31,0,0,1-.22-.09.3.3,0,0,1-.08-.21.31.31,0,0,1,.09-.22.32.32,0,0,1,.42,0,.29.29,0,0,1,.09.21.29.29,0,0,1-.09.21A.31.31,0,0,1,14.94,15.32Z"/><path class="cls-2" d="M16.14,16.52a.3.3,0,0,1-.22-.09.31.31,0,0,1-.08-.21.29.29,0,0,1,.09-.21.31.31,0,0,1,.42,0,.28.28,0,0,1,.09.21.31.31,0,0,1-.09.22A.3.3,0,0,1,16.14,16.52Z"/><path class="cls-2" d="M17.34,17.72a.29.29,0,0,1-.22-.09.27.27,0,0,1-.08-.21.3.3,0,0,1,.51-.21.29.29,0,0,1,.09.21.27.27,0,0,1-.09.22A.3.3,0,0,1,17.34,17.72Z"/><path class="cls-2" d="M18.54,18.94a.29.29,0,0,1-.21-.09.29.29,0,0,1-.09-.21.31.31,0,0,1,.09-.22.32.32,0,0,1,.43,0,.27.27,0,0,1,.08.21.29.29,0,0,1-.09.21A.29.29,0,0,1,18.54,18.94Z"/><path class="cls-2" d="M19.74,20.13a.31.31,0,0,1-.3-.3.32.32,0,0,1,.1-.22.29.29,0,0,1,.5.22A.29.29,0,0,1,20,20,.27.27,0,0,1,19.74,20.13Z"/><path class="cls-2" d="M21,21.33a.29.29,0,0,1-.22-.09.32.32,0,0,1,0-.42.32.32,0,0,1,.43,0,.3.3,0,0,1-.21.51Z"/><path class="cls-2" d="M22.15,22.53a.29.29,0,0,1-.22-.09.29.29,0,0,1-.08-.21.27.27,0,0,1,.09-.21.31.31,0,0,1,.42,0,.27.27,0,0,1,.09.2.31.31,0,0,1-.09.22A.3.3,0,0,1,22.15,22.53Z"/><path class="cls-2" d="M23.35,23.73a.27.27,0,0,1-.21-.09.24.24,0,0,1-.09-.21.29.29,0,0,1,.09-.21.32.32,0,0,1,.42,0,.31.31,0,0,1,.09.21.35.35,0,0,1-.08.22A.35.35,0,0,1,23.35,23.73Z"/><path class="cls-2" d="M24.55,24.94a.31.31,0,0,1-.3-.3.3.3,0,0,1,.1-.22.31.31,0,0,1,.42,0,.3.3,0,0,1,.08.21.33.33,0,0,1-.08.21A.31.31,0,0,1,24.55,24.94Z"/><path class="cls-2" d="M25.76,26.14a.28.28,0,0,1-.22-.09.31.31,0,0,1-.09-.21.33.33,0,0,1,.1-.22.31.31,0,0,1,.42,0,.3.3,0,0,1,.08.21.3.3,0,0,1-.08.21A.3.3,0,0,1,25.76,26.14Z"/><path class="cls-2" d="M27,27.35a.31.31,0,0,1-.21-.08.31.31,0,0,1-.09-.22.27.27,0,0,1,.09-.21.32.32,0,0,1,.42,0,.31.31,0,0,1,.09.21.32.32,0,0,1-.09.21A.29.29,0,0,1,27,27.35Z"/><path class="cls-2" d="M28.16,28.54a.32.32,0,0,1-.21-.08.31.31,0,0,1-.09-.22A.27.27,0,0,1,28,28a.31.31,0,0,1,.42,0,.29.29,0,0,1,0,.42A.3.3,0,0,1,28.16,28.54Z"/><path class="cls-2" d="M29.36,29.74a.3.3,0,0,1-.21-.08.28.28,0,0,1-.09-.22.29.29,0,0,1,.09-.21.32.32,0,0,1,.43,0,.34.34,0,0,1,.08.21.31.31,0,0,1-.09.22A.3.3,0,0,1,29.36,29.74Z"/><path class="cls-2" d="M30.56,31a.31.31,0,0,1-.3-.3.33.33,0,0,1,.09-.22.32.32,0,0,1,.43,0,.3.3,0,0,1,.08.21.32.32,0,0,1-.08.21A.31.31,0,0,1,30.56,31Z"/><path class="cls-2" d="M31.77,32.15a.31.31,0,0,1-.22-.09.3.3,0,0,1-.08-.21.3.3,0,0,1,.6,0,.28.28,0,0,1-.1.21A.26.26,0,0,1,31.77,32.15Z"/><path class="cls-2" d="M33,33.35a.29.29,0,0,1-.3-.3.29.29,0,0,1,.09-.21.31.31,0,0,1,.42,0,.35.35,0,0,1,.09.22.33.33,0,0,1-.08.21A.35.35,0,0,1,33,33.35Z"/><path class="cls-2" d="M34.17,34.55a.3.3,0,0,1-.21-.08A.3.3,0,0,1,34,34a.31.31,0,0,1,.42,0,.27.27,0,0,1,.09.2.29.29,0,0,1-.09.22A.32.32,0,0,1,34.17,34.55Z"/><path class="cls-2" d="M35.37,35.77a.34.34,0,0,1-.21-.09.3.3,0,0,1,0-.43.31.31,0,0,1,.42,0,.3.3,0,0,1,0,.43A.32.32,0,0,1,35.37,35.77Z"/><path class="cls-2" d="M36.57,37a.31.31,0,0,1-.3-.3.27.27,0,0,1,.09-.21.31.31,0,0,1,.43,0,.31.31,0,0,1,.08.21.32.32,0,0,1-.08.21A.31.31,0,0,1,36.57,37Z"/><path class="cls-2" d="M37.78,38.16a.3.3,0,0,1-.22-.09.3.3,0,0,1-.08-.21.27.27,0,0,1,.09-.21.31.31,0,0,1,.42,0,.29.29,0,0,1,0,.42A.29.29,0,0,1,37.78,38.16Z"/><path class="cls-2" d="M39,39.36a.31.31,0,0,1-.22-.09.29.29,0,0,1-.08-.21.27.27,0,0,1,.09-.21.3.3,0,0,1,.51.21.31.31,0,0,1-.3.3Z"/><path class="cls-2" d="M40.18,40.56a.27.27,0,0,1-.21-.09.25.25,0,0,1-.09-.2.28.28,0,0,1,.09-.22.31.31,0,0,1,.42,0,.25.25,0,0,1,.09.21.29.29,0,0,1-.09.21A.3.3,0,0,1,40.18,40.56Z"/><path class="cls-2" d="M41.38,41.78a.31.31,0,0,1-.21-.09.28.28,0,0,1-.09-.21.33.33,0,0,1,.09-.22.32.32,0,0,1,.42,0,.3.3,0,0,1,.09.22.34.34,0,0,1-.08.21A.36.36,0,0,1,41.38,41.78Z"/><path class="cls-2" d="M42.58,43a.3.3,0,0,1-.21-.09.31.31,0,0,1-.09-.21.33.33,0,0,1,.1-.22.3.3,0,0,1,.5.22.29.29,0,0,1-.09.21A.27.27,0,0,1,42.58,43Z"/><path class="cls-2" d="M43.79,44.18a.3.3,0,0,1-.22-.09.29.29,0,0,1,0-.42.3.3,0,1,1,.43.42A.29.29,0,0,1,43.79,44.18Z"/><path class="cls-2" d="M45,45.37a.32.32,0,0,1-.21-.08.31.31,0,0,1-.09-.22.27.27,0,0,1,.09-.21.31.31,0,0,1,.42,0,.29.29,0,0,1,0,.42A.29.29,0,0,1,45,45.37Z"/><path class="cls-2" d="M46.19,46.57a.32.32,0,0,1-.21-.08.3.3,0,0,1,0-.43.31.31,0,0,1,.42,0,.29.29,0,0,1,.09.21.31.31,0,0,1-.09.22A.32.32,0,0,1,46.19,46.57Z"/><path class="cls-2" d="M47.39,47.78a.29.29,0,0,1-.21-.09.31.31,0,0,1-.09-.21.27.27,0,0,1,.09-.21.3.3,0,0,1,.51.21.33.33,0,0,1-.08.21A.36.36,0,0,1,47.39,47.78Z"/><path class="cls-2" d="M48.59,49a.29.29,0,0,1-.21-.09.31.31,0,0,1-.09-.21.32.32,0,0,1,.09-.21.31.31,0,0,1,.43,0,.3.3,0,0,1,.08.21.3.3,0,0,1-.08.21A.31.31,0,0,1,48.59,49Z"/><path class="cls-2" d="M49.8,50.19a.31.31,0,0,1-.31-.3.28.28,0,0,1,.1-.21.29.29,0,0,1,.42,0,.27.27,0,0,1,.09.2.34.34,0,0,1-.09.21A.31.31,0,0,1,49.8,50.19Z"/><path class="cls-2" d="M51,51.38a.3.3,0,0,1-.21-.08.3.3,0,0,1-.09-.21.31.31,0,0,1,.09-.22.3.3,0,0,1,.51.22.26.26,0,0,1-.09.2A.28.28,0,0,1,51,51.38Z"/><path class="cls-2" d="M52.2,52.6a.31.31,0,0,1-.3-.31.28.28,0,0,1,.09-.21.31.31,0,0,1,.42,0,.29.29,0,0,1,.09.21.3.3,0,0,1-.09.22A.32.32,0,0,1,52.2,52.6Z"/><path class="cls-2" d="M6.51.9A.29.29,0,0,1,6.3.81.28.28,0,0,1,6.21.61.31.31,0,0,1,6.3.38a.31.31,0,0,1,.43,0,.31.31,0,0,1,.08.21.28.28,0,0,1-.09.21A.31.31,0,0,1,6.51.9Z"/><path class="cls-2" d="M7.71,2.11A.27.27,0,0,1,7.5,2a.29.29,0,0,1-.09-.21.36.36,0,0,1,.09-.22.32.32,0,0,1,.43,0A.3.3,0,0,1,8,1.8.32.32,0,0,1,7.93,2,.29.29,0,0,1,7.71,2.11Z"/><path class="cls-2" d="M8.92,3.3a.31.31,0,0,1-.22-.09A.31.31,0,0,1,8.61,3a.33.33,0,0,1,.1-.22.32.32,0,0,1,.42,0A.32.32,0,0,1,9.22,3a.33.33,0,0,1-.09.21A.32.32,0,0,1,8.92,3.3Z"/><path class="cls-2" d="M10.12,4.51a.3.3,0,0,1-.22-.09.3.3,0,0,1-.08-.21A.27.27,0,0,1,9.91,4a.31.31,0,0,1,.42,0,.3.3,0,0,1-.21.51Z"/><path class="cls-2" d="M11.32,5.7a.32.32,0,0,1-.21-.08A.33.33,0,0,1,11,5.4a.3.3,0,0,1,.09-.21.3.3,0,0,1,.42,0,.27.27,0,0,1,.09.2.3.3,0,0,1-.09.22A.32.32,0,0,1,11.32,5.7Z"/><path class="cls-2" d="M12.52,6.91a.29.29,0,0,1-.21-.09.31.31,0,0,1-.09-.21.3.3,0,0,1,.52-.21.3.3,0,0,1,0,.42A.29.29,0,0,1,12.52,6.91Z"/><path class="cls-2" d="M13.72,8.11a.31.31,0,0,1-.3-.3.32.32,0,0,1,.1-.22.31.31,0,0,1,.42,0,.3.3,0,0,1,.08.21.33.33,0,0,1-.08.21A.33.33,0,0,1,13.72,8.11Z"/><path class="cls-2" d="M14.93,9.31a.29.29,0,0,1-.22-.09A.31.31,0,0,1,14.62,9a.34.34,0,0,1,.09-.21.32.32,0,0,1,.43,0,.29.29,0,0,1,.09.21.3.3,0,0,1-.09.21A.28.28,0,0,1,14.93,9.31Z"/><path class="cls-2" d="M16.13,10.52a.29.29,0,0,1-.22-.09.31.31,0,0,1-.08-.21.28.28,0,0,1,.09-.21.31.31,0,0,1,.42,0,.3.3,0,0,1,.09.21.32.32,0,0,1-.08.21A.33.33,0,0,1,16.13,10.52Z"/><path class="cls-2" d="M17.33,11.71a.3.3,0,0,1-.21-.08.28.28,0,0,1-.09-.21.28.28,0,0,1,.09-.22.31.31,0,0,1,.42,0,.26.26,0,0,1,.09.21.3.3,0,0,1-.09.21A.32.32,0,0,1,17.33,11.71Z"/><path class="cls-2" d="M18.53,12.93a.31.31,0,0,1-.21-.09.27.27,0,0,1-.09-.21.31.31,0,0,1,.09-.22.3.3,0,0,1,.42,0,.27.27,0,0,1,.09.21.29.29,0,0,1-.09.21A.31.31,0,0,1,18.53,12.93Z"/><path class="cls-2" d="M19.73,14.12a.3.3,0,0,1-.21-.09.29.29,0,0,1-.09-.21.35.35,0,0,1,.09-.22.32.32,0,0,1,.43,0,.3.3,0,0,1,.08.21.31.31,0,0,1-.3.3Z"/><path class="cls-2" d="M20.94,15.32a.31.31,0,0,1-.22-.09.3.3,0,0,1-.08-.21.3.3,0,0,1,.51-.21.32.32,0,0,1,.09.21.29.29,0,0,1-.09.21A.31.31,0,0,1,20.94,15.32Z"/><path class="cls-2" d="M22.14,16.52a.31.31,0,0,1-.21-.08.31.31,0,0,1-.09-.22.27.27,0,0,1,.09-.21.3.3,0,0,1,.42,0,.28.28,0,0,1,.09.21.31.31,0,0,1-.3.3Z"/><path class="cls-2" d="M23.34,17.72a.27.27,0,0,1-.21-.09.24.24,0,0,1-.09-.21.29.29,0,0,1,.09-.21.31.31,0,0,1,.42,0,.3.3,0,0,1,.09.21.29.29,0,0,1-.09.22A.3.3,0,0,1,23.34,17.72Z"/><path class="cls-2" d="M24.54,18.94a.29.29,0,0,1-.21-.09.29.29,0,0,1-.09-.21.27.27,0,0,1,.09-.21.3.3,0,0,1,.51.21.31.31,0,0,1-.09.21A.27.27,0,0,1,24.54,18.94Z"/><path class="cls-2" d="M25.74,20.13a.27.27,0,0,1-.21-.09.31.31,0,0,1-.09-.21.27.27,0,0,1,.09-.21.3.3,0,0,1,.42,0,.33.33,0,0,1,.09.22A.27.27,0,0,1,26,20,.26.26,0,0,1,25.74,20.13Z"/><path class="cls-2" d="M27,21.33a.29.29,0,0,1-.22-.09.3.3,0,0,1-.08-.21.32.32,0,0,1,.08-.21.31.31,0,0,1,.43,0,.3.3,0,0,1-.21.51Z"/><path class="cls-2" d="M28.15,22.53a.3.3,0,0,1-.21-.08.31.31,0,0,1-.09-.22.27.27,0,0,1,.09-.21.32.32,0,0,1,.42,0,.3.3,0,0,1,.09.21.33.33,0,0,1-.08.21A.35.35,0,0,1,28.15,22.53Z"/><path class="cls-2" d="M29.35,23.73a.27.27,0,0,1-.21-.09.25.25,0,0,1-.09-.2.3.3,0,0,1,.09-.22.31.31,0,0,1,.42,0,.33.33,0,0,1,.09.22.32.32,0,0,1-.08.2A.31.31,0,0,1,29.35,23.73Z"/><path class="cls-2" d="M30.55,24.94a.31.31,0,0,1-.21-.09.29.29,0,0,1-.09-.21.3.3,0,0,1,.52-.21.32.32,0,0,1,.08.21.35.35,0,0,1-.08.21A.33.33,0,0,1,30.55,24.94Z"/><path class="cls-2" d="M31.76,26.14a.31.31,0,0,1-.31-.3.32.32,0,0,1,.09-.21.31.31,0,0,1,.43,0,.3.3,0,0,1,.08.21.3.3,0,0,1-.08.21A.3.3,0,0,1,31.76,26.14Z"/><path class="cls-2" d="M33,27.35a.31.31,0,0,1-.22-.09.31.31,0,0,1-.08-.21.27.27,0,0,1,.09-.21.32.32,0,0,1,.42,0,.31.31,0,0,1,.09.21.29.29,0,0,1-.09.21A.29.29,0,0,1,33,27.35Z"/><path class="cls-2" d="M34.16,28.54a.31.31,0,0,1-.3-.3A.29.29,0,0,1,34,28a.3.3,0,0,1,.51.21.29.29,0,0,1-.09.21A.27.27,0,0,1,34.16,28.54Z"/><path class="cls-2" d="M35.36,29.76a.29.29,0,0,1-.21-.09.29.29,0,0,1-.09-.21.28.28,0,0,1,.09-.22.32.32,0,0,1,.42,0,.31.31,0,0,1,.09.22.3.3,0,0,1-.08.2A.34.34,0,0,1,35.36,29.76Z"/><path class="cls-2" d="M36.56,31a.29.29,0,0,1-.21-.09.31.31,0,0,1-.09-.21.36.36,0,0,1,.09-.22.32.32,0,0,1,.42,0,.31.31,0,0,1,.09.22.32.32,0,0,1-.08.21A.31.31,0,0,1,36.56,31Z"/><path class="cls-2" d="M37.77,32.15a.28.28,0,0,1-.22-.09.32.32,0,0,1-.08-.21.31.31,0,0,1,.08-.21.31.31,0,0,1,.52.21.33.33,0,0,1-.09.21A.27.27,0,0,1,37.77,32.15Z"/><path class="cls-2" d="M39,33.35a.27.27,0,0,1-.21-.09.28.28,0,0,1-.09-.21.27.27,0,0,1,.09-.21.31.31,0,0,1,.42,0,.3.3,0,0,1,.09.21.31.31,0,0,1-.3.3Z"/><path class="cls-2" d="M40.17,34.55a.3.3,0,0,1-.21-.08.29.29,0,0,1-.09-.21A.3.3,0,0,1,40,34a.32.32,0,0,1,.42,0,.31.31,0,0,1,.09.22.29.29,0,0,1-.3.29Z"/><path class="cls-2" d="M41.37,35.77a.31.31,0,0,1-.3-.3.31.31,0,0,1,.08-.21.31.31,0,0,1,.43,0,.33.33,0,0,1,.09.22.35.35,0,0,1-.08.21A.33.33,0,0,1,41.37,35.77Z"/><path class="cls-2" d="M42.57,37a.28.28,0,0,1-.21-.1.27.27,0,0,1-.09-.2.33.33,0,0,1,.09-.22.32.32,0,0,1,.43,0,.29.29,0,0,1,.08.21.27.27,0,0,1-.09.21A.29.29,0,0,1,42.57,37Z"/><path class="cls-2" d="M43.78,38.16a.32.32,0,0,1-.21-.08.34.34,0,0,1-.1-.22.31.31,0,0,1,.09-.21.32.32,0,0,1,.43,0,.31.31,0,0,1,.09.21.29.29,0,0,1-.09.21A.31.31,0,0,1,43.78,38.16Z"/><path class="cls-2" d="M45,39.36a.31.31,0,0,1-.22-.09.31.31,0,0,1-.08-.21.29.29,0,0,1,.09-.21.31.31,0,0,1,.43,0,.29.29,0,0,1,0,.41A.29.29,0,0,1,45,39.36Z"/><path class="cls-2" d="M46.18,40.56a.28.28,0,0,1-.21-.08.33.33,0,0,1-.09-.22.3.3,0,0,1,.51-.21.31.31,0,0,1,.09.21.32.32,0,0,1-.08.21A.33.33,0,0,1,46.18,40.56Z"/><path class="cls-2" d="M47.38,41.78a.31.31,0,0,1-.3-.3.27.27,0,0,1,.09-.21.3.3,0,0,1,.42,0,.3.3,0,0,1,0,.43A.31.31,0,0,1,47.38,41.78Z"/><path class="cls-2" d="M48.58,43a.34.34,0,0,1-.21-.08.32.32,0,0,1-.09-.22.27.27,0,0,1,.09-.21.3.3,0,0,1,.43,0,.31.31,0,0,1,.08.21.29.29,0,0,1-.3.3Z"/><path class="cls-2" d="M49.79,44.18a.33.33,0,0,1-.21-.08.3.3,0,0,1-.1-.22.28.28,0,0,1,.09-.21.3.3,0,0,1,.43,0,.29.29,0,0,1,0,.42A.33.33,0,0,1,49.79,44.18Z"/><path class="cls-2" d="M51,45.37a.27.27,0,0,1-.21-.09.26.26,0,0,1-.09-.21.27.27,0,0,1,.09-.21.32.32,0,0,1,.42,0,.31.31,0,0,1,.09.21.36.36,0,0,1-.09.22A.3.3,0,0,1,51,45.37Z"/><path class="cls-2" d="M52.19,46.57a.3.3,0,0,1-.21-.08.32.32,0,0,1-.09-.22.31.31,0,0,1,.09-.21.31.31,0,0,1,.43,0,.3.3,0,0,1,.08.2.32.32,0,0,1-.08.21A.31.31,0,0,1,52.19,46.57Z"/><path class="cls-2" d="M53.39,47.78a.29.29,0,0,1-.21-.09.29.29,0,0,1-.09-.21.36.36,0,0,1,.09-.22.32.32,0,0,1,.43,0,.29.29,0,0,1,.08.21.27.27,0,0,1-.09.21A.31.31,0,0,1,53.39,47.78Z"/><path class="cls-2" d="M54.59,49a.31.31,0,0,1-.3-.3.32.32,0,0,1,.09-.21.31.31,0,0,1,.52.21.33.33,0,0,1-.31.3Z"/><path class="cls-2" d="M55.8,50.19a.29.29,0,0,1-.22-.09.32.32,0,0,1-.09-.21.3.3,0,0,1,.52-.21.3.3,0,0,1,.08.21.31.31,0,0,1-.08.21A.27.27,0,0,1,55.8,50.19Z"/><path class="cls-2" d="M57,51.38a.28.28,0,0,1-.21-.08.33.33,0,0,1-.09-.22.35.35,0,0,1,.08-.21.32.32,0,0,1,.43,0,.29.29,0,0,1,.09.21.31.31,0,0,1-.09.22A.32.32,0,0,1,57,51.38Z"/><path class="cls-2" d="M58.2,52.6a.32.32,0,0,1-.21-.09.31.31,0,0,1-.09-.22.3.3,0,0,1,.09-.21.3.3,0,0,1,.51.21.3.3,0,0,1-.08.21A.32.32,0,0,1,58.2,52.6Z"/><path class="cls-2" d="M12.51.9A.31.31,0,0,1,12.3.81a.28.28,0,0,1-.09-.21A.34.34,0,0,1,12.3.38a.31.31,0,0,1,.42,0,.27.27,0,0,1,.09.21.34.34,0,0,1-.08.21A.36.36,0,0,1,12.51.9Z"/><path class="cls-2" d="M13.71,2.11A.29.29,0,0,1,13.5,2a.28.28,0,0,1-.09-.21.32.32,0,0,1,.1-.22.31.31,0,0,1,.42,0A.3.3,0,0,1,14,1.8a.32.32,0,0,1-.08.21A.31.31,0,0,1,13.71,2.11Z"/><path class="cls-2" d="M14.92,3.3a.31.31,0,0,1-.22-.09A.31.31,0,0,1,14.61,3a.33.33,0,0,1,.1-.22.31.31,0,0,1,.42,0,.32.32,0,0,1,.09.21.33.33,0,0,1-.09.21A.3.3,0,0,1,14.92,3.3Z"/><path class="cls-2" d="M16.12,4.51a.31.31,0,0,1-.22-.09.3.3,0,0,1-.08-.21A.27.27,0,0,1,15.91,4a.3.3,0,0,1,.42,0,.31.31,0,0,1,.09.21.36.36,0,0,1-.09.22A.33.33,0,0,1,16.12,4.51Z"/><path class="cls-2" d="M17.32,5.7a.3.3,0,0,1-.21-.51.31.31,0,0,1,.42,0,.27.27,0,0,1,.09.2.31.31,0,0,1-.09.22A.32.32,0,0,1,17.32,5.7Z"/><path class="cls-2" d="M18.52,6.91a.29.29,0,0,1-.21-.09.31.31,0,0,1-.09-.21.31.31,0,0,1,.09-.22.31.31,0,0,1,.42,0,.25.25,0,0,1,.09.21.29.29,0,0,1-.09.21A.28.28,0,0,1,18.52,6.91Z"/><path class="cls-2" d="M19.72,8.11A.27.27,0,0,1,19.51,8a.32.32,0,0,1-.09-.21.27.27,0,0,1,.09-.21.29.29,0,0,1,.42,0,.27.27,0,0,1,.09.21.31.31,0,0,1-.3.3Z"/><path class="cls-2" d="M20.93,9.31a.28.28,0,0,1-.22-.09A.3.3,0,0,1,20.63,9a.28.28,0,0,1,.09-.21.3.3,0,0,1,.42,0,.31.31,0,0,1,.09.21.28.28,0,0,1-.1.21A.24.24,0,0,1,20.93,9.31Z"/><path class="cls-2" d="M22.13,10.52a.3.3,0,0,1-.21-.08.31.31,0,0,1-.09-.22.27.27,0,0,1,.09-.21.3.3,0,0,1,.42,0,.27.27,0,0,1,.09.2.31.31,0,0,1-.09.22A.32.32,0,0,1,22.13,10.52Z"/><path class="cls-2" d="M23.33,11.72a.31.31,0,0,1-.21-.09.3.3,0,0,1-.09-.21.31.31,0,0,1,.09-.22.3.3,0,0,1,.42,0,.28.28,0,0,1,.09.21.29.29,0,0,1-.09.21A.33.33,0,0,1,23.33,11.72Z"/><path class="cls-2" d="M24.53,12.93a.28.28,0,0,1-.21-.1.24.24,0,0,1-.09-.2.32.32,0,0,1,.09-.22.32.32,0,0,1,.43,0,.3.3,0,0,1,0,.42A.31.31,0,0,1,24.53,12.93Z"/><path class="cls-2" d="M25.73,14.12a.28.28,0,0,1-.21-.09.31.31,0,0,1-.09-.21.3.3,0,0,1,.1-.22.31.31,0,0,1,.42,0,.3.3,0,0,1,.08.21.27.27,0,0,1-.09.21A.26.26,0,0,1,25.73,14.12Z"/><path class="cls-2" d="M26.94,15.32a.31.31,0,0,1-.22-.09.3.3,0,0,1-.08-.21.31.31,0,0,1,.09-.22.32.32,0,0,1,.42,0,.32.32,0,0,1,.09.21.29.29,0,0,1-.09.21A.31.31,0,0,1,26.94,15.32Z"/><path class="cls-2" d="M28.14,16.52a.31.31,0,0,1-.3-.3.27.27,0,0,1,.09-.21.31.31,0,0,1,.42,0,.3.3,0,0,1,.09.21.31.31,0,0,1-.09.22A.32.32,0,0,1,28.14,16.52Z"/><path class="cls-2" d="M29.34,17.73a.31.31,0,0,1-.21-.09.29.29,0,0,1-.09-.21.3.3,0,0,1,.09-.22.3.3,0,0,1,.51.22.3.3,0,0,1-.09.21A.31.31,0,0,1,29.34,17.73Z"/><path class="cls-2" d="M30.54,18.94a.27.27,0,0,1-.21-.09.29.29,0,0,1-.09-.21.27.27,0,0,1,.09-.21.3.3,0,0,1,.42,0,.31.31,0,0,1,.09.22.29.29,0,0,1-.09.21A.27.27,0,0,1,30.54,18.94Z"/><path class="cls-2" d="M31.74,20.13a.33.33,0,0,1-.3-.3.32.32,0,0,1,.09-.21.31.31,0,0,1,.42,0,.33.33,0,0,1,.09.22A.34.34,0,0,1,32,20,.31.31,0,0,1,31.74,20.13Z"/><path class="cls-2" d="M33,21.33a.29.29,0,0,1-.22-.09.32.32,0,0,1,0-.42.31.31,0,0,1,.42,0,.3.3,0,0,1,.1.22.31.31,0,0,1-.3.3Z"/><path class="cls-2" d="M34.15,22.53a.29.29,0,0,1-.22-.09.31.31,0,0,1-.08-.21.29.29,0,0,1,.09-.21.31.31,0,0,1,.42,0,.29.29,0,0,1,.09.21.28.28,0,0,1-.09.21A.27.27,0,0,1,34.15,22.53Z"/><path class="cls-2" d="M35.35,23.74a.29.29,0,0,1-.21-.09.29.29,0,0,1-.09-.21.3.3,0,0,1,.52-.21.29.29,0,0,1,.08.21.3.3,0,0,1-.09.21A.31.31,0,0,1,35.35,23.74Z"/><path class="cls-2" d="M36.55,24.94a.31.31,0,0,1-.3-.3.31.31,0,0,1,.09-.22.3.3,0,0,1,.42,0,.27.27,0,0,1,.09.21.29.29,0,0,1-.09.21A.31.31,0,0,1,36.55,24.94Z"/><path class="cls-2" d="M37.76,26.14a.28.28,0,0,1-.22-.09.31.31,0,0,1-.09-.21.33.33,0,0,1,.1-.22.31.31,0,0,1,.42,0,.31.31,0,0,1,0,.43A.26.26,0,0,1,37.76,26.14Z"/><path class="cls-2" d="M39,27.35a.33.33,0,0,1-.21-.08.29.29,0,0,1-.09-.22.32.32,0,0,1,.08-.21.31.31,0,0,1,.43,0,.33.33,0,0,1,.09.21.29.29,0,0,1-.09.21A.31.31,0,0,1,39,27.35Z"/><path class="cls-2" d="M40.16,28.54a.31.31,0,0,1-.22-.09.28.28,0,0,1-.08-.21A.27.27,0,0,1,40,28a.31.31,0,0,1,.42,0,.29.29,0,0,1,.09.21.29.29,0,0,1-.09.22A.3.3,0,0,1,40.16,28.54Z"/><path class="cls-2" d="M41.36,29.74a.32.32,0,0,1-.21-.08.27.27,0,0,1-.09-.21.28.28,0,0,1,.09-.22.32.32,0,0,1,.42,0,.31.31,0,0,1,.09.22.29.29,0,0,1-.3.29Z"/><path class="cls-2" d="M42.56,31a.29.29,0,0,1-.21-.09.3.3,0,0,1,0-.43.32.32,0,0,1,.43,0,.3.3,0,0,1,.08.21.32.32,0,0,1-.08.21A.31.31,0,0,1,42.56,31Z"/><path class="cls-2" d="M43.76,32.15a.32.32,0,0,1-.2-.08.3.3,0,0,1-.1-.22.31.31,0,0,1,.61,0,.28.28,0,0,1-.09.21A.31.31,0,0,1,43.76,32.15Z"/><path class="cls-2" d="M45,33.35a.32.32,0,0,1-.21-.08.31.31,0,0,1-.09-.22.27.27,0,0,1,.09-.21.31.31,0,0,1,.42,0,.28.28,0,0,1,.09.21.31.31,0,0,1-.3.3Z"/><path class="cls-2" d="M46.17,34.56a.29.29,0,0,1-.21-.09.3.3,0,1,1,.42-.43.3.3,0,0,1,.09.21.27.27,0,0,1-.09.21A.28.28,0,0,1,46.17,34.56Z"/><path class="cls-2" d="M47.37,35.77a.3.3,0,0,1-.21-.52.31.31,0,0,1,.42,0,.26.26,0,0,1,.09.21.29.29,0,0,1-.09.21A.32.32,0,0,1,47.37,35.77Z"/><path class="cls-2" d="M48.57,37a.31.31,0,0,1-.3-.3.27.27,0,0,1,.09-.21.3.3,0,0,1,.42,0,.27.27,0,0,1,.09.21.32.32,0,0,1-.08.21A.31.31,0,0,1,48.57,37Z"/><path class="cls-2" d="M49.78,38.16a.32.32,0,0,1-.21-.08.34.34,0,0,1-.1-.22.33.33,0,0,1,.09-.21.31.31,0,0,1,.43,0,.33.33,0,0,1,.09.22.29.29,0,0,1-.09.21A.31.31,0,0,1,49.78,38.16Z"/><path class="cls-2" d="M51,39.36a.32.32,0,0,1-.21-.08.33.33,0,0,1-.09-.22.29.29,0,0,1,.09-.21.31.31,0,0,1,.43,0,.28.28,0,0,1,.08.2.29.29,0,0,1-.09.21A.31.31,0,0,1,51,39.36Z"/><path class="cls-2" d="M52.18,40.56a.28.28,0,0,1-.21-.08.33.33,0,0,1-.09-.22.35.35,0,0,1,.08-.21.32.32,0,0,1,.43,0,.31.31,0,0,1,.09.21.32.32,0,0,1-.08.21A.33.33,0,0,1,52.18,40.56Z"/><path class="cls-2" d="M53.38,41.78a.31.31,0,0,1-.21-.09.29.29,0,0,1-.09-.21.3.3,0,0,1,.52-.21.3.3,0,0,1,.08.21.29.29,0,0,1-.09.21A.31.31,0,0,1,53.38,41.78Z"/><path class="cls-2" d="M54.58,43a.31.31,0,0,1-.3-.3.32.32,0,0,1,.09-.21.31.31,0,0,1,.43,0,.31.31,0,0,1,.08.21.27.27,0,0,1-.09.21A.29.29,0,0,1,54.58,43Z"/><path class="cls-2" d="M55.79,44.18a.33.33,0,0,1-.21-.08.31.31,0,0,1-.09-.22.3.3,0,0,1,.08-.21.3.3,0,1,1,.43.42A.31.31,0,0,1,55.79,44.18Z"/><path class="cls-2" d="M57,45.37a.32.32,0,0,1-.21-.08.33.33,0,0,1-.09-.22.34.34,0,0,1,.08-.21.31.31,0,0,1,.43,0,.29.29,0,0,1,.09.21.27.27,0,0,1-.09.21A.29.29,0,0,1,57,45.37Z"/><path class="cls-2" d="M58.19,46.57a.28.28,0,0,1-.21-.08.32.32,0,0,1-.09-.22.31.31,0,0,1,.09-.21.31.31,0,0,1,.43,0,.28.28,0,0,1,.08.2.31.31,0,0,1-.09.22A.31.31,0,0,1,58.19,46.57Z"/><path class="cls-2" d="M59.39,47.78a.29.29,0,0,1-.21-.09.31.31,0,0,1-.09-.21.27.27,0,0,1,.09-.21.3.3,0,0,1,.43,0,.29.29,0,0,1,.08.21.29.29,0,0,1-.09.21A.31.31,0,0,1,59.39,47.78Z"/><path class="cls-2" d="M60.59,49a.32.32,0,0,1-.2-.08.29.29,0,0,1,0-.43.31.31,0,0,1,.43,0,.29.29,0,0,1,.08.21.28.28,0,0,1-.09.21A.27.27,0,0,1,60.59,49Z"/><path class="cls-2" d="M61.8,50.19a.31.31,0,0,1-.31-.3.29.29,0,0,1,.09-.21.31.31,0,0,1,.43,0,.28.28,0,0,1,.09.21.29.29,0,0,1-.09.21A.31.31,0,0,1,61.8,50.19Z"/><path class="cls-2" d="M63,51.38a.27.27,0,0,1-.21-.09.27.27,0,0,1-.09-.21.29.29,0,0,1,.09-.21.31.31,0,0,1,.42,0,.29.29,0,0,1,.09.21.27.27,0,0,1-.09.21A.28.28,0,0,1,63,51.38Z"/><path class="cls-2" d="M64.2,52.58a.31.31,0,0,1-.21-.08.33.33,0,0,1-.09-.22.3.3,0,0,1,.09-.21.31.31,0,0,1,.43,0,.3.3,0,0,1,.08.2.32.32,0,0,1-.08.21A.31.31,0,0,1,64.2,52.58Z"/><path class="cls-2" d="M18.51.9A.28.28,0,0,1,18.3.8a.24.24,0,0,1-.09-.2A.3.3,0,0,1,18.3.38a.3.3,0,0,1,.42,0,.27.27,0,0,1,.09.21.27.27,0,0,1-.09.21A.31.31,0,0,1,18.51.9Z"/><path class="cls-2" d="M19.71,2.11A.27.27,0,0,1,19.5,2a.28.28,0,0,1-.09-.21.3.3,0,0,1,.51-.21A.27.27,0,0,1,20,1.8a.27.27,0,0,1-.09.21A.26.26,0,0,1,19.71,2.11Z"/><path class="cls-2" d="M20.92,3.3a.31.31,0,0,1-.22-.09A.28.28,0,0,1,20.61,3a.32.32,0,0,1,.09-.21.32.32,0,0,1,.43,0,.31.31,0,0,1,.08.21.29.29,0,0,1-.29.3Z"/><path class="cls-2" d="M22.12,4.51a.3.3,0,0,1-.22-.09.3.3,0,0,1-.08-.21A.27.27,0,0,1,21.91,4a.31.31,0,0,1,.42,0,.29.29,0,0,1,0,.42A.27.27,0,0,1,22.12,4.51Z"/><path class="cls-2" d="M23.32,5.7a.32.32,0,0,1-.21-.08A.31.31,0,0,1,23,5.4a.27.27,0,0,1,.09-.21.31.31,0,0,1,.42,0,.27.27,0,0,1,.09.2.31.31,0,0,1-.09.22A.32.32,0,0,1,23.32,5.7Z"/><path class="cls-2" d="M24.52,6.91a.32.32,0,0,1-.21-.09.27.27,0,0,1-.09-.21.3.3,0,0,1,.09-.22.3.3,0,0,1,.51.22.29.29,0,0,1-.09.21A.32.32,0,0,1,24.52,6.91Z"/><path class="cls-2" d="M25.72,8.11a.31.31,0,0,1-.3-.3.3.3,0,0,1,.1-.22.29.29,0,0,1,.41,0,.27.27,0,0,1,.09.21.29.29,0,0,1-.09.21A.27.27,0,0,1,25.72,8.11Z"/><path class="cls-2" d="M26.93,9.31a.29.29,0,0,1-.22-.09A.3.3,0,0,1,26.63,9a.31.31,0,0,1,.09-.22.32.32,0,0,1,.42,0,.31.31,0,0,1,.09.21.28.28,0,0,1-.09.21A.3.3,0,0,1,26.93,9.31Z"/><path class="cls-2" d="M28.13,10.52a.29.29,0,0,1-.22-.09.31.31,0,0,1-.08-.21.28.28,0,0,1,.09-.21.31.31,0,0,1,.42,0,.3.3,0,0,1,.09.21.29.29,0,0,1-.09.21A.27.27,0,0,1,28.13,10.52Z"/><path class="cls-2" d="M29.33,11.71a.28.28,0,0,1-.21-.08.28.28,0,0,1-.09-.21.28.28,0,0,1,.09-.22.32.32,0,0,1,.42,0,.31.31,0,0,1,.09.22.3.3,0,0,1-.08.2A.28.28,0,0,1,29.33,11.71Z"/><path class="cls-2" d="M30.53,12.93a.29.29,0,0,1-.21-.09.28.28,0,0,1-.09-.21.32.32,0,0,1,.09-.22.32.32,0,0,1,.43,0,.27.27,0,0,1,.08.21.29.29,0,0,1-.09.21A.31.31,0,0,1,30.53,12.93Z"/><path class="cls-2" d="M31.73,14.12a.27.27,0,0,1-.21-.09.31.31,0,0,1-.09-.21.3.3,0,0,1,.1-.22.31.31,0,0,1,.51.22.3.3,0,0,1-.1.21A.26.26,0,0,1,31.73,14.12Z"/><path class="cls-2" d="M32.94,15.32a.31.31,0,0,1-.22-.09.3.3,0,0,1-.08-.21.31.31,0,0,1,.09-.22.32.32,0,0,1,.42,0,.32.32,0,0,1,.09.21.31.31,0,0,1-.09.21A.29.29,0,0,1,32.94,15.32Z"/><path class="cls-2" d="M34.14,16.52a.31.31,0,0,1-.3-.3.27.27,0,0,1,.09-.21.31.31,0,0,1,.43,0,.28.28,0,0,1,.08.2.27.27,0,0,1-.09.21A.29.29,0,0,1,34.14,16.52Z"/><path class="cls-2" d="M35.34,17.73a.27.27,0,0,1-.21-.09.3.3,0,0,1-.09-.21.31.31,0,0,1,.09-.22.3.3,0,0,1,.51.22.26.26,0,0,1-.09.2A.28.28,0,0,1,35.34,17.73Z"/><path class="cls-2" d="M36.54,18.94a.32.32,0,0,1-.21-.08.35.35,0,0,1-.09-.22.27.27,0,0,1,.09-.21.31.31,0,0,1,.43,0,.3.3,0,0,1,.08.21.35.35,0,0,1-.08.21A.33.33,0,0,1,36.54,18.94Z"/><path class="cls-2" d="M37.74,20.13a.3.3,0,0,1-.21-.09.31.31,0,0,1-.09-.21.32.32,0,0,1,.09-.21.31.31,0,0,1,.43,0,.31.31,0,0,1,.08.21A.32.32,0,0,1,38,20,.31.31,0,0,1,37.74,20.13Z"/><path class="cls-2" d="M39,21.33a.29.29,0,0,1-.22-.09.32.32,0,0,1,0-.42.31.31,0,0,1,.43,0,.3.3,0,0,1-.21.51Z"/><path class="cls-2" d="M40.15,22.53a.29.29,0,0,1-.22-.09.29.29,0,0,1-.08-.21.27.27,0,0,1,.09-.21.31.31,0,0,1,.42,0,.27.27,0,0,1,.09.2.3.3,0,0,1-.1.22A.26.26,0,0,1,40.15,22.53Z"/><path class="cls-2" d="M41.35,23.74a.29.29,0,0,1-.21-.09.27.27,0,0,1-.09-.21.3.3,0,0,1,.52-.21.27.27,0,0,1,.08.21.29.29,0,0,1-.09.21A.31.31,0,0,1,41.35,23.74Z"/><path class="cls-2" d="M42.55,24.94a.31.31,0,0,1-.3-.3.31.31,0,0,1,.09-.22.32.32,0,0,1,.42,0,.32.32,0,0,1,.09.22.35.35,0,0,1-.08.21A.34.34,0,0,1,42.55,24.94Z"/><path class="cls-2" d="M43.76,26.14a.31.31,0,0,1-.31-.3.32.32,0,0,1,.09-.21.29.29,0,0,1,.51.21.3.3,0,0,1-.08.21A.3.3,0,0,1,43.76,26.14Z"/><path class="cls-2" d="M45,27.35a.3.3,0,0,1-.22-.09.29.29,0,0,1-.08-.21.27.27,0,0,1,.09-.21.31.31,0,0,1,.42,0,.27.27,0,0,1,.09.2.33.33,0,0,1-.1.22A.27.27,0,0,1,45,27.35Z"/><path class="cls-2" d="M46.16,28.54a.27.27,0,0,1-.21-.09.26.26,0,0,1-.09-.21A.27.27,0,0,1,46,28a.31.31,0,0,1,.42,0,.27.27,0,0,1,.09.2.31.31,0,0,1-.09.22A.3.3,0,0,1,46.16,28.54Z"/><path class="cls-2" d="M47.36,29.74a.32.32,0,0,1-.21-.08.31.31,0,0,1-.09-.22.3.3,0,0,1,.09-.21.3.3,0,0,1,.42,0,.27.27,0,0,1,.09.2.3.3,0,0,1-.08.21A.31.31,0,0,1,47.36,29.74Z"/><path class="cls-2" d="M48.56,31a.3.3,0,0,1-.21-.09.31.31,0,0,1-.09-.21.36.36,0,0,1,.09-.22.31.31,0,0,1,.43,0,.3.3,0,0,1,.08.21.35.35,0,0,1-.08.21A.33.33,0,0,1,48.56,31Z"/><path class="cls-2" d="M49.76,32.15a.29.29,0,0,1-.21-.09.31.31,0,0,1-.09-.21.31.31,0,0,1,.61,0,.31.31,0,0,1-.09.21A.31.31,0,0,1,49.76,32.15Z"/><path class="cls-2" d="M51,33.35a.29.29,0,0,1-.3-.3.27.27,0,0,1,.09-.21.31.31,0,0,1,.42,0,.3.3,0,0,1,.09.21.27.27,0,0,1-.09.21A.29.29,0,0,1,51,33.35Z"/><path class="cls-2" d="M52.17,34.56a.29.29,0,0,1-.21-.09.31.31,0,0,1-.09-.22.3.3,0,0,1,.08-.2.31.31,0,0,1,.43,0,.32.32,0,0,1,.09.21.32.32,0,0,1-.08.21A.31.31,0,0,1,52.17,34.56Z"/><path class="cls-2" d="M53.37,35.77a.29.29,0,0,1-.21-.09.3.3,0,0,1-.09-.21.31.31,0,0,1,.08-.21.31.31,0,0,1,.43,0,.33.33,0,0,1,.09.22.35.35,0,0,1-.08.21A.33.33,0,0,1,53.37,35.77Z"/><path class="cls-2" d="M54.57,37a.28.28,0,0,1-.21-.09.29.29,0,0,1,0-.42.31.31,0,0,1,.43,0,.31.31,0,0,1,.08.21.27.27,0,0,1-.09.21A.27.27,0,0,1,54.57,37Z"/><path class="cls-2" d="M55.78,38.16a.3.3,0,0,1-.22-.09.3.3,0,0,1,.43-.42.3.3,0,0,1-.21.51Z"/><path class="cls-2" d="M57,39.36a.32.32,0,0,1-.21-.08.33.33,0,0,1-.09-.22.34.34,0,0,1,.08-.21.31.31,0,0,1,.43,0,.31.31,0,0,1,.09.21.29.29,0,0,1-.09.21A.31.31,0,0,1,57,39.36Z"/><path class="cls-2" d="M58.18,40.56a.28.28,0,0,1-.21-.08.33.33,0,0,1-.09-.22.31.31,0,0,1,.09-.21.3.3,0,0,1,.42,0,.24.24,0,0,1,.09.2.31.31,0,0,1-.09.22A.3.3,0,0,1,58.18,40.56Z"/><path class="cls-2" d="M59.38,41.78a.27.27,0,0,1-.21-.09.31.31,0,0,1-.09-.21.27.27,0,0,1,.09-.21.3.3,0,0,1,.43,0,.3.3,0,0,1,.08.21.34.34,0,0,1-.08.21A.31.31,0,0,1,59.38,41.78Z"/><path class="cls-2" d="M60.58,43a.31.31,0,0,1-.3-.3.27.27,0,0,1,.09-.21.3.3,0,0,1,.43,0,.31.31,0,0,1,.08.21.32.32,0,0,1-.08.21A.31.31,0,0,1,60.58,43Z"/><path class="cls-2" d="M61.79,44.18a.31.31,0,1,1,.21-.09A.29.29,0,0,1,61.79,44.18Z"/><path class="cls-2" d="M63,45.37a.32.32,0,0,1-.21-.08.33.33,0,0,1-.09-.22.34.34,0,0,1,.08-.21.31.31,0,0,1,.43,0,.29.29,0,0,1,0,.42A.3.3,0,0,1,63,45.37Z"/><path class="cls-2" d="M64.19,46.57a.31.31,0,0,1-.22-.09.29.29,0,0,1-.08-.21.27.27,0,0,1,.09-.21.3.3,0,0,1,.42.43A.32.32,0,0,1,64.19,46.57Z"/><path class="cls-2" d="M65.39,47.78a.29.29,0,0,1-.21-.09.29.29,0,0,1-.09-.21.3.3,0,0,1,.51-.22.29.29,0,0,1,.09.22.27.27,0,0,1-.09.21A.29.29,0,0,1,65.39,47.78Z"/><path class="cls-2" d="M66.59,49a.27.27,0,0,1-.2-.09.28.28,0,0,1-.1-.21.32.32,0,0,1,.09-.21.31.31,0,0,1,.43,0,.3.3,0,0,1,.08.21.33.33,0,0,1-.08.21A.32.32,0,0,1,66.59,49Z"/><path class="cls-2" d="M67.8,50.19a.29.29,0,0,1-.3-.3.27.27,0,0,1,.09-.21.31.31,0,0,1,.42,0,.33.33,0,0,1,.09.21.29.29,0,0,1-.09.21A.32.32,0,0,1,67.8,50.19Z"/><path class="cls-2" d="M69,51.38a.3.3,0,0,1-.21-.08.3.3,0,0,1-.09-.21.31.31,0,0,1,.09-.22.31.31,0,0,1,.42,0,.27.27,0,0,1,.09.21.3.3,0,0,1-.09.21A.32.32,0,0,1,69,51.38Z"/><path class="cls-2" d="M70.2,52.6a.32.32,0,0,1-.21-.09.33.33,0,0,1-.09-.22.3.3,0,0,1,.09-.21.31.31,0,0,1,.43,0,.3.3,0,0,1,.08.2.31.31,0,0,1-.3.31Z"/><path class="cls-2" d="M71.36,53.79a.29.29,0,0,1-.22-.1.26.26,0,0,1-.08-.2.28.28,0,0,1,.09-.22.31.31,0,0,1,.51.22.34.34,0,0,1-.09.21A.29.29,0,0,1,71.36,53.79Z"/><path class="cls-2" d="M24.51.9A.28.28,0,0,1,24.3.8a.25.25,0,0,1-.09-.2A.31.31,0,0,1,24.3.38a.32.32,0,0,1,.43,0,.28.28,0,0,1,.08.21.27.27,0,0,1-.09.21A.31.31,0,0,1,24.51.9Z"/><path class="cls-2" d="M25.71,2.11A.27.27,0,0,1,25.5,2a.28.28,0,0,1-.09-.21.27.27,0,0,1,.09-.21.29.29,0,0,1,.42,0A.27.27,0,0,1,26,1.8a.27.27,0,0,1-.09.21A.26.26,0,0,1,25.71,2.11Z"/><path class="cls-2" d="M26.92,3.3a.28.28,0,0,1-.22-.09A.31.31,0,0,1,26.61,3a.32.32,0,0,1,.09-.21.31.31,0,0,1,.42,0,.3.3,0,0,1,.1.22.31.31,0,0,1-.09.21A.28.28,0,0,1,26.92,3.3Z"/><path class="cls-2" d="M28.12,4.51a.31.31,0,0,1-.22-.09.3.3,0,0,1-.08-.21A.27.27,0,0,1,27.91,4a.31.31,0,0,1,.42,0,.27.27,0,0,1,.09.2.27.27,0,0,1-.09.21A.29.29,0,0,1,28.12,4.51Z"/><path class="cls-2" d="M29.32,5.7a.3.3,0,0,1-.21-.08A.31.31,0,0,1,29,5.4a.27.27,0,0,1,.09-.21.32.32,0,0,1,.42,0,.31.31,0,0,1,.09.21.29.29,0,0,1-.3.3Z"/><path class="cls-2" d="M30.52,6.91a.28.28,0,0,1-.21-.1.24.24,0,0,1-.09-.2.34.34,0,0,1,.09-.22.32.32,0,0,1,.43,0,.3.3,0,0,1,0,.42A.32.32,0,0,1,30.52,6.91Z"/><path class="cls-2" d="M31.72,8.11A.31.31,0,0,1,31.51,8a.29.29,0,0,1-.09-.21.36.36,0,0,1,.09-.22.32.32,0,0,1,.42,0,.27.27,0,0,1,.09.21.35.35,0,0,1-.08.21A.33.33,0,0,1,31.72,8.11Z"/><path class="cls-2" d="M32.93,9.31a.32.32,0,0,1-.21-.08A.33.33,0,0,1,32.63,9a.31.31,0,0,1,.08-.21.32.32,0,0,1,.43,0,.31.31,0,0,1,.09.21.28.28,0,0,1-.09.21A.32.32,0,0,1,32.93,9.31Z"/><path class="cls-2" d="M34.13,10.52a.29.29,0,0,1-.22-.09.29.29,0,0,1-.08-.21.27.27,0,0,1,.09-.21.32.32,0,0,1,.42,0,.29.29,0,0,1,0,.43A.26.26,0,0,1,34.13,10.52Z"/><path class="cls-2" d="M35.33,11.72a.32.32,0,0,1-.22-.1.26.26,0,0,1-.08-.2.28.28,0,0,1,.09-.22.32.32,0,0,1,.42,0,.31.31,0,0,1,.09.22.27.27,0,0,1-.09.2A.3.3,0,0,1,35.33,11.72Z"/><path class="cls-2" d="M36.53,12.93a.31.31,0,0,1-.21-.09.28.28,0,0,1-.09-.21.31.31,0,0,1,.09-.22.32.32,0,0,1,.42,0,.33.33,0,0,1,.09.22.3.3,0,0,1-.08.2A.32.32,0,0,1,36.53,12.93Z"/><path class="cls-2" d="M37.73,14.12a.28.28,0,0,1-.21-.09.33.33,0,0,1-.09-.21.31.31,0,0,1,.51-.22.34.34,0,0,1,.1.22A.34.34,0,0,1,38,14,.31.31,0,0,1,37.73,14.12Z"/><path class="cls-2" d="M38.94,15.32a.3.3,0,0,1-.22-.09.32.32,0,0,1-.08-.21.33.33,0,0,1,.08-.21.31.31,0,0,1,.43,0,.29.29,0,0,1,.09.21.31.31,0,0,1-.3.3Z"/><path class="cls-2" d="M40.14,16.52a.32.32,0,0,1-.21-.08.31.31,0,0,1-.09-.22.29.29,0,0,1,.09-.21.3.3,0,0,1,.42,0,.3.3,0,0,1,.09.21.33.33,0,0,1-.08.21A.33.33,0,0,1,40.14,16.52Z"/><path class="cls-2" d="M41.34,17.73a.29.29,0,0,1-.21-.09.3.3,0,0,1-.09-.21.31.31,0,0,1,.08-.21.3.3,0,0,1,.52.21.33.33,0,0,1-.3.3Z"/><path class="cls-2" d="M42.54,18.94a.28.28,0,0,1-.21-.1.24.24,0,0,1-.09-.2.34.34,0,0,1,.09-.22.32.32,0,0,1,.43,0,.3.3,0,0,1,.08.21.28.28,0,0,1-.09.21A.32.32,0,0,1,42.54,18.94Z"/><path class="cls-2" d="M43.74,20.13a.31.31,0,0,1-.3-.3.27.27,0,0,1,.09-.21.3.3,0,0,1,.42,0,.33.33,0,0,1,.09.22A.34.34,0,0,1,44,20,.29.29,0,0,1,43.74,20.13Z"/><path class="cls-2" d="M45,21.33a.31.31,0,0,1-.22-.09.29.29,0,0,1,0-.42.31.31,0,0,1,.43,0,.33.33,0,0,1,.09.21.31.31,0,0,1-.3.3Z"/><path class="cls-2" d="M46.15,22.53a.32.32,0,0,1-.21-.08.33.33,0,0,1-.09-.22.34.34,0,0,1,.08-.21.32.32,0,0,1,.43,0,.3.3,0,0,1,.09.21.29.29,0,0,1-.09.21A.3.3,0,0,1,46.15,22.53Z"/><path class="cls-2" d="M47.35,23.73a.31.31,0,0,1-.21-.08.28.28,0,0,1-.09-.22.28.28,0,0,1,.09-.21.32.32,0,0,1,.43,0,.28.28,0,0,1,.08.2.29.29,0,0,1-.09.22A.3.3,0,0,1,47.35,23.73Z"/><path class="cls-2" d="M48.55,24.94a.31.31,0,0,1-.3-.3.27.27,0,0,1,.09-.21.29.29,0,0,1,.51.21.33.33,0,0,1-.08.21A.31.31,0,0,1,48.55,24.94Z"/><path class="cls-2" d="M49.75,26.14a.29.29,0,0,1-.2-.08.3.3,0,0,1-.1-.22.32.32,0,0,1,.09-.21.32.32,0,0,1,.43,0,.3.3,0,0,1,.08.21.32.32,0,0,1-.08.21A.32.32,0,0,1,49.75,26.14Z"/><path class="cls-2" d="M51,27.35a.31.31,0,0,1-.22-.09.31.31,0,0,1-.08-.21.3.3,0,0,1,.51-.21.3.3,0,0,1,.09.21.27.27,0,0,1-.09.21A.29.29,0,0,1,51,27.35Z"/><path class="cls-2" d="M52.16,28.54a.32.32,0,0,1-.21-.08.31.31,0,0,1-.09-.22A.29.29,0,0,1,52,28a.31.31,0,0,1,.42,0,.29.29,0,0,1,.09.21.31.31,0,0,1-.09.22A.32.32,0,0,1,52.16,28.54Z"/><path class="cls-2" d="M53.36,29.76a.29.29,0,0,1-.21-.09.32.32,0,0,1-.09-.21.3.3,0,0,1,.51-.22.28.28,0,0,1,.09.22.29.29,0,0,1-.09.21A.34.34,0,0,1,53.36,29.76Z"/><path class="cls-2" d="M54.56,31a.29.29,0,0,1-.21-.09.34.34,0,0,1-.09-.21.27.27,0,0,1,.09-.21.3.3,0,0,1,.42,0,.31.31,0,0,1,.09.22.29.29,0,0,1-.09.21A.32.32,0,0,1,54.56,31Z"/><path class="cls-2" d="M55.76,32.15a.29.29,0,0,1-.21-.09.31.31,0,0,1-.09-.21.31.31,0,0,1,.52-.21.32.32,0,0,1,0,.43A.31.31,0,0,1,55.76,32.15Z"/><path class="cls-2" d="M57,33.35a.29.29,0,0,1-.3-.3.32.32,0,0,1,.08-.21.31.31,0,0,1,.43,0,.26.26,0,0,1,.09.2.32.32,0,0,1-.1.22A.26.26,0,0,1,57,33.35Z"/><path class="cls-2" d="M58.17,34.55a.3.3,0,0,1-.21-.08A.3.3,0,0,1,58,34a.3.3,0,0,1,.42,0,.25.25,0,0,1,.09.2.29.29,0,0,1-.09.22A.32.32,0,0,1,58.17,34.55Z"/><path class="cls-2" d="M59.37,35.76a.31.31,0,0,1-.21-.08.3.3,0,0,1,.42-.43.3.3,0,0,1-.21.51Z"/><path class="cls-2" d="M60.57,37a.31.31,0,0,1-.3-.3.27.27,0,0,1,.09-.21.31.31,0,0,1,.43,0,.31.31,0,0,1,.08.21.32.32,0,0,1-.08.21A.31.31,0,0,1,60.57,37Z"/><path class="cls-2" d="M61.78,38.16a.32.32,0,0,1-.21-.08.34.34,0,0,1-.1-.22.33.33,0,0,1,.09-.21.3.3,0,0,1,.43,0,.29.29,0,0,1,0,.42A.31.31,0,0,1,61.78,38.16Z"/><path class="cls-2" d="M63,39.36a.31.31,0,0,1-.22-.09.31.31,0,0,1-.08-.21.27.27,0,0,1,.09-.21.31.31,0,0,1,.42,0,.27.27,0,0,1,.09.21.28.28,0,0,1-.09.21A.29.29,0,0,1,63,39.36Z"/><path class="cls-2" d="M64.18,40.56a.29.29,0,0,1-.3-.29.35.35,0,0,1,.08-.22.31.31,0,0,1,.52.22.29.29,0,0,1-.3.29Z"/><path class="cls-2" d="M65.38,41.78a.31.31,0,0,1-.21-.09.29.29,0,0,1-.09-.21.29.29,0,0,1,.09-.21.3.3,0,0,1,.42,0,.32.32,0,0,1,.09.22.29.29,0,0,1-.09.21A.31.31,0,0,1,65.38,41.78Z"/><path class="cls-2" d="M66.58,43a.28.28,0,0,1-.21-.09.31.31,0,0,1-.09-.21.27.27,0,0,1,.09-.21.31.31,0,0,1,.43,0,.31.31,0,0,1,.08.21.3.3,0,0,1-.08.21A.31.31,0,0,1,66.58,43Z"/><path class="cls-2" d="M67.79,44.18a.33.33,0,0,1-.21-.08.31.31,0,0,1-.1-.22.3.3,0,0,1,.52-.21.29.29,0,0,1,0,.42A.31.31,0,0,1,67.79,44.18Z"/><path class="cls-2" d="M69,45.37a.31.31,0,0,1-.22-.09.3.3,0,0,1-.08-.21.29.29,0,0,1,.51-.21.29.29,0,0,1,.09.21.27.27,0,0,1-.09.21A.29.29,0,0,1,69,45.37Z"/><path class="cls-2" d="M70.19,46.57a.3.3,0,0,1-.21-.08.31.31,0,0,1-.09-.22.29.29,0,0,1,.09-.21.32.32,0,0,1,.42,0,.29.29,0,0,1,.09.21.31.31,0,0,1-.09.22A.31.31,0,0,1,70.19,46.57Z"/><path class="cls-2" d="M71.39,47.78a.3.3,0,0,1-.21-.09.3.3,0,0,1,0-.43.31.31,0,0,1,.43,0,.3.3,0,0,1,.08.21.35.35,0,0,1-.08.21A.33.33,0,0,1,71.39,47.78Z"/><path class="cls-2" d="M30.51.9A.28.28,0,0,1,30.3.8a.25.25,0,0,1-.09-.2A.3.3,0,0,1,30.3.38a.31.31,0,0,1,.42,0,.33.33,0,0,1,.09.22.31.31,0,0,1-.08.2A.32.32,0,0,1,30.51.9Z"/><path class="cls-2" d="M31.71,2.11A.27.27,0,0,1,31.5,2a.29.29,0,0,1-.09-.21.27.27,0,0,1,.09-.21.31.31,0,0,1,.42,0A.33.33,0,0,1,32,1.8a.34.34,0,0,1-.08.21A.29.29,0,0,1,31.71,2.11Z"/><path class="cls-2" d="M32.91,3.3a.28.28,0,0,1-.21-.09A.31.31,0,0,1,32.61,3a.29.29,0,0,1,.1-.21.31.31,0,0,1,.42,0,.32.32,0,0,1,.09.21.31.31,0,0,1-.09.21A.31.31,0,0,1,32.91,3.3Z"/><path class="cls-2" d="M34.12,4.51a.3.3,0,0,1-.22-.09.28.28,0,0,1-.08-.21A.27.27,0,0,1,33.91,4a.29.29,0,0,1,.42,0,.27.27,0,0,1,.09.2.32.32,0,0,1-.1.22A.27.27,0,0,1,34.12,4.51Z"/><path class="cls-2" d="M35.32,5.7a.3.3,0,0,1-.21-.08A.29.29,0,0,1,35,5.4a.27.27,0,0,1,.09-.21.31.31,0,0,1,.42,0,.25.25,0,0,1,.09.2.31.31,0,0,1-.09.22A.32.32,0,0,1,35.32,5.7Z"/><path class="cls-2" d="M36.52,6.91a.32.32,0,0,1-.21-.09.29.29,0,0,1-.09-.21.27.27,0,0,1,.09-.21.3.3,0,0,1,.51.21.29.29,0,0,1-.09.21A.32.32,0,0,1,36.52,6.91Z"/><path class="cls-2" d="M37.72,8.11A.27.27,0,0,1,37.51,8a.32.32,0,0,1-.09-.21.33.33,0,0,1,.09-.22.32.32,0,0,1,.43,0,.28.28,0,0,1,.08.21.27.27,0,0,1-.09.21A.26.26,0,0,1,37.72,8.11Z"/><path class="cls-2" d="M38.93,9.31a.3.3,0,0,1-.31-.3.32.32,0,0,1,.09-.21.32.32,0,0,1,.43,0,.29.29,0,0,1,.09.21.28.28,0,0,1-.09.21A.32.32,0,0,1,38.93,9.31Z"/><path class="cls-2" d="M40.13,10.52a.3.3,0,0,1-.21-.08.31.31,0,0,1-.09-.22.28.28,0,0,1,.09-.21.31.31,0,0,1,.42,0,.28.28,0,0,1,.09.21.27.27,0,0,1-.09.21A.29.29,0,0,1,40.13,10.52Z"/><path class="cls-2" d="M41.33,11.71a.3.3,0,0,1-.21-.08.28.28,0,0,1-.09-.21.28.28,0,0,1,.09-.22.32.32,0,0,1,.42,0,.31.31,0,0,1,.09.22.3.3,0,0,1-.09.21A.3.3,0,0,1,41.33,11.71Z"/><path class="cls-2" d="M42.53,12.93a.33.33,0,0,1-.21-.09.27.27,0,0,1-.09-.21.28.28,0,0,1,.09-.22.32.32,0,0,1,.42,0,.31.31,0,0,1,.09.22.29.29,0,0,1-.09.21A.31.31,0,0,1,42.53,12.93Z"/><path class="cls-2" d="M43.73,14.12a.31.31,0,0,1-.21-.09.31.31,0,0,1-.09-.21.3.3,0,0,1,.1-.22.31.31,0,0,1,.42,0,.29.29,0,0,1,.08.21.27.27,0,0,1-.09.21A.3.3,0,0,1,43.73,14.12Z"/><path class="cls-2" d="M44.94,15.32a.32.32,0,0,1-.21-.08.31.31,0,0,1,0-.43.3.3,0,0,1,.43,0,.29.29,0,0,1,.09.21.29.29,0,0,1-.09.21A.31.31,0,0,1,44.94,15.32Z"/><path class="cls-2" d="M46.14,16.52a.31.31,0,0,1-.21-.08.33.33,0,0,1-.09-.22.34.34,0,0,1,.08-.21.31.31,0,0,1,.43,0,.28.28,0,0,1,.09.21.31.31,0,0,1-.3.3Z"/><path class="cls-2" d="M47.34,17.72a.3.3,0,0,1-.21-.08.27.27,0,0,1-.09-.21.28.28,0,0,1,.09-.22.31.31,0,0,1,.42,0,.28.28,0,0,1,.09.21.27.27,0,0,1-.09.21A.3.3,0,0,1,47.34,17.72Z"/><path class="cls-2" d="M48.54,18.94a.29.29,0,0,1-.21-.09.31.31,0,0,1-.09-.21.29.29,0,0,1,.09-.21.3.3,0,0,1,.43,0,.32.32,0,0,1,.08.21.35.35,0,0,1-.08.21A.33.33,0,0,1,48.54,18.94Z"/><path class="cls-2" d="M49.74,20.13a.34.34,0,0,1-.21-.08.32.32,0,0,1-.09-.22.29.29,0,0,1,.09-.21.31.31,0,0,1,.43,0,.33.33,0,0,1,.08.21.29.29,0,0,1-.3.3Z"/><path class="cls-2" d="M51,21.33a.31.31,0,0,1-.22-.09.29.29,0,0,1,0-.42.32.32,0,0,1,.43,0,.33.33,0,0,1,.09.21.31.31,0,0,1-.3.3Z"/><path class="cls-2" d="M52.15,22.53a.3.3,0,0,1-.21-.08.31.31,0,0,1-.09-.22.3.3,0,0,1,.51-.21.29.29,0,0,1,.09.21.28.28,0,0,1-.09.21A.29.29,0,0,1,52.15,22.53Z"/><path class="cls-2" d="M53.35,23.73a.3.3,0,0,1-.21-.51.31.31,0,0,1,.43,0,.3.3,0,0,1,0,.41A.31.31,0,0,1,53.35,23.73Z"/><path class="cls-2" d="M54.55,24.94a.29.29,0,0,1-.21-.09.31.31,0,0,1-.09-.21.27.27,0,0,1,.09-.21.31.31,0,0,1,.43,0,.28.28,0,0,1,.08.21.27.27,0,0,1-.09.21A.29.29,0,0,1,54.55,24.94Z"/><path class="cls-2" d="M55.76,26.14a.3.3,0,0,1-.21-.08.31.31,0,0,1-.1-.22.29.29,0,0,1,.09-.21.29.29,0,0,1,.51.21.3.3,0,0,1-.08.21A.3.3,0,0,1,55.76,26.14Z"/><path class="cls-2" d="M57,27.35a.31.31,0,0,1-.22-.09.31.31,0,0,1-.08-.21.3.3,0,0,1,.51-.21.31.31,0,0,1,.09.21.31.31,0,0,1-.1.22A.27.27,0,0,1,57,27.35Z"/><path class="cls-2" d="M58.16,28.54a.27.27,0,0,1-.21-.09A.29.29,0,0,1,58,28a.3.3,0,0,1,.42,0,.29.29,0,0,1,0,.42A.29.29,0,0,1,58.16,28.54Z"/><path class="cls-2" d="M59.36,29.74a.32.32,0,0,1-.21-.08.3.3,0,0,1-.09-.21.31.31,0,0,1,.09-.22.32.32,0,0,1,.42,0,.31.31,0,0,1,.09.22.3.3,0,0,1-.08.2A.31.31,0,0,1,59.36,29.74Z"/><path class="cls-2" d="M60.56,31a.3.3,0,0,1-.21-.09.31.31,0,0,1-.09-.21.29.29,0,0,1,.09-.21.3.3,0,0,1,.42,0,.33.33,0,0,1,.09.22.35.35,0,0,1-.08.21A.33.33,0,0,1,60.56,31Z"/><path class="cls-2" d="M61.76,32.15a.31.31,0,0,1-.3-.3.31.31,0,0,1,.61,0,.28.28,0,0,1-.09.21A.31.31,0,0,1,61.76,32.15Z"/><path class="cls-2" d="M63,33.35a.29.29,0,0,1-.3-.3.29.29,0,0,1,.51-.21.33.33,0,0,1,.09.21.31.31,0,0,1-.09.21A.29.29,0,0,1,63,33.35Z"/><path class="cls-2" d="M64.17,34.55a.3.3,0,0,1-.21-.08A.3.3,0,0,1,64,34a.3.3,0,0,1,.42,0,.27.27,0,0,1,.09.2.28.28,0,0,1-.1.22A.26.26,0,0,1,64.17,34.55Z"/><path class="cls-2" d="M65.37,35.77a.29.29,0,0,1-.21-.09.3.3,0,0,1,0-.43.31.31,0,0,1,.43,0,.3.3,0,0,1,0,.41A.3.3,0,0,1,65.37,35.77Z"/><path class="cls-2" d="M66.57,37a.31.31,0,0,1-.3-.3.27.27,0,0,1,.09-.21.32.32,0,0,1,.43,0,.31.31,0,0,1,.08.21.32.32,0,0,1-.08.21A.31.31,0,0,1,66.57,37Z"/><path class="cls-2" d="M67.78,38.16a.32.32,0,0,1-.21-.08.34.34,0,0,1-.1-.22.31.31,0,0,1,.61,0,.29.29,0,0,1-.09.21A.31.31,0,0,1,67.78,38.16Z"/><path class="cls-2" d="M69,39.36a.32.32,0,0,1-.21-.08.33.33,0,0,1-.09-.22.32.32,0,0,1,.08-.21.31.31,0,0,1,.43,0,.27.27,0,0,1,.09.2.28.28,0,0,1-.09.21A.29.29,0,0,1,69,39.36Z"/><path class="cls-2" d="M70.18,40.56a.29.29,0,0,1-.3-.29.3.3,0,1,1,.6,0,.27.27,0,0,1-.09.21A.3.3,0,0,1,70.18,40.56Z"/><path class="cls-2" d="M71.38,41.78a.28.28,0,0,1-.21-.1.24.24,0,0,1-.09-.2.31.31,0,0,1,.09-.22.32.32,0,0,1,.43,0,.3.3,0,0,1,.08.21.29.29,0,0,1-.09.21A.27.27,0,0,1,71.38,41.78Z"/><path class="cls-2" d="M36.51.9A.29.29,0,0,1,36.3.81a.28.28,0,0,1-.09-.21A.28.28,0,0,1,36.3.38a.32.32,0,0,1,.43,0,.31.31,0,0,1,.08.21.34.34,0,0,1-.08.21A.33.33,0,0,1,36.51.9Z"/><path class="cls-2" d="M37.71,2.11A.31.31,0,0,1,37.5,2a.29.29,0,0,1-.09-.21.27.27,0,0,1,.09-.21.31.31,0,0,1,.42,0,.32.32,0,0,1,0,.43A.33.33,0,0,1,37.71,2.11Z"/><path class="cls-2" d="M38.91,3.3a.29.29,0,0,1-.2-.08.32.32,0,0,1-.1-.22.33.33,0,0,1,.1-.22.32.32,0,0,1,.42,0,.32.32,0,0,1,.09.21.33.33,0,0,1-.09.21A.31.31,0,0,1,38.91,3.3Z"/><path class="cls-2" d="M40.12,4.51a.33.33,0,0,1-.21-.08.29.29,0,0,1-.09-.22A.25.25,0,0,1,39.9,4a.3.3,0,0,1,.43,0,.3.3,0,0,1,.09.21.29.29,0,0,1-.09.21A.31.31,0,0,1,40.12,4.51Z"/><path class="cls-2" d="M41.32,5.7a.32.32,0,0,1-.21-.08A.31.31,0,0,1,41,5.4a.34.34,0,0,1,.08-.21.32.32,0,0,1,.43,0,.31.31,0,0,1,.09.21.27.27,0,0,1-.09.21A.3.3,0,0,1,41.32,5.7Z"/><path class="cls-2" d="M42.52,6.91a.32.32,0,0,1-.21-.09.27.27,0,0,1-.09-.21.32.32,0,0,1,.09-.22.3.3,0,0,1,.42,0,.27.27,0,0,1,.09.21.34.34,0,0,1-.08.21A.36.36,0,0,1,42.52,6.91Z"/><path class="cls-2" d="M43.72,8.11a.31.31,0,0,1-.3-.3.27.27,0,0,1,.09-.21.29.29,0,0,1,.42,0,.27.27,0,0,1,.09.21.29.29,0,0,1-.09.21A.27.27,0,0,1,43.72,8.11Z"/><path class="cls-2" d="M44.93,9.31a.29.29,0,0,1-.22-.09A.29.29,0,0,1,44.62,9a.29.29,0,0,1,.09-.21.31.31,0,0,1,.43,0,.29.29,0,0,1,.09.21.31.31,0,0,1-.3.3Z"/><path class="cls-2" d="M46.13,10.52a.27.27,0,0,1-.21-.09.28.28,0,0,1-.09-.21.27.27,0,0,1,.09-.21.31.31,0,0,1,.42,0,.27.27,0,0,1,.09.2.32.32,0,0,1-.1.22A.26.26,0,0,1,46.13,10.52Z"/><path class="cls-2" d="M47.33,11.71a.29.29,0,0,1-.3-.29.31.31,0,0,1,.09-.22.32.32,0,0,1,.42,0,.31.31,0,0,1,.09.22.3.3,0,0,1-.09.21A.3.3,0,0,1,47.33,11.71Z"/><path class="cls-2" d="M48.53,12.93a.31.31,0,0,1-.21-.09.3.3,0,0,1-.09-.21.28.28,0,0,1,.09-.21.3.3,0,0,1,.42,0,.33.33,0,0,1,.09.22.34.34,0,0,1-.08.21A.33.33,0,0,1,48.53,12.93Z"/><path class="cls-2" d="M49.73,14.12a.31.31,0,0,1-.3-.3.31.31,0,0,1,.52-.21.3.3,0,0,1,.08.21A.32.32,0,0,1,50,14,.31.31,0,0,1,49.73,14.12Z"/><path class="cls-2" d="M50.94,15.32a.3.3,0,0,1-.22-.09.32.32,0,0,1-.08-.21.31.31,0,0,1,.08-.21.31.31,0,0,1,.43,0,.32.32,0,0,1,.09.21.31.31,0,0,1-.3.3Z"/><path class="cls-2" d="M52.14,16.52a.32.32,0,0,1-.21-.08.33.33,0,0,1-.09-.22.34.34,0,0,1,.08-.21.32.32,0,0,1,.43,0,.3.3,0,0,1,.09.21.33.33,0,0,1-.08.21A.33.33,0,0,1,52.14,16.52Z"/><path class="cls-2" d="M53.34,17.72a.3.3,0,0,1-.21-.08.29.29,0,0,1-.09-.21.3.3,0,0,1,.52-.21.3.3,0,0,1,.08.21.28.28,0,0,1-.09.21A.3.3,0,0,1,53.34,17.72Z"/><path class="cls-2" d="M54.54,18.94a.29.29,0,0,1-.21-.09.33.33,0,0,1-.09-.21.32.32,0,0,1,.08-.21.3.3,0,0,1,.43,0,.27.27,0,0,1,.09.21.29.29,0,0,1-.09.21A.27.27,0,0,1,54.54,18.94Z"/><path class="cls-2" d="M55.74,20.13a.31.31,0,0,1-.3-.3.27.27,0,0,1,.09-.21.31.31,0,0,1,.43,0,.31.31,0,0,1,.08.21A.32.32,0,0,1,56,20,.31.31,0,0,1,55.74,20.13Z"/><path class="cls-2" d="M57,21.33a.33.33,0,0,1-.21-.08.34.34,0,0,1-.1-.22.33.33,0,0,1,.09-.21.32.32,0,0,1,.43,0,.33.33,0,0,1,.09.21.29.29,0,0,1-.09.21A.31.31,0,0,1,57,21.33Z"/><path class="cls-2" d="M58.15,22.53a.29.29,0,0,1-.3-.3.3.3,0,0,1,.51-.21.3.3,0,0,1,.09.21.28.28,0,0,1-.09.21A.29.29,0,0,1,58.15,22.53Z"/><path class="cls-2" d="M59.35,23.74a.29.29,0,0,1-.21-.09.3.3,0,0,1-.09-.21.27.27,0,0,1,.09-.21.3.3,0,0,1,.42,0,.31.31,0,0,1,.09.22.29.29,0,0,1-.09.21A.31.31,0,0,1,59.35,23.74Z"/><path class="cls-2" d="M60.55,24.94a.29.29,0,0,1-.21-.09.34.34,0,0,1-.09-.21.36.36,0,0,1,.09-.22.32.32,0,0,1,.43,0,.28.28,0,0,1,.08.21.27.27,0,0,1-.09.21A.29.29,0,0,1,60.55,24.94Z"/><path class="cls-2" d="M61.75,26.14a.29.29,0,0,1-.2-.08.3.3,0,0,1-.1-.22.29.29,0,0,1,.09-.21.31.31,0,0,1,.43,0,.32.32,0,0,1,.08.21.32.32,0,0,1-.08.21A.32.32,0,0,1,61.75,26.14Z"/><path class="cls-2" d="M63,27.35a.31.31,0,0,1-.22-.09.31.31,0,0,1-.08-.21.32.32,0,0,1,.08-.21.31.31,0,0,1,.43,0,.28.28,0,0,1,.09.2.27.27,0,0,1-.09.21A.29.29,0,0,1,63,27.35Z"/><path class="cls-2" d="M64.16,28.54a.31.31,0,0,1-.3-.3A.29.29,0,0,1,64,28a.31.31,0,0,1,.42,0,.29.29,0,0,1,.09.21.27.27,0,0,1-.09.21A.29.29,0,0,1,64.16,28.54Z"/><path class="cls-2" d="M65.36,29.76a.29.29,0,0,1-.21-.09.31.31,0,0,1-.09-.22.3.3,0,0,1,.09-.21.3.3,0,0,1,.51.21.32.32,0,0,1-.08.21A.3.3,0,0,1,65.36,29.76Z"/><path class="cls-2" d="M66.56,31a.3.3,0,0,1-.21-.51.3.3,0,0,1,.51.21.27.27,0,0,1-.09.21A.3.3,0,0,1,66.56,31Z"/><path class="cls-2" d="M67.76,32.15a.27.27,0,0,1-.21-.09.3.3,0,0,1-.08-.21.31.31,0,0,1,.09-.22.32.32,0,0,1,.42,0,.32.32,0,0,1,.09.21.33.33,0,0,1-.09.21A.3.3,0,0,1,67.76,32.15Z"/><path class="cls-2" d="M69,33.35a.32.32,0,0,1-.21-.08.33.33,0,0,1-.09-.22.34.34,0,0,1,.08-.21.31.31,0,0,1,.43,0,.28.28,0,0,1,.09.21.27.27,0,0,1-.09.21A.29.29,0,0,1,69,33.35Z"/><path class="cls-2" d="M70.17,34.55a.29.29,0,0,1-.22-.09.28.28,0,0,1-.08-.21A.29.29,0,0,1,70,34a.31.31,0,0,1,.42,0,.3.3,0,0,1,0,.43A.32.32,0,0,1,70.17,34.55Z"/><path class="cls-2" d="M71.37,35.76a.31.31,0,0,1-.21-.08.3.3,0,0,1-.09-.21.31.31,0,0,1,.08-.21.31.31,0,0,1,.43,0,.33.33,0,0,1,.09.22.29.29,0,0,1-.3.29Z"/><path class="cls-2" d="M42.51.9A.29.29,0,0,1,42.3.81a.3.3,0,0,1-.09-.21A.29.29,0,0,1,42.3.39a.3.3,0,0,1,.42,0,.33.33,0,0,1,.09.22.34.34,0,0,1-.08.21A.36.36,0,0,1,42.51.9Z"/><path class="cls-2" d="M43.71,2.11A.29.29,0,0,1,43.5,2a.28.28,0,0,1-.09-.21.36.36,0,0,1,.09-.22.32.32,0,0,1,.43,0A.3.3,0,0,1,44,1.8a.32.32,0,0,1-.08.21A.31.31,0,0,1,43.71,2.11Z"/><path class="cls-2" d="M44.91,3.3a.31.31,0,0,1-.3-.3.29.29,0,0,1,.09-.21.31.31,0,0,1,.43,0,.34.34,0,0,1,.09.21.33.33,0,0,1-.09.21A.32.32,0,0,1,44.91,3.3Z"/><path class="cls-2" d="M46.12,4.51a.31.31,0,0,1-.22-.09.3.3,0,0,1-.08-.21A.3.3,0,0,1,46.33,4a.29.29,0,0,1,.09.21.31.31,0,0,1-.09.21A.29.29,0,0,1,46.12,4.51Z"/><path class="cls-2" d="M47.32,5.7a.3.3,0,0,1-.21-.08A.29.29,0,0,1,47,5.4a.27.27,0,0,1,.09-.21.32.32,0,0,1,.42,0,.31.31,0,0,1,.09.21.27.27,0,0,1-.09.21A.29.29,0,0,1,47.32,5.7Z"/><path class="cls-2" d="M48.52,6.91a.29.29,0,0,1-.21-.09.29.29,0,0,1-.09-.21.3.3,0,0,1,.51-.22.28.28,0,0,1,.09.22.29.29,0,0,1-.09.21A.28.28,0,0,1,48.52,6.91Z"/><path class="cls-2" d="M49.72,8.11a.31.31,0,0,1-.3-.3.29.29,0,0,1,.09-.21.3.3,0,0,1,.43,0,.32.32,0,0,1,.08.21.35.35,0,0,1-.08.21A.33.33,0,0,1,49.72,8.11Z"/><path class="cls-2" d="M50.93,9.31a.32.32,0,0,1-.21-.08.3.3,0,0,1-.1-.22.29.29,0,0,1,.09-.21.3.3,0,0,1,.43,0,.29.29,0,0,1,.09.21.28.28,0,0,1-.09.21A.3.3,0,0,1,50.93,9.31Z"/><path class="cls-2" d="M52.13,10.52a.32.32,0,0,1-.21-.08.33.33,0,0,1-.09-.22.34.34,0,0,1,.08-.21.31.31,0,0,1,.43,0,.27.27,0,0,1,.09.2.27.27,0,0,1-.09.21A.29.29,0,0,1,52.13,10.52Z"/><path class="cls-2" d="M53.33,11.71a.3.3,0,0,1-.21-.08.33.33,0,0,1-.09-.22.3.3,0,0,1,.09-.21.31.31,0,0,1,.43,0,.28.28,0,0,1,.08.2.31.31,0,0,1-.09.22A.3.3,0,0,1,53.33,11.71Z"/><path class="cls-2" d="M54.53,12.93a.31.31,0,0,1-.21-.09.3.3,0,0,1-.09-.21.28.28,0,0,1,.09-.21.3.3,0,0,1,.43,0,.32.32,0,0,1,.08.21.34.34,0,0,1-.08.21A.33.33,0,0,1,54.53,12.93Z"/><path class="cls-2" d="M55.73,14.12a.3.3,0,0,1-.21-.09.31.31,0,0,1-.09-.21.29.29,0,0,1,.09-.21.3.3,0,0,1,.42,0,.29.29,0,0,1,.09.22A.26.26,0,0,1,56,14,.28.28,0,0,1,55.73,14.12Z"/><path class="cls-2" d="M56.94,15.32a.29.29,0,0,1-.3-.3.31.31,0,0,1,.08-.21.31.31,0,0,1,.43,0,.32.32,0,0,1,.09.21.29.29,0,0,1-.09.21A.31.31,0,0,1,56.94,15.32Z"/><path class="cls-2" d="M58.14,16.52a.32.32,0,0,1-.21-.08.33.33,0,0,1-.09-.22.29.29,0,0,1,.09-.21.31.31,0,0,1,.42,0,.3.3,0,0,1,.09.21.27.27,0,0,1-.09.21A.29.29,0,0,1,58.14,16.52Z"/><path class="cls-2" d="M59.34,17.73a.31.31,0,0,1-.21-.09.29.29,0,0,1-.09-.22.31.31,0,0,1,.09-.21.3.3,0,0,1,.42,0,.27.27,0,0,1,.09.2.29.29,0,0,1-.09.22A.31.31,0,0,1,59.34,17.73Z"/><path class="cls-2" d="M60.54,18.94a.29.29,0,0,1-.21-.09.29.29,0,0,1-.09-.21.27.27,0,0,1,.09-.21.31.31,0,0,1,.43,0,.3.3,0,0,1,.08.21.29.29,0,0,1-.09.21A.27.27,0,0,1,60.54,18.94Z"/><path class="cls-2" d="M61.74,20.13a.34.34,0,0,1-.21-.08.32.32,0,0,1-.09-.22.29.29,0,0,1,.09-.21.31.31,0,0,1,.43,0,.33.33,0,0,1,.08.21.29.29,0,0,1-.3.3Z"/><path class="cls-2" d="M63,21.33a.31.31,0,0,1-.22-.09.3.3,0,0,1-.08-.21.27.27,0,0,1,.09-.21.3.3,0,0,1,.42,0,.33.33,0,0,1,.09.21.29.29,0,0,1-.09.21A.33.33,0,0,1,63,21.33Z"/><path class="cls-2" d="M64.15,22.53a.32.32,0,0,1-.21-.08.33.33,0,0,1-.09-.22.3.3,0,0,1,.52-.2.28.28,0,0,1,.08.2.29.29,0,0,1-.09.21A.3.3,0,0,1,64.15,22.53Z"/><path class="cls-2" d="M65.35,23.73a.33.33,0,0,1-.21-.08.29.29,0,0,1-.09-.21.3.3,0,0,1,.52-.21.3.3,0,0,1,0,.42A.3.3,0,0,1,65.35,23.73Z"/><path class="cls-2" d="M66.55,24.94a.35.35,0,0,1-.21-.08.35.35,0,0,1-.09-.22.29.29,0,0,1,.09-.21.3.3,0,0,1,.42,0,.32.32,0,0,1,.09.22.35.35,0,0,1-.08.21A.33.33,0,0,1,66.55,24.94Z"/><path class="cls-2" d="M67.75,26.14a.27.27,0,0,1-.21-.09.31.31,0,0,1-.09-.21.33.33,0,0,1,.1-.22.31.31,0,0,1,.42,0,.3.3,0,0,1,.08.21.32.32,0,0,1-.08.21A.29.29,0,0,1,67.75,26.14Z"/><path class="cls-2" d="M69,27.35a.33.33,0,0,1-.21-.08.33.33,0,0,1-.09-.22.3.3,0,0,1,.51-.21.31.31,0,0,1,.09.21.32.32,0,0,1-.09.21A.31.31,0,0,1,69,27.35Z"/><path class="cls-2" d="M70.16,28.54a.32.32,0,0,1-.21-.08.33.33,0,0,1-.09-.22.3.3,0,0,1,.08-.2.3.3,0,0,1,.43,0,.31.31,0,0,1,.09.21.29.29,0,0,1-.09.21A.3.3,0,0,1,70.16,28.54Z"/><path class="cls-2" d="M71.36,29.76a.33.33,0,0,1-.21-.09.29.29,0,0,1-.09-.22.29.29,0,0,1,.09-.21.3.3,0,0,1,.51.21.31.31,0,0,1-.3.31Z"/><path class="cls-2" d="M48.51.9A.29.29,0,0,1,48.3.81a.28.28,0,0,1-.09-.21A.31.31,0,0,1,48.3.38a.32.32,0,0,1,.42,0,.31.31,0,0,1,.09.22.28.28,0,0,1-.09.21A.31.31,0,0,1,48.51.9Z"/><path class="cls-2" d="M49.71,2.11A.29.29,0,0,1,49.5,2a.29.29,0,0,1-.09-.21.27.27,0,0,1,.09-.21.31.31,0,0,1,.43,0A.3.3,0,0,1,50,1.8a.32.32,0,0,1-.08.21A.31.31,0,0,1,49.71,2.11Z"/><path class="cls-2" d="M50.91,3.3a.31.31,0,0,1-.3-.3.34.34,0,0,1,.09-.21.31.31,0,0,1,.43,0,.34.34,0,0,1,.09.21.33.33,0,0,1-.09.21A.31.31,0,0,1,50.91,3.3Z"/><path class="cls-2" d="M52.12,4.51a.35.35,0,0,1-.22-.08.37.37,0,0,1-.08-.22A.3.3,0,0,1,52.33,4a.3.3,0,0,1-.21.51Z"/><path class="cls-2" d="M53.32,5.7a.32.32,0,0,1-.21-.08A.31.31,0,0,1,53,5.4a.3.3,0,0,1,.09-.21.3.3,0,0,1,.51.21.27.27,0,0,1-.09.21A.3.3,0,0,1,53.32,5.7Z"/><path class="cls-2" d="M54.52,6.91a.29.29,0,0,1-.21-.09.31.31,0,0,1-.09-.21.27.27,0,0,1,.09-.21.29.29,0,0,1,.42,0,.27.27,0,0,1,.09.21.34.34,0,0,1-.08.21A.33.33,0,0,1,54.52,6.91Z"/><path class="cls-2" d="M55.72,8.11a.31.31,0,0,1-.3-.3.27.27,0,0,1,.09-.21.31.31,0,0,1,.43,0,.3.3,0,0,1,.08.21.31.31,0,0,1-.3.3Z"/><path class="cls-2" d="M56.93,9.31a.32.32,0,0,1-.21-.08.3.3,0,0,1-.1-.22.34.34,0,0,1,.09-.21.31.31,0,0,1,.43,0,.29.29,0,0,1,.09.21.31.31,0,0,1-.3.3Z"/><path class="cls-2" d="M58.13,10.52a.32.32,0,0,1-.21-.08.33.33,0,0,1-.09-.22.27.27,0,0,1,.09-.21.3.3,0,0,1,.51.21.29.29,0,0,1-.09.21A.31.31,0,0,1,58.13,10.52Z"/><path class="cls-2" d="M59.33,11.71a.28.28,0,0,1-.21-.08.3.3,0,0,1,0-.43.31.31,0,0,1,.43,0,.3.3,0,0,1,0,.41A.3.3,0,0,1,59.33,11.71Z"/><path class="cls-2" d="M60.53,12.93a.33.33,0,0,1-.21-.09.3.3,0,0,1-.09-.21.31.31,0,0,1,.09-.22.31.31,0,0,1,.43,0,.3.3,0,0,1,.08.21.3.3,0,0,1-.08.2A.32.32,0,0,1,60.53,12.93Z"/><path class="cls-2" d="M61.73,14.12a.3.3,0,0,1-.21-.09.31.31,0,0,1-.09-.21.32.32,0,0,1,.08-.21.31.31,0,0,1,.44,0,.32.32,0,0,1,.08.21A.35.35,0,0,1,62,14,.33.33,0,0,1,61.73,14.12Z"/><path class="cls-2" d="M62.94,15.32a.31.31,0,0,1-.22-.09.3.3,0,0,1-.08-.21.31.31,0,0,1,.08-.21.31.31,0,0,1,.43,0,.32.32,0,0,1,.09.21.31.31,0,0,1-.09.21A.29.29,0,0,1,62.94,15.32Z"/><path class="cls-2" d="M64.14,16.52a.31.31,0,0,1-.3-.3.29.29,0,0,1,.09-.21.31.31,0,0,1,.42,0,.3.3,0,0,1,.09.21.31.31,0,0,1-.3.3Z"/><path class="cls-2" d="M65.34,17.73a.29.29,0,0,1-.21-.09.3.3,0,0,1-.09-.21.31.31,0,0,1,.08-.21.3.3,0,0,1,.52.21.28.28,0,0,1-.09.21A.33.33,0,0,1,65.34,17.73Z"/><path class="cls-2" d="M66.54,18.94a.29.29,0,0,1-.21-.09.29.29,0,0,1-.09-.21.27.27,0,0,1,.09-.21.29.29,0,0,1,.42,0,.27.27,0,0,1,.09.21.29.29,0,0,1-.09.21A.27.27,0,0,1,66.54,18.94Z"/><path class="cls-2" d="M67.74,20.13a.28.28,0,0,1-.21-.1.27.27,0,0,1-.09-.2.32.32,0,0,1,.1-.22.29.29,0,0,1,.5.22A.32.32,0,0,1,68,20,.31.31,0,0,1,67.74,20.13Z"/><path class="cls-2" d="M69,21.33a.33.33,0,0,1-.21-.08.34.34,0,0,1-.1-.22.33.33,0,0,1,.09-.21.32.32,0,0,1,.43,0,.29.29,0,0,1,0,.42A.31.31,0,0,1,69,21.33Z"/><path class="cls-2" d="M70.15,22.53a.29.29,0,0,1-.3-.3.3.3,0,0,1,.51-.21.29.29,0,0,1,.09.21.28.28,0,0,1-.09.21A.29.29,0,0,1,70.15,22.53Z"/><path class="cls-2" d="M71.35,23.73a.31.31,0,0,1-.21-.08.29.29,0,0,1-.09-.21.27.27,0,0,1,.09-.21.3.3,0,1,1,.21.5Z"/><path class="cls-2" d="M54.51.9A.29.29,0,0,1,54.3.81a.32.32,0,0,1-.09-.21.33.33,0,0,1,.08-.21.31.31,0,0,1,.43,0,.31.31,0,0,1,.09.22.28.28,0,0,1-.09.21A.27.27,0,0,1,54.51.9Z"/><path class="cls-2" d="M55.71,2.11A.29.29,0,0,1,55.5,2a.29.29,0,0,1-.09-.21.27.27,0,0,1,.09-.21.31.31,0,0,1,.43,0A.3.3,0,0,1,56,1.8a.32.32,0,0,1-.08.21A.31.31,0,0,1,55.71,2.11Z"/><path class="cls-2" d="M56.91,3.3a.31.31,0,0,1-.3-.3.32.32,0,0,1,.09-.21.31.31,0,0,1,.43,0,.31.31,0,0,1,.08.21.29.29,0,0,1-.3.3Z"/><path class="cls-2" d="M58.12,4.51a.31.31,0,0,1-.22-.09.3.3,0,0,1-.08-.21A.3.3,0,0,1,58.33,4a.29.29,0,0,1,.09.21.27.27,0,0,1-.09.21A.29.29,0,0,1,58.12,4.51Z"/><path class="cls-2" d="M59.32,5.7a.3.3,0,0,1-.21-.08A.31.31,0,0,1,59,5.4a.29.29,0,0,1,.09-.21.32.32,0,0,1,.42,0,.31.31,0,0,1,.09.21.27.27,0,0,1-.09.21A.27.27,0,0,1,59.32,5.7Z"/><path class="cls-2" d="M60.52,6.91a.32.32,0,0,1-.21-.09.29.29,0,0,1-.09-.21.3.3,0,0,1,.52-.21.3.3,0,0,1,.08.21.29.29,0,0,1-.09.21A.32.32,0,0,1,60.52,6.91Z"/><path class="cls-2" d="M61.72,8.11a.31.31,0,0,1-.3-.3.31.31,0,0,1,.52-.21.3.3,0,0,1,.08.21.33.33,0,0,1-.08.21A.31.31,0,0,1,61.72,8.11Z"/><path class="cls-2" d="M62.93,9.31a.29.29,0,0,1-.22-.09A.31.31,0,0,1,62.62,9a.32.32,0,0,1,.09-.21.32.32,0,0,1,.43,0,.31.31,0,0,1,.09.21.3.3,0,0,1-.09.21A.28.28,0,0,1,62.93,9.31Z"/><path class="cls-2" d="M64.13,10.52a.32.32,0,0,1-.21-.08.33.33,0,0,1-.09-.22.28.28,0,0,1,.09-.21.29.29,0,0,1,.42,0,.27.27,0,0,1,.09.2.36.36,0,0,1-.09.22A.32.32,0,0,1,64.13,10.52Z"/><path class="cls-2" d="M65.33,11.71a.28.28,0,0,1-.21-.08.3.3,0,0,1,0-.43.31.31,0,0,1,.43,0,.3.3,0,0,1,0,.41A.28.28,0,0,1,65.33,11.71Z"/><path class="cls-2" d="M66.53,12.93a.33.33,0,0,1-.21-.09.3.3,0,0,1-.09-.21.31.31,0,0,1,.09-.22.31.31,0,0,1,.43,0,.3.3,0,0,1,0,.42A.31.31,0,0,1,66.53,12.93Z"/><path class="cls-2" d="M67.73,14.12a.31.31,0,0,1-.3-.3.31.31,0,0,1,.52-.21.3.3,0,0,1,.08.21A.32.32,0,0,1,68,14,.31.31,0,0,1,67.73,14.12Z"/><path class="cls-2" d="M68.94,15.32a.29.29,0,0,1-.3-.3.31.31,0,0,1,.08-.21.31.31,0,0,1,.43,0,.32.32,0,0,1,.09.21.29.29,0,0,1-.09.21A.31.31,0,0,1,68.94,15.32Z"/><path class="cls-2" d="M70.14,16.52a.32.32,0,0,1-.21-.08.33.33,0,0,1-.09-.22.34.34,0,0,1,.08-.21.32.32,0,0,1,.43,0,.34.34,0,0,1,.09.22.29.29,0,0,1-.09.21A.3.3,0,0,1,70.14,16.52Z"/><path class="cls-2" d="M71.34,17.72a.3.3,0,0,1-.21-.08.3.3,0,0,1-.09-.21.31.31,0,0,1,.09-.22.31.31,0,0,1,.42,0,.32.32,0,0,1,.09.22.27.27,0,0,1-.09.21A.3.3,0,0,1,71.34,17.72Z"/><path class="cls-2" d="M60.51.9A.29.29,0,0,1,60.3.81a.3.3,0,0,1-.09-.21A.28.28,0,0,1,60.3.39a.3.3,0,0,1,.43,0,.29.29,0,0,1,.08.21.28.28,0,0,1-.09.21A.31.31,0,0,1,60.51.9Z"/><path class="cls-2" d="M61.71,2.11A.31.31,0,0,1,61.5,2a.31.31,0,0,1-.09-.21.27.27,0,0,1,.09-.21.31.31,0,0,1,.43,0A.3.3,0,0,1,62,1.8a.34.34,0,0,1-.08.21A.33.33,0,0,1,61.71,2.11Z"/><path class="cls-2" d="M62.91,3.3a.28.28,0,0,1-.21-.09A.27.27,0,0,1,62.61,3a.32.32,0,0,1,.09-.21.32.32,0,0,1,.43,0,.32.32,0,0,1,.09.21.31.31,0,0,1-.09.21A.31.31,0,0,1,62.91,3.3Z"/><path class="cls-2" d="M64.12,4.51a.29.29,0,0,1-.3-.3A.34.34,0,0,1,63.9,4a.31.31,0,0,1,.43,0,.29.29,0,0,1,.09.21.27.27,0,0,1-.09.21A.31.31,0,0,1,64.12,4.51Z"/><path class="cls-2" d="M65.32,5.7a.3.3,0,0,1-.21-.08A.31.31,0,0,1,65,5.4a.3.3,0,0,1,.09-.21.31.31,0,0,1,.43,0,.3.3,0,0,1,.08.2.31.31,0,0,1-.09.22A.32.32,0,0,1,65.32,5.7Z"/><path class="cls-2" d="M66.52,6.91a.32.32,0,0,1-.21-.09.31.31,0,0,1-.09-.21.32.32,0,0,1,.08-.21.31.31,0,0,1,.43,0,.33.33,0,0,1,.09.22.31.31,0,0,1-.09.21A.32.32,0,0,1,66.52,6.91Z"/><path class="cls-2" d="M67.72,8.11A.35.35,0,0,1,67.51,8a.35.35,0,0,1-.09-.22.27.27,0,0,1,.09-.21.31.31,0,0,1,.43,0,.3.3,0,0,1,.08.21.35.35,0,0,1-.08.21A.33.33,0,0,1,67.72,8.11Z"/><path class="cls-2" d="M68.93,9.31a.3.3,0,0,1-.21-.08.3.3,0,0,1-.1-.22.32.32,0,0,1,.09-.21.31.31,0,0,1,.43,0,.33.33,0,0,1,.09.21.31.31,0,0,1-.3.3Z"/><path class="cls-2" d="M70.13,10.52a.29.29,0,0,1-.22-.09.29.29,0,0,1-.08-.21.28.28,0,0,1,.09-.21.31.31,0,0,1,.42,0,.3.3,0,0,1,.09.21.27.27,0,0,1-.09.21A.29.29,0,0,1,70.13,10.52Z"/><path class="cls-2" d="M71.33,11.71a.32.32,0,0,1-.21-.08.3.3,0,0,1-.09-.21.3.3,0,0,1,.08-.21.3.3,0,0,1,.52.21.3.3,0,0,1-.08.2A.32.32,0,0,1,71.33,11.71Z"/><path class="cls-2" d="M66.51.9A.31.31,0,0,1,66.3.81a.28.28,0,0,1-.09-.21.33.33,0,0,1,.08-.21.3.3,0,0,1,.43,0,.33.33,0,0,1,.09.22.3.3,0,0,1-.09.21A.31.31,0,0,1,66.51.9Z"/><path class="cls-2" d="M67.71,2.11A.29.29,0,0,1,67.5,2a.29.29,0,0,1-.09-.21.29.29,0,0,1,.09-.21.31.31,0,0,1,.43,0A.31.31,0,0,1,68,1.8a.32.32,0,0,1-.08.21A.31.31,0,0,1,67.71,2.11Z"/><path class="cls-2" d="M68.91,3.3a.28.28,0,0,1-.21-.09A.31.31,0,0,1,68.61,3a.32.32,0,0,1,.09-.21.32.32,0,0,1,.43,0,.31.31,0,0,1,0,.43A.27.27,0,0,1,68.91,3.3Z"/><path class="cls-2" d="M70.12,4.51a.3.3,0,0,1-.22-.09.3.3,0,0,1-.08-.21A.3.3,0,0,1,70.33,4a.3.3,0,0,1,.09.21.31.31,0,0,1-.09.21A.29.29,0,0,1,70.12,4.51Z"/><path class="cls-2" d="M71.32,5.7a.32.32,0,0,1-.21-.08A.33.33,0,0,1,71,5.4a.3.3,0,0,1,.09-.21.31.31,0,0,1,.43,0,.3.3,0,0,1,.08.2.29.29,0,0,1-.09.21A.3.3,0,0,1,71.32,5.7Z"/><path class="cls-2" d="M5.36,53.79a.29.29,0,0,1-.22-.09.34.34,0,0,1-.09-.21.31.31,0,0,1,.09-.21.3.3,0,0,1,.43,0,.29.29,0,0,1,.09.21.33.33,0,0,1-.3.3Z"/><path class="cls-2" d="M11.36,53.79a.31.31,0,0,1-.22-.09.34.34,0,0,1-.09-.21.32.32,0,0,1,.1-.22.31.31,0,0,1,.51.22.34.34,0,0,1-.09.21A.33.33,0,0,1,11.36,53.79Z"/><path class="cls-2" d="M17.36,53.79a.34.34,0,0,1-.22-.09.32.32,0,0,1-.08-.21.29.29,0,0,1,.09-.22.31.31,0,0,1,.51.22.29.29,0,0,1-.09.21A.31.31,0,0,1,17.36,53.79Z"/><path class="cls-2" d="M23.36,53.79a.3.3,0,0,1-.22-.1.26.26,0,0,1-.08-.2.29.29,0,0,1,.09-.22.31.31,0,0,1,.51.22.34.34,0,0,1-.09.21A.33.33,0,0,1,23.36,53.79Z"/><path class="cls-2" d="M29.36,53.79a.3.3,0,0,1-.22-.1.26.26,0,0,1-.08-.2.29.29,0,0,1,.09-.22.31.31,0,0,1,.42,0,.29.29,0,0,1,.09.21.28.28,0,0,1-.1.21A.26.26,0,0,1,29.36,53.79Z"/><path class="cls-2" d="M35.36,53.79a.31.31,0,0,1-.22-.09.32.32,0,0,1-.08-.21.28.28,0,0,1,.09-.22.31.31,0,0,1,.42,0,.29.29,0,0,1,.09.21.34.34,0,0,1-.09.21A.33.33,0,0,1,35.36,53.79Z"/><path class="cls-2" d="M41.36,53.79a.29.29,0,0,1-.22-.09.3.3,0,0,1-.08-.21.33.33,0,0,1,.08-.22.32.32,0,0,1,.43,0,.31.31,0,0,1,.09.21.29.29,0,0,1-.09.21A.33.33,0,0,1,41.36,53.79Z"/><path class="cls-2" d="M47.36,53.79a.31.31,0,0,1-.31-.3.3.3,0,0,1,.1-.22.32.32,0,0,1,.42,0,.3.3,0,0,1,0,.43A.3.3,0,0,1,47.36,53.79Z"/><path class="cls-2" d="M53.36,53.79a.31.31,0,0,1-.22-.09.36.36,0,0,1-.09-.21.31.31,0,0,1,.09-.21.3.3,0,0,1,.43,0,.31.31,0,0,1,.09.21.31.31,0,0,1-.09.21A.29.29,0,0,1,53.36,53.79Z"/><path class="cls-2" d="M59.36,53.79a.36.36,0,0,1-.22-.09.34.34,0,0,1-.09-.21.36.36,0,0,1,.09-.22.33.33,0,0,1,.43,0,.36.36,0,0,1,.09.22.34.34,0,0,1-.09.21A.33.33,0,0,1,59.36,53.79Z"/><path class="cls-2" d="M65.36,53.79a.28.28,0,0,1-.21-.09.3.3,0,0,1,0-.42.3.3,0,0,1,.43,0,.31.31,0,0,1,.09.21.31.31,0,0,1-.09.21A.3.3,0,0,1,65.36,53.79Z"/></pattern></defs><title>MARCOS DINAMICOS FINALES</title><path class="cls-3" d="M-.67,60.91V0H190.18V60.91ZM177.06,13.15H12.46V47.79h164.6Z"/><path class="cls-2" d="M24.64,39.13H22.22V21.8h2.52c2.85,0,5,1.81,5,4.56,0,2-.85,3.35-2.47,3.87a4.07,4.07,0,0,1,2.9,4C30.15,37.21,28.08,39.13,24.64,39.13Zm.24-15.31h-.52v5.6h.59c1.78,0,2.64-1.33,2.64-3.06A2.67,2.67,0,0,0,24.88,23.82ZM25,31.44h-.67v5.67h.57c2.07,0,3-1.09,3-2.82A2.76,2.76,0,0,0,25,31.44Z"/><path class="cls-2" d="M37.8,39.42a4.73,4.73,0,0,1-4.63-4.7V21.8h2.16V34.08c0,2,.93,3.23,2.47,3.23s2.52-1.21,2.52-3.23V21.8h2.11V34.72A4.73,4.73,0,0,1,37.8,39.42Z"/><path class="cls-2" d="M46.24,39.13V21.8H53v2H48.37v5.79h4.34v2H48.37v5.48h4.84v2Z"/><path class="cls-2" d="M63.89,39.13,58.43,27.48s.07.79.07,1.14V39.13H56.36V21.8H58l5.46,11.75s-.07-.78-.07-1.14V21.8h2.14V39.13Z"/><path class="cls-2" d="M74.17,39.42c-4,0-5.41-5-5.41-9s1.38-8.88,5.41-8.88c4.32,0,5.41,4.75,5.41,8.88S78.3,39.42,74.17,39.42Zm0-15.79c-2.61,0-3.18,3.61-3.18,6.77,0,3,.57,6.91,3.18,6.91s3.18-3.92,3.18-6.91C77.35,27.24,76.85,23.63,74.17,23.63Z"/><path class="cls-2" d="M85.49,39.42A4.13,4.13,0,0,1,82,37.55L83.4,36.1a2.75,2.75,0,0,0,2.14,1.21c1.28,0,1.76-1,1.76-2.09,0-3.35-5.27-5.27-5.27-9.35a4.11,4.11,0,0,1,3.9-4.35,3.73,3.73,0,0,1,3.23,1.64l-1.5,1.38a2.29,2.29,0,0,0-1.73-.9c-1.19,0-1.71,1-1.71,2.11,0,2.92,5.27,4.87,5.27,9.33A4.07,4.07,0,0,1,85.49,39.42Z"/><path class="cls-2" d="M101.54,39.13V28.29a10.58,10.58,0,0,1,.1-1.14l-3.06,7.31h-1l-3.06-7.31a10.58,10.58,0,0,1,.1,1.14V39.13H92.52V21.8H94.4l3.37,8a8.31,8.31,0,0,1,.35,1.07s.19-.64.36-1.07l3.37-8h1.83V39.13Z"/><path class="cls-2" d="M112.3,39.42c-4,0-5.41-5-5.41-9s1.38-8.88,5.41-8.88c4.32,0,5.41,4.75,5.41,8.88S116.43,39.42,112.3,39.42Zm0-15.79c-2.61,0-3.18,3.61-3.18,6.77,0,3,.57,6.91,3.18,6.91s3.18-3.92,3.18-6.91C115.48,27.24,115,23.63,112.3,23.63Z"/><path class="cls-2" d="M124.53,23.82V39.13h-2.14V23.82h-2.71v-2h7.55v2Z"/><path class="cls-2" d="M130.14,39.13V21.8h2.14V39.13Z"/><path class="cls-2" d="M141.13,39.13h-1.62L135.07,21.8h2.21L140,32.73c.14.57.36,1.9.36,1.9s.21-1.33.36-1.9l2.71-10.92h2.16Z"/><path class="cls-2" d="M152.65,39.42c-4,0-5.42-5-5.42-9s1.38-8.88,5.42-8.88c4.32,0,5.41,4.75,5.41,8.88S156.78,39.42,152.65,39.42Zm0-15.79c-2.61,0-3.18,3.61-3.18,6.77,0,3,.57,6.91,3.18,6.91s3.18-3.92,3.18-6.91C155.83,27.24,155.34,23.63,152.65,23.63Z"/><path class="cls-2" d="M164.11,39.42a4.13,4.13,0,0,1-3.54-1.88L162,36.1a2.74,2.74,0,0,0,2.14,1.21c1.28,0,1.76-1,1.76-2.09,0-3.35-5.27-5.27-5.27-9.35a4.11,4.11,0,0,1,3.89-4.35,3.73,3.73,0,0,1,3.23,1.64l-1.5,1.38a2.3,2.3,0,0,0-1.73-.9c-1.19,0-1.71,1-1.71,2.11,0,2.92,5.27,4.87,5.27,9.33A4.07,4.07,0,0,1,164.11,39.42Z"/><path class="cls-2" d="M26.19,70v7.07h-1V70h-3v-.84h6.88V70Z"/><path class="cls-2" d="M31.13,69.5a.61.61,0,0,1-.63.6.6.6,0,0,1-.62-.6.61.61,0,0,1,.62-.6A.62.62,0,0,1,31.13,69.5ZM30,77.08V71.26H31v5.82Z"/><path class="cls-2" d="M38.36,74.35h-5a2.13,2.13,0,0,0,2.1,2.09,2,2,0,0,0,2-1.25l.81.19a2.82,2.82,0,0,1-2.81,1.85,3.06,3.06,0,0,1,.05-6.11A2.86,2.86,0,0,1,38.36,74Zm-5-.67h4.09a1.93,1.93,0,0,0-2-1.77A2.11,2.11,0,0,0,33.35,73.68Z"/><path class="cls-2" d="M45.29,73.6v3.48h-.91V73.76a1.64,1.64,0,0,0-1.63-1.82c-1.23,0-2,.83-2,2.34v2.8H39.8V71.26h.91v1a2.53,2.53,0,0,1,2.22-1.11A2.29,2.29,0,0,1,45.29,73.6Z"/><path class="cls-2" d="M52.83,77.08h-.91v-.92a2.87,2.87,0,0,1-2.34,1.08,3.06,3.06,0,0,1,0-6.11,2.87,2.87,0,0,1,2.34,1.07V68.58h.91Zm-.91-2.9a2.21,2.21,0,0,0-2.19-2.26,2.26,2.26,0,0,0,0,4.52A2.2,2.2,0,0,0,51.92,74.17Z"/><path class="cls-2" d="M60.44,77.08h-.91v-.92a2.87,2.87,0,0,1-2.34,1.08,3.06,3.06,0,0,1,0-6.11,2.87,2.87,0,0,1,2.34,1.07v-.93h.91Zm-.91-2.9a2.21,2.21,0,0,0-2.19-2.26,2.26,2.26,0,0,0,0,4.52A2.2,2.2,0,0,0,59.53,74.17Z"/><path class="cls-2" d="M70.16,75.08l.84.23a2.77,2.77,0,0,1-2.78,1.92,3.06,3.06,0,1,1,0-6.11A2.83,2.83,0,0,1,71,73.06l-.87.26a1.93,1.93,0,0,0-1.92-1.37A2.15,2.15,0,0,0,66,74.17a2.12,2.12,0,0,0,2.18,2.22A1.94,1.94,0,0,0,70.16,75.08Z"/><path class="cls-2" d="M78.17,74.16a3.12,3.12,0,1,1-3.11-3A3,3,0,0,1,78.17,74.16Zm-.9,0a2.23,2.23,0,1,0-4.45,0,2.23,2.23,0,1,0,4.45,0Z"/><path class="cls-2" d="M85.1,73.6v3.48H84.2V73.76a1.64,1.64,0,0,0-1.63-1.82c-1.23,0-2,.83-2,2.34v2.8h-.9V71.26h.9v1a2.53,2.53,0,0,1,2.22-1.11A2.29,2.29,0,0,1,85.1,73.6Z"/><path class="cls-2" d="M90.61,75.31c.08.77.8,1.18,1.73,1.18s1.41-.39,1.41-1-.37-.71-1-.84l-1.35-.3c-1-.2-1.53-.68-1.53-1.49,0-1,.88-1.76,2.22-1.76a2.24,2.24,0,0,1,2.4,1.62l-.87.19a1.42,1.42,0,0,0-1.55-1.07c-.84,0-1.3.4-1.3,1s.32.67.9.8l1.42.31c.86.19,1.52.64,1.52,1.52,0,1.15-1,1.79-2.37,1.79s-2.42-.59-2.56-1.72Z"/><path class="cls-2" d="M101.57,74.35h-5a2.14,2.14,0,0,0,2.1,2.09,2,2,0,0,0,2-1.25l.81.19a2.83,2.83,0,0,1-2.81,1.85,3.06,3.06,0,0,1,.06-6.11,2.85,2.85,0,0,1,2.89,2.9Zm-5-.67h4.09a1.94,1.94,0,0,0-2-1.77A2.1,2.1,0,0,0,96.56,73.68Z"/><path class="cls-2" d="M108.5,73.6v3.48h-.91V73.76A1.64,1.64,0,0,0,106,71.95c-1.23,0-2,.83-2,2.34v2.8H103V71.26h.91v1a2.53,2.53,0,0,1,2.22-1.11A2.29,2.29,0,0,1,108.5,73.6Z"/><path class="cls-2" d="M113.83,76.77a2.24,2.24,0,0,1-1.36.46,1.79,1.79,0,0,1-1.94-2V72h-1.28v-.76h1.28V69.41h.92v1.85h2.1V72h-2.1V75.2a1,1,0,0,0,1.09,1.18,1.83,1.83,0,0,0,1-.35Z"/><path class="cls-2" d="M116,69.5a.6.6,0,0,1-.63.6.6.6,0,0,1-.62-.6.61.61,0,0,1,.62-.6A.62.62,0,0,1,116,69.5ZM115,77.08V71.26h.92v5.82Z"/><path class="cls-2" d="M123.52,77.08h-.9v-.92a2.88,2.88,0,0,1-2.34,1.08,3.06,3.06,0,0,1,0-6.11,2.88,2.88,0,0,1,2.34,1.07V68.58h.9Zm-.9-2.9a2.21,2.21,0,0,0-2.19-2.26,2.26,2.26,0,0,0,0,4.52A2.2,2.2,0,0,0,122.62,74.17Z"/><path class="cls-2" d="M131.23,74.16a3.12,3.12,0,1,1-3.11-3A3,3,0,0,1,131.23,74.16Zm-.9,0a2.23,2.23,0,1,0-4.46,0,2.23,2.23,0,1,0,4.46,0Z"/><path class="cls-2" d="M136.33,75.31c.09.77.8,1.18,1.73,1.18s1.41-.39,1.41-1-.37-.71-1-.84l-1.35-.3c-1-.2-1.52-.68-1.52-1.49,0-1,.88-1.76,2.22-1.76a2.24,2.24,0,0,1,2.4,1.62l-.87.19a1.41,1.41,0,0,0-1.55-1.07c-.83,0-1.3.4-1.3,1s.32.67.9.8l1.42.31c.86.19,1.51.64,1.51,1.52,0,1.15-1,1.79-2.37,1.79s-2.42-.59-2.56-1.72Z"/><path class="cls-2" d="M147.6,74.16a3.12,3.12,0,1,1-3.11-3A3,3,0,0,1,147.6,74.16Zm-.9,0a2.23,2.23,0,1,0-4.46,0,2.23,2.23,0,1,0,4.46,0Z"/><path class="cls-2" d="M153.61,75.08l.83.23a2.76,2.76,0,0,1-2.78,1.92,3.06,3.06,0,1,1,0-6.11,2.83,2.83,0,0,1,2.79,1.93l-.87.26a1.92,1.92,0,0,0-1.92-1.37,2.14,2.14,0,0,0-2.18,2.23,2.12,2.12,0,0,0,2.18,2.22A1.94,1.94,0,0,0,153.61,75.08Z"/><path class="cls-2" d="M157,69.5a.61.61,0,0,1-.63.6.6.6,0,0,1-.62-.6.61.61,0,0,1,.62-.6A.62.62,0,0,1,157,69.5Zm-1.08,7.57V71.26h.92v5.82Z"/><path class="cls-2" d="M164.45,77.08h-.9v-.92a2.86,2.86,0,0,1-2.34,1.08,3.06,3.06,0,0,1,0-6.11,2.86,2.86,0,0,1,2.34,1.07v-.93h.9Zm-.9-2.9a2.2,2.2,0,0,0-2.2-2.26,2.26,2.26,0,0,0,0,4.52A2.2,2.2,0,0,0,163.55,74.17Z"/><path class="cls-2" d="M166.34,77.08V68.58h.9v8.49Z"/></svg>