<svg id="Capa_1" data-name="Capa 1" xmlns="http://www.w3.org/2000/svg" xmlns:xlink="http://www.w3.org/1999/xlink" viewBox="0 0 190 78"><defs><style>.cls-1,.cls-2{fill:none;}.cls-2{stroke:#070308;stroke-width:0.4px;}.cls-3{fill:url(#Random_V);}.cls-4{fill:#070308;}</style><pattern id="Random_V" data-name="Random V" width="72" height="72" patternTransform="translate(-766.72 622.63) scale(1.01)" patternUnits="userSpaceOnUse" viewBox="0 0 72 72"><rect class="cls-1" width="72" height="72"/><polyline class="cls-2" points="48.71 27.84 42.04 25 44.02 32.16"/><polyline class="cls-2" points="32.88 18.57 39.92 14.97 33.27 12.97"/><polyline class="cls-2" points="50.11 26.23 56.39 22.65 50.01 18.86"/><polyline class="cls-2" points="29.99 28.48 29.73 20.77 24.48 25.27"/><polyline class="cls-2" points="60.25 44.29 66.75 47.5 65.18 40.25"/><polyline class="cls-2" points="58.26 59.77 58.2 52.52 52.43 57.19"/><polyline class="cls-2" points="52.99 44.72 52.85 51.97 58.75 47.46"/><polyline class="cls-2" points="46.51 37.69 53.75 37.25 48.79 31.73"/><polyline class="cls-2" points="43.45 43.65 49.25 48 49.04 40.58"/><polyline class="cls-2" points="32.27 51.9 28.84 47.32 26.73 52.56"/><polyline class="cls-2" points="33.38 41.24 40.06 44.09 37.27 37.27"/><polyline class="cls-2" points="16.3 53.58 13.75 46.38 9.48 52.45"/><polyline class="cls-2" points="34.56 27.65 34.05 33.9 40.37 30.28"/><polyline class="cls-2" points="8.42 19.47 14.75 23 13.55 15.68"/><polyline class="cls-2" points="26.44 40.53 20.8 35.98 20.75 43.4"/><polyline class="cls-2" points="24.5 20.75 18.7 14.61 18.08 22.85"/><polyline class="cls-2" points="25.23 55.29 27.64 61.94 32.35 54.13"/><polyline class="cls-2" points="42.96 14.07 43.25 22.25 48.33 16.84"/><polyline class="cls-2" points="18.08 37.68 11.59 36.26 14.5 43.09"/><polyline class="cls-2" points="63.25 49.61 61 56.5 67.96 53.91"/><polyline class="cls-2" points="58.27 36.64 54.89 42.85 61.55 42.11"/><polyline class="cls-2" points="53.61 8.92 60.86 9.09 56.38 3.18"/><polyline class="cls-2" points="64.82 4 64.81 11.25 70.63 6.64"/><polyline class="cls-2" points="26.66 37.19 30.61 31.11 23.23 31.82"/><polyline class="cls-2" points="40 20.5 32.75 20.35 37.25 26.25"/><polyline class="cls-2" points="30.76 69.42 33.83 61.64 26.26 64.89"/><polyline class="cls-2" points="66.47 15.02 60 11.75 61.51 19.02"/><polyline class="cls-2" points="35 50 41.46 52.66 38.75 45.75"/><polyline class="cls-2" points="42.76 50.35 49.75 52.28 43.75 56.65"/><polyline class="cls-2" points="21.61 23.15 18.08 29.48 25.15 29.28"/><polyline class="cls-2" points="58 62.38 51.59 65.75 58.38 68.74"/><polyline class="cls-2" points="48.08 56.87 47.38 64.08 53.61 60.05"/><polyline class="cls-2" points="42.13 4.83 40.3 12.53 47.1 9.11"/><polyline class="cls-2" points="60.24 61.82 66.9 64.68 64.95 57.52"/><polyline class="cls-2" points="11.75 25 4.98 22.24 8 29.25"/><polyline class="cls-2" points="21.25 61.75 21.97 52.61 15.47 57.18"/><polyline class="cls-2" points="12.78 56.84 6.35 53.49 7.76 60.77"/><polyline class="cls-2" points="23.73 3.12 22.02 9.34 29.14 7.23"/><polyline class="cls-2" points="6.01 10.29 5.89 17.54 11.78 13.03"/><polyline class="cls-2" points="11.64 59.59 14.5 66.25 18.02 59.72"/><polyline class="cls-2" points="17.98 43.25 18.81 50.45 24.75 45.5"/><polyline class="cls-2" points="39.06 66.18 45.5 69.5 44.25 61.25"/><polyline class="cls-2" points="67.77 33.28 61.38 29.63 62.04 36.55"/><polyline class="cls-2" points="59.34 21.52 63.54 27.43 65.6 20.3"/><polyline class="cls-2" points="52.5 28.77 55.25 33.75 58.37 27.02"/><polyline class="cls-2" points="7.63 1.72 1.65 5.83 8.75 8"/><polyline class="cls-2" points="48.66 12.22 52.4 6.02 47.05 5.97"/><polyline class="cls-2" points="6.94 63.13 3.89 69.71 11.1 67.96"/><polyline class="cls-2" points="25.77 69.66 19.58 65.89 20.5 73.25"/><polyline class="cls-2" points="40.67 56.27 34.75 57.25 39.96 62.6"/><polyline class="cls-2" points="46.95 35.21 39.72 34.76 43.97 40.84"/><polyline class="cls-2" points="43.89 73.78 38.17 69.33 38.25 76.75"/><polyline class="cls-2" points="55.25 10.8 51.26 16.86 58.65 16.2"/><polyline class="cls-2" points="12.01 6.12 15.62 12.41 18.36 5.52"/><polyline class="cls-2" points="5.6 49.17 11.55 45.03 4.44 42.89"/><polyline class="cls-2" points="14.51 35.36 16.14 26.84 8.87 32.33"/><polyline class="cls-2" points="7.35 35.53 2.25 39.68 9.62 40.49"/><polyline class="cls-2" points="57.62 70.85 63.29 75.36 63.79 66.44"/><polyline class="cls-2" points="27.75 69.66 31 76.14 34.12 69.4"/><polyline class="cls-2" points="53.41 76.54 52.46 69.36 47.31 74.69"/><polyline class="cls-2" points="15.75 75.75 15.17 68.52 9.75 73.59"/><polyline class="cls-2" points="38.44 9.21 33.94 3.52 32 10.75"/><polyline class="cls-2" points="72.93 33.69 71.65 40.82 66.75 35.25"/><polyline class="cls-2" points="67.25 24.75 73.59 21.24 66.73 18.39"/><polyline class="cls-2" points="74.75 25.25 69.79 30.54 77.19 31.14"/><polyline class="cls-2" points="74.5 73.5 69.42 68.33 68.51 75.69"/><polyline class="cls-2" points="72.05 17.72 75.36 11.27 68.08 12.73"/><polyline class="cls-2" points="72.54 65.15 76.75 59.25 69.34 59.63"/><polyline class="cls-2" points="75.85 50.65 70.25 55.25 77.5 56.81"/><polyline class="cls-2" points="72.34 50.34 69.81 43.55 76.86 45.85"/><polyline class="cls-2" points="30.83 16.57 27.41 10.17 24.47 16.98"/><polyline class="cls-2" points="30.5 38.55 27.01 43.86 32.15 44.45"/><polyline class="cls-2" points="0.93 33.69 -0.35 40.82 -5.25 35.25"/><polyline class="cls-2" points="-4.75 24.75 1.59 21.24 -5.27 18.39"/><polyline class="cls-2" points="2.75 25.25 -2.21 30.54 5.19 31.14"/><polyline class="cls-2" points="2.5 73.5 -2.58 68.33 -3.49 75.69"/><polyline class="cls-2" points="0.05 17.72 3.35 11.27 -3.92 12.73"/><polyline class="cls-2" points="0.54 65.15 4.75 59.25 -2.66 59.63"/><polyline class="cls-2" points="3.85 50.65 -1.75 55.25 5.5 56.81"/><polyline class="cls-2" points="0.34 50.34 -2.19 43.55 4.86 45.85"/><polyline class="cls-2" points="25.77 -2.34 19.58 -6.11 20.5 1.25"/><polyline class="cls-2" points="43.89 1.78 38.17 -2.67 38.25 4.75"/><polyline class="cls-2" points="57.62 -1.15 63.29 3.36 63.79 -5.56"/><polyline class="cls-2" points="27.75 -2.34 31 4.14 34.12 -2.6"/><polyline class="cls-2" points="53.41 4.54 52.46 -2.64 47.31 2.69"/><polyline class="cls-2" points="15.75 3.75 15.17 -3.48 9.75 1.59"/><polyline class="cls-2" points="74.5 1.5 69.42 -3.67 68.51 3.69"/><polyline class="cls-2" points="2.5 1.5 -2.58 -3.67 -3.49 3.69"/></pattern></defs><title>MARCOS DINAMICOS FINALES</title><path class="cls-3" d="M-1.26,62.05V1.33H189V62.05ZM176,14.42H11.82V49H176Z"/><path class="cls-4" d="M24,40.33H21.56V23.05h2.51c2.84,0,5,1.8,5,4.54,0,2-.85,3.34-2.46,3.86a4.05,4.05,0,0,1,2.89,4C29.47,38.42,27.41,40.33,24,40.33Zm.24-15.27h-.52v5.59h.59c1.78,0,2.63-1.33,2.63-3.06A2.66,2.66,0,0,0,24.21,25.06Zm.14,7.6h-.66v5.66h.57c2.06,0,3-1.09,3-2.82A2.75,2.75,0,0,0,24.36,32.66Z"/><path class="cls-4" d="M37.1,40.62a4.72,4.72,0,0,1-4.62-4.69V23.05h2.16V35.29c0,2,.92,3.22,2.46,3.22s2.51-1.21,2.51-3.22V23.05h2.11V35.93A4.72,4.72,0,0,1,37.1,40.62Z"/><path class="cls-4" d="M45.51,40.33V23.05h6.75v2H47.64v5.78H52v2H47.64v5.47h4.83v2Z"/><path class="cls-4" d="M63.11,40.33,57.67,28.71s.07.78.07,1.14V40.33H55.61V23.05h1.66l5.45,11.72s-.07-.78-.07-1.14V23.05h2.13V40.33Z"/><path class="cls-4" d="M73.37,40.62c-4,0-5.4-5-5.4-9s1.37-8.85,5.4-8.85c4.31,0,5.4,4.73,5.4,8.85S77.49,40.62,73.37,40.62Zm0-15.74c-2.6,0-3.17,3.6-3.17,6.75,0,3,.57,6.89,3.17,6.89s3.17-3.9,3.17-6.89C76.54,28.47,76,24.88,73.37,24.88Z"/><path class="cls-4" d="M84.66,40.62a4.12,4.12,0,0,1-3.53-1.87l1.44-1.45a2.74,2.74,0,0,0,2.13,1.21c1.28,0,1.75-1,1.75-2.08,0-3.34-5.26-5.26-5.26-9.33a4.09,4.09,0,0,1,3.88-4.33A3.72,3.72,0,0,1,88.3,24.4l-1.49,1.37a2.28,2.28,0,0,0-1.73-.9c-1.18,0-1.7.95-1.7,2.11,0,2.91,5.25,4.85,5.25,9.3A4.06,4.06,0,0,1,84.66,40.62Z"/><path class="cls-4" d="M100.66,40.33V29.52a10.59,10.59,0,0,1,.09-1.14L97.7,35.67h-.95L93.7,28.38a10.72,10.72,0,0,1,.09,1.14V40.33H91.67V23.05h1.87l3.36,8a8.77,8.77,0,0,1,.35,1.07s.19-.64.36-1.07l3.36-8h1.82V40.33Z"/><path class="cls-4" d="M111.39,40.62c-4,0-5.4-5-5.4-9s1.37-8.85,5.4-8.85c4.31,0,5.4,4.73,5.4,8.85S115.51,40.62,111.39,40.62Zm0-15.74c-2.6,0-3.17,3.6-3.17,6.75,0,3,.57,6.89,3.17,6.89s3.17-3.9,3.17-6.89C114.56,28.47,114.06,24.88,111.39,24.88Z"/><path class="cls-4" d="M123.58,25.06V40.33h-2.13V25.06h-2.7v-2h7.53v2Z"/><path class="cls-4" d="M129.18,40.33V23.05h2.13V40.33Z"/><path class="cls-4" d="M140.14,40.33h-1.61L134.1,23.05h2.2L139,33.94c.14.57.36,1.89.36,1.89s.21-1.32.35-1.89l2.7-10.89h2.15Z"/><path class="cls-4" d="M151.63,40.62c-4,0-5.4-5-5.4-9s1.37-8.85,5.4-8.85c4.31,0,5.4,4.73,5.4,8.85S155.75,40.62,151.63,40.62Zm0-15.74c-2.6,0-3.17,3.6-3.17,6.75,0,3,.57,6.89,3.17,6.89s3.17-3.9,3.17-6.89C154.8,28.47,154.3,24.88,151.63,24.88Z"/><path class="cls-4" d="M163.05,40.62a4.13,4.13,0,0,1-3.53-1.87L161,37.3a2.74,2.74,0,0,0,2.13,1.21c1.28,0,1.75-1,1.75-2.08,0-3.34-5.26-5.26-5.26-9.33a4.09,4.09,0,0,1,3.88-4.33,3.71,3.71,0,0,1,3.22,1.63l-1.49,1.37a2.29,2.29,0,0,0-1.73-.9c-1.18,0-1.7.95-1.7,2.11,0,2.91,5.25,4.85,5.25,9.3A4.06,4.06,0,0,1,163.05,40.62Z"/><path class="cls-4" d="M25.52,69.12v7h-1v-7h-3v-.83h6.86v.83Z"/><path class="cls-4" d="M30.44,68.61a.6.6,0,0,1-.63.6.59.59,0,0,1-.62-.6.61.61,0,0,1,.62-.6A.62.62,0,0,1,30.44,68.61Zm-1.08,7.55v-5.8h.92v5.8Z"/><path class="cls-4" d="M37.66,73.45h-5a2.13,2.13,0,0,0,2.09,2.08,2,2,0,0,0,2-1.25l.81.19a2.81,2.81,0,0,1-2.8,1.85,3,3,0,0,1,.05-6.09,2.85,2.85,0,0,1,2.88,2.89Zm-5-.67h4.08a1.92,1.92,0,0,0-2-1.76A2.1,2.1,0,0,0,32.66,72.78Z"/><path class="cls-4" d="M44.57,72.7v3.47h-.91v-3.3A1.64,1.64,0,0,0,42,71c-1.23,0-2,.82-2,2.33v2.79H39.1v-5.8H40v1a2.52,2.52,0,0,1,2.21-1.11A2.29,2.29,0,0,1,44.57,72.7Z"/><path class="cls-4" d="M52.08,76.17h-.91v-.92a2.87,2.87,0,0,1-2.33,1.07,3,3,0,0,1,0-6.09,2.87,2.87,0,0,1,2.33,1.07V67.7h.91Zm-.91-2.9A2.2,2.2,0,0,0,49,71a2.25,2.25,0,0,0,0,4.5A2.2,2.2,0,0,0,51.18,73.27Z"/><path class="cls-4" d="M59.67,76.17h-.9v-.92a2.87,2.87,0,0,1-2.33,1.07,3,3,0,0,1,0-6.09,2.86,2.86,0,0,1,2.33,1.07v-.93h.9Zm-.9-2.9A2.2,2.2,0,0,0,56.58,71a2.25,2.25,0,0,0,0,4.5A2.2,2.2,0,0,0,58.77,73.27Z"/><path class="cls-4" d="M69.37,74.18l.83.23a2.76,2.76,0,0,1-2.77,1.92,3,3,0,1,1,0-6.09,2.82,2.82,0,0,1,2.79,1.93l-.87.26A1.92,1.92,0,0,0,67.43,71a2.14,2.14,0,0,0-2.17,2.22,2.11,2.11,0,0,0,2.17,2.21A1.94,1.94,0,0,0,69.37,74.18Z"/><path class="cls-4" d="M77.36,73.26a3.11,3.11,0,1,1-3.1-3A3,3,0,0,1,77.36,73.26Zm-.89,0a2.22,2.22,0,1,0-4.44,0,2.22,2.22,0,1,0,4.44,0Z"/><path class="cls-4" d="M84.27,72.7v3.47h-.9v-3.3A1.63,1.63,0,0,0,81.74,71c-1.23,0-2,.82-2,2.33v2.79h-.9v-5.8h.9v1a2.53,2.53,0,0,1,2.21-1.11A2.29,2.29,0,0,1,84.27,72.7Z"/><path class="cls-4" d="M89.76,74.4c.08.77.8,1.18,1.73,1.18s1.4-.39,1.4-1-.37-.71-1-.84l-1.34-.3c-1-.2-1.52-.68-1.52-1.48,0-1,.88-1.75,2.22-1.75a2.23,2.23,0,0,1,2.4,1.61l-.86.19A1.42,1.42,0,0,0,91.26,71c-.83,0-1.3.4-1.3,1s.32.67.9.8l1.41.31c.85.19,1.51.64,1.51,1.52,0,1.14-1,1.79-2.37,1.79S89,75.73,88.86,74.6Z"/><path class="cls-4" d="M100.69,73.45h-5a2.13,2.13,0,0,0,2.1,2.08,2,2,0,0,0,2-1.25l.81.19a2.82,2.82,0,0,1-2.81,1.85,3,3,0,0,1,.06-6.09,2.84,2.84,0,0,1,2.88,2.89Zm-5-.67h4.08a1.93,1.93,0,0,0-2-1.76A2.1,2.1,0,0,0,95.69,72.78Z"/><path class="cls-4" d="M107.6,72.7v3.47h-.91v-3.3A1.63,1.63,0,0,0,105.07,71c-1.23,0-2,.82-2,2.33v2.79h-.9v-5.8h.9v1a2.52,2.52,0,0,1,2.21-1.11A2.29,2.29,0,0,1,107.6,72.7Z"/><path class="cls-4" d="M112.92,75.86a2.24,2.24,0,0,1-1.35.46,1.79,1.79,0,0,1-1.94-2V71.12h-1.27v-.75h1.27V68.52h.91v1.85h2.09v.75h-2.09v3.17a1,1,0,0,0,1.08,1.18,1.83,1.83,0,0,0,1-.35Z"/><path class="cls-4" d="M115.12,68.61a.6.6,0,0,1-.63.6.59.59,0,0,1-.62-.6.61.61,0,0,1,.62-.6A.62.62,0,0,1,115.12,68.61ZM114,76.17v-5.8h.91v5.8Z"/><path class="cls-4" d="M122.58,76.17h-.9v-.92a2.87,2.87,0,0,1-2.33,1.07,3,3,0,0,1,0-6.09,2.87,2.87,0,0,1,2.33,1.07V67.7h.9Zm-.9-2.9A2.2,2.2,0,0,0,119.49,71a2.25,2.25,0,0,0,0,4.5A2.19,2.19,0,0,0,121.68,73.27Z"/><path class="cls-4" d="M130.27,73.26a3.11,3.11,0,0,1-6.22,0,3.11,3.11,0,0,1,6.22,0Zm-.9,0a2.22,2.22,0,1,0-4.45,0,2.22,2.22,0,1,0,4.45,0Z"/><path class="cls-4" d="M135.35,74.4c.09.77.8,1.18,1.73,1.18s1.4-.39,1.4-1-.37-.71-1-.84l-1.35-.3c-1-.2-1.52-.68-1.52-1.48,0-1,.88-1.75,2.22-1.75a2.23,2.23,0,0,1,2.39,1.61l-.87.19A1.41,1.41,0,0,0,136.85,71c-.83,0-1.29.4-1.29,1s.32.67.9.8l1.41.31c.85.19,1.51.64,1.51,1.52,0,1.14-1,1.79-2.37,1.79s-2.41-.59-2.55-1.72Z"/><path class="cls-4" d="M146.59,73.26a3.11,3.11,0,1,1-3.11-3A3,3,0,0,1,146.59,73.26Zm-.9,0a2.22,2.22,0,1,0-4.45,0,2.22,2.22,0,1,0,4.45,0Z"/><path class="cls-4" d="M152.59,74.18l.83.23a2.75,2.75,0,0,1-2.77,1.92,3,3,0,1,1,0-6.09,2.82,2.82,0,0,1,2.79,1.93l-.87.26A1.91,1.91,0,0,0,150.64,71a2.14,2.14,0,0,0-2.17,2.22,2.11,2.11,0,0,0,2.17,2.21A1.94,1.94,0,0,0,152.59,74.18Z"/><path class="cls-4" d="M156,68.61a.6.6,0,0,1-.63.6.59.59,0,0,1-.62-.6.61.61,0,0,1,.62-.6A.62.62,0,0,1,156,68.61Zm-1.08,7.55v-5.8h.91v5.8Z"/><path class="cls-4" d="M163.39,76.17h-.9v-.92a2.86,2.86,0,0,1-2.33,1.07,3,3,0,0,1,0-6.09,2.86,2.86,0,0,1,2.33,1.07v-.93h.9Zm-.9-2.9A2.2,2.2,0,0,0,160.3,71a2.25,2.25,0,0,0,0,4.5A2.19,2.19,0,0,0,162.49,73.27Z"/><path class="cls-4" d="M165.28,76.17V67.7h.9v8.47Z"/></svg>