<svg id="Capa_1" data-name="Capa 1" xmlns="http://www.w3.org/2000/svg" xmlns:xlink="http://www.w3.org/1999/xlink" viewBox="0 0 190 78"><defs><style>.cls-1{fill:none;}.cls-2{fill:#070308;}.cls-3{fill:url(#Nova_amostra_de_padrão_5);}</style><pattern id="Nova_amostra_de_padrão_5" data-name="Nova amostra de padrão 5" width="150" height="150" patternTransform="translate(117.28 -74.36) scale(0.46)" patternUnits="userSpaceOnUse" viewBox="0 0 150 150"><rect class="cls-1" width="150" height="150"/><path class="cls-2" d="M95.94,5.91c7.57,4.28,18.63,3.88,18.63,3.88A48.3,48.3,0,0,0,107,0H89.61A18.2,18.2,0,0,0,95.94,5.91Z"/><path class="cls-2" d="M130.13,18.2a1.33,1.33,0,0,1,.15,1.15,22.56,22.56,0,0,0,17.19-5.82A28.21,28.21,0,0,0,150,10.92V0h-8.7a29.08,29.08,0,0,0-3.56,2.7A22.77,22.77,0,0,0,130.13,18.2Z"/><path class="cls-2" d="M150,145.68a46.24,46.24,0,0,0-8.7,4.32H150Z"/><path class="cls-2" d="M59.93,21.3A22.48,22.48,0,0,0,57.39,3.18,28.51,28.51,0,0,0,55.12,0H54a1.47,1.47,0,0,1-1.46,1.26A1.47,1.47,0,0,1,51.05,0H40.84A36.82,36.82,0,0,0,45,10.76,22.48,22.48,0,0,0,59.93,21.3Z"/><path class="cls-2" d="M107.25,117c.61,10.91-6,23.16-6,23.16s-7.92-11.44-8.53-22.35a22.83,22.83,0,0,1,5-15.67,1.92,1.92,0,0,0,2.88-.16A22.83,22.83,0,0,1,107.25,117Z"/><path class="cls-2" d="M39.31,137.52A61.5,61.5,0,0,0,40.84,150H51.05A1.48,1.48,0,1,1,54,150h1.16C48.94,142.44,39.31,137.52,39.31,137.52Z"/><path class="cls-2" d="M0,0V10.92A47.86,47.86,0,0,0,6.78,0Z"/><path class="cls-2" d="M0,145.68V150H6.78a58.82,58.82,0,0,0,2.78-7.11A60.76,60.76,0,0,0,0,145.68Z"/><path class="cls-2" d="M16.07,63.29A22.48,22.48,0,0,0,8.52,46.62,35.28,35.28,0,0,0,0,41.11V58.44A22.42,22.42,0,0,0,16.07,63.29Z"/><path class="cls-2" d="M54.4,109.72s-10,9.67-20.67,12a22.48,22.48,0,0,1-18-3.47,22.48,22.48,0,0,1,14.82-10.74C41.24,105.19,54.4,109.72,54.4,109.72ZM25.94,120.2a.86.86,0,1,0-.86.86A.86.86,0,0,0,25.94,120.2Zm8.09-.34a.72.72,0,1,0-.72.72A.72.72,0,0,0,34,119.86Z"/><path class="cls-2" d="M110,70.38a16.39,16.39,0,0,0-2.73-.07,1.92,1.92,0,0,1-.58.1,2,2,0,0,1-.35,0,22.86,22.86,0,0,0-13.62,6.06C86.61,82.11,83,91.3,81.58,95.29a1,1,0,0,1,.53.89,1,1,0,0,1-.62,1c2.6-.59,14.05-3.46,21.13-10A22.47,22.47,0,0,0,110,70.38Z"/><path class="cls-2" d="M81,97.24l.1,0-.09,0Z"/><path class="cls-2" d="M99.57,29a19.36,19.36,0,0,1,5.24-.69,1.79,1.79,0,1,0,3.49.58,1.8,1.8,0,0,0,0-.34,22.91,22.91,0,0,1,9.34,3.55c9.15,6,15.08,18.57,15.08,18.57s-13.91-.41-23.05-6.39A22.48,22.48,0,0,1,99.57,29Zm28.22,15.89a.45.45,0,1,0,.45-.45A.45.45,0,0,0,127.79,44.88Zm-10.47-5.32a.85.85,0,1,0,.85-.85A.85.85,0,0,0,117.32,39.56Z"/><path class="cls-2" d="M45.67,72.06A22.48,22.48,0,0,0,58.31,58.83,22.48,22.48,0,0,0,40,58.65C29.94,62.9,21.84,74.21,21.84,74.21S35.6,76.31,45.67,72.06Z"/><path class="cls-2" d="M136.76,36.69A61.18,61.18,0,0,1,150,41.11V58.44c-.42-.33-.84-.67-1.26-1C140.65,50,136.76,36.69,136.76,36.69Zm9.06,12.73a1,1,0,1,0,1-1A1,1,0,0,0,145.82,49.42Z"/><path class="cls-2" d="M127.64,7.41A17.12,17.12,0,0,0,129,0H118.08A17.84,17.84,0,0,0,127.64,7.41Z"/><path class="cls-2" d="M127.36,142.78A18.35,18.35,0,0,1,129,150H118.08a18.89,18.89,0,0,1-1.32-2.39c-3.63-8-2.27-19-2.27-19S123.73,134.82,127.36,142.78Zm-10-4.13a.78.78,0,1,0-.78.78A.78.78,0,0,0,117.35,138.65Z"/><path class="cls-2" d="M5.1,114.88c4.94-7.21,5.49-18.33,5.49-18.33A48.33,48.33,0,0,0,0,103.38v16.54A18.41,18.41,0,0,0,5.1,114.88Z"/><path class="cls-2" d="M145.49,108.31a18,18,0,0,0-2.78,14.37,17.11,17.11,0,0,0,7.29-2.77V103.38A26.62,26.62,0,0,0,145.49,108.31Z"/><path class="cls-2" d="M33,0H22.79A47.62,47.62,0,0,0,34.08,7.73,48.6,48.6,0,0,0,33,0Z"/><path class="cls-2" d="M16.61,131.33a18,18,0,0,0,2.56,14.41A25.41,25.41,0,0,0,22.79,150H33a32,32,0,0,0-4.15-10.68A18,18,0,0,0,16.61,131.33Z"/><path class="cls-2" d="M40.81,41.29c3.47-8,1.9-19,1.9-19S33.6,28.64,30.13,36.66a18,18,0,0,0,0,14.64A18,18,0,0,0,40.81,41.29Z"/><path class="cls-2" d="M47.36,93.5A18,18,0,0,0,56,81.69a17.69,17.69,0,0,0-10.64.06,1.19,1.19,0,0,1,.17.58,1.21,1.21,0,0,1-1.21,1.21,1.2,1.2,0,0,1-1.16-.95c-.56.26-1.12.54-1.68.87-7.54,4.42-12.78,14.24-12.78,14.24S39.81,97.93,47.36,93.5Z"/><path class="cls-2" d="M128.84,69.55A18,18,0,0,0,121.58,57a1.7,1.7,0,1,0-.23,0,18,18,0,0,0-4.07,13.93c1.05,8.68,8,17.39,8,17.39S129.89,78.22,128.84,69.55Z"/><path class="cls-2" d="M76.09,25.55c3.76,7.89,13.1,13.95,13.1,13.95s1.17-11.07-2.59-19a18,18,0,0,0-11-9.62A18,18,0,0,0,76.09,25.55Z"/><path class="cls-2" d="M69,106.21a18,18,0,0,0,2.62,14.4c4.86,7.27,15,11.92,15,11.92s-.43-11.12-5.29-18.39A18,18,0,0,0,69,106.21Z"/><path class="cls-2" d="M70.49,1.52a13.47,13.47,0,0,0,8-1.52H65.41a1.32,1.32,0,0,1,0,.14A20,20,0,0,0,70.49,1.52Z"/><path class="cls-2" d="M71.47,143c-6.4-.73-13.83,2.73-13.83,2.73a36.48,36.48,0,0,0,5.6,3.45,1.18,1.18,0,0,1,1-.61,1.2,1.2,0,0,1,1.2,1.2,1.13,1.13,0,0,1,0,.24H78.49a11.17,11.17,0,0,0,2.32-1.61A13.25,13.25,0,0,0,71.47,143Z"/><path class="cls-2" d="M73.41,88.07a13.25,13.25,0,0,0-10.63,1.82c-5.39,3.52-8.91,10.93-8.91,10.93s8.2-.23,13.59-3.75A13.25,13.25,0,0,0,73.41,88.07Z"/><path class="cls-2" d="M95.51,51c2,6.12,8.29,11.41,8.29,11.41s1.88-8-.14-14.1a13.25,13.25,0,0,0-7.18-8,10.31,10.31,0,0,0-.88,1.91.54.54,0,0,0-.2,0,.53.53,0,0,0-.53.53.52.52,0,0,0,.41.51A13.47,13.47,0,0,0,95.51,51Z"/><path class="cls-2" d="M115.33,22.3a13.25,13.25,0,0,0,8.83-6.2,13.25,13.25,0,0,0-10.56-2.2c-6.31,1.3-12.29,6.91-12.29,6.91S109,23.6,115.33,22.3Z"/><path class="cls-2" d="M11,136.67a13.25,13.25,0,0,0-7.89-7.35,17.72,17.72,0,0,0-3.1-.77v8.76l.23.09A13.25,13.25,0,0,0,11,136.67Z"/><path class="cls-2" d="M139,128.86s5,6.21,11,8.45v-8.76A34.43,34.43,0,0,0,139,128.86Z"/><path class="cls-2" d="M118.21,101.66a13.25,13.25,0,0,1-.45,10.78,13.25,13.25,0,0,1-7.55-7.7c-2.31-6-.82-14.08-.82-14.08S115.9,95.65,118.21,101.66Z"/><path class="cls-2" d="M0,67.81v4.31A35.94,35.94,0,0,0,3.14,67.8S1.87,67.73,0,67.81Z"/><path class="cls-2" d="M132.53,78.73a13.25,13.25,0,0,0,10.75-.85A24.06,24.06,0,0,0,150,72.12V67.81c-2.9.13-7.28.66-10.74,2.5A13.25,13.25,0,0,0,132.53,78.73Z"/><path class="cls-2" d="M1.6,25.49a13.77,13.77,0,0,0-1.6-1v9.94A35.21,35.21,0,0,0,9.74,37S6.74,29.36,1.6,25.49Z"/><path class="cls-2" d="M57.88,36.62c6.25,1.56,14.07-.9,14.07-.9s-5.74-5.86-12-7.42a13.25,13.25,0,0,0-10.64,1.76A13.25,13.25,0,0,0,57.88,36.62Z"/><path class="cls-2" d="M141.11,23a13.25,13.25,0,0,0,5.32,9.38A18.76,18.76,0,0,0,150,34.39V24.46A13.16,13.16,0,0,0,141.11,23Z"/><path class="cls-2" d="M77.72,77.42c-8.44,2.11-19-1.21-19-1.21s7.75-7.91,16.19-10a17.88,17.88,0,0,1,14.36,2.37A17.88,17.88,0,0,1,77.72,77.42Zm-6-3.38a.55.55,0,1,0-.55.55A.55.55,0,0,0,71.68,74Z"/><path class="cls-2" d="M101.64,145.83a17.88,17.88,0,0,0-14.48-1.53A16.62,16.62,0,0,0,89.61,150H107A26.64,26.64,0,0,0,101.64,145.83Z"/><path class="cls-2" d="M26.18,20.24c-.79,8.66-7.42,17.53-7.42,17.53s-4.91-9.92-4.11-18.58a17.88,17.88,0,0,1,7-12.78A17.88,17.88,0,0,1,26.18,20.24Zm-6,11.15a1.67,1.67,0,1,0-1.67,1.67A1.67,1.67,0,0,0,20.2,31.39Z"/><path class="cls-2" d="M89.47,53.13a17.88,17.88,0,0,1-14.15,3.43c-8.57-1.48-16.88-8.79-16.88-8.79s10.29-4.1,18.85-2.62A17.89,17.89,0,0,1,89.47,53.13ZM64,49.62a1.07,1.07,0,1,0-1.07,1.07A1.07,1.07,0,0,0,64,49.62Z"/><path class="cls-2" d="M59.07,123.44c-8.54-1.64-18.9,2.28-18.9,2.28s8.18,7.46,16.72,9.09a17.88,17.88,0,0,0,14.21-3.17A17.88,17.88,0,0,0,59.07,123.44Z"/><path class="cls-2" d="M124.38,113a17.88,17.88,0,0,0,3.29,14.18,17.88,17.88,0,0,0,8.1-12.1c1.57-8.55-2.42-18.88-2.42-18.88S125.95,104.42,124.38,113Z"/><path class="cls-2" d="M0,92V82.85a26.81,26.81,0,0,1,6.55-2.43A17.88,17.88,0,0,1,20.82,83.3,17.89,17.89,0,0,1,9,91.74,29.06,29.06,0,0,1,0,92Zm9.83-3.35a1.82,1.82,0,1,0,1.82-1.82A1.82,1.82,0,0,0,9.83,88.68Zm-6.1-2.73A1.77,1.77,0,1,0,2,84.17,1.77,1.77,0,0,0,3.72,85.94Z"/><path class="cls-2" d="M150,92V88.1a1,1,0,0,1,0-1.91V82.85a48.45,48.45,0,0,0-10,7A48.83,48.83,0,0,0,150,92Z"/><path class="cls-2" d="M44.31,83.54a1.21,1.21,0,0,0,1.21-1.21,1.19,1.19,0,0,0-.17-.58,1.2,1.2,0,0,0-1-.63,1.21,1.21,0,0,0-1.21,1.21,1.16,1.16,0,0,0,.05.27A1.2,1.2,0,0,0,44.31,83.54Z"/><path class="cls-2" d="M82.11,96.18a1,1,0,0,0-.53-.89,1,1,0,0,0-.52-.16,1,1,0,0,0-.1,2.08l.09,0h0a1.06,1.06,0,0,0,1-1Z"/><circle class="cls-2" cx="113.85" cy="62.33" r="1.2"/><circle class="cls-2" cx="128.29" cy="97.48" r="1.76"/><path class="cls-2" d="M107.3,70.3a1.93,1.93,0,1,0-.92.06,2,2,0,0,0,.35,0A1.92,1.92,0,0,0,107.3,70.3Z"/><circle class="cls-2" cx="146.77" cy="49.42" r="0.95"/><path class="cls-2" d="M149.26,87.14a1,1,0,0,0,.74,1V86.19A1,1,0,0,0,149.26,87.14Z"/><circle class="cls-2" cx="128.24" cy="44.88" r="0.45"/><circle class="cls-2" cx="118.18" cy="39.56" r="0.85"/><circle class="cls-2" cx="102.37" cy="24.38" r="1.02"/><path class="cls-2" d="M106.5,30.69a1.77,1.77,0,1,0-1.79-1.79A1.79,1.79,0,0,0,106.5,30.69Z"/><circle class="cls-2" cx="62.94" cy="49.62" r="1.07"/><circle class="cls-2" cx="71.12" cy="74.04" r="0.55"/><circle class="cls-2" cx="22.98" cy="57.64" r="1.99"/><circle class="cls-2" cx="18.53" cy="31.39" r="1.67"/><circle class="cls-2" cx="24.26" cy="42.24" r="0.33"/><circle class="cls-2" cx="23.56" cy="48.84" r="0.72"/><circle class="cls-2" cx="3.72" cy="84.17" r="1.77"/><circle class="cls-2" cx="11.64" cy="88.68" r="1.82"/><circle class="cls-2" cx="25.08" cy="120.2" r="0.86"/><circle class="cls-2" cx="31.2" cy="139.68" r="0.87"/><circle class="cls-2" cx="33.31" cy="119.86" r="0.72"/><path class="cls-2" d="M52.51,148.3a1.44,1.44,0,0,0-1.45,1.7H54a1.44,1.44,0,0,0-1.46-1.7Z"/><path class="cls-2" d="M52.51,1.26A1.47,1.47,0,0,0,54,0H51.05A1.47,1.47,0,0,0,52.51,1.26Z"/><circle class="cls-2" cx="29.4" cy="133.39" r="1.92"/><circle class="cls-2" cx="90.27" cy="122.24" r="1.23"/><circle class="cls-2" cx="113.19" cy="112.57" r="0.69"/><circle class="cls-2" cx="116.57" cy="138.65" r="0.78"/><circle class="cls-2" cx="138.24" cy="136.02" r="0.76"/><circle class="cls-2" cx="24.79" cy="101.89" r="0.56"/><circle class="cls-2" cx="7.79" cy="114.3" r="0.65"/><circle class="cls-2" cx="13.16" cy="129.61" r="0.64"/><circle class="cls-2" cx="21.67" cy="131.65" r="1.07"/><path class="cls-2" d="M64.26,148.57a1.18,1.18,0,0,0-1,.61.88.88,0,0,0-.13.82h2.3a1.13,1.13,0,0,0,0-.24A1.2,1.2,0,0,0,64.26,148.57Z"/><path class="cls-2" d="M64.26,1A1.19,1.19,0,0,0,65.38.14a1.32,1.32,0,0,0,0-.14h-2.3A1.18,1.18,0,0,0,64.26,1Z"/><circle class="cls-2" cx="82.77" cy="133.78" r="0.99"/><path class="cls-2" d="M99.11,103a1.93,1.93,0,0,0,.71-3.72s0,0,0-.06a1.65,1.65,0,1,0-2.58,1.37A1.93,1.93,0,0,0,99.11,103Z"/><circle class="cls-2" cx="87.29" cy="113.44" r="1.13"/><circle class="cls-2" cx="100.29" cy="141.64" r="0.91"/><circle class="cls-2" cx="63.74" cy="104.82" r="0.61"/><circle class="cls-2" cx="37.12" cy="81.5" r="1.15"/><path class="cls-2" d="M130.13,18.2a1.33,1.33,0,1,0,.22.74A1.38,1.38,0,0,0,130.13,18.2Z"/><circle class="cls-2" cx="88.56" cy="15.86" r="0.58"/><circle class="cls-2" cx="66.32" cy="43.04" r="1.37"/><circle class="cls-2" cx="59.58" cy="40.51" r="1.14"/><circle class="cls-2" cx="73.24" cy="3.35" r="1.7"/><circle class="cls-2" cx="11.47" cy="5.69" r="1.3"/><circle class="cls-2" cx="12.72" cy="9.72" r="1.48"/><circle class="cls-2" cx="6.4" cy="14.1" r="1.57"/><circle class="cls-2" cx="12.37" cy="76" r="2.03"/><circle class="cls-2" cx="10.25" cy="103" r="2.03"/></pattern></defs><title>MARCOS DINAMICOS FINALES</title><path class="cls-3" d="M0,61.58V.76H190.63V61.58ZM177.52,13.87H13.11V48.48H177.52Z"/><path class="cls-2" d="M25.28,39.82H22.86V22.52h2.52c2.84,0,5,1.8,5,4.55,0,2-.85,3.34-2.47,3.87a4.06,4.06,0,0,1,2.89,4C30.78,37.91,28.72,39.82,25.28,39.82Zm.24-15.29H25v5.6h.59c1.78,0,2.63-1.33,2.63-3.06A2.67,2.67,0,0,0,25.52,24.53Zm.14,7.61H25v5.67h.57c2.06,0,3-1.09,3-2.82A2.76,2.76,0,0,0,25.66,32.14Z"/><path class="cls-2" d="M38.42,40.11a4.72,4.72,0,0,1-4.63-4.69V22.52H36V34.78c0,2,.92,3.23,2.47,3.23s2.51-1.21,2.51-3.23V22.52H43v12.9A4.72,4.72,0,0,1,38.42,40.11Z"/><path class="cls-2" d="M46.85,39.82V22.52h6.76v2H49v5.79h4.34v2H49v5.48h4.84v2Z"/><path class="cls-2" d="M64.48,39.82,59,28.18s.07.79.07,1.14v10.5H57V22.52h1.66l5.45,11.74S64,33.47,64,33.12V22.52h2.13V39.82Z"/><path class="cls-2" d="M74.75,40.11c-4,0-5.41-5-5.41-9s1.37-8.87,5.41-8.87c4.32,0,5.41,4.74,5.41,8.87S78.88,40.11,74.75,40.11Zm0-15.77c-2.61,0-3.18,3.61-3.18,6.76,0,3,.57,6.9,3.18,6.9s3.18-3.91,3.18-6.9C77.93,27.95,77.43,24.34,74.75,24.34Z"/><path class="cls-2" d="M86.06,40.11a4.13,4.13,0,0,1-3.53-1.87L84,36.79A2.75,2.75,0,0,0,86.11,38c1.28,0,1.75-1,1.75-2.09,0-3.35-5.26-5.27-5.26-9.34a4.1,4.1,0,0,1,3.89-4.34,3.73,3.73,0,0,1,3.22,1.64l-1.49,1.38a2.28,2.28,0,0,0-1.73-.9c-1.18,0-1.71,1-1.71,2.11,0,2.92,5.26,4.86,5.26,9.32A4.07,4.07,0,0,1,86.06,40.11Z"/><path class="cls-2" d="M102.09,39.82V29a10.61,10.61,0,0,1,.09-1.14l-3.06,7.3h-.95l-3.06-7.3a10.34,10.34,0,0,1,.1,1.14V39.82H93.08V22.52H95l3.37,8a8.48,8.48,0,0,1,.35,1.07s.19-.64.36-1.07l3.37-8h1.83V39.82Z"/><path class="cls-2" d="M112.83,40.11c-4,0-5.4-5-5.4-9s1.38-8.87,5.4-8.87c4.32,0,5.41,4.74,5.41,8.87S117,40.11,112.83,40.11Zm0-15.77c-2.61,0-3.17,3.61-3.17,6.76,0,3,.57,6.9,3.17,6.9S116,34.09,116,31.1C116,27.95,115.52,24.34,112.83,24.34Z"/><path class="cls-2" d="M125.05,24.53V39.82h-2.14V24.53h-2.7v-2h7.54v2Z"/><path class="cls-2" d="M130.66,39.82V22.52h2.13V39.82Z"/><path class="cls-2" d="M141.64,39.82H140l-4.44-17.31h2.21l2.7,10.91c.14.57.36,1.9.36,1.9s.21-1.33.36-1.9l2.7-10.91h2.16Z"/><path class="cls-2" d="M153.15,40.11c-4,0-5.41-5-5.41-9s1.38-8.87,5.41-8.87c4.31,0,5.4,4.74,5.4,8.87S157.27,40.11,153.15,40.11Zm0-15.77c-2.61,0-3.18,3.61-3.18,6.76,0,3,.57,6.9,3.18,6.9s3.17-3.91,3.17-6.9C156.32,27.95,155.83,24.34,153.15,24.34Z"/><path class="cls-2" d="M164.59,40.11a4.13,4.13,0,0,1-3.53-1.87l1.45-1.45A2.75,2.75,0,0,0,164.64,38c1.28,0,1.76-1,1.76-2.09,0-3.35-5.27-5.27-5.27-9.34A4.1,4.1,0,0,1,165,22.23a3.73,3.73,0,0,1,3.23,1.64l-1.5,1.38a2.28,2.28,0,0,0-1.73-.9c-1.19,0-1.71,1-1.71,2.11,0,2.92,5.27,4.86,5.27,9.32A4.07,4.07,0,0,1,164.59,40.11Z"/><path class="cls-2" d="M26.82,69.67v7.06h-1V69.67h-3v-.84h6.87v.84Z"/><path class="cls-2" d="M31.76,69.16a.6.6,0,0,1-.63.6.6.6,0,0,1-.62-.6.61.61,0,0,1,.62-.6A.62.62,0,0,1,31.76,69.16Zm-1.08,7.56V70.91h.92v5.81Z"/><path class="cls-2" d="M39,74h-5A2.13,2.13,0,0,0,36,76.09a2,2,0,0,0,2-1.25l.81.19A2.81,2.81,0,0,1,36,76.88a3.05,3.05,0,0,1,.05-6.1A2.86,2.86,0,0,1,39,73.68Zm-5-.67h4.09a1.93,1.93,0,0,0-2-1.77A2.11,2.11,0,0,0,34,73.33Z"/><path class="cls-2" d="M45.91,73.25v3.48H45V73.42a1.64,1.64,0,0,0-1.63-1.81c-1.23,0-2,.82-2,2.33v2.79h-.91V70.91h.91v1a2.53,2.53,0,0,1,2.22-1.11A2.29,2.29,0,0,1,45.91,73.25Z"/><path class="cls-2" d="M53.43,76.72h-.91V75.8a2.87,2.87,0,0,1-2.34,1.07,3.05,3.05,0,0,1,0-6.1,2.87,2.87,0,0,1,2.34,1.07V68.24h.91Zm-.91-2.9a2.21,2.21,0,0,0-2.19-2.26,2.26,2.26,0,0,0,0,4.51A2.2,2.2,0,0,0,52.53,73.82Z"/><path class="cls-2" d="M61,76.72h-.9V75.8a2.87,2.87,0,0,1-2.34,1.07,3.05,3.05,0,0,1,0-6.1,2.87,2.87,0,0,1,2.34,1.07v-.93H61Zm-.9-2.9a2.2,2.2,0,0,0-2.19-2.26,2.26,2.26,0,0,0,0,4.51A2.2,2.2,0,0,0,60.13,73.82Z"/><path class="cls-2" d="M70.74,74.73l.84.22a2.77,2.77,0,0,1-2.78,1.92,3.05,3.05,0,1,1,0-6.1,2.83,2.83,0,0,1,2.79,1.93l-.87.26A1.93,1.93,0,0,0,68.8,71.6a2.22,2.22,0,0,0,0,4.44A1.94,1.94,0,0,0,70.74,74.73Z"/><path class="cls-2" d="M78.75,73.82a3.12,3.12,0,1,1-3.11-3A3,3,0,0,1,78.75,73.82Zm-.89,0a2.23,2.23,0,1,0-4.45,0,2.23,2.23,0,1,0,4.45,0Z"/><path class="cls-2" d="M85.67,73.25v3.48h-.91V73.42a1.64,1.64,0,0,0-1.63-1.81c-1.23,0-2,.82-2,2.33v2.79h-.9V70.91h.9v1a2.54,2.54,0,0,1,2.21-1.11A2.29,2.29,0,0,1,85.67,73.25Z"/><path class="cls-2" d="M91.18,75c.08.77.8,1.18,1.73,1.18s1.41-.39,1.41-1-.37-.71-1-.84L92,74c-1-.2-1.52-.68-1.52-1.48,0-1,.88-1.76,2.22-1.76a2.23,2.23,0,0,1,2.4,1.61l-.87.19a1.42,1.42,0,0,0-1.55-1.07c-.83,0-1.3.4-1.3,1s.32.67.9.8l1.42.31c.86.19,1.51.64,1.51,1.52,0,1.15-1,1.79-2.37,1.79s-2.42-.59-2.56-1.72Z"/><path class="cls-2" d="M102.12,74h-5a2.13,2.13,0,0,0,2.1,2.08,2,2,0,0,0,2-1.25L102,75a2.83,2.83,0,0,1-2.81,1.85,3.05,3.05,0,0,1,.06-6.1,2.85,2.85,0,0,1,2.88,2.9Zm-5-.67h4.09a1.94,1.94,0,0,0-2-1.77A2.1,2.1,0,0,0,97.11,73.33Z"/><path class="cls-2" d="M109,73.25v3.48h-.91V73.42a1.64,1.64,0,0,0-1.63-1.81c-1.23,0-2,.82-2,2.33v2.79h-.9V70.91h.9v1a2.53,2.53,0,0,1,2.21-1.11A2.29,2.29,0,0,1,109,73.25Z"/><path class="cls-2" d="M114.37,76.42a2.24,2.24,0,0,1-1.35.46,1.79,1.79,0,0,1-1.94-2V71.67H109.8v-.76h1.28V69.07H112v1.85h2.1v.76H112v3.18A1,1,0,0,0,113.07,76a1.83,1.83,0,0,0,1-.35Z"/><path class="cls-2" d="M116.57,69.16a.6.6,0,0,1-.63.6.6.6,0,0,1-.62-.6.61.61,0,0,1,.62-.6A.62.62,0,0,1,116.57,69.16Zm-1.08,7.56V70.91h.92v5.81Z"/><path class="cls-2" d="M124,76.72h-.9V75.8a2.88,2.88,0,0,1-2.34,1.07,3.05,3.05,0,0,1,0-6.1,2.88,2.88,0,0,1,2.34,1.07V68.24h.9Zm-.9-2.9A2.2,2.2,0,0,0,121,71.57a2.26,2.26,0,0,0,0,4.51A2.2,2.2,0,0,0,123.15,73.82Z"/><path class="cls-2" d="M131.75,73.82a3.11,3.11,0,0,1-6.23,0,3.12,3.12,0,0,1,6.23,0Zm-.9,0a2.23,2.23,0,1,0-4.46,0,2.23,2.23,0,1,0,4.46,0Z"/><path class="cls-2" d="M136.84,75c.09.77.8,1.18,1.73,1.18s1.41-.39,1.41-1-.37-.71-1-.84l-1.35-.3c-1-.2-1.52-.68-1.52-1.48,0-1,.88-1.76,2.22-1.76a2.23,2.23,0,0,1,2.4,1.61l-.87.19a1.41,1.41,0,0,0-1.55-1.07c-.83,0-1.3.4-1.3,1s.32.67.9.8l1.41.31c.86.19,1.51.64,1.51,1.52,0,1.15-1,1.79-2.37,1.79s-2.41-.59-2.56-1.72Z"/><path class="cls-2" d="M148.09,73.82a3.12,3.12,0,1,1-3.11-3A3,3,0,0,1,148.09,73.82Zm-.9,0a2.23,2.23,0,1,0-4.46,0,2.23,2.23,0,1,0,4.46,0Z"/><path class="cls-2" d="M154.11,74.73l.83.22a2.76,2.76,0,0,1-2.78,1.92,3.05,3.05,0,1,1,0-6.1A2.82,2.82,0,0,1,155,72.71l-.87.26a1.92,1.92,0,0,0-1.92-1.36,2.22,2.22,0,0,0,0,4.44A1.94,1.94,0,0,0,154.11,74.73Z"/><path class="cls-2" d="M157.48,69.16a.61.61,0,0,1-.63.6.59.59,0,0,1-.62-.6.61.61,0,0,1,.62-.6A.62.62,0,0,1,157.48,69.16Zm-1.08,7.56V70.91h.91v5.81Z"/><path class="cls-2" d="M164.93,76.72H164V75.8a2.86,2.86,0,0,1-2.34,1.07,3.05,3.05,0,0,1,0-6.1A2.86,2.86,0,0,1,164,71.85v-.93h.9Zm-.9-2.9a2.2,2.2,0,0,0-2.19-2.26,2.26,2.26,0,0,0,0,4.51A2.2,2.2,0,0,0,164,73.82Z"/><path class="cls-2" d="M166.81,76.72V68.24h.9v8.48Z"/></svg>