<svg id="Capa_1" data-name="Capa 1" xmlns="http://www.w3.org/2000/svg" xmlns:xlink="http://www.w3.org/1999/xlink" viewBox="0 0 190 78"><defs><style>.cls-1{fill:none;}.cls-2{fill:#070308;}.cls-3{fill:url(#New_Pattern_Swatch_23);}</style><pattern id="New_Pattern_Swatch_23" data-name="New Pattern Swatch 23" width="426.72" height="426.72" patternTransform="translate(-1421.44 -757.73) scale(0.2)" patternUnits="userSpaceOnUse" viewBox="0 0 426.72 426.72"><rect class="cls-1" width="426.72" height="426.72"/><circle class="cls-2" cx="153.82" cy="169.98" r="10.62"/><circle class="cls-2" cx="53.16" cy="25.36" r="10.62"/><circle class="cls-2" cx="57.65" cy="246.27" r="10.62"/><circle class="cls-2" cx="296.11" cy="358.58" r="10.62"/><circle class="cls-2" cx="177.69" cy="315.9" r="4.49"/><circle class="cls-2" cx="44.25" cy="405.14" r="4.49"/><circle class="cls-2" cx="193.31" cy="205.34" r="4.49"/><path class="cls-2" d="M424.65,305.9a4.48,4.48,0,0,0,2.08,3.77v-7.54A4.47,4.47,0,0,0,424.65,305.9Z"/><path class="cls-2" d="M6.9,305.9A4.48,4.48,0,0,0,0,302.12v7.55a4.48,4.48,0,0,0,6.9-3.77Z"/><circle class="cls-2" cx="91.37" cy="309.41" r="4.49"/><circle class="cls-2" cx="393.76" cy="216.22" r="4.49"/><circle class="cls-2" cx="293.2" cy="35.98" r="4.49"/><circle class="cls-2" cx="182.62" cy="56.94" r="4.49"/><circle class="cls-2" cx="300.85" cy="296.15" r="4.49"/><circle class="cls-2" cx="30.15" cy="115.67" r="4.49"/><circle class="cls-2" cx="203.94" cy="376.96" r="10.62"/><circle class="cls-2" cx="330.69" cy="89.78" r="10.62"/><polygon class="cls-2" points="120.21 251.22 105 259.95 108.52 266.1 123.73 257.37 120.21 251.22"/><polygon class="cls-2" points="68.68 361.09 76.36 376.86 82.73 373.76 75.05 357.99 68.68 361.09"/><polygon class="cls-2" points="18.64 194.52 26.32 210.29 32.69 207.19 25.01 191.42 18.64 194.52"/><polygon class="cls-2" points="241.57 28.39 233.89 12.63 227.52 15.73 235.21 31.5 241.57 28.39"/><polygon class="cls-2" points="228.98 281.99 235.26 278.72 227.17 263.16 220.88 266.43 228.98 281.99"/><polygon class="cls-2" points="254.75 409.14 259.94 413.97 271.9 401.14 266.71 396.31 254.75 409.14"/><polygon class="cls-2" points="420.37 376.77 426.72 376.75 426.72 369.67 420.36 369.69 420.37 376.77"/><polygon class="cls-2" points="11.17 369.64 0 369.67 0 376.75 11.19 376.73 11.17 369.64"/><polygon class="cls-2" points="27.34 71.98 12.38 62.82 8.68 68.86 23.63 78.02 27.34 71.98"/><polygon class="cls-2" points="417.73 31.23 402.78 22.06 399.07 28.1 414.02 37.27 417.73 31.23"/><polygon class="cls-2" points="342.68 244.78 357.92 236.1 354.41 229.94 339.17 238.63 342.68 244.78"/><polygon class="cls-2" points="140.16 406.41 143.67 412.56 158.91 403.87 155.39 397.72 140.16 406.41"/><polygon class="cls-2" points="371.64 278.73 385.33 289.69 389.76 284.17 376.07 273.2 371.64 278.73"/><polygon class="cls-2" points="321.64 267.23 335.33 278.19 339.76 272.67 326.07 261.7 321.64 267.23"/><polygon class="cls-2" points="208.7 149.78 223.94 141.09 220.43 134.93 205.19 143.62 208.7 149.78"/><polygon class="cls-2" points="320.59 401.92 324.1 408.07 339.34 399.38 335.83 393.23 320.59 401.92"/><polygon class="cls-2" points="251.25 190.5 236.01 199.19 239.52 205.34 254.75 196.66 251.25 190.5"/><polygon class="cls-2" points="202.84 252.88 209.23 238.35 202.75 235.5 198.08 246.12 184.38 247.12 178.85 259.69 165.15 260.68 159.63 273.24 145.93 274.24 140.41 286.8 128.84 287.64 129.35 294.7 145.17 293.56 150.7 280.99 164.4 280 169.92 267.43 183.62 266.44 189.15 253.87 202.84 252.88"/><polygon class="cls-2" points="150.79 360.08 155.35 353.18 141.82 352.62 135.91 340.22 122.19 339.64 117.2 329.18 110.81 332.23 117.63 346.55 131.35 347.12 137.26 359.52 150.79 360.08"/><polygon class="cls-2" points="264.34 335.6 250.81 335.03 244.9 322.64 231.19 322.06 226.2 311.6 219.8 314.64 226.63 328.96 240.35 329.53 246.25 341.93 259.78 342.5 264.34 335.6"/><polygon class="cls-2" points="286 224.59 295.82 214.99 291.99 202.01 283.99 199.92 287.82 212.91 278 222.51 281.89 235.67 273.6 243.78 278.55 248.85 289.89 237.76 286 224.59"/><polygon class="cls-2" points="407.36 332.6 395.6 339.68 385.66 333.7 382.01 339.77 395.6 347.95 407.36 340.87 419.12 347.95 426.72 343.38 426.72 335.11 419.12 339.69 407.36 332.6"/><polygon class="cls-2" points="4 332.7 0 335.11 0 343.38 4 340.97 4 332.7"/><polygon class="cls-2" points="404.81 158.76 394.88 152.78 391.22 158.85 404.81 167.03 416.57 159.95 426.72 166.06 426.72 157.79 416.57 151.68 404.81 158.76"/><polygon class="cls-2" points="13.21 160.05 13.21 151.78 1.61 158.76 0 157.79 0 166.06 1.61 167.03 13.21 160.05"/><polygon class="cls-2" points="372.26 58.14 372.6 71.86 384.72 77.9 391.7 73.47 379.58 67.43 379.24 53.7 366.95 47.58 366.67 35.98 359.58 36.16 359.97 52.02 372.26 58.14"/><polygon class="cls-2" points="85.67 64.84 99.39 65.44 106.33 53.6 117.92 54.11 118.23 47.03 102.38 46.34 95.43 58.18 81.72 57.58 74.87 69.26 78.82 76.52 85.67 64.84"/><polygon class="cls-2" points="104.99 197.96 104.83 211.69 118.76 219.28 122.15 213.06 111.96 207.51 112.13 193.78 100.07 187.21 100.23 173.48 88.17 166.91 88.33 153.18 76.28 146.62 76.42 135.02 69.34 134.94 69.15 150.79 81.2 157.36 81.04 171.09 93.1 177.66 92.93 191.39 104.99 197.96"/><polygon class="cls-2" points="340.72 178.18 329.71 186.39 332.13 202.07 339.13 200.99 337.36 189.52 348.37 181.31 346.27 167.74 357.28 159.54 355.18 145.97 366.19 137.77 364.09 124.2 373.38 117.27 369.15 111.59 356.43 121.07 358.54 134.63 347.52 142.84 349.63 156.41 338.62 164.61 340.72 178.18"/><polygon class="cls-2" points="211.4 87.01 220.36 97.41 233.75 94.36 242.71 104.76 256.1 101.7 265.06 112.11 278.45 109.05 286.02 117.84 291.38 113.22 281.03 101.19 267.65 104.25 258.68 93.85 245.3 96.9 236.34 86.5 222.94 89.56 213.98 79.16 198.51 82.69 200.09 89.59 211.4 87.01"/><polygon class="cls-2" points="382.15 369.23 370.1 362.66 370.26 348.93 358.2 342.36 358.37 328.63 346.31 322.07 346.45 310.47 339.37 310.38 339.17 326.25 351.23 332.81 351.07 346.54 363.13 353.11 362.96 366.84 375.02 373.41 374.86 387.14 388.79 394.73 392.18 388.51 381.99 382.96 382.15 369.23"/><polygon class="cls-2" points="293.36 157.74 278.55 143.4 273.62 148.49 288.44 162.83 293.36 157.74"/><polygon class="cls-2" points="107.53 100.01 122.34 114.35 127.27 109.26 112.46 94.92 107.53 100.01"/><polygon class="cls-2" points="45.31 285.04 60.13 299.38 65.06 294.29 50.24 279.95 45.31 285.04"/><polygon class="cls-2" points="158.97 118.95 170.8 98.47 182.63 118.95 158.97 118.95"/><polygon class="cls-2" points="348.54 11.94 341.01 24.98 333.48 11.94 348.54 11.94"/><polygon class="cls-2" points="274.27 76.05 271.31 61.28 285.58 66.09 274.27 76.05"/><polygon class="cls-2" points="14.47 280.48 11.5 265.71 25.78 270.53 14.47 280.48"/><polygon class="cls-2" points="147.58 8.84 168.06 20.67 147.58 32.5 147.58 8.84"/><polygon class="cls-2" points="92.2 397.21 108.01 406.34 92.2 415.46 92.2 397.21"/><polygon class="cls-2" points="217.28 401.91 226.44 407.19 217.28 412.48 217.28 401.91"/><polygon class="cls-2" points="270.24 267.42 279.4 272.71 270.24 278 270.24 267.42"/><polygon class="cls-2" points="399.07 237.37 414.61 246.33 399.07 255.3 399.07 237.37"/><polygon class="cls-2" points="54.06 327.1 45.09 342.64 36.12 327.1 54.06 327.1"/></pattern></defs><title>MARCOS DINAMICOS FINALES</title><path class="cls-3" d="M0,61.73V1.13h190V61.73ZM176.87,14.19H13V48.67H176.87Z"/><path class="cls-2" d="M25.17,40.05H22.76V22.8h2.51c2.83,0,5,1.8,5,4.54,0,2-.85,3.33-2.46,3.85a4.05,4.05,0,0,1,2.88,4C30.66,38.14,28.6,40.05,25.17,40.05Zm.24-15.24h-.52v5.58h.59c1.77,0,2.62-1.33,2.62-3.05A2.66,2.66,0,0,0,25.41,24.81Zm.14,7.59h-.66V38h.57c2.06,0,3-1.09,3-2.81A2.75,2.75,0,0,0,25.55,32.4Z"/><path class="cls-2" d="M38.27,40.34a4.71,4.71,0,0,1-4.61-4.68V22.8h2.15V35c0,2,.92,3.21,2.46,3.21s2.5-1.2,2.5-3.21V22.8h2.1V35.66A4.71,4.71,0,0,1,38.27,40.34Z"/><path class="cls-2" d="M46.66,40.05V22.8H53.4v2h-4.6v5.77h4.32v2H48.79V38h4.82v2Z"/><path class="cls-2" d="M64.24,40.05,58.8,28.45s.07.78.07,1.14V40.05H56.75V22.8H58.4l5.43,11.7s-.07-.78-.07-1.13V22.8h2.13V40.05Z"/><path class="cls-2" d="M74.47,40.34c-4,0-5.39-5-5.39-9s1.37-8.84,5.39-8.84c4.3,0,5.39,4.73,5.39,8.84S78.58,40.34,74.47,40.34Zm0-15.71c-2.6,0-3.17,3.59-3.17,6.74,0,3,.57,6.88,3.17,6.88s3.17-3.9,3.17-6.88C77.64,28.21,77.14,24.62,74.47,24.62Z"/><path class="cls-2" d="M85.74,40.34a4.12,4.12,0,0,1-3.52-1.86L83.66,37a2.74,2.74,0,0,0,2.13,1.2c1.28,0,1.75-1,1.75-2.08,0-3.33-5.25-5.25-5.25-9.31a4.09,4.09,0,0,1,3.88-4.32,3.71,3.71,0,0,1,3.21,1.63l-1.49,1.37a2.28,2.28,0,0,0-1.72-.9c-1.18,0-1.7.95-1.7,2.1,0,2.91,5.24,4.85,5.24,9.29A4.05,4.05,0,0,1,85.74,40.34Z"/><path class="cls-2" d="M101.71,40.05V29.25a10.48,10.48,0,0,1,.1-1.14l-3,7.28h-.95l-3-7.28a10.48,10.48,0,0,1,.1,1.14v10.8H92.74V22.8H94.6l3.35,8a8.48,8.48,0,0,1,.35,1.07s.19-.64.36-1.07l3.35-8h1.82V40.05Z"/><path class="cls-2" d="M112.42,40.34c-4,0-5.39-5-5.39-9s1.37-8.84,5.39-8.84c4.3,0,5.39,4.73,5.39,8.84S116.53,40.34,112.42,40.34Zm0-15.71c-2.6,0-3.16,3.59-3.16,6.74,0,3,.57,6.88,3.16,6.88s3.17-3.9,3.17-6.88C115.59,28.21,115.09,24.62,112.42,24.62Z"/><path class="cls-2" d="M124.59,24.81V40.05h-2.13V24.81h-2.7v-2h7.52v2Z"/><path class="cls-2" d="M130.18,40.05V22.8h2.13V40.05Z"/><path class="cls-2" d="M141.12,40.05h-1.61L135.09,22.8h2.2L140,33.67c.14.57.35,1.89.35,1.89s.22-1.33.36-1.89l2.69-10.87h2.15Z"/><path class="cls-2" d="M152.59,40.34c-4,0-5.39-5-5.39-9s1.37-8.84,5.39-8.84c4.3,0,5.39,4.73,5.39,8.84S156.7,40.34,152.59,40.34Zm0-15.71c-2.6,0-3.17,3.59-3.17,6.74,0,3,.57,6.88,3.17,6.88s3.16-3.9,3.16-6.88C155.75,28.21,155.26,24.62,152.59,24.62Z"/><path class="cls-2" d="M164,40.34a4.12,4.12,0,0,1-3.52-1.86L161.91,37a2.74,2.74,0,0,0,2.12,1.2c1.28,0,1.75-1,1.75-2.08,0-3.33-5.25-5.25-5.25-9.31a4.09,4.09,0,0,1,3.88-4.32,3.72,3.72,0,0,1,3.21,1.63l-1.49,1.37a2.28,2.28,0,0,0-1.72-.9c-1.18,0-1.7.95-1.7,2.1,0,2.91,5.25,4.85,5.25,9.29A4.05,4.05,0,0,1,164,40.34Z"/><path class="cls-2" d="M26.71,68.78v7h-.95v-7h-3v-.83h6.85v.83Z"/><path class="cls-2" d="M31.63,68.27a.6.6,0,0,1-.63.6.59.59,0,0,1-.62-.6.61.61,0,0,1,.62-.6A.62.62,0,0,1,31.63,68.27Zm-1.08,7.54V70h.91v5.79Z"/><path class="cls-2" d="M38.82,73.1h-5a2.13,2.13,0,0,0,2.09,2.08,2,2,0,0,0,2-1.25l.81.19A2.8,2.8,0,0,1,35.89,76a3,3,0,0,1,.05-6.08,2.84,2.84,0,0,1,2.88,2.89Zm-5-.67h4.07a1.92,1.92,0,0,0-2-1.76A2.1,2.1,0,0,0,33.84,72.43Z"/><path class="cls-2" d="M45.73,72.35v3.46h-.9v-3.3A1.63,1.63,0,0,0,43.2,70.7c-1.23,0-2,.82-2,2.32v2.78h-.91V70h.91v1a2.52,2.52,0,0,1,2.21-1.1A2.28,2.28,0,0,1,45.73,72.35Z"/><path class="cls-2" d="M53.23,75.81h-.9V74.9A2.86,2.86,0,0,1,50,76a3,3,0,0,1,0-6.08A2.86,2.86,0,0,1,52.32,71V67.36h.9Zm-.9-2.89a2.2,2.2,0,0,0-2.18-2.25,2.25,2.25,0,0,0,0,4.49A2.19,2.19,0,0,0,52.32,72.92Z"/><path class="cls-2" d="M60.8,75.81h-.9V74.9A2.86,2.86,0,0,1,57.57,76a3,3,0,0,1,0-6.08A2.86,2.86,0,0,1,59.9,71V70h.9Zm-.9-2.89a2.2,2.2,0,0,0-2.18-2.25,2.25,2.25,0,0,0,0,4.49A2.19,2.19,0,0,0,59.9,72.92Z"/><path class="cls-2" d="M70.47,73.83l.83.22A2.76,2.76,0,0,1,68.54,76a3,3,0,1,1,0-6.08,2.82,2.82,0,0,1,2.78,1.93l-.86.26a1.92,1.92,0,0,0-1.92-1.36,2.13,2.13,0,0,0-2.17,2.22,2.11,2.11,0,0,0,2.17,2.21A1.93,1.93,0,0,0,70.47,73.83Z"/><path class="cls-2" d="M78.45,72.91a3.11,3.11,0,1,1-3.1-3A3,3,0,0,1,78.45,72.91Zm-.89,0a2.22,2.22,0,1,0-4.43,0,2.22,2.22,0,1,0,4.43,0Z"/><path class="cls-2" d="M85.35,72.35v3.46h-.9v-3.3a1.63,1.63,0,0,0-1.62-1.81c-1.23,0-2,.82-2,2.32v2.78h-.9V70h.9v1A2.53,2.53,0,0,1,83,69.88,2.28,2.28,0,0,1,85.35,72.35Z"/><path class="cls-2" d="M90.83,74.05c.08.76.8,1.18,1.72,1.18s1.4-.39,1.4-1-.37-.7-1-.83l-1.34-.3c-1-.2-1.52-.68-1.52-1.48,0-1,.88-1.75,2.21-1.75a2.22,2.22,0,0,1,2.39,1.61l-.86.19a1.42,1.42,0,0,0-1.55-1.07c-.83,0-1.3.4-1.3.95s.32.67.89.8l1.41.31c.85.19,1.51.63,1.51,1.51,0,1.14-1,1.78-2.36,1.78s-2.41-.59-2.55-1.72Z"/><path class="cls-2" d="M101.74,73.1h-5a2.13,2.13,0,0,0,2.09,2.08,2,2,0,0,0,2-1.25l.81.19A2.82,2.82,0,0,1,98.81,76a3,3,0,0,1,.06-6.08,2.84,2.84,0,0,1,2.87,2.89Zm-5-.67h4.07a1.93,1.93,0,0,0-2-1.76A2.1,2.1,0,0,0,96.75,72.43Z"/><path class="cls-2" d="M108.63,72.35v3.46h-.9v-3.3a1.63,1.63,0,0,0-1.62-1.81c-1.22,0-2,.82-2,2.32v2.78h-.9V70h.9v1a2.52,2.52,0,0,1,2.2-1.1A2.28,2.28,0,0,1,108.63,72.35Z"/><path class="cls-2" d="M113.95,75.51a2.23,2.23,0,0,1-1.35.46,1.79,1.79,0,0,1-1.93-2V70.78h-1.27V70h1.27V68.18h.91V70h2.09v.75h-2.09v3.17a1,1,0,0,0,1.08,1.18,1.83,1.83,0,0,0,1-.35Z"/><path class="cls-2" d="M116.14,68.27a.6.6,0,0,1-.63.6.59.59,0,0,1-.61-.6.61.61,0,0,1,.61-.6A.62.62,0,0,1,116.14,68.27Zm-1.08,7.54V70H116v5.79Z"/><path class="cls-2" d="M123.59,75.81h-.9V74.9A2.87,2.87,0,0,1,120.36,76a3,3,0,0,1,0-6.08A2.87,2.87,0,0,1,122.69,71V67.36h.9Zm-.9-2.89a2.2,2.2,0,0,0-2.18-2.25,2.25,2.25,0,0,0,0,4.49A2.19,2.19,0,0,0,122.69,72.92Z"/><path class="cls-2" d="M131.26,72.91a3.1,3.1,0,0,1-6.21,0,3.1,3.1,0,0,1,6.21,0Zm-.89,0a2.22,2.22,0,1,0-4.44,0,2.22,2.22,0,1,0,4.44,0Z"/><path class="cls-2" d="M136.34,74.05c.09.76.8,1.18,1.72,1.18s1.4-.39,1.4-1-.37-.7-1-.83l-1.35-.3c-1-.2-1.51-.68-1.51-1.48,0-1,.88-1.75,2.21-1.75a2.23,2.23,0,0,1,2.39,1.61l-.87.19a1.4,1.4,0,0,0-1.54-1.07c-.83,0-1.29.4-1.29.95s.32.67.89.8l1.41.31c.85.19,1.51.63,1.51,1.51,0,1.14-1,1.78-2.36,1.78s-2.4-.59-2.55-1.72Z"/><path class="cls-2" d="M147.55,72.91a3.11,3.11,0,1,1-3.1-3A3,3,0,0,1,147.55,72.91Zm-.89,0a2.22,2.22,0,1,0-4.44,0,2.22,2.22,0,1,0,4.44,0Z"/><path class="cls-2" d="M153.54,73.83l.83.22A2.75,2.75,0,0,1,151.6,76a3,3,0,1,1,0-6.08,2.81,2.81,0,0,1,2.78,1.93l-.87.26a1.91,1.91,0,0,0-1.91-1.36,2.13,2.13,0,0,0-2.17,2.22,2.11,2.11,0,0,0,2.17,2.21A1.93,1.93,0,0,0,153.54,73.83Z"/><path class="cls-2" d="M156.91,68.27a.6.6,0,0,1-.63.6.59.59,0,0,1-.62-.6.61.61,0,0,1,.62-.6A.62.62,0,0,1,156.91,68.27Zm-1.08,7.54V70h.91v5.79Z"/><path class="cls-2" d="M164.33,75.81h-.9V74.9A2.85,2.85,0,0,1,161.1,76a3,3,0,0,1,0-6.08A2.85,2.85,0,0,1,163.43,71V70h.9Zm-.9-2.89a2.19,2.19,0,0,0-2.19-2.25,2.25,2.25,0,0,0,0,4.49A2.19,2.19,0,0,0,163.43,72.92Z"/><path class="cls-2" d="M166.21,75.81V67.36h.9v8.45Z"/></svg>