<svg id="Capa_1" data-name="Capa 1" xmlns="http://www.w3.org/2000/svg" xmlns:xlink="http://www.w3.org/1999/xlink" viewBox="0 0 190 78"><defs><style>.cls-1{fill:none;}.cls-2{fill:#070308;}.cls-3{fill:url(#Amor_y_amistad);}</style><pattern id="Amor_y_amistad" data-name="Amor y amistad" width="39.68" height="39.68" patternTransform="translate(-180.55 20.65) scale(0.41)" patternUnits="userSpaceOnUse" viewBox="0 0 39.69 39.69"><rect class="cls-1" width="39.68" height="39.68"/><path class="cls-2" d="M34,39.53a2.59,2.59,0,1,0-4.2-3,2.59,2.59,0,1,0-4.2,3h0l4.2,4.62L34,39.53Z"/><path class="cls-2" d="M14.11,39.53a2.59,2.59,0,1,0-4.2-3,2.59,2.59,0,1,0-4.2,3h0l4.2,4.62,4.2-4.62Z"/><path class="cls-2" d="M43.88,19.69a2.59,2.59,0,1,0-4.2-3,2.59,2.59,0,1,0-4.2,3h0l4.2,4.62,4.2-4.62Z"/><path class="cls-2" d="M24,19.69a2.59,2.59,0,1,0-4.2-3,2.59,2.59,0,1,0-4.2,3h0l4.2,4.62L24,19.69Z"/><path class="cls-2" d="M4.19,19.69a2.59,2.59,0,1,0-4.2-3,2.59,2.59,0,0,0-2.26-1.33A2.59,2.59,0,0,0-4.86,18a2.57,2.57,0,0,0,.66,1.72h0L0,24.31l4.2-4.62Z"/><path class="cls-2" d="M34-.16a2.57,2.57,0,0,0,.66-1.72A2.59,2.59,0,0,0,32-4.47a2.59,2.59,0,0,0-2.26,1.33A2.59,2.59,0,0,0,27.5-4.47a2.59,2.59,0,0,0-2.59,2.59,2.57,2.57,0,0,0,.66,1.72h0l4.2,4.62L34-.15Z"/><path class="cls-2" d="M14.11-.16a2.57,2.57,0,0,0,.66-1.72,2.59,2.59,0,0,0-2.59-2.59A2.59,2.59,0,0,0,9.92-3.14,2.59,2.59,0,0,0,7.65-4.47,2.59,2.59,0,0,0,5.06-1.88,2.57,2.57,0,0,0,5.72-.16h0l4.2,4.62,4.2-4.62Z"/></pattern></defs><title>MARCOS DINAMICOS FINALES</title><path class="cls-3" d="M.3,60.88V.49H189.55V60.88ZM176.54,13.51H13.31V47.86H176.54Z"/><path class="cls-2" d="M25.4,39.27H23V22.09h2.5c2.82,0,4.94,1.79,4.94,4.52,0,2-.84,3.32-2.45,3.84a4,4,0,0,1,2.87,4C30.86,37.37,28.81,39.27,25.4,39.27Zm.24-15.18h-.52v5.56h.59c1.77,0,2.61-1.32,2.61-3A2.65,2.65,0,0,0,25.63,24.09Zm.14,7.56h-.66v5.63h.56c2,0,3-1.08,3-2.8A2.74,2.74,0,0,0,25.77,31.65Z"/><path class="cls-2" d="M38.45,39.56a4.69,4.69,0,0,1-4.59-4.66V22.09H36V34.26c0,2,.92,3.2,2.45,3.2s2.49-1.2,2.49-3.2V22.09H43V34.9A4.69,4.69,0,0,1,38.45,39.56Z"/><path class="cls-2" d="M46.81,39.27V22.09h6.71v2H48.93v5.74h4.31v2H48.93v5.44h4.8v2Z"/><path class="cls-2" d="M64.32,39.27,58.9,27.72s.07.78.07,1.14V39.27H56.85V22.09H58.5l5.41,11.66s-.07-.78-.07-1.13V22.09H66V39.27Z"/><path class="cls-2" d="M74.51,39.56c-4,0-5.37-4.94-5.37-8.94s1.36-8.8,5.37-8.8c4.29,0,5.37,4.71,5.37,8.8S78.61,39.56,74.51,39.56Zm0-15.66c-2.59,0-3.16,3.58-3.16,6.71,0,3,.57,6.85,3.16,6.85s3.16-3.89,3.16-6.85C77.67,27.48,77.17,23.9,74.51,23.9Z"/><path class="cls-2" d="M85.74,39.56a4.1,4.1,0,0,1-3.51-1.86l1.43-1.44a2.73,2.73,0,0,0,2.12,1.2c1.27,0,1.74-1,1.74-2.07,0-3.32-5.23-5.23-5.23-9.28a4.07,4.07,0,0,1,3.86-4.31,3.71,3.71,0,0,1,3.2,1.62L87.88,24.8a2.27,2.27,0,0,0-1.72-.89c-1.18,0-1.69.94-1.69,2.09,0,2.9,5.22,4.83,5.22,9.25A4,4,0,0,1,85.74,39.56Z"/><path class="cls-2" d="M101.65,39.27V28.52a10.46,10.46,0,0,1,.1-1.13l-3,7.25h-.94l-3-7.25a10.6,10.6,0,0,1,.09,1.13V39.27H92.71V22.09h1.86L97.91,30a8.47,8.47,0,0,1,.35,1.06s.19-.64.36-1.06L102,22.09h1.82V39.27Z"/><path class="cls-2" d="M112.32,39.56c-4,0-5.37-4.94-5.37-8.94s1.37-8.8,5.37-8.8c4.29,0,5.37,4.71,5.37,8.8S116.42,39.56,112.32,39.56Zm0-15.66c-2.59,0-3.15,3.58-3.15,6.71,0,3,.56,6.85,3.15,6.85s3.16-3.89,3.16-6.85C115.48,27.48,115,23.9,112.32,23.9Z"/><path class="cls-2" d="M124.45,24.09V39.27h-2.12V24.09h-2.68v-2h7.49v2Z"/><path class="cls-2" d="M130,39.27V22.09h2.12V39.27Z"/><path class="cls-2" d="M140.91,39.27h-1.6L134.9,22.09h2.19l2.68,10.83c.14.56.35,1.88.35,1.88s.21-1.32.35-1.88l2.68-10.83h2.14Z"/><path class="cls-2" d="M152.34,39.56c-4,0-5.37-4.94-5.37-8.94s1.37-8.8,5.37-8.8c4.28,0,5.37,4.71,5.37,8.8S156.43,39.56,152.34,39.56Zm0-15.66c-2.59,0-3.16,3.58-3.16,6.71,0,3,.57,6.85,3.16,6.85s3.15-3.89,3.15-6.85C155.49,27.48,155,23.9,152.34,23.9Z"/><path class="cls-2" d="M163.7,39.56a4.1,4.1,0,0,1-3.51-1.86l1.44-1.44a2.73,2.73,0,0,0,2.12,1.2c1.27,0,1.75-1,1.75-2.07,0-3.32-5.23-5.23-5.23-9.28a4.07,4.07,0,0,1,3.86-4.31,3.71,3.71,0,0,1,3.2,1.62l-1.48,1.37a2.27,2.27,0,0,0-1.72-.89c-1.18,0-1.69.94-1.69,2.09,0,2.9,5.23,4.83,5.23,9.25A4,4,0,0,1,163.7,39.56Z"/><path class="cls-2" d="M26.93,69.89v7H26v-7H23v-.83h6.82v.83Z"/><path class="cls-2" d="M31.83,69.38a.6.6,0,0,1-.63.6.59.59,0,0,1-.62-.6.6.6,0,0,1,.62-.59A.61.61,0,0,1,31.83,69.38Zm-1.08,7.51V71.12h.91v5.77Z"/><path class="cls-2" d="M39,74.19H34a2.12,2.12,0,0,0,2.08,2.07,2,2,0,0,0,2-1.24l.8.19A2.79,2.79,0,0,1,36.08,77,3,3,0,0,1,36.13,71,2.83,2.83,0,0,1,39,73.86Zm-5-.67h4.05a1.91,1.91,0,0,0-2-1.75A2.09,2.09,0,0,0,34,73.52Z"/><path class="cls-2" d="M45.87,73.44v3.45H45V73.61a1.63,1.63,0,0,0-1.61-1.8c-1.22,0-2,.82-2,2.32v2.77h-.9V71.12h.9v1a2.51,2.51,0,0,1,2.2-1.1A2.27,2.27,0,0,1,45.87,73.44Z"/><path class="cls-2" d="M53.35,76.89h-.9V76A2.85,2.85,0,0,1,50.13,77a3,3,0,0,1,0-6.06,2.84,2.84,0,0,1,2.32,1.06V68.47h.9ZM52.45,74a2.19,2.19,0,0,0-2.17-2.24,2.24,2.24,0,0,0,0,4.48A2.19,2.19,0,0,0,52.45,74Z"/><path class="cls-2" d="M60.9,76.89H60V76A2.85,2.85,0,0,1,57.68,77a3,3,0,0,1,0-6.06A2.85,2.85,0,0,1,60,72.05v-.93h.9ZM60,74a2.19,2.19,0,0,0-2.18-2.24,2.24,2.24,0,0,0,0,4.48A2.18,2.18,0,0,0,60,74Z"/><path class="cls-2" d="M70.53,74.91l.83.23A2.74,2.74,0,0,1,68.6,77a3,3,0,1,1,0-6.06,2.81,2.81,0,0,1,2.77,1.92l-.86.25A1.91,1.91,0,0,0,68.6,71.8,2.13,2.13,0,0,0,66.44,74a2.1,2.1,0,0,0,2.16,2.2A1.92,1.92,0,0,0,70.53,74.91Z"/><path class="cls-2" d="M78.48,74a3.09,3.09,0,1,1-3.08-3A3,3,0,0,1,78.48,74Zm-.89,0a2.21,2.21,0,1,0-4.42,0,2.21,2.21,0,1,0,4.42,0Z"/><path class="cls-2" d="M85.36,73.44v3.45h-.9V73.61a1.62,1.62,0,0,0-1.62-1.8c-1.22,0-2,.82-2,2.32v2.77h-.9V71.12h.9v1A2.51,2.51,0,0,1,83,71,2.28,2.28,0,0,1,85.36,73.44Z"/><path class="cls-2" d="M90.82,75.14c.08.76.79,1.17,1.72,1.17s1.4-.39,1.4-1-.37-.7-1-.83l-1.34-.3c-1-.2-1.51-.68-1.51-1.47,0-1,.87-1.74,2.2-1.74a2.21,2.21,0,0,1,2.38,1.6l-.86.19a1.41,1.41,0,0,0-1.54-1.06c-.83,0-1.29.39-1.29.94s.32.67.89.79l1.41.3c.85.19,1.5.63,1.5,1.51,0,1.14-1,1.78-2.35,1.78s-2.4-.59-2.54-1.71Z"/><path class="cls-2" d="M101.68,74.19h-5a2.12,2.12,0,0,0,2.08,2.07,2,2,0,0,0,2-1.24l.8.19A2.81,2.81,0,0,1,98.76,77,3,3,0,0,1,98.82,71a2.82,2.82,0,0,1,2.86,2.88Zm-5-.67h4.06a1.92,1.92,0,0,0-2-1.75A2.09,2.09,0,0,0,96.71,73.52Z"/><path class="cls-2" d="M108.55,73.44v3.45h-.9V73.61A1.63,1.63,0,0,0,106,71.8c-1.22,0-2,.82-2,2.32v2.77h-.9V71.12h.9v1a2.51,2.51,0,0,1,2.2-1.1A2.27,2.27,0,0,1,108.55,73.44Z"/><path class="cls-2" d="M113.84,76.59a2.22,2.22,0,0,1-1.35.46,1.78,1.78,0,0,1-1.93-1.95V71.88H109.3v-.75h1.27V69.29h.91v1.84h2.08v.75h-2.08V75a1,1,0,0,0,1.08,1.17,1.82,1.82,0,0,0,1-.35Z"/><path class="cls-2" d="M116,69.38a.6.6,0,0,1-.63.6.59.59,0,0,1-.61-.6.6.6,0,0,1,.61-.59A.61.61,0,0,1,116,69.38ZM115,76.89V71.12h.91v5.77Z"/><path class="cls-2" d="M123.45,76.89h-.89V76A2.86,2.86,0,0,1,120.24,77a3,3,0,0,1,0-6.06,2.85,2.85,0,0,1,2.32,1.06V68.47h.89ZM122.56,74a2.19,2.19,0,0,0-2.18-2.24,2.24,2.24,0,0,0,0,4.48A2.18,2.18,0,0,0,122.56,74Z"/><path class="cls-2" d="M131.09,74A3.09,3.09,0,1,1,128,71,3,3,0,0,1,131.09,74Zm-.89,0a2.21,2.21,0,1,0-4.42,0,2.21,2.21,0,1,0,4.42,0Z"/><path class="cls-2" d="M136.15,75.14c.09.76.79,1.17,1.72,1.17s1.4-.39,1.4-1-.37-.7-1-.83L137,74.2c-1-.2-1.51-.68-1.51-1.47,0-1,.87-1.74,2.21-1.74a2.22,2.22,0,0,1,2.38,1.6l-.86.19a1.4,1.4,0,0,0-1.54-1.06c-.83,0-1.29.39-1.29.94s.32.67.89.79l1.4.3c.85.19,1.5.63,1.5,1.51,0,1.14-1,1.78-2.35,1.78s-2.4-.59-2.54-1.71Z"/><path class="cls-2" d="M147.32,74a3.1,3.1,0,1,1-3.09-3A3,3,0,0,1,147.32,74Zm-.89,0A2.21,2.21,0,1,0,142,74a2.21,2.21,0,1,0,4.42,0Z"/><path class="cls-2" d="M153.29,74.91l.82.23a2.74,2.74,0,0,1-2.76,1.9,3,3,0,1,1,0-6.06,2.8,2.8,0,0,1,2.77,1.92l-.86.25a1.9,1.9,0,0,0-1.91-1.36A2.13,2.13,0,0,0,149.2,74a2.1,2.1,0,0,0,2.16,2.2A1.93,1.93,0,0,0,153.29,74.91Z"/><path class="cls-2" d="M156.65,69.38a.6.6,0,0,1-.63.6.59.59,0,0,1-.62-.6.61.61,0,0,1,.62-.59A.62.62,0,0,1,156.65,69.38Zm-1.07,7.51V71.12h.91v5.77Z"/><path class="cls-2" d="M164,76.89h-.9V76A2.84,2.84,0,0,1,160.82,77a3,3,0,0,1,0-6.06,2.84,2.84,0,0,1,2.32,1.06v-.93h.9Zm-.9-2.88A2.18,2.18,0,0,0,161,71.77a2.24,2.24,0,0,0,0,4.48A2.18,2.18,0,0,0,163.14,74Z"/><path class="cls-2" d="M165.91,76.89V68.47h.9v8.42Z"/></svg>