<?xml version="1.0" encoding="UTF-8" standalone="no"?>
<svg width="25px" height="25px" viewBox="0 0 32 32" version="1.1" xmlns="http://www.w3.org/2000/svg" xmlns:xlink="http://www.w3.org/1999/xlink">
    <!-- Generator: sketchtool 39.1 (31720) - http://www.bohemiancoding.com/sketch -->
    <title>B539765B-4F92-4D69-AF6A-6A97A2405C52</title>
    <desc>Created with sketchtool.</desc>
    <defs></defs>
    <g id="Page-1" stroke="none" stroke-width="1" fill="none" fill-rule="evenodd">
        <g id="CORPAUL-HOME" transform="translate(-19.000000, -485.000000)" fill="#FFFFFF">
            <g id="Group-11" transform="translate(19.000000, 485.000000)">
                <g id="instagram-symbol">
                    <g id="Capa_1">
                        <path d="M23.9652888,0.940594749 C23.3383013,0.313436929 22.5869387,0 21.7115983,0 L3.19445559,0 C2.31883128,0 1.56769578,0.313550514 0.940537956,0.940594749 C0.313493721,1.56746861 5.67923408e-05,2.31871769 5.67923408e-05,3.19417162 L5.67923408e-05,21.711144 C5.67923408e-05,22.5864843 0.313436929,23.3379038 0.940537956,23.9648344 C1.56769578,24.5918219 2.31900165,24.905486 3.19445559,24.905486 L21.7113711,24.905486 C22.5865411,24.905486 23.338131,24.5918219 23.9651184,23.9648344 C24.5922762,23.3379038 24.9054292,22.5864843 24.9054292,21.711144 L24.9054292,3.19417162 C24.9053724,2.31854731 24.5922762,1.56769578 23.9652888,0.940594749 Z M8.94263557,8.97460966 C9.92082685,8.0289036 11.0964283,7.5558234 12.4692696,7.5558234 C13.852731,7.5558234 15.0336141,8.0289036 16.0120326,8.97460966 C16.990451,9.92048609 17.4793763,11.0637159 17.4793763,12.404072 C17.4793763,13.7442576 16.990451,14.8875442 16.0120326,15.8331367 C15.0336141,16.7792403 13.8531285,17.2522637 12.4692696,17.2522637 C11.0964851,17.2522637 9.92099723,16.7788428 8.94263557,15.8331367 C7.96421712,14.8874306 7.47506469,13.7442576 7.47506469,12.404072 C7.47506469,11.0637159 7.96421712,9.92054289 8.94263557,8.97460966 Z M22.0845536,21.0466168 C22.0845536,21.3274549 21.9869844,21.5624616 21.7925842,21.7517505 C21.5976161,21.940869 21.3655626,22.035485 21.0950607,22.035485 L3.76203824,22.035485 C3.48102974,22.035485 3.24573907,21.940869 3.05673416,21.7517505 C2.86744529,21.5628592 2.77288604,21.3274549 2.77288604,21.0466168 L2.77288604,10.5392386 L5.05906172,10.5392386 C4.84296686,11.2203492 4.73489104,11.9284929 4.73489104,12.6633858 C4.73489104,14.7393162 5.4914786,16.5090791 7.00482411,17.9740944 C8.51833999,19.4385417 10.3397272,20.1711061 12.4692128,20.1711061 C13.8744824,20.1711061 15.1715627,19.8358609 16.3610215,19.1657113 C17.5500827,18.4951641 18.4899392,17.5846693 19.1822378,16.4333182 C19.8741389,15.2820238 20.2200611,14.0253229 20.2200611,12.6634426 C20.2200611,11.9285497 20.1115877,11.2205764 19.8954928,10.5392954 L22.0846672,10.5392954 L22.0846672,21.0466736 L22.0845536,21.0466736 L22.0845536,21.0466168 Z M22.0845536,6.5666712 C22.0845536,6.88016492 21.9764778,7.1450444 21.7599286,7.36119605 C21.5438337,7.57751807 21.2791246,7.68553711 20.9654605,7.68553711 L18.1442442,7.68553711 C17.8309209,7.68553711 17.5658142,7.57746128 17.3497194,7.36119605 C17.1335677,7.1450444 17.0255487,6.88016492 17.0255487,6.5666712 L17.0255487,3.89152478 C17.0255487,3.5888216 17.1335677,3.32672495 17.3497194,3.10506444 C17.565871,2.88351752 17.8309777,2.77260208 18.1442442,2.77260208 L20.9654605,2.77260208 C21.2791246,2.77260208 21.5438905,2.88346073 21.7599286,3.10506444 C21.976421,3.32672495 22.0845536,3.5888216 22.0845536,3.89152478 L22.0845536,6.5666712 Z" id="Shape"></path>
                    </g>
                </g>
            </g>
        </g>
    </g>
</svg>