<?xml version="1.0" encoding="UTF-8" standalone="no"?>
<svg
   xmlns:dc="http://purl.org/dc/elements/1.1/"
   xmlns:cc="http://creativecommons.org/ns#"
   xmlns:rdf="http://www.w3.org/1999/02/22-rdf-syntax-ns#"
   xmlns:svg="http://www.w3.org/2000/svg"
   xmlns="http://www.w3.org/2000/svg"
   viewBox="0 0 1056 816"
   height="816"
   width="1056"
   xml:space="preserve"
   id="svg2"
   version="1.1"><metadata
     id="metadata8"><rdf:RDF><cc:Work
         rdf:about=""><dc:format>image/svg+xml</dc:format><dc:type
           rdf:resource="http://purl.org/dc/dcmitype/StillImage" /></cc:Work></rdf:RDF></metadata><defs
     id="defs6"><clipPath
       id="clipPath24"
       clipPathUnits="userSpaceOnUse"><path
         id="path22"
         d="M 0,612 H 792 V 0 H 0 Z" /></clipPath></defs><g
     transform="matrix(1.3333333,0,0,-1.3333333,0,816)"
     id="g10"><path
       id="path12"
       style="fill:#00a1e4;fill-opacity:1;fill-rule:nonzero;stroke:none"
       d="m 495.844,226 h 9.01 v 37.473 h -9.01 z" /><g
       transform="translate(501.25,276.3477)"
       id="g14"><path
         id="path16"
         style="fill:#00a1e4;fill-opacity:1;fill-rule:nonzero;stroke:none"
         d="m 0,0 -5.406,-10.441 h 9.01 L 10.812,0 Z" /></g><g
       id="g18"><g
         clip-path="url(#clipPath24)"
         id="g20"><g
           transform="translate(261.7031,234.4072)"
           id="g26"><path
             id="path28"
             style="fill:#00a1e4;fill-opacity:1;fill-rule:nonzero;stroke:none"
             d="m 0,0 c -6.014,0 -10.886,4.873 -10.886,10.887 0,6.016 4.872,10.885 10.886,10.885 6.011,0 10.884,-4.869 10.884,-10.885 C 10.884,4.873 6.011,0 0,0 m 0,30.18 c -4.052,0 -7.811,-1.253 -10.922,-3.386 v 2.271 h -9.008 v -48.53 h 9.008 v 14.447 c 3.111,-2.136 6.87,-3.389 10.922,-3.389 10.659,0 19.297,8.638 19.297,19.294 C 19.297,21.546 10.659,30.18 0,30.18" /></g><g
           transform="translate(305.7373,234.4072)"
           id="g30"><path
             id="path32"
             style="fill:#00a1e4;fill-opacity:1;fill-rule:nonzero;stroke:none"
             d="m 0,0 c -6.007,0 -10.88,4.873 -10.88,10.887 0,6.016 4.873,10.885 10.88,10.885 5.904,0 10.694,-4.701 10.87,-10.549 V 10.557 C 10.694,4.695 5.904,0 0,0 M 10.87,29.065 V 26.827 C 7.777,28.943 4.035,30.18 0,30.18 c -10.663,0 -19.294,-8.634 -19.294,-19.293 0,-10.656 8.631,-19.294 19.294,-19.294 4.035,0 7.777,1.24 10.87,3.349 v -3.349 h 9.004 v 37.472 z" /></g><g
           transform="translate(395.0078,234.4072)"
           id="g34"><path
             id="path36"
             style="fill:#00a1e4;fill-opacity:1;fill-rule:nonzero;stroke:none"
             d="m 0,0 c -6.014,0 -10.89,4.873 -10.89,10.887 0,6.016 4.876,10.885 10.89,10.885 6.01,0 10.873,-4.869 10.873,-10.885 C 10.873,4.873 6.01,0 0,0 m -0.014,30.18 c -10.652,0 -19.29,-8.634 -19.29,-19.293 0,-10.656 8.638,-19.294 19.29,-19.294 10.657,0 19.297,8.638 19.297,19.294 0,10.659 -8.64,19.293 -19.297,19.293" /></g><g
           transform="translate(529.5977,234.4072)"
           id="g38"><path
             id="path40"
             style="fill:#00a1e4;fill-opacity:1;fill-rule:nonzero;stroke:none"
             d="m 0,0 c -6.014,0 -10.88,4.873 -10.88,10.887 0,6.016 4.866,10.885 10.88,10.885 6.01,0 10.883,-4.869 10.883,-10.885 C 10.883,4.873 6.01,0 0,0 m -0.004,30.18 c -10.658,0 -19.297,-8.634 -19.297,-19.293 0,-10.656 8.639,-19.294 19.297,-19.294 10.656,0 19.301,8.638 19.301,19.294 0,10.659 -8.645,19.293 -19.301,19.293" /></g><g
           transform="translate(339.4678,245.2939)"
           id="g42"><path
             id="path44"
             style="fill:#00a1e4;fill-opacity:1;fill-rule:nonzero;stroke:none"
             d="M 0,0 C 0,6.017 4.883,10.886 10.884,10.886 16.903,10.886 21.77,6.017 21.77,0 21.77,-6.014 16.903,-10.887 10.884,-10.887 4.883,-10.887 0,-6.014 0,0 m 23.095,-14.941 c 4.326,3.54 7.088,8.918 7.088,14.941 0,3.541 -0.955,6.851 -2.618,9.699 l 3.225,3.232 -6.373,6.369 -3.082,-3.079 c -3.004,1.938 -6.598,3.072 -10.451,3.072 -10.65,0 -19.287,-8.634 -19.287,-19.293 0,-10.655 8.637,-19.294 19.287,-19.294 h 0.118 c 5.958,-0.065 10.768,-4.905 10.768,-10.88 0,-6.007 -4.867,-10.883 -10.886,-10.883 -5.908,0 -10.699,4.718 -10.862,10.587 h -8.413 c 0.165,-10.517 8.724,-18.997 19.275,-18.997 10.662,0 19.906,8.935 19.906,19.59 0,6.133 -3.069,11.486 -7.695,14.936" /></g><g
           transform="translate(490.3936,245.5439)"
           id="g46"><path
             id="path48"
             style="fill:#00a1e4;fill-opacity:1;fill-rule:nonzero;stroke:none"
             d="m 0,0 c -0.145,10.537 -9.343,19.05 -19.93,19.05 -6.29,0 -11.872,-3.01 -15.396,-7.675 -3.525,4.661 -9.107,7.668 -15.39,7.668 -4.039,0 -7.787,-1.239 -10.889,-3.369 v 2.311 h -9.054 v -37.621 h 9.054 V -0.25 c 0,6.017 4.876,10.886 10.889,10.886 5.984,0 10.83,-4.82 10.873,-10.787 v -19.544 h 9.04 v 19.544 c 0.043,5.967 4.903,10.794 10.88,10.794 6.007,0 10.887,-4.867 10.887,-10.886 V -19.695 H 0 l 0,19.452 z" /></g><g
           transform="translate(406.0391,309.125)"
           id="g50"><path
             id="path52"
             style="fill:#00a1e4;fill-opacity:1;fill-rule:nonzero;stroke:none"
             d="m 0,0 c 0,-6.094 -4.949,-11.034 -11.031,-11.034 -6.1,0 -11.041,4.94 -11.041,11.034 0,6.085 4.941,11.03 11.041,11.03 C -4.949,11.03 0,6.085 0,0" /></g><g
           transform="translate(395.0078,361.7705)"
           id="g54"><path
             id="path56"
             style="fill:#00a1e4;fill-opacity:1;fill-rule:nonzero;stroke:none"
             d="m 0,0 c -6.1,0 -11.041,4.94 -11.041,11.036 0,6.088 4.941,11.027 11.041,11.027 6.082,0 11.031,-4.939 11.031,-11.027 C 11.031,4.94 6.082,0 0,0 m 0,54.193 c -23.844,0 -43.17,-19.325 -43.17,-43.157 0,-23.836 19.326,-43.169 43.17,-43.169 23.826,0 43.153,19.333 43.153,43.169 0,23.832 -19.327,43.157 -43.153,43.157" /></g></g></g></g></svg>