<?xml version="1.0" encoding="UTF-8" standalone="no"?>
<svg width="100px" height="14px" viewBox="0 0 100 14" version="1.1" xmlns="http://www.w3.org/2000/svg" xmlns:xlink="http://www.w3.org/1999/xlink">
    <!-- Generator: sketchtool 41.2 (35397) - http://www.bohemiancoding.com/sketch -->
    <title>0C18D9CA-E00E-43AA-A354-5199DEFBF881</title>
    <desc>Created with sketchtool.</desc>
    <defs></defs>
    <g id="Page-1" stroke="none" stroke-width="1" fill="none" fill-rule="evenodd">
        <g id="Detalle-de-producto-" transform="translate(-755.000000, -395.000000)" fill="#000000">
            <g id="Group-27" transform="translate(755.000000, 395.000000)">
                <g id="Group-Copy-4">
                    <path d="M2.84719436,4.31587971 C3.45604358,4.31587971 4.0648928,4.31428556 4.67370356,4.31786268 C4.75042018,4.31832926 4.78337564,4.29725537 4.80744812,4.22190261 C5.17684152,3.0648605 5.54881136,1.90867379 5.92208865,0.752914773 C6.07109962,0.291544329 6.46341187,-0.0018959823 6.92021221,9.2217956e-06 C7.3898948,0.00199218932 7.77832314,0.297609877 7.92917993,0.767028836 C8.2988425,1.91715 8.66977408,3.06680458 9.0364372,4.21789779 C9.06204786,4.29830518 9.0982335,4.31774604 9.1765652,4.31759051 C10.3718062,4.31514096 11.5670473,4.31584083 12.7622499,4.31587971 C13.2520057,4.3159186 13.6473558,4.59734446 13.7938673,5.0501998 C13.9359564,5.48925214 13.783946,5.95439411 13.393172,6.24285757 C12.4284268,6.95501508 11.4615283,7.66421758 10.4933607,8.37163152 C10.4203358,8.42497724 10.4002625,8.46626962 10.4304108,8.55892475 C10.8061107,9.71378948 11.1808493,10.869043 11.5460512,12.0273294 C11.7707789,12.7401867 11.2465295,13.4357418 10.5119342,13.4135014 C10.2839763,13.4065805 10.0836286,13.320613 9.90004712,13.1853046 C9.03313012,12.5462836 8.16475186,11.9092845 7.29695041,11.2715077 C7.19593058,11.1972436 7.09191131,11.1267122 6.99531374,11.0469658 C6.93905489,11.0005021 6.90117726,11.0102614 6.84734104,11.0499597 C6.0506034,11.637929 5.25244295,12.2238764 4.45443632,12.8100961 C4.26274091,12.9509256 4.07412186,13.0964988 3.87769656,13.2302908 C3.27557687,13.6404929 2.46964862,13.3342994 2.28052966,12.6257967 C2.22657808,12.4237673 2.23496114,12.2218157 2.29883398,12.0230135 C2.67130373,10.8635607 3.04331202,9.70399129 3.41928113,8.54574385 C3.44523788,8.4658808 3.42977919,8.42851548 3.36498345,8.38115755 C2.39958462,7.67533775 1.4355317,6.96765164 0.472824678,6.2580992 C-0.0668065423,5.86041701 -0.157520577,5.15576366 0.267862489,4.67016991 C0.471786408,4.43738508 0.732084543,4.31794044 1.03995083,4.31665735 C1.6423397,4.31405227 2.24476703,4.31587971 2.84719436,4.31587971" id="Fill-1"></path>
                    <path d="M24.3856559,4.31587971 C24.9945051,4.31587971 25.6033543,4.31428556 26.2121651,4.31786268 C26.2888817,4.31832926 26.3218372,4.29725537 26.3459097,4.22190261 C26.7153031,3.0648605 27.0872729,1.90867379 27.4605502,0.752914773 C27.6095612,0.291544329 28.0018734,-0.0018959823 28.4586738,9.2217956e-06 C28.9283563,0.00199218932 29.3167847,0.297609877 29.4676415,0.767028836 C29.837304,1.91715 30.2082356,3.06680458 30.5748987,4.21789779 C30.6005094,4.29830518 30.636695,4.31774604 30.7150267,4.31759051 C31.9102678,4.31514096 33.1055088,4.31584083 34.3007114,4.31587971 C34.7904672,4.3159186 35.1858174,4.59734446 35.3323288,5.0501998 C35.474418,5.48925214 35.3224076,5.95439411 34.9316335,6.24285757 C33.9668884,6.95501508 32.9999898,7.66421758 32.0318223,8.37163152 C31.9587973,8.42497724 31.9387241,8.46626962 31.9688724,8.55892475 C32.3445723,9.71378948 32.7193108,10.869043 33.0845127,12.0273294 C33.3092405,12.7401867 32.784991,13.4357418 32.0503958,13.4135014 C31.8224378,13.4065805 31.6220902,13.320613 31.4385087,13.1853046 C30.5715917,12.5462836 29.7032134,11.9092845 28.8354119,11.2715077 C28.7343921,11.1972436 28.6303728,11.1267122 28.5337753,11.0469658 C28.4775164,11.0005021 28.4396388,11.0102614 28.3858026,11.0499597 C27.5890649,11.637929 26.7909045,12.2238764 25.9928979,12.8100961 C25.8012025,12.9509256 25.6125834,13.0964988 25.4161581,13.2302908 C24.8140384,13.6404929 24.0081102,13.3342994 23.8189912,12.6257967 C23.7650396,12.4237673 23.7734227,12.2218157 23.8372955,12.0230135 C24.2097653,10.8635607 24.5817736,9.70399129 24.9577427,8.54574385 C24.9836994,8.4658808 24.9682407,8.42851548 24.903445,8.38115755 C23.9380462,7.67533775 22.9739932,6.96765164 22.0112862,6.2580992 C21.471655,5.86041701 21.380941,5.15576366 21.806324,4.67016991 C22.0102479,4.43738508 22.2705461,4.31794044 22.5784124,4.31665735 C23.1808012,4.31405227 23.7832286,4.31587971 24.3856559,4.31587971" id="Fill-1-Copy"></path>
                    <path d="M45.9241174,4.31587971 C46.5329667,4.31587971 47.1418159,4.31428556 47.7506266,4.31786268 C47.8273433,4.31832926 47.8602987,4.29725537 47.8843712,4.22190261 C48.2537646,3.0648605 48.6257344,1.90867379 48.9990117,0.752914773 C49.1480227,0.291544329 49.5403349,-0.0018959823 49.9971353,9.2217956e-06 C50.4668179,0.00199218932 50.8552462,0.297609877 51.006103,0.767028836 C51.3757656,1.91715 51.7466972,3.06680458 52.1133603,4.21789779 C52.1389709,4.29830518 52.1751566,4.31774604 52.2534883,4.31759051 C53.4487293,4.31514096 54.6439704,4.31584083 55.839173,4.31587971 C56.3289288,4.3159186 56.7242789,4.59734446 56.8707903,5.0501998 C57.0128795,5.48925214 56.8608691,5.95439411 56.470095,6.24285757 C55.5053499,6.95501508 54.5384514,7.66421758 53.5702838,8.37163152 C53.4972588,8.42497724 53.4771856,8.46626962 53.5073339,8.55892475 C53.8830338,9.71378948 54.2577724,10.869043 54.6229742,12.0273294 C54.847702,12.7401867 54.3234526,13.4357418 53.5888573,13.4135014 C53.3608994,13.4065805 53.1605517,13.320613 52.9769702,13.1853046 C52.1100532,12.5462836 51.2416749,11.9092845 50.3738735,11.2715077 C50.2728537,11.1972436 50.1688344,11.1267122 50.0722368,11.0469658 C50.015978,11.0005021 49.9781003,11.0102614 49.9242641,11.0499597 C49.1275265,11.637929 48.329366,12.2238764 47.5313594,12.8100961 C47.339664,12.9509256 47.1510449,13.0964988 46.9546196,13.2302908 C46.3524999,13.6404929 45.5465717,13.3342994 45.3574527,12.6257967 C45.3035012,12.4237673 45.3118842,12.2218157 45.3757571,12.0230135 C45.7482268,10.8635607 46.1202351,9.70399129 46.4962042,8.54574385 C46.522161,8.4658808 46.5067023,8.42851548 46.4419065,8.38115755 C45.4765077,7.67533775 44.5124548,6.96765164 43.5497478,6.2580992 C43.0101165,5.86041701 42.9194025,5.15576366 43.3447856,4.67016991 C43.5487095,4.43738508 43.8090076,4.31794044 44.1168739,4.31665735 C44.7192628,4.31405227 45.3216901,4.31587971 45.9241174,4.31587971" id="Fill-1-Copy-2"></path>
                    <path d="M67.462579,4.31587971 C68.0714282,4.31587971 68.6802774,4.31428556 69.2890882,4.31786268 C69.3658048,4.31832926 69.3987603,4.29725537 69.4228327,4.22190261 C69.7922261,3.0648605 70.164196,1.90867379 70.5374733,0.752914773 C70.6864842,0.291544329 71.0787965,-0.0018959823 71.5355968,9.2217956e-06 C72.0052794,0.00199218932 72.3937078,0.297609877 72.5445645,0.767028836 C72.9142271,1.91715 73.2851587,3.06680458 73.6518218,4.21789779 C73.6774325,4.29830518 73.7136181,4.31774604 73.7919498,4.31759051 C74.9871909,4.31514096 76.1824319,4.31584083 77.3776345,4.31587971 C77.8673903,4.3159186 78.2627404,4.59734446 78.4092519,5.0501998 C78.5513411,5.48925214 78.3993306,5.95439411 78.0085566,6.24285757 C77.0438115,6.95501508 76.0769129,7.66421758 75.1087454,8.37163152 C75.0357204,8.42497724 75.0156471,8.46626962 75.0457954,8.55892475 C75.4214954,9.71378948 75.7962339,10.869043 76.1614358,12.0273294 C76.3861636,12.7401867 75.8619141,13.4357418 75.1273189,13.4135014 C74.8993609,13.4065805 74.6990133,13.320613 74.5154317,13.1853046 C73.6485147,12.5462836 72.7801365,11.9092845 71.912335,11.2715077 C71.8113152,11.1972436 71.7072959,11.1267122 71.6106984,11.0469658 C71.5544395,11.0005021 71.5165619,11.0102614 71.4627257,11.0499597 C70.665988,11.637929 69.8678276,12.2238764 69.0698209,12.8100961 C68.8781255,12.9509256 68.6895065,13.0964988 68.4930812,13.2302908 C67.8909615,13.6404929 67.0850332,13.3342994 66.8959143,12.6257967 C66.8419627,12.4237673 66.8503458,12.2218157 66.9142186,12.0230135 C67.2866883,10.8635607 67.6586966,9.70399129 68.0346657,8.54574385 C68.0606225,8.4658808 68.0451638,8.42851548 67.9803681,8.38115755 C67.0149692,7.67533775 66.0509163,6.96765164 65.0882093,6.2580992 C64.5485781,5.86041701 64.457864,5.15576366 64.8832471,4.67016991 C65.087171,4.43738508 65.3474692,4.31794044 65.6553354,4.31665735 C66.2577243,4.31405227 66.8601516,4.31587971 67.462579,4.31587971" id="Fill-1-Copy-3"></path>
                    <path d="M89.0010405,4.31587971 C89.6098897,4.31587971 90.218739,4.31428556 90.8275497,4.31786268 C90.9042663,4.31832926 90.9372218,4.29725537 90.9612943,4.22190261 C91.3306877,3.0648605 91.7026575,1.90867379 92.0759348,0.752914773 C92.2249458,0.291544329 92.617258,-0.0018959823 93.0740584,9.2217956e-06 C93.543741,0.00199218932 93.9321693,0.297609877 94.0830261,0.767028836 C94.4526887,1.91715 94.8236202,3.06680458 95.1902834,4.21789779 C95.215894,4.29830518 95.2520797,4.31774604 95.3304114,4.31759051 C96.5256524,4.31514096 97.7208934,4.31584083 98.916096,4.31587971 C99.4058518,4.3159186 99.801202,4.59734446 99.9477134,5.0501998 C100.089803,5.48925214 99.9377922,5.95439411 99.5470181,6.24285757 C98.582273,6.95501508 97.6153744,7.66421758 96.6472069,8.37163152 C96.5741819,8.42497724 96.5541087,8.46626962 96.584257,8.55892475 C96.9599569,9.71378948 97.3346955,10.869043 97.6998973,12.0273294 C97.9246251,12.7401867 97.4003756,13.4357418 96.6657804,13.4135014 C96.4378224,13.4065805 96.2374748,13.320613 96.0538933,13.1853046 C95.1869763,12.5462836 94.318598,11.9092845 93.4507966,11.2715077 C93.3497767,11.1972436 93.2457575,11.1267122 93.1491599,11.0469658 C93.092901,11.0005021 93.0550234,11.0102614 93.0011872,11.0499597 C92.2044496,11.637929 91.4062891,12.2238764 90.6082825,12.8100961 C90.4165871,12.9509256 90.227968,13.0964988 90.0315427,13.2302908 C89.429423,13.6404929 88.6234948,13.3342994 88.4343758,12.6257967 C88.3804242,12.4237673 88.3888073,12.2218157 88.4526801,12.0230135 C88.8251499,10.8635607 89.1971582,9.70399129 89.5731273,8.54574385 C89.599084,8.4658808 89.5836253,8.42851548 89.5188296,8.38115755 C88.5534308,7.67533775 87.5893779,6.96765164 86.6266708,6.2580992 C86.0870396,5.86041701 85.9963256,5.15576366 86.4217086,4.67016991 C86.6256326,4.43738508 86.8859307,4.31794044 87.193797,4.31665735 C87.7961859,4.31405227 88.3986132,4.31587971 89.0010405,4.31587971" id="Fill-1-Copy-4"></path>
                </g>
            </g>
        </g>
    </g>
</svg>