<?xml version="1.0" encoding="UTF-8" standalone="no"?>
<svg width="25px" height="26px" viewBox="0 0 25 26" version="1.1" xmlns="http://www.w3.org/2000/svg" xmlns:xlink="http://www.w3.org/1999/xlink">
    <!-- Generator: sketchtool 39.1 (31720) - http://www.bohemiancoding.com/sketch -->
    <title>DBB04ABF-69AE-4A69-994E-9249A747D213</title>
    <desc>Created with sketchtool.</desc>
    <defs></defs>
    <g id="Page-1" stroke="none" stroke-width="1" fill="none" fill-rule="evenodd">
        <g id="CORPAUL-HOME" transform="translate(-19.000000, -550.000000)" fill="#FFFFFF">
            <g id="Group-28" transform="translate(19.000000, 550.000000)">
                <g id="wordpress-logo-of-a-letter-in-a-circle">
                    <g id="Capa_1">
                        <path d="M1.43861597,6.42796493 C3.52241595,2.54131428 7.70112063,0 12.5200122,0 C15.6393269,0 18.4893523,1.32923452 20.6780919,3.20537631 C20.0526188,3.0843349 19.3696787,3.22036768 18.6822968,3.61375224 C17.0718353,4.53710939 16.5457494,7.15060433 18.633436,8.46318177 C19.9371297,9.27799032 20.4010292,11.3179267 20.3571656,12.5638758 C20.3144124,13.8117683 17.3266886,19.5429123 17.3266886,19.5429123 L14.4178082,9.55394251 C14.4178082,9.55394251 14.3175881,8.85323493 14.3175881,8.65112909 C14.3175881,8.39627586 14.4017063,8.08423334 14.5588381,7.90600264 C14.6673867,7.7874598 14.8325693,7.53843654 15.0280123,7.53843654 L16.4066628,7.53843654 L16.4066628,6.42796493 L8.91097945,6.42796493 L8.91097945,7.53843654 L9.14334564,7.53843654 C9.38875986,7.53843654 9.62889935,7.86852423 9.86043268,8.10560991 C10.1341639,8.38822494 10.4786877,9.45150151 10.8959475,10.5544774 L11.9858753,14.1449098 L9.63695027,19.572895 L7.05982327,8.72442022 C7.05982327,8.72442022 7.13589058,7.98095948 7.29163422,7.85464333 C7.39324238,7.76774893 7.54926364,7.53843654 7.72971527,7.53843654 L7.80050784,7.53843654 L7.80050784,6.42796493 L1.43861597,6.42796493 Z M2.90804753,8.31326811 C2.90804753,8.31326811 2.30173003,7.53843654 1.65821173,7.53843654 L1.00525443,7.53843654 C0.375339405,8.92652605 0.0272065545,10.7907303 0.0272065545,12.4994685 C0.0272065545,17.6392863 3.17928023,22.047581 7.66974981,23.9259437 L2.90804753,8.31326811 Z M23.2704879,6.32913295 C23.5078512,7.45542879 23.4587128,8.8218641 22.9956461,10.3248874 C21.7877306,14.2354132 18.7977858,21.2708061 17.6401192,23.9506517 C21.9853946,22.0106578 25.0128178,17.6789857 25.0128178,12.6435522 C25.0128178,10.3371026 24.3759624,8.17862342 23.2704879,6.32913295 Z M12.7723669,16.8888851 L9.57809527,24.6907811 C10.5214409,24.916762 11.505874,25.0400244 12.5197346,25.0400244 C13.5694079,25.0400244 14.5877103,24.9098216 15.5615939,24.6680164 L12.7723669,16.8888851 Z" id="WordPress__x28_alt_x29_"></path>
                    </g>
                </g>
            </g>
        </g>
    </g>
</svg>