<?xml version="1.0" encoding="UTF-8" standalone="no"?>
<svg width="89px" height="13px" viewBox="0 0 89 13" version="1.1" xmlns="http://www.w3.org/2000/svg" xmlns:xlink="http://www.w3.org/1999/xlink">
    <!-- Generator: Sketch 39.1 (31720) - http://www.bohemiancoding.com/sketch -->
    <title>Stars5</title>
    <desc>Created with Sketch.</desc>
    <defs></defs>
    <g id="Page-1" stroke="none" stroke-width="1" fill="none" fill-rule="evenodd">
        <g id="Stars5" fill="#000000">
            <g id="Group-Copy-4" transform="translate(0.000000, -0.393066)">
                <path d="M2.52426815,4.82049885 C3.06406224,4.82049885 3.60385633,4.81908768 4.14361633,4.82225421 C4.21163182,4.82266724 4.2408495,4.80401223 4.2621917,4.73730853 C4.58968883,3.71307283 4.91947019,2.68959436 5.25041071,1.66649448 C5.38252099,1.25808059 5.73033754,0.99832164 6.135328,1.00000816 C6.55173961,1.00176352 6.89611277,1.26344993 7.02985951,1.67898852 C7.35759529,2.69709766 7.68645614,3.71479377 8.01153267,4.73376339 C8.03423859,4.80494154 8.06632008,4.82215095 8.13576748,4.82201328 C9.19544536,4.81984489 10.2551232,4.82046443 11.314767,4.82049885 C11.7489752,4.82053327 12.0994851,5.0696568 12.2293793,5.47053297 C12.3553529,5.85919045 12.2205833,6.27094298 11.8741305,6.52629631 C11.0188059,7.15671169 10.1615721,7.78451125 9.30321326,8.41072753 C9.2384707,8.45795017 9.22067416,8.49450297 9.24740306,8.57652306 C9.58049144,9.5988313 9.91272749,10.6214837 10.2365085,11.6468208 C10.4357478,12.2778557 9.97095829,12.8935743 9.31968017,12.8738867 C9.117577,12.8677602 8.9399526,12.7916601 8.77719273,12.6718826 C8.00860067,12.106209 7.23871308,11.5423252 6.46933689,10.9777531 C6.37977464,10.9120131 6.28755314,10.8495773 6.20191159,10.7789843 C6.15203356,10.7378538 6.11845198,10.7464929 6.07072181,10.7816346 C5.36434944,11.3021162 4.65671562,11.820808 3.94921818,12.3397408 C3.77926469,12.4644058 3.61203865,12.5932699 3.43789172,12.7117052 C2.9040639,13.0748239 2.18954331,12.8037755 2.02187405,12.1765955 C1.9740416,11.9977553 1.98147387,11.8189838 2.03810231,11.6430003 C2.36832687,10.6166307 2.69814233,9.59015775 3.03146935,8.56485507 C3.05448211,8.49415879 3.04077674,8.46108229 2.98333007,8.41916014 C2.1274259,7.79435503 1.27271499,7.16789782 0.419197331,6.5397885 C-0.0592294047,6.18775265 -0.139654736,5.5639801 0.237481767,5.13412327 C0.41827682,4.92805771 0.649052176,4.82232305 0.922000544,4.82118723 C1.45606702,4.81888116 1.99016758,4.82049885 2.52426815,4.82049885" id="Fill-1"></path>
                <path d="M21.6198569,4.82049885 C22.159651,4.82049885 22.699445,4.81908768 23.239205,4.82225421 C23.3072205,4.82266724 23.3364382,4.80401223 23.3577804,4.73730853 C23.6852775,3.71307283 24.0150589,2.68959436 24.3459994,1.66649448 C24.4781097,1.25808059 24.8259262,0.99832164 25.2309167,1.00000816 C25.6473283,1.00176352 25.9917015,1.26344993 26.1254482,1.67898852 C26.453184,2.69709766 26.7820449,3.71479377 27.1071214,4.73376339 C27.1298273,4.80494154 27.1619088,4.82215095 27.2313562,4.82201328 C28.2910341,4.81984489 29.350712,4.82046443 30.4103558,4.82049885 C30.8445639,4.82053327 31.1950738,5.0696568 31.324968,5.47053297 C31.4509416,5.85919045 31.316172,6.27094298 30.9697192,6.52629631 C30.1143946,7.15671169 29.2571608,7.78451125 28.398802,8.41072753 C28.3340594,8.45795017 28.3162629,8.49450297 28.3429918,8.57652306 C28.6760801,9.5988313 29.0083162,10.6214837 29.3320972,11.6468208 C29.5313365,12.2778557 29.066547,12.8935743 28.4152689,12.8738867 C28.2131657,12.8677602 28.0355413,12.7916601 27.8727814,12.6718826 C27.1041894,12.106209 26.3343018,11.5423252 25.5649256,10.9777531 C25.4753634,10.9120131 25.3831419,10.8495773 25.2975003,10.7789843 C25.2476223,10.7378538 25.2140407,10.7464929 25.1663105,10.7816346 C24.4599381,11.3021162 23.7523043,11.820808 23.0448069,12.3397408 C22.8748534,12.4644058 22.7076274,12.5932699 22.5334804,12.7117052 C21.9996526,13.0748239 21.285132,12.8037755 21.1174628,12.1765955 C21.0696303,11.9977553 21.0770626,11.8189838 21.133691,11.6430003 C21.4639156,10.6166307 21.793731,9.59015775 22.1270581,8.56485507 C22.1500708,8.49415879 22.1363654,8.46108229 22.0789188,8.41916014 C21.2230146,7.79435503 20.3683037,7.16789782 19.514786,6.5397885 C19.0363593,6.18775265 18.955934,5.5639801 19.3330705,5.13412327 C19.5138655,4.92805771 19.7446409,4.82232305 20.0175893,4.82118723 C20.5516557,4.81888116 21.0857563,4.82049885 21.6198569,4.82049885" id="Fill-1-Copy"></path>
                <path d="M40.7154456,4.82049885 C41.2552397,4.82049885 41.7950338,4.81908768 42.3347938,4.82225421 C42.4028092,4.82266724 42.4320269,4.80401223 42.4533691,4.73730853 C42.7808663,3.71307283 43.1106476,2.68959436 43.4415881,1.66649448 C43.5736984,1.25808059 43.921515,0.99832164 44.3265054,1.00000816 C44.742917,1.00176352 45.0872902,1.26344993 45.2210369,1.67898852 C45.5487727,2.69709766 45.8776336,3.71479377 46.2027101,4.73376339 C46.225416,4.80494154 46.2574975,4.82215095 46.3269449,4.82201328 C47.3866228,4.81984489 48.4463007,4.82046443 49.5059445,4.82049885 C49.9401526,4.82053327 50.2906625,5.0696568 50.4205567,5.47053297 C50.5465303,5.85919045 50.4117608,6.27094298 50.0653079,6.52629631 C49.2099833,7.15671169 48.3527495,7.78451125 47.4943907,8.41072753 C47.4296481,8.45795017 47.4118516,8.49450297 47.4385805,8.57652306 C47.7716689,9.5988313 48.1039049,10.6214837 48.4276859,11.6468208 C48.6269253,12.2778557 48.1621357,12.8935743 47.5108576,12.8738867 C47.3087544,12.8677602 47.13113,12.7916601 46.9683702,12.6718826 C46.1997781,12.106209 45.4298905,11.5423252 44.6605143,10.9777531 C44.5709521,10.9120131 44.4787306,10.8495773 44.393089,10.7789843 C44.343211,10.7378538 44.3096294,10.7464929 44.2618992,10.7816346 C43.5555269,11.3021162 42.847893,11.820808 42.1403956,12.3397408 C41.9704421,12.4644058 41.8032161,12.5932699 41.6290691,12.7117052 C41.0952413,13.0748239 40.3807207,12.8037755 40.2130515,12.1765955 C40.165219,11.9977553 40.1726513,11.8189838 40.2292797,11.6430003 C40.5595043,10.6166307 40.8893197,9.59015775 41.2226468,8.56485507 C41.2456595,8.49415879 41.2319542,8.46108229 41.1745075,8.41916014 C40.3186033,7.79435503 39.4638924,7.16789782 38.6103748,6.5397885 C38.131948,6.18775265 38.0515227,5.5639801 38.4286592,5.13412327 C38.6094542,4.92805771 38.8402296,4.82232305 39.113178,4.82118723 C39.6472444,4.81888116 40.181345,4.82049885 40.7154456,4.82049885" id="Fill-1-Copy-2"></path>
                <path d="M59.8110343,4.82049885 C60.3508284,4.82049885 60.8906225,4.81908768 61.4303825,4.82225421 C61.498398,4.82266724 61.5276156,4.80401223 61.5489578,4.73730853 C61.876455,3.71307283 62.2062363,2.68959436 62.5371768,1.66649448 C62.6692871,1.25808059 63.0171037,0.99832164 63.4220941,1.00000816 C63.8385057,1.00176352 64.1828789,1.26344993 64.3166256,1.67898852 C64.6443614,2.69709766 64.9732223,3.71479377 65.2982988,4.73376339 C65.3210047,4.80494154 65.3530862,4.82215095 65.4225336,4.82201328 C66.4822115,4.81984489 67.5418894,4.82046443 68.6015332,4.82049885 C69.0357413,4.82053327 69.3862512,5.0696568 69.5161454,5.47053297 C69.642119,5.85919045 69.5073495,6.27094298 69.1608966,6.52629631 C68.305572,7.15671169 67.4483383,7.78451125 66.5899794,8.41072753 C66.5252368,8.45795017 66.5074403,8.49450297 66.5341692,8.57652306 C66.8672576,9.5988313 67.1994936,10.6214837 67.5232746,11.6468208 C67.722514,12.2778557 67.2577244,12.8935743 66.6064463,12.8738867 C66.4043431,12.8677602 66.2267187,12.7916601 66.0639589,12.6718826 C65.2953668,12.106209 64.5254792,11.5423252 63.756103,10.9777531 C63.6665408,10.9120131 63.5743193,10.8495773 63.4886777,10.7789843 C63.4387997,10.7378538 63.4052181,10.7464929 63.3574879,10.7816346 C62.6511156,11.3021162 61.9434818,11.820808 61.2359843,12.3397408 C61.0660308,12.4644058 60.8988048,12.5932699 60.7246579,12.7117052 C60.19083,13.0748239 59.4763094,12.8037755 59.3086402,12.1765955 C59.2608077,11.9977553 59.26824,11.8189838 59.3248684,11.6430003 C59.655093,10.6166307 59.9849085,9.59015775 60.3182355,8.56485507 C60.3412482,8.49415879 60.3275429,8.46108229 60.2700962,8.41916014 C59.414192,7.79435503 58.5594811,7.16789782 57.7059635,6.5397885 C57.2275367,6.18775265 57.1471114,5.5639801 57.5242479,5.13412327 C57.705043,4.92805771 57.9358183,4.82232305 58.2087667,4.82118723 C58.7428331,4.81888116 59.2769337,4.82049885 59.8110343,4.82049885" id="Fill-1-Copy-3"></path>
                <path d="M78.906623,4.82049885 C79.4464171,4.82049885 79.9862112,4.81908768 80.5259712,4.82225421 C80.5939867,4.82266724 80.6232043,4.80401223 80.6445465,4.73730853 C80.9720437,3.71307283 81.301825,2.68959436 81.6327656,1.66649448 C81.7648758,1.25808059 82.1126924,0.99832164 82.5176828,1.00000816 C82.9340945,1.00176352 83.2784676,1.26344993 83.4122144,1.67898852 C83.7399501,2.69709766 84.068811,3.71479377 84.3938875,4.73376339 C84.4165934,4.80494154 84.4486749,4.82215095 84.5181223,4.82201328 C85.5778002,4.81984489 86.6374781,4.82046443 87.6971219,4.82049885 C88.13133,4.82053327 88.4818399,5.0696568 88.6117342,5.47053297 C88.7377077,5.85919045 88.6029382,6.27094298 88.2564853,6.52629631 C87.4011608,7.15671169 86.543927,7.78451125 85.6855681,8.41072753 C85.6208255,8.45795017 85.603029,8.49450297 85.6297579,8.57652306 C85.9628463,9.5988313 86.2950823,10.6214837 86.6188633,11.6468208 C86.8181027,12.2778557 86.3533131,12.8935743 85.702035,12.8738867 C85.4999318,12.8677602 85.3223074,12.7916601 85.1595476,12.6718826 C84.3909555,12.106209 83.6210679,11.5423252 82.8516917,10.9777531 C82.7621295,10.9120131 82.669908,10.8495773 82.5842664,10.7789843 C82.5343884,10.7378538 82.5008068,10.7464929 82.4530767,10.7816346 C81.7467043,11.3021162 81.0390705,11.820808 80.331573,12.3397408 C80.1616195,12.4644058 79.9943935,12.5932699 79.8202466,12.7117052 C79.2864187,13.0748239 78.5718982,12.8037755 78.4042289,12.1765955 C78.3563964,11.9977553 78.3638287,11.8189838 78.4204572,11.6430003 C78.7506817,10.6166307 79.0804972,9.59015775 79.4138242,8.56485507 C79.436837,8.49415879 79.4231316,8.46108229 79.3656849,8.41916014 C78.5097807,7.79435503 77.6550698,7.16789782 76.8015522,6.5397885 C76.3231254,6.18775265 76.2427001,5.5639801 76.6198366,5.13412327 C76.8006317,4.92805771 77.031407,4.82232305 77.3043554,4.82118723 C77.8384219,4.81888116 78.3725224,4.82049885 78.906623,4.82049885" id="Fill-1-Copy-4"></path>
            </g>
        </g>
    </g>
</svg>