<?xml version="1.0" encoding="UTF-8"?>
<svg width="251px" height="64px" viewBox="0 0 251 64" version="1.1" xmlns="http://www.w3.org/2000/svg" xmlns:xlink="http://www.w3.org/1999/xlink">
    <!-- Generator: Sketch 43.2 (39069) - http://www.bohemiancoding.com/sketch -->
    <title>Boton_Rosado</title>
    <desc>Created with Sketch.</desc>
    <defs></defs>
    <g id="Page-1" stroke="none" stroke-width="1" fill="none" fill-rule="evenodd">
        <g id="Boton_Rosado">
            <polygon id="Fill-1" fill="#FF7192" points="0 64 251 64 251 0 0 0"></polygon>
            <path d="M21.0176643,38.911944 L21.0176643,25.190344 L17.636848,25.190344 L17.636848,38.911944 L21.0176643,38.911944 Z M30.2175827,28.487624 C28.5374194,28.487624 27.4104806,29.368264 26.672848,30.597064 L26.672848,28.630984 L23.3944806,28.630984 L23.3944806,38.911944 L26.672848,38.911944 L26.672848,35.696584 C26.672848,33.034184 27.9227255,31.846344 30.2175827,31.846344 L30.8117867,31.846344 L30.9552153,28.569544 C30.7093378,28.508104 30.5044398,28.487624 30.2175827,28.487624 Z M47.9207663,28.630984 L47.9207663,38.911944 L44.642399,38.911944 L44.642399,38.092744 C43.8432969,38.809544 42.7778276,39.219144 41.4459908,39.219144 C38.720848,39.219144 36.4259908,37.027784 36.4259908,33.771464 C36.4259908,30.535624 38.720848,28.323784 41.4459908,28.323784 C42.7778276,28.323784 43.8432969,28.733384 44.642399,29.450184 L44.642399,28.630984 L47.9207663,28.630984 Z M42.1221541,36.433864 C43.4539908,36.433864 44.642399,35.368904 44.642399,33.771464 C44.642399,32.194504 43.4539908,31.109064 42.1221541,31.109064 C40.6878684,31.109064 39.6428888,32.194504 39.6428888,33.771464 C39.6428888,35.368904 40.6878684,36.433864 42.1221541,36.433864 Z M64.0667255,31.825864 L64.0667255,31.907784 C65.3370929,32.010184 66.7099092,32.993224 66.7099092,35.061704 C66.7099092,37.334984 65.1731745,38.911944 62.1816643,38.911944 L55.0512153,38.911944 L55.0512153,25.190344 L62.1611745,25.190344 C64.6814194,25.190344 66.3206031,26.685384 66.3206031,28.938184 C66.3206031,30.822344 64.9887663,31.723464 64.0667255,31.825864 Z M58.4320316,27.914184 L58.4320316,30.863304 L61.3825622,30.863304 C62.3865622,30.863304 63.0422357,30.248904 63.0422357,29.327304 C63.0422357,28.467144 62.3660724,27.914184 61.505501,27.914184 L58.4320316,27.914184 Z M58.4320316,36.188104 L61.5874602,36.188104 C62.6734194,36.188104 63.2676235,35.594184 63.2676235,34.652104 C63.2676235,33.750984 62.61195,33.177544 61.6489296,33.177544 L58.4320316,33.177544 L58.4320316,36.188104 Z M80.888848,25.190344 L77.5080316,25.190344 L77.5080316,32.726984 C77.5080316,34.815944 76.4220724,36.106184 74.8033786,36.106184 C73.0822357,36.106184 71.9552969,34.815944 71.9552969,32.726984 L71.9552969,25.190344 L68.5744806,25.190344 L68.5744806,32.726984 C68.5744806,36.659144 71.0742357,39.219144 74.8033786,39.219144 C78.4505622,39.219144 80.888848,36.659144 80.888848,32.726984 L80.888848,25.190344 Z M93.9203582,36.003784 L86.605501,36.003784 L86.605501,33.423304 L93.2646847,33.423304 L93.2646847,30.678984 L86.605501,30.678984 L86.605501,28.098504 L93.8588888,28.098504 L93.8588888,25.190344 L83.2246847,25.190344 L83.2246847,38.911944 L93.9203582,38.911944 L93.9203582,36.003784 Z M109.144277,25.190344 L105.78395,25.190344 L105.78395,33.382344 L98.8379092,25.190344 L96.0308071,25.190344 L96.0308071,38.911944 L99.4116235,38.911944 L99.4116235,30.965704 L106.357664,38.911944 L109.144277,38.911944 L109.144277,25.190344 Z M118.385174,24.883144 C122.483134,24.883144 125.700032,28.057544 125.700032,32.071624 C125.700032,36.065224 122.483134,39.219144 118.385174,39.219144 C114.287215,39.219144 111.070317,36.065224 111.070317,32.071624 C111.070317,28.057544 114.287215,24.883144 118.385174,24.883144 Z M118.385174,36.126664 C120.618562,36.126664 122.319215,34.406344 122.319215,32.071624 C122.319215,29.716424 120.618562,27.975624 118.385174,27.975624 C116.151787,27.975624 114.451134,29.716424 114.451134,32.071624 C114.451134,34.406344 116.151787,36.126664 118.385174,36.126664 Z M132.994399,24.883144 C129.777501,24.883144 127.564603,26.542024 127.564603,29.204424 C127.564603,31.702984 129.285746,32.726984 131.252766,33.177544 L134.121338,33.791944 C135.104848,33.996744 135.391705,34.385864 135.391705,35.000264 C135.391705,35.839944 134.633583,36.413384 133.363215,36.413384 C131.990399,36.413384 131.006889,35.798984 130.658562,34.385864 L127.175297,35.061704 C127.544113,37.744584 130.084848,39.219144 133.178807,39.219144 C136.231787,39.219144 138.833991,37.703624 138.833991,34.774984 C138.833991,32.604104 137.440685,31.313864 135.063868,30.781384 L132.215787,30.146504 C131.355215,29.962184 131.109338,29.552584 131.109338,28.999624 C131.109338,28.221384 131.826481,27.606984 132.953419,27.606984 C134.039379,27.606984 135.104848,28.241864 135.350726,29.532104 L138.670072,28.856264 C138.157828,26.357704 135.985909,24.883144 132.994399,24.883144 Z M156.680603,25.190344 L153.381746,25.190344 L148.771542,33.894344 L144.161338,25.190344 L140.841991,25.190344 L140.841991,38.911944 L144.120358,38.911944 L144.120358,31.559624 L147.99293,38.911944 L149.550154,38.911944 L153.402236,31.600584 L153.402236,38.911944 L156.680603,38.911944 L156.680603,25.190344 Z M165.901011,24.883144 C169.99897,24.883144 173.215868,28.057544 173.215868,32.071624 C173.215868,36.065224 169.99897,39.219144 165.901011,39.219144 C161.803052,39.219144 158.586154,36.065224 158.586154,32.071624 C158.586154,28.057544 161.803052,24.883144 165.901011,24.883144 Z M165.901011,36.126664 C168.134399,36.126664 169.835052,34.406344 169.835052,32.071624 C169.835052,29.716424 168.134399,27.975624 165.901011,27.975624 C163.667623,27.975624 161.96697,29.716424 161.96697,32.071624 C161.96697,34.406344 163.667623,36.126664 165.901011,36.126664 Z" id="Ir-a-BUENOSMO" fill="#FFFFFF"></path>
            <path d="M186.042481,28.139464 L186.042481,25.190344 L173.789583,25.190344 L173.789583,28.139464 L178.235868,28.139464 L178.235868,38.911944 L181.596195,38.911944 L181.596195,28.139464 L186.042481,28.139464 Z M191.021501,38.911944 L191.021501,25.190344 L187.640685,25.190344 L187.640685,38.911944 L191.021501,38.911944 Z M207.290399,25.190344 L203.561256,25.190344 L199.811623,34.283464 L196.082481,25.190344 L192.353338,25.190344 L198.19293,38.911944 L201.450807,38.911944 L207.290399,25.190344 Z" id="TIV" fill="#FFFFFF"></path>
            <path d="M214.564277,24.883144 C218.662236,24.883144 221.879134,28.057544 221.879134,32.071624 C221.879134,36.065224 218.662236,39.219144 214.564277,39.219144 C210.466317,39.219144 207.249419,36.065224 207.249419,32.071624 C207.249419,28.057544 210.466317,24.883144 214.564277,24.883144 Z M214.564277,36.126664 C216.797664,36.126664 218.498317,34.406344 218.498317,32.071624 C218.498317,29.716424 216.797664,27.975624 214.564277,27.975624 C212.330889,27.975624 210.630236,29.716424 210.630236,32.071624 C210.630236,34.406344 212.330889,36.126664 214.564277,36.126664 Z M229.173501,24.883144 C225.956603,24.883144 223.743705,26.542024 223.743705,29.204424 C223.743705,31.702984 225.464848,32.726984 227.431868,33.177544 L230.30044,33.791944 C231.28395,33.996744 231.570807,34.385864 231.570807,35.000264 C231.570807,35.839944 230.812685,36.413384 229.542317,36.413384 C228.169501,36.413384 227.185991,35.798984 226.837664,34.385864 L223.354399,35.061704 C223.723215,37.744584 226.26395,39.219144 229.357909,39.219144 C232.410889,39.219144 235.013093,37.703624 235.013093,34.774984 C235.013093,32.604104 233.619787,31.313864 231.24297,30.781384 L228.394889,30.146504 C227.534317,29.962184 227.28844,29.552584 227.28844,28.999624 C227.28844,28.221384 228.005583,27.606984 229.132521,27.606984 C230.218481,27.606984 231.28395,28.241864 231.529828,29.532104 L234.849174,28.856264 C234.33693,26.357704 232.165011,24.883144 229.173501,24.883144 Z" id="OS" fill="#FFFFFF"></path>
        </g>
    </g>
</svg>