<svg id="Capa_1" data-name="Capa 1" xmlns="http://www.w3.org/2000/svg" xmlns:xlink="http://www.w3.org/1999/xlink" viewBox="0 0 190 78"><defs><style>.cls-1,.cls-3{fill:none;}.cls-2{clip-path:url(#clip-path);}.cls-3{stroke:#070308;stroke-width:0.4px;}.cls-4{fill:url(#Zigzag_1);}.cls-5{fill:#070308;}</style><clipPath id="clip-path"><rect class="cls-1" width="75" height="40.8"/></clipPath><pattern id="Zigzag_1" data-name="Zigzag 1" width="75" height="40.8" patternTransform="translate(-527.53 111.89) scale(0.6)" patternUnits="userSpaceOnUse" viewBox="0 0 75 40.8"><rect class="cls-1" width="75" height="40.8"/><g class="cls-2"><polyline class="cls-3" points="76.84 42.64 75 40.8 67.5 48.3 60 40.8 52.5 48.3 45 40.8 37.5 48.3 30 40.8 22.5 48.3 15 40.8 7.5 48.3 0 40.8 -1.84 42.64"/><polyline class="cls-3" points="76.84 29.04 75 27.2 67.5 34.7 60 27.2 52.5 34.7 45 27.2 37.5 34.7 30 27.2 22.5 34.7 15 27.2 7.5 34.7 0 27.2 -1.84 29.04"/><polyline class="cls-3" points="76.84 15.44 75 13.6 67.5 21.1 60 13.6 52.5 21.1 45 13.6 37.5 21.1 30 13.6 22.5 21.1 15 13.6 7.5 21.1 0 13.6 -1.84 15.44"/><polyline class="cls-3" points="76.84 1.84 75 0 67.5 7.5 60 0 52.5 7.5 45 0 37.5 7.5 30 0 22.5 7.5 15 0 7.5 7.5 0 0 -1.84 1.84"/><polyline class="cls-3" points="76.84 35.84 75 34 67.5 41.5 60 34 52.5 41.5 45 34 37.5 41.5 30 34 22.5 41.5 15 34 7.5 41.5 0 34 -1.84 35.84"/><polyline class="cls-3" points="76.84 22.24 75 20.4 67.5 27.9 60 20.4 52.5 27.9 45 20.4 37.5 27.9 30 20.4 22.5 27.9 15 20.4 7.5 27.9 0 20.4 -1.84 22.24"/><polyline class="cls-3" points="76.84 8.64 75 6.8 67.5 14.3 60 6.8 52.5 14.3 45 6.8 37.5 14.3 30 6.8 22.5 14.3 15 6.8 7.5 14.3 0 6.8 -1.84 8.64"/><polyline class="cls-3" points="76.84 -4.96 75 -6.8 67.5 0.7 60 -6.8 52.5 0.7 45 -6.8 37.5 0.7 30 -6.8 22.5 0.7 15 -6.8 7.5 0.7 0 -6.8 -1.84 -4.96"/></g></pattern></defs><title>MARCOS DINAMICOS FINALES</title><path class="cls-4" d="M.46,60.37V-.21H190.33V60.37ZM177.28,12.84H13.52V47.32H177.28Z"/><path class="cls-5" d="M25.64,38.7H23.23V21.46h2.5c2.83,0,5,1.8,5,4.53,0,2-.85,3.33-2.46,3.85a4.05,4.05,0,0,1,2.88,4C31.12,36.79,29.07,38.7,25.64,38.7Zm.24-15.24h-.52V29h.59c1.77,0,2.62-1.33,2.62-3.05A2.66,2.66,0,0,0,25.88,23.46ZM26,31h-.66v5.64h.57c2.05,0,3-1.09,3-2.81A2.74,2.74,0,0,0,26,31Z"/><path class="cls-5" d="M38.74,39a4.7,4.7,0,0,1-4.61-4.68V21.46h2.15V33.67c0,2,.92,3.22,2.46,3.22s2.5-1.21,2.5-3.22V21.46h2.1V34.31A4.71,4.71,0,0,1,38.74,39Z"/><path class="cls-5" d="M47.13,38.7V21.46h6.73v2H49.25v5.77h4.32v2H49.25v5.46h4.82v2Z"/><path class="cls-5" d="M64.69,38.7,59.26,27.1s.07.78.07,1.13V38.7H57.2V21.46h1.65l5.43,11.69s-.07-.78-.07-1.13V21.46h2.13V38.7Z"/><path class="cls-5" d="M74.92,39c-4,0-5.39-5-5.39-9s1.37-8.83,5.39-8.83c4.3,0,5.39,4.72,5.39,8.83S79,39,74.92,39Zm0-15.71c-2.6,0-3.17,3.59-3.17,6.73,0,3,.57,6.88,3.17,6.88S78.09,33,78.09,30C78.09,26.87,77.59,23.28,74.92,23.28Z"/><path class="cls-5" d="M86.18,39a4.11,4.11,0,0,1-3.52-1.87l1.44-1.44a2.73,2.73,0,0,0,2.13,1.21c1.28,0,1.75-1,1.75-2.08,0-3.33-5.25-5.25-5.25-9.31a4.09,4.09,0,0,1,3.88-4.32,3.71,3.71,0,0,1,3.21,1.63l-1.49,1.37a2.28,2.28,0,0,0-1.72-.9c-1.18,0-1.7.94-1.7,2.1,0,2.9,5.24,4.84,5.24,9.28A4.05,4.05,0,0,1,86.18,39Z"/><path class="cls-5" d="M102.15,38.7V27.91a10.64,10.64,0,0,1,.09-1.14L99.2,34h-.94l-3-7.28a10.52,10.52,0,0,1,.1,1.14V38.7H93.18V21.46H95l3.35,8a7.88,7.88,0,0,1,.35,1.06s.19-.64.36-1.06l3.35-8h1.82V38.7Z"/><path class="cls-5" d="M112.86,39c-4,0-5.39-5-5.39-9s1.37-8.83,5.39-8.83c4.3,0,5.38,4.72,5.38,8.83S117,39,112.86,39Zm0-15.71c-2.6,0-3.17,3.59-3.17,6.73,0,3,.57,6.88,3.17,6.88S116,33,116,30C116,26.87,115.52,23.28,112.86,23.28Z"/><path class="cls-5" d="M125,23.46V38.7h-2.13V23.46H120.2v-2h7.51v2Z"/><path class="cls-5" d="M130.61,38.7V21.46h2.13V38.7Z"/><path class="cls-5" d="M141.54,38.7h-1.61l-4.42-17.24h2.2l2.69,10.87c.14.57.36,1.89.36,1.89s.21-1.32.35-1.89l2.69-10.87H146Z"/><path class="cls-5" d="M153,39c-4,0-5.38-5-5.38-9S149,21.17,153,21.17c4.3,0,5.38,4.72,5.38,8.83S157.11,39,153,39Zm0-15.71c-2.6,0-3.16,3.59-3.16,6.73,0,3,.57,6.88,3.16,6.88s3.16-3.9,3.16-6.88C156.16,26.87,155.67,23.28,153,23.28Z"/><path class="cls-5" d="M164.4,39a4.12,4.12,0,0,1-3.52-1.87l1.44-1.44a2.73,2.73,0,0,0,2.12,1.21c1.28,0,1.75-1,1.75-2.08,0-3.33-5.25-5.25-5.25-9.31a4.08,4.08,0,0,1,3.88-4.32A3.71,3.71,0,0,1,168,22.8l-1.49,1.37a2.28,2.28,0,0,0-1.72-.9c-1.18,0-1.7.94-1.7,2.1,0,2.9,5.25,4.84,5.25,9.28A4,4,0,0,1,164.4,39Z"/><path class="cls-5" d="M27.18,67.42v7h-.95v-7h-3v-.83h6.84v.83Z"/><path class="cls-5" d="M32.1,66.91a.6.6,0,0,1-.63.6.59.59,0,0,1-.62-.6.61.61,0,0,1,.62-.6A.62.62,0,0,1,32.1,66.91ZM31,74.45V68.66h.91v5.79Z"/><path class="cls-5" d="M39.29,71.73h-5a2.12,2.12,0,0,0,2.09,2.08,2,2,0,0,0,2-1.24l.81.19a2.81,2.81,0,0,1-2.79,1.84,3,3,0,0,1,.05-6.08,2.84,2.84,0,0,1,2.88,2.89Zm-5-.67h4.07a1.92,1.92,0,0,0-2-1.76A2.09,2.09,0,0,0,34.31,71.07Z"/><path class="cls-5" d="M46.19,71v3.46h-.9v-3.3a1.63,1.63,0,0,0-1.62-1.81c-1.22,0-2,.82-2,2.32v2.78h-.9V68.66h.9v1a2.52,2.52,0,0,1,2.21-1.1A2.28,2.28,0,0,1,46.19,71Z"/><path class="cls-5" d="M53.68,74.45h-.9v-.92a2.86,2.86,0,0,1-2.33,1.07,3,3,0,0,1,0-6.08,2.86,2.86,0,0,1,2.33,1.07V66h.9Zm-.9-2.89a2.2,2.2,0,0,0-2.18-2.25,2.25,2.25,0,0,0,0,4.49A2.19,2.19,0,0,0,52.78,71.56Z"/><path class="cls-5" d="M61.26,74.45h-.9v-.92A2.86,2.86,0,0,1,58,74.6a3,3,0,0,1,0-6.08,2.86,2.86,0,0,1,2.33,1.07v-.93h.9Zm-.9-2.89a2.2,2.2,0,0,0-2.18-2.25,2.25,2.25,0,0,0,0,4.49A2.19,2.19,0,0,0,60.36,71.56Z"/><path class="cls-5" d="M70.93,72.46l.83.22A2.76,2.76,0,0,1,69,74.6a3,3,0,1,1,0-6.08,2.82,2.82,0,0,1,2.78,1.93l-.86.26A1.92,1.92,0,0,0,69,69.34a2.13,2.13,0,0,0-2.17,2.22A2.11,2.11,0,0,0,69,73.76,1.93,1.93,0,0,0,70.93,72.46Z"/><path class="cls-5" d="M78.9,71.55a3.1,3.1,0,1,1-3.09-3A3,3,0,0,1,78.9,71.55Zm-.89,0a2.22,2.22,0,1,0-4.43,0,2.22,2.22,0,1,0,4.43,0Z"/><path class="cls-5" d="M85.8,71v3.46h-.9v-3.3a1.63,1.63,0,0,0-1.62-1.81c-1.23,0-2,.82-2,2.32v2.78h-.9V68.66h.9v1a2.52,2.52,0,0,1,2.21-1.1A2.28,2.28,0,0,1,85.8,71Z"/><path class="cls-5" d="M91.28,72.69c.08.76.8,1.17,1.72,1.17s1.4-.39,1.4-1-.37-.71-1-.83l-1.34-.29c-1-.2-1.52-.68-1.52-1.48,0-1,.88-1.75,2.21-1.75a2.22,2.22,0,0,1,2.39,1.61l-.86.19a1.41,1.41,0,0,0-1.54-1.07c-.83,0-1.3.4-1.3.95s.32.67.89.8l1.41.31c.85.19,1.51.63,1.51,1.51,0,1.14-1,1.79-2.36,1.79s-2.41-.59-2.55-1.72Z"/><path class="cls-5" d="M102.18,71.73h-5a2.13,2.13,0,0,0,2.09,2.08,2,2,0,0,0,2-1.24l.81.19a2.82,2.82,0,0,1-2.8,1.84,3,3,0,0,1,.06-6.08,2.83,2.83,0,0,1,2.87,2.89Zm-5-.67h4.07a1.93,1.93,0,0,0-2-1.76A2.09,2.09,0,0,0,97.19,71.07Z"/><path class="cls-5" d="M109.07,71v3.46h-.9v-3.3a1.63,1.63,0,0,0-1.62-1.81c-1.22,0-2,.82-2,2.32v2.78h-.9V68.66h.9v1a2.51,2.51,0,0,1,2.2-1.1A2.28,2.28,0,0,1,109.07,71Z"/><path class="cls-5" d="M114.38,74.14a2.23,2.23,0,0,1-1.35.46,1.79,1.79,0,0,1-1.93-2V69.41h-1.27v-.75h1.27V66.82H112v1.84h2.09v.75H112v3.17a1,1,0,0,0,1.08,1.17,1.82,1.82,0,0,0,1-.35Z"/><path class="cls-5" d="M116.57,66.91a.6.6,0,0,1-.63.6.59.59,0,0,1-.61-.6.61.61,0,0,1,.61-.6A.62.62,0,0,1,116.57,66.91Zm-1.08,7.53V68.66h.91v5.79Z"/><path class="cls-5" d="M124,74.45h-.9v-.92a2.87,2.87,0,0,1-2.33,1.07,3,3,0,0,1,0-6.08,2.86,2.86,0,0,1,2.33,1.07V66h.9Zm-.9-2.89a2.19,2.19,0,0,0-2.18-2.25,2.25,2.25,0,0,0,0,4.49A2.19,2.19,0,0,0,123.12,71.56Z"/><path class="cls-5" d="M131.69,71.55a3.1,3.1,0,1,1-3.1-3A3,3,0,0,1,131.69,71.55Zm-.89,0a2.22,2.22,0,1,0-4.44,0,2.22,2.22,0,1,0,4.44,0Z"/><path class="cls-5" d="M136.76,72.69c.09.76.8,1.17,1.72,1.17s1.4-.39,1.4-1-.37-.71-1-.83l-1.34-.29c-1-.2-1.51-.68-1.51-1.48,0-1,.88-1.75,2.21-1.75a2.22,2.22,0,0,1,2.39,1.61l-.87.19a1.4,1.4,0,0,0-1.54-1.07c-.83,0-1.29.4-1.29.95s.32.67.89.8l1.41.31c.85.19,1.51.63,1.51,1.51,0,1.14-1,1.79-2.36,1.79s-2.4-.59-2.55-1.72Z"/><path class="cls-5" d="M148,71.55a3.11,3.11,0,1,1-3.1-3A3,3,0,0,1,148,71.55Zm-.89,0a2.22,2.22,0,1,0-4.44,0,2.22,2.22,0,1,0,4.44,0Z"/><path class="cls-5" d="M154,72.46l.83.22A2.75,2.75,0,0,1,152,74.6a3,3,0,1,1,0-6.08,2.81,2.81,0,0,1,2.78,1.93l-.87.26A1.91,1.91,0,0,0,152,69.34a2.13,2.13,0,0,0-2.17,2.22A2.11,2.11,0,0,0,152,73.76,1.93,1.93,0,0,0,154,72.46Z"/><path class="cls-5" d="M157.32,66.91a.6.6,0,0,1-.63.6.59.59,0,0,1-.62-.6.61.61,0,0,1,.62-.6A.62.62,0,0,1,157.32,66.91Zm-1.08,7.53V68.66h.91v5.79Z"/><path class="cls-5" d="M164.74,74.45h-.9v-.92a2.85,2.85,0,0,1-2.33,1.07,3,3,0,0,1,0-6.08,2.85,2.85,0,0,1,2.33,1.07v-.93h.9Zm-.9-2.89a2.19,2.19,0,0,0-2.19-2.25,2.25,2.25,0,0,0,0,4.49A2.19,2.19,0,0,0,163.84,71.56Z"/><path class="cls-5" d="M166.62,74.45V66h.9v8.45Z"/></svg>